G04*
G04 #@! TF.GenerationSoftware,Altium Limited,Altium Designer,19.0.12 (326)*
G04*
G04 Layer_Physical_Order=1*
G04 Layer_Color=255*
%FSLAX24Y24*%
%MOIN*%
G70*
G01*
G75*
%ADD14C,0.0100*%
G04:AMPARAMS|DCode=17|XSize=85mil|YSize=85mil|CornerRadius=21.3mil|HoleSize=0mil|Usage=FLASHONLY|Rotation=0.000|XOffset=0mil|YOffset=0mil|HoleType=Round|Shape=RoundedRectangle|*
%AMROUNDEDRECTD17*
21,1,0.0850,0.0425,0,0,0.0*
21,1,0.0425,0.0850,0,0,0.0*
1,1,0.0425,0.0213,-0.0213*
1,1,0.0425,-0.0213,-0.0213*
1,1,0.0425,-0.0213,0.0213*
1,1,0.0425,0.0213,0.0213*
%
%ADD17ROUNDEDRECTD17*%
%ADD18R,0.0150X0.0433*%
%ADD19R,0.0091X0.0248*%
%ADD20R,0.0276X0.0354*%
%ADD21R,0.0150X0.0433*%
G04:AMPARAMS|DCode=22|XSize=25.6mil|YSize=21.7mil|CornerRadius=0mil|HoleSize=0mil|Usage=FLASHONLY|Rotation=45.000|XOffset=0mil|YOffset=0mil|HoleType=Round|Shape=Rectangle|*
%AMROTATEDRECTD22*
4,1,4,-0.0014,-0.0167,-0.0167,-0.0014,0.0014,0.0167,0.0167,0.0014,-0.0014,-0.0167,0.0*
%
%ADD22ROTATEDRECTD22*%

G04:AMPARAMS|DCode=23|XSize=25.6mil|YSize=21.7mil|CornerRadius=0mil|HoleSize=0mil|Usage=FLASHONLY|Rotation=315.000|XOffset=0mil|YOffset=0mil|HoleType=Round|Shape=Rectangle|*
%AMROTATEDRECTD23*
4,1,4,-0.0167,0.0014,-0.0014,0.0167,0.0167,-0.0014,0.0014,-0.0167,-0.0167,0.0014,0.0*
%
%ADD23ROTATEDRECTD23*%

%ADD24R,0.0354X0.0276*%
%ADD25R,0.0197X0.0118*%
%ADD26R,0.0512X0.0335*%
%ADD27R,0.0295X0.0157*%
%ADD28R,0.0118X0.0315*%
%ADD29R,0.0315X0.0118*%
%ADD30R,0.0413X0.0177*%
%ADD31R,0.0472X0.0551*%
%ADD32R,0.0433X0.0236*%
%ADD33R,0.0157X0.0295*%
%ADD34R,0.0295X0.0110*%
%ADD59R,0.1437X0.1372*%
%ADD64R,0.1339X0.1693*%
%ADD65R,0.0311X0.0094*%
%ADD66R,0.0094X0.0094*%
%ADD67C,0.0080*%
%ADD68C,0.0040*%
%ADD69C,0.0080*%
%ADD70C,0.0120*%
%ADD71C,0.0150*%
%ADD72C,0.0200*%
%ADD73C,0.0060*%
%ADD74C,0.0123*%
%ADD75C,0.0250*%
%ADD76C,0.0803*%
G04:AMPARAMS|DCode=77|XSize=137.8mil|YSize=90.6mil|CornerRadius=22.6mil|HoleSize=0mil|Usage=FLASHONLY|Rotation=90.000|XOffset=0mil|YOffset=0mil|HoleType=Round|Shape=RoundedRectangle|*
%AMROUNDEDRECTD77*
21,1,0.1378,0.0453,0,0,90.0*
21,1,0.0925,0.0906,0,0,90.0*
1,1,0.0453,0.0226,0.0463*
1,1,0.0453,0.0226,-0.0463*
1,1,0.0453,-0.0226,-0.0463*
1,1,0.0453,-0.0226,0.0463*
%
%ADD77ROUNDEDRECTD77*%
%ADD78C,0.0945*%
%ADD79C,0.0220*%
%ADD80C,0.0200*%
%ADD81C,0.0250*%
D14*
X379Y-2598D02*
X695D01*
X1230Y-559D02*
Y-300D01*
X379Y-2598D02*
X379Y-2598D01*
X3059Y-4026D02*
X3100D01*
X3665Y-30D02*
X3995D01*
X4104Y80D01*
X150Y-350D02*
X200Y-300D01*
X150Y-577D02*
Y-350D01*
X143Y-585D02*
X150Y-577D01*
X1230Y-559D02*
X1255Y-585D01*
X2769Y-3736D02*
X3059Y-4026D01*
X700Y-300D02*
Y-269D01*
X935Y-33D01*
X974D01*
X-3874Y400D02*
Y562D01*
X-4111Y799D02*
X-3874Y562D01*
Y396D02*
Y400D01*
X-4474Y1161D02*
X-4111Y799D01*
X-4575Y1161D02*
X-4474D01*
D17*
X2165Y-3248D02*
D03*
X-2274Y3898D02*
D03*
X4331Y-2165D02*
D03*
X3248D02*
D03*
Y-3250D02*
D03*
X-1191Y4980D02*
D03*
X-2274D02*
D03*
X4331Y-3250D02*
D03*
D18*
X-3255Y-4223D02*
D03*
X-1625D02*
D03*
D19*
X-2755Y-3743D02*
D03*
X-2598D02*
D03*
X-2440D02*
D03*
X-2283D02*
D03*
X-2125D02*
D03*
Y-4725D02*
D03*
X-2283D02*
D03*
X-2440D02*
D03*
X-2598D02*
D03*
X-2755D02*
D03*
X-325Y-2028D02*
D03*
Y-984D02*
D03*
X1407Y-2028D02*
D03*
Y-984D02*
D03*
X-167D02*
D03*
X-10D02*
D03*
X148D02*
D03*
X305D02*
D03*
X463D02*
D03*
X620D02*
D03*
X778D02*
D03*
X935D02*
D03*
X1093D02*
D03*
X1250D02*
D03*
Y-2028D02*
D03*
X1093D02*
D03*
X935D02*
D03*
X778D02*
D03*
X620D02*
D03*
X463D02*
D03*
X305D02*
D03*
X148D02*
D03*
X-10D02*
D03*
X-167D02*
D03*
D20*
X379Y-3100D02*
D03*
X-172D02*
D03*
Y-2598D02*
D03*
X379D02*
D03*
X-5001Y396D02*
D03*
X-5552D02*
D03*
X-2173Y-1341D02*
D03*
X-1622D02*
D03*
X-4426Y400D02*
D03*
X-3874D02*
D03*
X-2274Y396D02*
D03*
X-2825D02*
D03*
X-1417Y508D02*
D03*
X-866D02*
D03*
X-1417Y1049D02*
D03*
X-866D02*
D03*
X-1417Y1591D02*
D03*
X-866D02*
D03*
X-1417Y2132D02*
D03*
X-866D02*
D03*
X-1417Y2673D02*
D03*
X-866D02*
D03*
X3415Y3898D02*
D03*
X2864D02*
D03*
X3530Y1591D02*
D03*
X4081D02*
D03*
X3530Y1049D02*
D03*
X4081D02*
D03*
X-2173Y-807D02*
D03*
X-1622D02*
D03*
D21*
X1896Y-1506D02*
D03*
X-813D02*
D03*
D22*
X2199Y4639D02*
D03*
X1921Y4917D02*
D03*
X1350Y3789D02*
D03*
X1072Y4068D02*
D03*
D23*
X1900Y4367D02*
D03*
X1622Y4089D02*
D03*
D24*
X3789Y-3967D02*
D03*
Y-4518D02*
D03*
X-3850Y-177D02*
D03*
Y-729D02*
D03*
X-3797Y-1537D02*
D03*
Y-2089D02*
D03*
X4596Y1624D02*
D03*
Y1073D02*
D03*
X3140Y-33D02*
D03*
Y-585D02*
D03*
X2598D02*
D03*
Y-33D02*
D03*
X-1624Y-2549D02*
D03*
Y-1998D02*
D03*
X1516Y-585D02*
D03*
Y-33D02*
D03*
X974Y-585D02*
D03*
Y-33D02*
D03*
X433Y-585D02*
D03*
Y-33D02*
D03*
X-108Y-585D02*
D03*
Y-33D02*
D03*
X-3207Y-157D02*
D03*
Y-709D02*
D03*
X-2657Y-157D02*
D03*
Y-709D02*
D03*
D25*
X2096Y-4006D02*
D03*
X2490D02*
D03*
D26*
X3100D02*
D03*
Y-4675D02*
D03*
X-778Y-703D02*
D03*
Y-33D02*
D03*
D27*
X-4450Y-994D02*
D03*
Y-738D02*
D03*
Y-482D02*
D03*
Y-226D02*
D03*
X-5552Y-994D02*
D03*
Y-738D02*
D03*
Y-482D02*
D03*
Y-226D02*
D03*
D28*
X3809Y508D02*
D03*
X4006D02*
D03*
X4203D02*
D03*
X4400D02*
D03*
X4596D02*
D03*
Y-567D02*
D03*
X4400D02*
D03*
X4203D02*
D03*
X4006D02*
D03*
X3809D02*
D03*
D29*
X4740Y167D02*
D03*
Y-30D02*
D03*
Y-226D02*
D03*
X3665D02*
D03*
Y-30D02*
D03*
Y167D02*
D03*
D30*
X-2354Y1161D02*
D03*
X-2354Y1661D02*
D03*
Y2161D02*
D03*
X-2354Y2661D02*
D03*
X-4575Y1161D02*
D03*
X-4575Y1661D02*
D03*
Y2161D02*
D03*
X-4575Y2661D02*
D03*
D31*
X2923Y2274D02*
D03*
Y3140D02*
D03*
X3593D02*
D03*
Y2274D02*
D03*
D32*
X2923Y1709D02*
D03*
Y1157D02*
D03*
D33*
X-2439Y-1998D02*
D03*
X-2695Y-1998D02*
D03*
X-2951Y-1998D02*
D03*
X-3207Y-1998D02*
D03*
X-2439Y-3100D02*
D03*
X-2695D02*
D03*
X-2951D02*
D03*
X-3207D02*
D03*
D34*
Y-1144D02*
D03*
Y-1341D02*
D03*
Y-1537D02*
D03*
X-2754Y-1144D02*
D03*
Y-1341D02*
D03*
Y-1537D02*
D03*
D59*
X974Y1807D02*
D03*
D64*
X-3465Y1911D02*
D03*
D65*
X217Y2673D02*
D03*
D66*
X1841Y2024D02*
D03*
Y1807D02*
D03*
X1191Y941D02*
D03*
X541D02*
D03*
X108Y1591D02*
D03*
Y1807D02*
D03*
Y2240D02*
D03*
X541Y2673D02*
D03*
X758D02*
D03*
X974D02*
D03*
X1191D02*
D03*
X1407D02*
D03*
X1624D02*
D03*
X1841D02*
D03*
Y2457D02*
D03*
Y2240D02*
D03*
Y1591D02*
D03*
Y1374D02*
D03*
Y1157D02*
D03*
Y941D02*
D03*
X1624D02*
D03*
X1407D02*
D03*
X974D02*
D03*
X758D02*
D03*
X325D02*
D03*
X108D02*
D03*
Y1157D02*
D03*
Y1374D02*
D03*
Y2024D02*
D03*
Y2457D02*
D03*
X758Y724D02*
D03*
X108Y2890D02*
D03*
X-108Y941D02*
D03*
Y1157D02*
D03*
Y1374D02*
D03*
Y1591D02*
D03*
Y1807D02*
D03*
Y2024D02*
D03*
Y2240D02*
D03*
Y2457D02*
D03*
Y2673D02*
D03*
Y2890D02*
D03*
X108Y724D02*
D03*
X325D02*
D03*
X541D02*
D03*
X974D02*
D03*
X1191D02*
D03*
X1407D02*
D03*
X1624D02*
D03*
X1841D02*
D03*
X2057D02*
D03*
Y941D02*
D03*
Y1157D02*
D03*
Y1374D02*
D03*
Y1591D02*
D03*
Y1807D02*
D03*
Y2024D02*
D03*
Y2240D02*
D03*
Y2457D02*
D03*
Y2673D02*
D03*
Y2890D02*
D03*
X1841D02*
D03*
X1624D02*
D03*
X974D02*
D03*
X758D02*
D03*
X541D02*
D03*
X325D02*
D03*
D67*
X-1638Y-4641D02*
X-1220Y-4222D01*
X-2120Y-4641D02*
X-1638D01*
X-2125Y-4646D02*
X-2120Y-4641D01*
X-2125Y-4725D02*
Y-4646D01*
X-1220Y-4222D02*
X-350D01*
X-2274Y-4366D02*
X-1697Y-3789D01*
X-2274Y-4512D02*
Y-4366D01*
X1402Y-1115D02*
Y-990D01*
X1252Y-2118D02*
Y-2029D01*
X-266Y-1250D02*
Y-1237D01*
X1402Y-990D02*
X1407Y-984D01*
X1250Y-2028D02*
X1252Y-2029D01*
X-266Y-1237D02*
X-173Y-1143D01*
X1255Y-1174D02*
X1299Y-1218D01*
X1252Y-2118D02*
X1407Y-2274D01*
X-190Y-2251D02*
X-172Y-2269D01*
X-173Y-1143D02*
Y-990D01*
X1255Y-1174D02*
Y-990D01*
X-296Y-2251D02*
X-190D01*
X-173Y-990D02*
X-167Y-984D01*
X1250D02*
X1255Y-990D01*
X-325Y-2222D02*
X-296Y-2251D01*
X1407Y-2274D02*
X1407Y-2274D01*
X-320Y-1164D02*
Y-990D01*
X-325Y-2222D02*
Y-2028D01*
X1407Y-2274D02*
Y-2028D01*
X-325Y-984D02*
X-320Y-990D01*
X-172Y-2269D02*
Y-2032D01*
X1299Y-1218D02*
X1402Y-1115D01*
X1407Y-2028D02*
X1407Y-2028D01*
X-172Y-2032D02*
X-167Y-2028D01*
X2509Y56D02*
Y672D01*
X2240Y941D02*
X2509Y672D01*
X2057Y941D02*
X2240D01*
X2509Y56D02*
X2598Y-33D01*
X3124Y781D02*
X3866D01*
X3726Y921D02*
X3866Y781D01*
X3627Y921D02*
X3726D01*
X3530Y1019D02*
X3627Y921D01*
X2057Y724D02*
X2274Y508D01*
Y-137D02*
Y508D01*
X3866Y781D02*
X4006Y641D01*
X-1697Y-3789D02*
X693D01*
X2274Y-2209D01*
Y-137D01*
X-2283Y-3381D02*
X-1697Y-2795D01*
X-1156D01*
X-2283Y-3743D02*
Y-3381D01*
X-2592Y-3925D02*
X-2551Y-3967D01*
X-2592Y-3925D02*
Y-3749D01*
X-2551Y-3967D02*
X-2330D01*
X-1156Y-2795D02*
X-708Y-2348D01*
Y-1949D01*
X-753Y80D02*
X108Y941D01*
X-433Y183D02*
X108Y724D01*
X-433Y-447D02*
Y183D01*
X-266Y-1507D02*
Y-1250D01*
X-708Y-1949D02*
X-266Y-1507D01*
X-2330Y-3967D02*
X-2288Y-3925D01*
Y-3749D01*
X-2283Y-3743D01*
X-2598D02*
X-2592Y-3749D01*
X-753Y-33D02*
Y80D01*
X-778Y-33D02*
X-753D01*
X-172Y-3100D02*
Y-2598D01*
Y-2269D01*
X3593Y2348D02*
Y2357D01*
X3277Y2673D02*
X3593Y2357D01*
X2057Y2673D02*
X3277D01*
X2923Y3140D02*
Y3215D01*
Y3113D02*
Y3140D01*
X2700Y2890D02*
X2923Y3113D01*
X2057Y2890D02*
X2700D01*
X938Y42D02*
X1050D01*
X2232Y-5089D02*
X2490Y-4831D01*
X1300Y172D02*
Y200D01*
Y172D02*
X1379Y93D01*
Y64D02*
Y93D01*
Y64D02*
X1476Y-33D01*
X1516D01*
X980Y534D02*
X1245Y270D01*
X1300Y200D02*
Y215D01*
X2274Y-137D02*
X2462Y-325D01*
X1555Y-585D02*
X1653Y-682D01*
Y-1083D02*
Y-682D01*
X1516Y-585D02*
X1555D01*
X296Y-487D02*
X394Y-585D01*
X433D01*
X974D02*
X995D01*
X1093Y-682D01*
Y-984D02*
Y-682D01*
X935Y-624D02*
X974Y-585D01*
X935Y-984D02*
Y-624D01*
X2490Y-4831D02*
Y-4776D01*
X2117Y3150D02*
X2864Y3898D01*
X1732Y3150D02*
X2117D01*
X2490Y-4776D02*
Y-4006D01*
X938Y42D02*
Y407D01*
X860Y485D02*
X938Y407D01*
X860Y485D02*
Y619D01*
X980Y534D02*
Y719D01*
X974Y724D02*
X980Y719D01*
X974Y-33D02*
X1050Y42D01*
X-3562Y71D02*
Y238D01*
X-3811Y-177D02*
X-3562Y71D01*
Y238D02*
X-3550Y250D01*
X-3850Y-177D02*
X-3811D01*
X3792Y-550D02*
X3809Y-567D01*
X3600Y-550D02*
X3792D01*
X-1506Y3350D02*
X-1504D01*
X4439Y80D02*
Y196D01*
Y-226D02*
Y80D01*
X-1504Y3350D02*
X-866Y2713D01*
Y2673D02*
Y2713D01*
X-3150Y396D02*
X-2825D01*
X1841Y528D02*
X1900Y469D01*
X1841Y528D02*
Y724D01*
X-2322Y1161D02*
X-2274Y1113D01*
Y396D02*
Y1113D01*
X4596Y508D02*
Y1073D01*
X4081Y1049D02*
X4104Y1073D01*
X4596D01*
X4081Y1049D02*
Y1591D01*
X4006Y508D02*
Y641D01*
X3530Y1019D02*
Y1049D01*
X4596Y353D02*
Y508D01*
X4439Y196D02*
X4596Y353D01*
X4439Y-226D02*
X4740D01*
X3665D02*
X4439D01*
X3518Y-245D02*
X3646D01*
X3179Y-585D02*
X3518Y-245D01*
X3140Y-585D02*
X3179D01*
X3646Y-245D02*
X3665Y-226D01*
X2809Y-325D02*
X3100Y-33D01*
X2462Y-325D02*
X2809D01*
X3380Y167D02*
X3665D01*
X3179Y-33D02*
X3380Y167D01*
X3140Y-33D02*
X3179D01*
X3100D02*
X3140D01*
X-689Y-703D02*
X-433Y-447D01*
X-778Y-703D02*
X-689D01*
X1624Y542D02*
Y724D01*
X541Y550D02*
Y724D01*
X325Y941D02*
X541Y724D01*
X-3070Y-828D02*
X-2754Y-1144D01*
X-3070Y-828D02*
Y-806D01*
X-3167Y-709D02*
X-3070Y-806D01*
X-3207Y-709D02*
X-3167D01*
X-2649Y-412D02*
X-2074D01*
X-3399D02*
X-2649D01*
X-2657Y-420D02*
X-2649Y-412D01*
X-2657Y-709D02*
Y-420D01*
X-3499Y-1206D02*
X-3379Y-1325D01*
X-3499Y-1206D02*
Y-512D01*
X-3399Y-412D01*
X-2074D02*
X-1899Y-587D01*
X-3379Y-1325D02*
X-3222D01*
X-3207Y-1341D01*
X-2173D02*
Y-807D01*
X-2754Y-1341D02*
X-2173D01*
X-2695Y-1998D02*
Y-1908D01*
X-2431Y-1644D01*
X-1973D01*
X-1899Y-1570D01*
Y-587D01*
X-2951Y-1998D02*
Y-1734D01*
X-2860Y-1644D01*
X-2860Y-1553D02*
X-2860Y-1644D01*
X-2860Y-1553D02*
X-2845Y-1537D01*
X-2754Y-1537D01*
X-3797D02*
X-3207D01*
Y-1998D02*
Y-1537D01*
D68*
X935Y-2028D02*
Y-1762D01*
X768Y-2274D02*
X773Y-2269D01*
X1093Y-2274D02*
Y-2028D01*
X433Y-1762D02*
X463Y-1792D01*
Y-2028D02*
Y-1792D01*
X773Y-2269D02*
Y-2032D01*
X778Y-2028D01*
X-2598Y-4980D02*
X-2598Y-4980D01*
Y-4725D01*
X-2598Y-4725D01*
X-1299Y42D02*
X-1228D01*
X-1026Y243D01*
X-731D01*
X-458Y516D01*
Y591D01*
X-108Y941D01*
X-0Y1049D02*
X108Y1157D01*
X-551Y1049D02*
X-0D01*
X9Y1265D02*
X81Y1337D01*
X-685Y1265D02*
X9D01*
X-4950Y2150D02*
X-4411D01*
X-4950Y2650D02*
X-4411D01*
X-4950Y1650D02*
X-4411D01*
X-758Y941D02*
Y1192D01*
X66Y3148D02*
X325Y2890D01*
X66Y3148D02*
Y3150D01*
X-177Y3115D02*
Y3150D01*
Y3115D02*
X-108Y3047D01*
Y2890D02*
Y3047D01*
X-913Y4439D02*
X433Y3093D01*
X-880Y4519D02*
X541Y3098D01*
X217Y3556D02*
X651Y3122D01*
X550Y3340D02*
Y3573D01*
Y3340D02*
X974Y2915D01*
X-881Y4519D02*
X-880D01*
X541Y2890D02*
Y3098D01*
X-1732Y4439D02*
X-913D01*
X433Y2781D02*
Y3093D01*
X325Y596D02*
Y724D01*
X161Y433D02*
X325Y596D01*
X651Y2781D02*
Y3122D01*
X974Y2890D02*
Y2915D01*
X217Y3556D02*
Y3657D01*
X-1191Y4829D02*
X-881Y4519D01*
X-1191Y4829D02*
Y4980D01*
X1236Y500D02*
X1319D01*
X1084Y652D02*
X1236Y500D01*
X866Y541D02*
Y866D01*
X1084Y652D02*
Y832D01*
X974Y941D02*
X1084Y832D01*
X-2274Y4980D02*
X-1732Y4439D01*
X-350Y1550D02*
X-307D01*
X-674Y1374D02*
X-108D01*
X-548Y1916D02*
X1D01*
X-450Y2093D02*
X-381Y2024D01*
X-650Y2018D02*
Y2387D01*
X-546Y1738D02*
X-177D01*
X-550D02*
X-546D01*
X-650Y2018D02*
X-548Y1916D01*
X-323Y2240D02*
X-108D01*
X-433Y2350D02*
X-323Y2240D01*
X2283Y2133D02*
X2300Y2150D01*
X1948Y2133D02*
X2283D01*
X1841Y2240D02*
X1948Y2133D01*
X-668Y745D02*
Y932D01*
X-866Y547D02*
X-668Y745D01*
Y932D02*
X-551Y1049D01*
X-758Y1192D02*
X-685Y1265D01*
X1732Y2782D02*
Y3150D01*
X433Y2781D02*
X541Y2673D01*
X651Y2781D02*
X731Y2701D01*
Y2700D02*
Y2701D01*
Y2700D02*
X758Y2673D01*
X-866Y2055D02*
X-550Y1738D01*
X-177D02*
X-108Y1807D01*
X-866Y2055D02*
Y2132D01*
X-307Y1550D02*
X-266Y1591D01*
X-108D01*
X-866Y1566D02*
X-674Y1374D01*
X-866Y1566D02*
Y1591D01*
X-4411Y2650D02*
X-4400Y2661D01*
X-4411Y2150D02*
X-4400Y2161D01*
X-4411Y1650D02*
X-4400Y1661D01*
X-390Y2917D02*
Y3340D01*
X-400Y3350D02*
X-390Y3340D01*
X-4575Y1661D02*
X-4400D01*
X-4575Y2161D02*
X-4400D01*
X-4575Y2661D02*
X-4400D01*
X-2000Y1898D02*
Y1916D01*
X-2236Y1661D02*
X-2000Y1898D01*
X-2322Y1161D02*
X-2236D01*
X-2354D02*
X-2322D01*
X-2168Y1232D02*
X-2000Y1400D01*
X-2168Y1230D02*
Y1232D01*
X-2236Y1161D02*
X-2168Y1230D01*
X-2354Y1661D02*
X-2236D01*
X-2168Y2232D02*
X-2000Y2400D01*
X-2168Y2230D02*
Y2232D01*
X-2236Y2161D02*
X-2168Y2230D01*
X-2354Y2161D02*
X-2236D01*
X-390Y2917D02*
X-174Y2700D01*
X-136D01*
X-108Y2673D01*
X-550Y2900D02*
X-214Y2564D01*
X-280Y2457D02*
X-108D01*
X-400Y2577D02*
X-280Y2457D01*
X-520Y2577D02*
X-400D01*
X-214Y2564D02*
X-14D01*
X66Y2484D01*
X81D01*
X108Y2457D01*
X-546Y2603D02*
X-520Y2577D01*
X-450Y2350D02*
X-433D01*
X-866Y2603D02*
X-650Y2387D01*
X-381Y2024D02*
X-108D01*
X3248Y1366D02*
Y1810D01*
X3146Y1911D02*
X3248Y1810D01*
X2669Y1911D02*
X3146D01*
X1624Y2673D02*
X1732Y2782D01*
X-866Y2603D02*
Y2673D01*
X1Y1916D02*
X108Y2024D01*
X-866Y1049D02*
X-758Y941D01*
X81Y1337D02*
Y1347D01*
X108Y1374D01*
X-866Y508D02*
Y547D01*
X3248Y1366D02*
X3530Y1084D01*
Y1049D02*
Y1084D01*
X2458Y1700D02*
X2669Y1911D01*
X1985Y1700D02*
X2458D01*
X1984Y1701D02*
X1985Y1700D01*
X1951Y1701D02*
X1984D01*
X1841Y1591D02*
X1951Y1701D01*
X1950Y1483D02*
X2698D01*
X2769Y1554D01*
Y1611D01*
X2867Y1709D01*
X2923D01*
X1841Y1374D02*
X1950Y1483D01*
X2707Y1374D02*
X2769Y1312D01*
Y1256D02*
Y1312D01*
Y1256D02*
X2867Y1157D01*
X2923D01*
X2057Y1374D02*
X2707D01*
X819Y914D02*
X866Y866D01*
X785Y914D02*
X819D01*
X758Y941D02*
X785Y914D01*
D69*
X-2283Y-4725D02*
X-2274Y-4439D01*
X2923Y866D02*
X3124Y781D01*
D70*
X-2528Y-3362D02*
X-2458Y-3292D01*
Y-3119D01*
X-2699Y-3362D02*
X-2528Y-3362D01*
X-5640Y-245D02*
Y-226D01*
X-5000Y397D02*
Y750D01*
X-5001Y396D02*
X-5000Y397D01*
X-4174Y-226D02*
X-3899D01*
X-4450D02*
X-4174D01*
X-4221Y-726D02*
X-4174Y-680D01*
X-4438Y-726D02*
X-4221D01*
X-4450Y-738D02*
X-4438Y-726D01*
X-4174Y-680D02*
Y-226D01*
X-3899D02*
X-3850Y-177D01*
X-5552Y-226D02*
Y396D01*
X-5864Y-226D02*
X-5640D01*
X-5900Y-263D02*
X-5864Y-226D01*
X-5900Y-500D02*
Y-263D01*
Y-722D02*
Y-500D01*
Y-944D02*
Y-722D01*
X-5884Y-738D01*
X-5552D01*
X-5900Y-500D02*
X-5882Y-482D01*
X-5552D01*
X-5850Y-994D02*
X-5552D01*
X-5900Y-944D02*
X-5850Y-994D01*
X-5640Y-245D02*
X-5621Y-226D01*
X-5552D01*
X-2949Y-3362D02*
X-2699Y-3362D01*
X-2695Y-3358D01*
Y-3100D01*
X-3118Y-3362D02*
X-2949Y-3362D01*
X-2951Y-3361D02*
X-2949Y-3362D01*
X-2951Y-3361D02*
Y-3100D01*
X-3188Y-3292D02*
X-3118Y-3362D01*
X-2458Y-3119D02*
X-2439Y-3100D01*
X-3188Y-3292D02*
X-3188Y-3119D01*
X-3207Y-3100D02*
X-3188Y-3119D01*
D71*
X-150Y-300D02*
X-140Y-290D01*
X1255Y-585D02*
X1516D01*
X995D02*
X1255D01*
X143D02*
X394D01*
X-108D02*
X143D01*
X-140Y-290D02*
Y-66D01*
X433Y-585D02*
X974D01*
X3750Y-4006D02*
X3789Y-3967D01*
X3100Y-4006D02*
X3750D01*
X3008Y-3914D02*
X3100Y-4006D01*
X-2951Y-2361D02*
X-2432D01*
X-2431Y-2362D01*
X-3525Y-2361D02*
X-2951D01*
X-3695Y-2191D02*
X-3525Y-2361D01*
X-2951D02*
Y-1998D01*
X-3695Y-2191D02*
Y-2151D01*
X-3758Y-2089D02*
X-3695Y-2151D01*
X-3797Y-2089D02*
X-3758D01*
X-140Y-66D02*
X-108Y-33D01*
X-1650Y-512D02*
X-1640Y-522D01*
Y-789D02*
Y-522D01*
Y-789D02*
X-1622Y-807D01*
X410Y-57D02*
X433Y-33D01*
X535Y29D02*
Y544D01*
X-108Y-33D02*
X433D01*
X472D02*
X535Y29D01*
X433Y-33D02*
X472D01*
X-2439Y-1998D02*
X-2249Y-1998D01*
D72*
X-1299Y-1762D02*
Y-470D01*
X-1535Y-1998D02*
X-1299Y-1762D01*
X-3207Y-157D02*
X-1612D01*
X-1624Y-1998D02*
X-1535D01*
X-2249Y-1998D02*
X-1624Y-1998D01*
X-1650Y-1650D02*
Y-1369D01*
X-1622Y-1341D01*
X-1612Y-157D02*
X-1299Y-470D01*
D73*
X1407Y2240D02*
X1624Y2024D01*
X286Y2463D02*
Y2673D01*
X974Y1807D02*
X1841D01*
X974D02*
X974D01*
X2800Y-2800D02*
X3248Y-3248D01*
X4331Y-2165D02*
Y-2067D01*
X3950Y-1644D02*
X3977Y-1670D01*
Y-1713D02*
Y-1670D01*
Y-1713D02*
X4331Y-2067D01*
X2850Y-1682D02*
Y-1644D01*
Y-1682D02*
X3248Y-2080D01*
Y-2165D02*
Y-2080D01*
X744Y346D02*
X758Y333D01*
X744Y346D02*
Y711D01*
X758Y724D01*
X4200Y-850D02*
X4201Y-849D01*
Y-568D01*
X4203Y-567D01*
X1191Y941D02*
Y1591D01*
Y941D02*
X1407D01*
X1191D02*
X1191D01*
X974Y1807D02*
X974Y2673D01*
X1624Y2024D02*
X1841D01*
X974Y1807D02*
X1191Y1591D01*
X758D02*
X974Y1807D01*
X541Y1374D02*
X758Y1591D01*
X541Y941D02*
Y1374D01*
X108Y1591D02*
X758D01*
X108Y1807D02*
X974D01*
X286Y2463D02*
X509Y2240D01*
X541D01*
X108D02*
X509D01*
X541D02*
X974Y1807D01*
X974D02*
X1407Y2240D01*
Y2673D01*
D74*
X3232Y5438D02*
X3300Y5506D01*
X2999Y5438D02*
X3232D01*
X2199Y4639D02*
X2999Y5438D01*
X1900Y4367D02*
X1928D01*
X2199Y4639D01*
X1622Y4061D02*
Y4089D01*
X1350Y3789D02*
X1622Y4061D01*
X1350Y3771D02*
Y3789D01*
X1191Y3612D02*
X1350Y3771D01*
X1191Y2673D02*
Y3612D01*
D75*
X2490Y-4776D02*
X2552Y-4713D01*
X3063D02*
X3100Y-4675D01*
X2552Y-4713D02*
X3063D01*
D76*
X3346Y5568D02*
D03*
D77*
X1230Y-5060D02*
D03*
X2230D02*
D03*
D78*
X-3740Y4331D02*
D03*
X-108Y-5089D02*
D03*
D79*
X1407Y2240D02*
D03*
X541D02*
D03*
Y1374D02*
D03*
X1407D02*
D03*
D80*
X-1650Y-512D02*
D03*
X2165Y-3248D02*
D03*
X-1650Y-1650D02*
D03*
X-2431Y-2362D02*
D03*
X-150Y-300D02*
D03*
X2923Y866D02*
D03*
X935Y-1762D02*
D03*
X768Y-2274D02*
D03*
X695Y-2598D02*
D03*
X1093Y-2274D02*
D03*
X1230Y-300D02*
D03*
X-350Y-4222D02*
D03*
X433Y-1762D02*
D03*
X-266Y-1250D02*
D03*
X1407Y-2274D02*
D03*
X1299Y-1250D02*
D03*
X3248Y575D02*
D03*
X2490Y433D02*
D03*
X-2598Y-4980D02*
D03*
X-1299Y42D02*
D03*
X4104Y80D02*
D03*
X66Y3150D02*
D03*
X-177D02*
D03*
X1300Y200D02*
D03*
X161Y433D02*
D03*
X200Y-300D02*
D03*
X1624Y542D02*
D03*
X-1612Y-157D02*
D03*
X1653Y-1083D02*
D03*
X2769Y-3736D02*
D03*
X2046Y3878D02*
D03*
X3839Y4364D02*
D03*
X3511Y4277D02*
D03*
X3171Y4279D02*
D03*
X2843Y4368D02*
D03*
X2074Y5291D02*
D03*
X2046Y5630D02*
D03*
X4134Y4533D02*
D03*
X974Y3190D02*
D03*
X1438Y3140D02*
D03*
X1622Y4727D02*
D03*
X2297Y4127D02*
D03*
X2509Y4339D02*
D03*
X1355Y4459D02*
D03*
X827Y3739D02*
D03*
X805Y3440D02*
D03*
X1598Y3428D02*
D03*
X1803Y3647D02*
D03*
X550Y3573D02*
D03*
X217Y3657D02*
D03*
X2800Y-2800D02*
D03*
X700Y-300D02*
D03*
X3950Y-1644D02*
D03*
X2850D02*
D03*
X1319Y500D02*
D03*
X758Y333D02*
D03*
X-3550Y250D02*
D03*
X-350Y1550D02*
D03*
X-450Y2093D02*
D03*
X-546Y1738D02*
D03*
X2300Y2150D02*
D03*
X-5000Y750D02*
D03*
X3600Y-550D02*
D03*
X-1506Y3350D02*
D03*
X-3150Y396D02*
D03*
X-4111Y799D02*
D03*
X4200Y-850D02*
D03*
X4439Y80D02*
D03*
X1732Y3150D02*
D03*
X1900Y469D02*
D03*
X-4950Y2650D02*
D03*
Y2150D02*
D03*
Y1650D02*
D03*
X-400Y3350D02*
D03*
X-2000Y1400D02*
D03*
Y1916D02*
D03*
Y2400D02*
D03*
X-550Y2900D02*
D03*
X-450Y2350D02*
D03*
X-546Y2603D02*
D03*
D81*
X-1612Y-3000D02*
D03*
X-1200Y-2549D02*
D03*
X5650Y2500D02*
D03*
Y1000D02*
D03*
X6025Y250D02*
D03*
X5650Y-500D02*
D03*
X6025Y-1250D02*
D03*
X5650Y-2000D02*
D03*
X5275Y3250D02*
D03*
X4900Y2500D02*
D03*
X5275Y1750D02*
D03*
Y250D02*
D03*
X4900Y-500D02*
D03*
X5275Y-1250D02*
D03*
X4150Y4000D02*
D03*
X4525Y3250D02*
D03*
X4150Y2500D02*
D03*
X4525Y-1250D02*
D03*
Y-4250D02*
D03*
X3775Y-1250D02*
D03*
Y-2750D02*
D03*
X775Y4750D02*
D03*
X400Y4000D02*
D03*
X25Y4750D02*
D03*
X-1100Y4000D02*
D03*
Y-2000D02*
D03*
Y-3500D02*
D03*
Y-5000D02*
D03*
X-2225Y-2750D02*
D03*
X-2975Y4750D02*
D03*
Y3250D02*
D03*
X-3350Y-5000D02*
D03*
X-3725Y3250D02*
D03*
Y-4250D02*
D03*
X-4475Y3250D02*
D03*
X-4850Y-500D02*
D03*
Y-2000D02*
D03*
Y-3500D02*
D03*
X-4475Y-4250D02*
D03*
X-5225Y3250D02*
D03*
X-5600Y2500D02*
D03*
X-5225Y1750D02*
D03*
X-5600Y1000D02*
D03*
X-5225Y-1250D02*
D03*
X-5600Y-2000D02*
D03*
X-5225Y-2750D02*
D03*
M02*
