G04*
G04 #@! TF.GenerationSoftware,Altium Limited,Altium Designer,19.0.12 (326)*
G04*
G04 Layer_Physical_Order=3*
G04 Layer_Color=16440176*
%FSLAX24Y24*%
%MOIN*%
G70*
G01*
G75*
%ADD14C,0.0100*%
%ADD67C,0.0080*%
%ADD68C,0.0040*%
%ADD80C,0.0200*%
D14*
X695Y-2598D02*
X1552D01*
X1900Y-2250D01*
Y469D01*
D67*
X2669Y866D02*
X2923D01*
X-350Y-4222D02*
X-187D01*
X-79Y-4114D02*
X220D01*
X-187Y-4222D02*
X-79Y-4114D01*
X220D02*
X2080Y-2254D01*
Y277D02*
X2669Y866D01*
X2080Y-2254D02*
Y277D01*
X2490Y-2490D02*
Y433D01*
Y-2490D02*
X2800Y-2800D01*
D68*
X935Y-1762D02*
Y564D01*
X161Y-2274D02*
X768D01*
X207Y-2057D02*
X876D01*
X1093Y-2274D01*
X-2598Y-4980D02*
Y-4439D01*
X-2000Y-3841D01*
Y-2750D01*
X-1299Y-2049D01*
Y42D01*
X66Y816D02*
Y3150D01*
X-500Y250D02*
X66Y816D01*
X-1250Y3150D02*
X-177D01*
X217Y3397D02*
X870Y2743D01*
Y870D02*
Y2743D01*
X217Y3397D02*
Y3657D01*
X1102Y731D02*
Y2780D01*
X935Y564D02*
X1102Y731D01*
X550Y3573D02*
X615Y3508D01*
Y3268D02*
Y3508D01*
Y3268D02*
X1102Y2780D01*
X433Y433D02*
X870Y870D01*
X433Y-1762D02*
Y433D01*
X-1000Y-1112D02*
X161Y-2274D01*
X-1000Y-1112D02*
Y900D01*
X-500Y-1350D02*
X207Y-2057D01*
X-500Y-1350D02*
Y250D01*
X-1000Y900D02*
X-350Y1550D01*
X-1307Y2093D02*
X-450D01*
X-1950Y2650D02*
X-1250Y3350D01*
X-4950Y2650D02*
X-1950D01*
X-4950Y2150D02*
X-2000D01*
X-4950Y1650D02*
X-2000D01*
X-1250Y3350D02*
X-400D01*
X-2000Y1400D02*
X-1307Y2093D01*
X-1300Y2350D02*
X-450D01*
X-2000Y1650D02*
X-1300Y2350D01*
X-1250Y2900D02*
X-550D01*
X-2000Y2150D02*
X-1250Y2900D01*
X-1313Y2603D02*
X-546D01*
X-2000Y1916D02*
X-1313Y2603D01*
X-2000Y2400D02*
X-1250Y3150D01*
D80*
X2923Y866D02*
D03*
X935Y-1762D02*
D03*
X768Y-2274D02*
D03*
X695Y-2598D02*
D03*
X1093Y-2274D02*
D03*
X-350Y-4222D02*
D03*
X433Y-1762D02*
D03*
X2490Y433D02*
D03*
X-2598Y-4980D02*
D03*
X-1299Y42D02*
D03*
X66Y3150D02*
D03*
X-177D02*
D03*
X550Y3573D02*
D03*
X217Y3657D02*
D03*
X2800Y-2800D02*
D03*
X-350Y1550D02*
D03*
X-450Y2093D02*
D03*
X1900Y469D02*
D03*
X-4950Y2650D02*
D03*
Y2150D02*
D03*
Y1650D02*
D03*
X-400Y3350D02*
D03*
X-2000Y1400D02*
D03*
Y1916D02*
D03*
Y2400D02*
D03*
X-550Y2900D02*
D03*
X-450Y2350D02*
D03*
X-546Y2603D02*
D03*
M02*
