G04*
G04 #@! TF.GenerationSoftware,Altium Limited,Altium Designer,20.0.11 (256)*
G04*
G04 Layer_Color=32896*
%FSLAX24Y24*%
%MOIN*%
G70*
G01*
G75*
%ADD11C,0.0039*%
%ADD15C,0.0010*%
%ADD86C,0.0010*%
G36*
X2842Y4253D02*
X2848Y4252D01*
X2854Y4251D01*
X2859Y4250D01*
X2865Y4248D01*
X2869Y4247D01*
X2874Y4245D01*
X2877Y4244D01*
X2881Y4242D01*
X2884Y4240D01*
X2887Y4238D01*
X2889Y4237D01*
X2890Y4236D01*
X2892Y4235D01*
X2892Y4234D01*
X2893Y4234D01*
X2896Y4230D01*
X2900Y4226D01*
X2903Y4222D01*
X2905Y4218D01*
X2908Y4213D01*
X2910Y4209D01*
X2912Y4204D01*
X2913Y4200D01*
X2914Y4196D01*
X2915Y4192D01*
X2916Y4189D01*
X2916Y4186D01*
X2917Y4183D01*
X2917Y4182D01*
X2917Y4180D01*
Y4180D01*
X2886Y4177D01*
X2885Y4181D01*
X2885Y4185D01*
X2883Y4192D01*
X2881Y4199D01*
X2880Y4201D01*
X2879Y4204D01*
X2878Y4206D01*
X2876Y4208D01*
X2875Y4210D01*
X2874Y4211D01*
X2873Y4212D01*
X2873Y4213D01*
X2872Y4213D01*
X2872Y4213D01*
X2869Y4216D01*
X2867Y4218D01*
X2864Y4220D01*
X2861Y4221D01*
X2855Y4224D01*
X2849Y4225D01*
X2844Y4226D01*
X2842Y4227D01*
X2840D01*
X2838Y4227D01*
X2832D01*
X2829Y4227D01*
X2822Y4225D01*
X2816Y4223D01*
X2811Y4221D01*
X2807Y4218D01*
X2805Y4217D01*
X2804Y4216D01*
X2803Y4215D01*
X2802Y4215D01*
X2802Y4215D01*
X2801Y4214D01*
X2799Y4212D01*
X2797Y4209D01*
X2795Y4207D01*
X2794Y4204D01*
X2791Y4199D01*
X2790Y4194D01*
X2789Y4190D01*
X2788Y4188D01*
Y4186D01*
X2788Y4185D01*
Y4184D01*
Y4184D01*
Y4183D01*
X2788Y4180D01*
X2789Y4177D01*
X2790Y4170D01*
X2793Y4164D01*
X2795Y4158D01*
X2798Y4153D01*
X2799Y4152D01*
X2801Y4150D01*
X2801Y4148D01*
X2802Y4147D01*
X2803Y4147D01*
X2803Y4146D01*
X2806Y4143D01*
X2809Y4138D01*
X2813Y4134D01*
X2818Y4130D01*
X2827Y4121D01*
X2836Y4112D01*
X2841Y4108D01*
X2845Y4105D01*
X2849Y4101D01*
X2852Y4099D01*
X2855Y4096D01*
X2857Y4094D01*
X2858Y4093D01*
X2859Y4093D01*
X2863Y4089D01*
X2868Y4085D01*
X2872Y4081D01*
X2876Y4078D01*
X2880Y4075D01*
X2883Y4071D01*
X2886Y4069D01*
X2889Y4066D01*
X2891Y4063D01*
X2893Y4061D01*
X2895Y4059D01*
X2896Y4058D01*
X2898Y4057D01*
X2899Y4056D01*
X2899Y4055D01*
X2899Y4055D01*
X2904Y4049D01*
X2908Y4043D01*
X2912Y4037D01*
X2914Y4032D01*
X2917Y4028D01*
X2918Y4026D01*
X2918Y4024D01*
X2919Y4023D01*
X2919Y4022D01*
X2919Y4022D01*
Y4021D01*
X2921Y4017D01*
X2922Y4014D01*
X2922Y4010D01*
X2923Y4007D01*
X2923Y4004D01*
Y4002D01*
Y4001D01*
Y4000D01*
X2756D01*
Y4030D01*
X2880D01*
X2876Y4036D01*
X2874Y4038D01*
X2872Y4041D01*
X2870Y4043D01*
X2868Y4045D01*
X2867Y4046D01*
X2867Y4046D01*
X2865Y4048D01*
X2863Y4050D01*
X2861Y4052D01*
X2858Y4055D01*
X2852Y4060D01*
X2846Y4065D01*
X2841Y4070D01*
X2838Y4072D01*
X2836Y4074D01*
X2834Y4076D01*
X2832Y4077D01*
X2832Y4078D01*
X2831Y4078D01*
X2825Y4083D01*
X2819Y4088D01*
X2814Y4093D01*
X2810Y4097D01*
X2805Y4101D01*
X2801Y4105D01*
X2798Y4108D01*
X2795Y4111D01*
X2792Y4113D01*
X2790Y4116D01*
X2788Y4118D01*
X2786Y4119D01*
X2785Y4121D01*
X2784Y4121D01*
X2784Y4122D01*
X2783Y4122D01*
X2778Y4128D01*
X2774Y4134D01*
X2771Y4139D01*
X2768Y4144D01*
X2765Y4147D01*
X2764Y4150D01*
X2763Y4152D01*
X2763Y4152D01*
X2763Y4153D01*
Y4153D01*
X2761Y4158D01*
X2759Y4164D01*
X2758Y4169D01*
X2757Y4173D01*
X2757Y4177D01*
X2756Y4180D01*
Y4181D01*
Y4182D01*
Y4182D01*
Y4183D01*
X2757Y4188D01*
X2757Y4193D01*
X2758Y4198D01*
X2760Y4203D01*
X2761Y4207D01*
X2763Y4212D01*
X2765Y4215D01*
X2767Y4219D01*
X2769Y4222D01*
X2771Y4225D01*
X2773Y4227D01*
X2774Y4229D01*
X2776Y4230D01*
X2777Y4232D01*
X2777Y4232D01*
X2778Y4233D01*
X2782Y4236D01*
X2786Y4239D01*
X2791Y4242D01*
X2796Y4244D01*
X2800Y4246D01*
X2805Y4248D01*
X2810Y4249D01*
X2815Y4250D01*
X2819Y4251D01*
X2823Y4252D01*
X2826Y4252D01*
X2829Y4253D01*
X2832Y4253D01*
X2835D01*
X2842Y4253D01*
D02*
G37*
G36*
X2450D02*
X2457Y4252D01*
X2462Y4251D01*
X2468Y4250D01*
X2473Y4248D01*
X2478Y4247D01*
X2482Y4245D01*
X2486Y4244D01*
X2489Y4242D01*
X2492Y4240D01*
X2495Y4238D01*
X2497Y4237D01*
X2499Y4236D01*
X2500Y4235D01*
X2501Y4234D01*
X2501Y4234D01*
X2505Y4230D01*
X2508Y4226D01*
X2511Y4222D01*
X2514Y4218D01*
X2516Y4213D01*
X2518Y4209D01*
X2520Y4204D01*
X2521Y4200D01*
X2523Y4196D01*
X2524Y4192D01*
X2524Y4189D01*
X2525Y4186D01*
X2525Y4183D01*
X2525Y4182D01*
X2526Y4180D01*
Y4180D01*
X2494Y4177D01*
X2494Y4181D01*
X2494Y4185D01*
X2492Y4192D01*
X2490Y4199D01*
X2489Y4201D01*
X2487Y4204D01*
X2486Y4206D01*
X2485Y4208D01*
X2484Y4210D01*
X2483Y4211D01*
X2482Y4212D01*
X2481Y4213D01*
X2481Y4213D01*
X2481Y4213D01*
X2478Y4216D01*
X2475Y4218D01*
X2472Y4220D01*
X2469Y4221D01*
X2463Y4224D01*
X2457Y4225D01*
X2453Y4226D01*
X2450Y4227D01*
X2448D01*
X2447Y4227D01*
X2441D01*
X2437Y4227D01*
X2430Y4225D01*
X2424Y4223D01*
X2419Y4221D01*
X2415Y4218D01*
X2414Y4217D01*
X2412Y4216D01*
X2411Y4215D01*
X2411Y4215D01*
X2410Y4215D01*
X2410Y4214D01*
X2408Y4212D01*
X2406Y4209D01*
X2404Y4207D01*
X2402Y4204D01*
X2400Y4199D01*
X2398Y4194D01*
X2397Y4190D01*
X2397Y4188D01*
Y4186D01*
X2397Y4185D01*
Y4184D01*
Y4184D01*
Y4183D01*
X2397Y4180D01*
X2397Y4177D01*
X2399Y4170D01*
X2401Y4164D01*
X2404Y4158D01*
X2407Y4153D01*
X2408Y4152D01*
X2409Y4150D01*
X2410Y4148D01*
X2411Y4147D01*
X2411Y4147D01*
X2411Y4146D01*
X2414Y4143D01*
X2418Y4138D01*
X2422Y4134D01*
X2426Y4130D01*
X2435Y4121D01*
X2445Y4112D01*
X2449Y4108D01*
X2453Y4105D01*
X2457Y4101D01*
X2461Y4099D01*
X2463Y4096D01*
X2465Y4094D01*
X2467Y4093D01*
X2467Y4093D01*
X2472Y4089D01*
X2476Y4085D01*
X2481Y4081D01*
X2485Y4078D01*
X2488Y4075D01*
X2492Y4071D01*
X2495Y4069D01*
X2497Y4066D01*
X2500Y4063D01*
X2502Y4061D01*
X2504Y4059D01*
X2505Y4058D01*
X2506Y4057D01*
X2507Y4056D01*
X2507Y4055D01*
X2508Y4055D01*
X2513Y4049D01*
X2517Y4043D01*
X2520Y4037D01*
X2523Y4032D01*
X2525Y4028D01*
X2526Y4026D01*
X2527Y4024D01*
X2527Y4023D01*
X2528Y4022D01*
X2528Y4022D01*
Y4021D01*
X2529Y4017D01*
X2530Y4014D01*
X2531Y4010D01*
X2531Y4007D01*
X2531Y4004D01*
Y4002D01*
Y4001D01*
Y4000D01*
X2365D01*
Y4030D01*
X2489D01*
X2485Y4036D01*
X2482Y4038D01*
X2480Y4041D01*
X2478Y4043D01*
X2477Y4045D01*
X2476Y4046D01*
X2476Y4046D01*
X2474Y4048D01*
X2472Y4050D01*
X2469Y4052D01*
X2467Y4055D01*
X2461Y4060D01*
X2455Y4065D01*
X2449Y4070D01*
X2447Y4072D01*
X2444Y4074D01*
X2442Y4076D01*
X2441Y4077D01*
X2440Y4078D01*
X2440Y4078D01*
X2434Y4083D01*
X2428Y4088D01*
X2423Y4093D01*
X2418Y4097D01*
X2414Y4101D01*
X2410Y4105D01*
X2406Y4108D01*
X2403Y4111D01*
X2400Y4113D01*
X2398Y4116D01*
X2396Y4118D01*
X2395Y4119D01*
X2394Y4121D01*
X2393Y4121D01*
X2392Y4122D01*
X2392Y4122D01*
X2387Y4128D01*
X2383Y4134D01*
X2379Y4139D01*
X2376Y4144D01*
X2374Y4147D01*
X2372Y4150D01*
X2372Y4152D01*
X2371Y4152D01*
X2371Y4153D01*
Y4153D01*
X2369Y4158D01*
X2368Y4164D01*
X2367Y4169D01*
X2366Y4173D01*
X2365Y4177D01*
X2365Y4180D01*
Y4181D01*
Y4182D01*
Y4182D01*
Y4183D01*
X2365Y4188D01*
X2366Y4193D01*
X2367Y4198D01*
X2368Y4203D01*
X2370Y4207D01*
X2372Y4212D01*
X2374Y4215D01*
X2376Y4219D01*
X2378Y4222D01*
X2379Y4225D01*
X2381Y4227D01*
X2383Y4229D01*
X2384Y4230D01*
X2385Y4232D01*
X2386Y4232D01*
X2386Y4233D01*
X2390Y4236D01*
X2395Y4239D01*
X2399Y4242D01*
X2404Y4244D01*
X2409Y4246D01*
X2414Y4248D01*
X2418Y4249D01*
X2423Y4250D01*
X2427Y4251D01*
X2431Y4252D01*
X2435Y4252D01*
X2438Y4253D01*
X2440Y4253D01*
X2444D01*
X2450Y4253D01*
D02*
G37*
G36*
X113Y4000D02*
X84D01*
Y4023D01*
X81Y4018D01*
X77Y4014D01*
X73Y4010D01*
X69Y4007D01*
X64Y4005D01*
X60Y4002D01*
X56Y4001D01*
X52Y3999D01*
X49Y3998D01*
X45Y3997D01*
X42Y3997D01*
X39Y3996D01*
X37Y3996D01*
X35Y3996D01*
X34D01*
X28Y3996D01*
X22Y3997D01*
X17Y3998D01*
X11Y4000D01*
X7Y4002D01*
X2Y4004D01*
X-2Y4006D01*
X-6Y4009D01*
X-10Y4011D01*
X-13Y4013D01*
X-16Y4015D01*
X-18Y4017D01*
X-19Y4019D01*
X-21Y4020D01*
X-22Y4021D01*
X-22Y4021D01*
X-26Y4026D01*
X-30Y4032D01*
X-33Y4037D01*
X-36Y4043D01*
X-38Y4049D01*
X-40Y4056D01*
X-41Y4061D01*
X-42Y4067D01*
X-43Y4073D01*
X-44Y4078D01*
X-45Y4082D01*
X-45Y4086D01*
Y4090D01*
X-45Y4092D01*
Y4093D01*
Y4094D01*
X-45Y4101D01*
X-45Y4108D01*
X-43Y4114D01*
X-43Y4120D01*
X-42Y4122D01*
X-42Y4124D01*
X-41Y4126D01*
X-40Y4128D01*
X-40Y4129D01*
X-40Y4130D01*
X-40Y4131D01*
Y4131D01*
X-37Y4137D01*
X-35Y4143D01*
X-33Y4148D01*
X-30Y4153D01*
X-28Y4156D01*
X-26Y4159D01*
X-25Y4160D01*
X-24Y4161D01*
X-21Y4165D01*
X-16Y4169D01*
X-12Y4172D01*
X-9Y4175D01*
X-5Y4177D01*
X-2Y4179D01*
X-1Y4179D01*
X-0Y4180D01*
X-0Y4180D01*
X0D01*
X6Y4182D01*
X11Y4184D01*
X17Y4185D01*
X22Y4186D01*
X26Y4186D01*
X28D01*
X29Y4187D01*
X32D01*
X38Y4186D01*
X43Y4186D01*
X48Y4185D01*
X53Y4183D01*
X57Y4181D01*
X61Y4179D01*
X65Y4177D01*
X68Y4174D01*
X72Y4172D01*
X74Y4170D01*
X77Y4168D01*
X79Y4166D01*
X80Y4164D01*
X81Y4163D01*
X82Y4162D01*
X82Y4162D01*
Y4252D01*
X113D01*
Y4000D01*
D02*
G37*
G36*
X1492Y4186D02*
X1500Y4186D01*
X1507Y4185D01*
X1510Y4184D01*
X1513Y4183D01*
X1515Y4183D01*
X1518Y4182D01*
X1520Y4182D01*
X1521Y4181D01*
X1523Y4181D01*
X1524Y4180D01*
X1524Y4180D01*
X1525D01*
X1531Y4177D01*
X1536Y4174D01*
X1541Y4171D01*
X1545Y4168D01*
X1548Y4166D01*
X1550Y4164D01*
X1551Y4162D01*
X1552Y4162D01*
Y4162D01*
X1555Y4157D01*
X1558Y4152D01*
X1560Y4147D01*
X1562Y4142D01*
X1563Y4137D01*
X1564Y4135D01*
X1565Y4134D01*
X1565Y4132D01*
X1565Y4131D01*
X1565Y4131D01*
Y4130D01*
X1535Y4126D01*
X1534Y4130D01*
X1533Y4133D01*
X1531Y4139D01*
X1528Y4144D01*
X1525Y4147D01*
X1523Y4150D01*
X1521Y4152D01*
X1520Y4153D01*
X1520Y4153D01*
X1515Y4156D01*
X1510Y4158D01*
X1505Y4159D01*
X1500Y4160D01*
X1495Y4161D01*
X1493D01*
X1491Y4161D01*
X1488D01*
X1479Y4161D01*
X1472Y4159D01*
X1466Y4158D01*
X1461Y4156D01*
X1458Y4154D01*
X1456Y4153D01*
X1455Y4152D01*
X1454Y4152D01*
X1453Y4151D01*
X1453Y4150D01*
X1450Y4147D01*
X1447Y4143D01*
X1446Y4139D01*
X1445Y4134D01*
X1444Y4130D01*
X1444Y4127D01*
Y4126D01*
Y4125D01*
Y4124D01*
Y4124D01*
Y4123D01*
Y4122D01*
Y4119D01*
X1444Y4118D01*
Y4117D01*
Y4116D01*
Y4116D01*
X1447Y4115D01*
X1451Y4114D01*
X1456Y4113D01*
X1460Y4112D01*
X1469Y4110D01*
X1478Y4108D01*
X1482Y4108D01*
X1486Y4107D01*
X1490Y4106D01*
X1493Y4106D01*
X1495Y4106D01*
X1497Y4105D01*
X1498Y4105D01*
X1499D01*
X1506Y4104D01*
X1511Y4103D01*
X1516Y4103D01*
X1520Y4102D01*
X1523Y4101D01*
X1525Y4101D01*
X1526Y4100D01*
X1527D01*
X1531Y4099D01*
X1535Y4097D01*
X1539Y4096D01*
X1542Y4094D01*
X1545Y4093D01*
X1547Y4091D01*
X1548Y4091D01*
X1549Y4090D01*
X1552Y4088D01*
X1556Y4085D01*
X1558Y4082D01*
X1560Y4079D01*
X1562Y4076D01*
X1564Y4075D01*
X1565Y4073D01*
X1565Y4073D01*
X1567Y4068D01*
X1568Y4064D01*
X1569Y4060D01*
X1570Y4056D01*
X1571Y4053D01*
X1571Y4050D01*
Y4049D01*
Y4048D01*
Y4048D01*
X1571Y4044D01*
X1570Y4040D01*
X1569Y4036D01*
X1568Y4032D01*
X1566Y4026D01*
X1563Y4021D01*
X1561Y4018D01*
X1560Y4016D01*
X1559Y4014D01*
X1557Y4013D01*
X1556Y4012D01*
X1556Y4011D01*
X1555Y4011D01*
X1555Y4010D01*
X1551Y4008D01*
X1548Y4006D01*
X1544Y4004D01*
X1541Y4002D01*
X1533Y3999D01*
X1525Y3998D01*
X1522Y3997D01*
X1519Y3997D01*
X1516Y3996D01*
X1513Y3996D01*
X1512Y3996D01*
X1509D01*
X1502Y3996D01*
X1495Y3997D01*
X1490Y3998D01*
X1485Y3999D01*
X1480Y4000D01*
X1479Y4001D01*
X1477Y4001D01*
X1476Y4001D01*
X1475Y4002D01*
X1475Y4002D01*
X1474D01*
X1468Y4005D01*
X1462Y4008D01*
X1457Y4011D01*
X1452Y4015D01*
X1447Y4018D01*
X1446Y4019D01*
X1444Y4020D01*
X1443Y4022D01*
X1442Y4022D01*
X1441Y4023D01*
X1441Y4023D01*
X1441Y4018D01*
X1440Y4014D01*
X1439Y4010D01*
X1438Y4007D01*
X1437Y4004D01*
X1436Y4002D01*
X1435Y4001D01*
X1435Y4000D01*
X1403D01*
X1405Y4004D01*
X1406Y4008D01*
X1408Y4011D01*
X1409Y4015D01*
X1410Y4018D01*
X1410Y4020D01*
X1411Y4021D01*
Y4022D01*
X1411Y4024D01*
X1411Y4028D01*
X1411Y4031D01*
X1412Y4035D01*
X1412Y4040D01*
Y4044D01*
X1412Y4054D01*
Y4058D01*
X1412Y4062D01*
Y4066D01*
Y4070D01*
Y4072D01*
Y4075D01*
Y4076D01*
Y4076D01*
Y4118D01*
Y4121D01*
Y4125D01*
X1413Y4128D01*
Y4131D01*
X1413Y4136D01*
X1413Y4139D01*
X1414Y4143D01*
X1414Y4144D01*
X1414Y4146D01*
Y4146D01*
X1415Y4151D01*
X1417Y4155D01*
X1418Y4158D01*
X1420Y4161D01*
X1421Y4164D01*
X1423Y4166D01*
X1424Y4167D01*
X1424Y4167D01*
X1427Y4170D01*
X1430Y4173D01*
X1434Y4175D01*
X1437Y4177D01*
X1441Y4179D01*
X1443Y4180D01*
X1444Y4180D01*
X1445Y4181D01*
X1445Y4181D01*
X1445D01*
X1451Y4183D01*
X1458Y4184D01*
X1464Y4185D01*
X1470Y4186D01*
X1475Y4186D01*
X1477D01*
X1479Y4187D01*
X1483D01*
X1492Y4186D01*
D02*
G37*
G36*
X2042Y4076D02*
X1946D01*
Y4107D01*
X2042D01*
Y4076D01*
D02*
G37*
G36*
X922Y4000D02*
X923Y3996D01*
X924Y3994D01*
X924Y3993D01*
X925Y3992D01*
X926Y3989D01*
X927Y3986D01*
X928Y3983D01*
X929Y3981D01*
X930Y3977D01*
X932Y3974D01*
X933Y3971D01*
X933Y3970D01*
X934Y3969D01*
X934Y3969D01*
X937Y3965D01*
X939Y3963D01*
X941Y3962D01*
X942Y3961D01*
X943Y3960D01*
X944Y3960D01*
X944Y3959D01*
X947Y3958D01*
X949Y3957D01*
X952Y3957D01*
X955Y3956D01*
X957Y3956D01*
X959Y3956D01*
X961D01*
X963Y3956D01*
X966Y3956D01*
X969Y3957D01*
X972Y3957D01*
X975Y3958D01*
X976Y3958D01*
X978Y3959D01*
X978D01*
X975Y3930D01*
X970Y3928D01*
X967Y3928D01*
X963Y3927D01*
X960Y3927D01*
X958Y3926D01*
X956Y3926D01*
X955D01*
X949Y3926D01*
X945Y3927D01*
X940Y3928D01*
X936Y3930D01*
X933Y3931D01*
X931Y3932D01*
X930Y3933D01*
X929Y3933D01*
X925Y3936D01*
X922Y3940D01*
X919Y3943D01*
X916Y3947D01*
X914Y3951D01*
X912Y3953D01*
X911Y3954D01*
X911Y3955D01*
X910Y3956D01*
Y3956D01*
X909Y3958D01*
X908Y3961D01*
X907Y3964D01*
X905Y3967D01*
X902Y3974D01*
X899Y3981D01*
X898Y3984D01*
X897Y3987D01*
X896Y3990D01*
X895Y3992D01*
X894Y3994D01*
X893Y3996D01*
X893Y3997D01*
Y3997D01*
X824Y4183D01*
X854D01*
X894Y4076D01*
X896Y4068D01*
X899Y4061D01*
X901Y4054D01*
X903Y4047D01*
X904Y4045D01*
X904Y4042D01*
X905Y4040D01*
X905Y4038D01*
X906Y4037D01*
X906Y4035D01*
X907Y4035D01*
Y4034D01*
X909Y4043D01*
X911Y4050D01*
X913Y4058D01*
X915Y4064D01*
X916Y4067D01*
X917Y4069D01*
X918Y4071D01*
X919Y4073D01*
X919Y4075D01*
X920Y4076D01*
X920Y4076D01*
Y4077D01*
X958Y4183D01*
X991D01*
X922Y4000D01*
D02*
G37*
G36*
X585Y4256D02*
X592Y4256D01*
X598Y4255D01*
X604Y4254D01*
X610Y4253D01*
X616Y4251D01*
X621Y4250D01*
X625Y4249D01*
X629Y4247D01*
X633Y4246D01*
X637Y4244D01*
X639Y4243D01*
X641Y4242D01*
X643Y4241D01*
X644Y4241D01*
X645Y4241D01*
X650Y4238D01*
X655Y4234D01*
X659Y4231D01*
X663Y4227D01*
X667Y4223D01*
X671Y4219D01*
X674Y4215D01*
X677Y4211D01*
X680Y4207D01*
X682Y4204D01*
X684Y4201D01*
X686Y4198D01*
X687Y4196D01*
X688Y4195D01*
X688Y4194D01*
X688Y4193D01*
X691Y4187D01*
X693Y4181D01*
X696Y4175D01*
X697Y4169D01*
X700Y4158D01*
X701Y4152D01*
X702Y4147D01*
X702Y4143D01*
X703Y4138D01*
X703Y4134D01*
X703Y4131D01*
X704Y4128D01*
Y4126D01*
Y4125D01*
Y4125D01*
X703Y4118D01*
X703Y4111D01*
X702Y4105D01*
X701Y4099D01*
X700Y4093D01*
X699Y4087D01*
X697Y4082D01*
X696Y4077D01*
X695Y4073D01*
X693Y4069D01*
X692Y4066D01*
X691Y4063D01*
X690Y4061D01*
X689Y4059D01*
X689Y4058D01*
X688Y4058D01*
X685Y4052D01*
X682Y4047D01*
X678Y4042D01*
X675Y4038D01*
X671Y4034D01*
X667Y4030D01*
X663Y4026D01*
X660Y4023D01*
X656Y4021D01*
X653Y4018D01*
X650Y4016D01*
X648Y4015D01*
X646Y4013D01*
X644Y4013D01*
X643Y4012D01*
X643Y4012D01*
X637Y4009D01*
X631Y4007D01*
X625Y4004D01*
X619Y4003D01*
X613Y4001D01*
X608Y4000D01*
X602Y3999D01*
X598Y3998D01*
X593Y3997D01*
X589Y3997D01*
X585Y3996D01*
X581Y3996D01*
X579Y3996D01*
X575D01*
X565Y3996D01*
X555Y3998D01*
X546Y3999D01*
X542Y4000D01*
X538Y4001D01*
X534Y4002D01*
X531Y4003D01*
X528Y4004D01*
X526Y4004D01*
X524Y4005D01*
X523Y4005D01*
X522Y4006D01*
X522D01*
X512Y4010D01*
X503Y4014D01*
X494Y4019D01*
X490Y4022D01*
X486Y4024D01*
X483Y4026D01*
X480Y4028D01*
X477Y4030D01*
X475Y4032D01*
X473Y4033D01*
X472Y4034D01*
X471Y4035D01*
X471Y4035D01*
Y4129D01*
X578D01*
Y4099D01*
X504D01*
Y4052D01*
X508Y4048D01*
X513Y4045D01*
X518Y4042D01*
X523Y4039D01*
X528Y4037D01*
X530Y4036D01*
X531Y4035D01*
X533Y4035D01*
X534Y4034D01*
X535Y4034D01*
X535D01*
X543Y4031D01*
X550Y4029D01*
X557Y4028D01*
X564Y4027D01*
X567Y4026D01*
X569Y4026D01*
X571Y4026D01*
X573D01*
X575Y4026D01*
X577D01*
X586Y4026D01*
X595Y4027D01*
X603Y4029D01*
X607Y4030D01*
X610Y4031D01*
X613Y4032D01*
X616Y4033D01*
X618Y4034D01*
X620Y4035D01*
X622Y4035D01*
X623Y4036D01*
X624Y4037D01*
X624D01*
X628Y4039D01*
X632Y4041D01*
X639Y4046D01*
X645Y4052D01*
X649Y4058D01*
X653Y4063D01*
X655Y4065D01*
X656Y4066D01*
X657Y4068D01*
X657Y4069D01*
X658Y4070D01*
X658Y4070D01*
X662Y4079D01*
X664Y4089D01*
X667Y4098D01*
X668Y4107D01*
X668Y4111D01*
X669Y4115D01*
X669Y4118D01*
Y4121D01*
X669Y4123D01*
Y4125D01*
Y4126D01*
Y4127D01*
X669Y4137D01*
X668Y4146D01*
X666Y4155D01*
X666Y4159D01*
X664Y4162D01*
X664Y4166D01*
X663Y4169D01*
X662Y4171D01*
X661Y4173D01*
X661Y4175D01*
X660Y4176D01*
X660Y4177D01*
Y4177D01*
X658Y4182D01*
X655Y4187D01*
X652Y4191D01*
X650Y4195D01*
X648Y4198D01*
X646Y4200D01*
X645Y4202D01*
X644Y4202D01*
X640Y4206D01*
X636Y4210D01*
X631Y4213D01*
X627Y4216D01*
X623Y4218D01*
X620Y4219D01*
X619Y4220D01*
X618Y4221D01*
X617Y4221D01*
X617D01*
X611Y4223D01*
X604Y4225D01*
X597Y4226D01*
X591Y4227D01*
X588Y4227D01*
X586Y4228D01*
X583D01*
X581Y4228D01*
X578D01*
X571Y4228D01*
X564Y4227D01*
X559Y4226D01*
X553Y4225D01*
X549Y4223D01*
X547Y4223D01*
X546Y4222D01*
X545Y4222D01*
X544Y4221D01*
X543Y4221D01*
X543D01*
X538Y4218D01*
X533Y4216D01*
X529Y4213D01*
X525Y4210D01*
X523Y4207D01*
X521Y4205D01*
X519Y4204D01*
X519Y4203D01*
X516Y4199D01*
X513Y4194D01*
X511Y4189D01*
X509Y4184D01*
X507Y4180D01*
X507Y4178D01*
X506Y4177D01*
X506Y4175D01*
X505Y4174D01*
X505Y4174D01*
Y4173D01*
X475Y4182D01*
X477Y4191D01*
X480Y4199D01*
X482Y4202D01*
X484Y4206D01*
X485Y4209D01*
X487Y4212D01*
X488Y4214D01*
X489Y4216D01*
X491Y4218D01*
X492Y4220D01*
X493Y4221D01*
X493Y4222D01*
X494Y4223D01*
X494Y4223D01*
X499Y4229D01*
X504Y4233D01*
X510Y4238D01*
X516Y4241D01*
X521Y4244D01*
X523Y4245D01*
X525Y4246D01*
X526Y4247D01*
X527Y4247D01*
X528Y4247D01*
X528D01*
X537Y4250D01*
X545Y4253D01*
X554Y4254D01*
X562Y4255D01*
X565Y4256D01*
X568Y4256D01*
X571Y4256D01*
X573Y4256D01*
X578D01*
X585Y4256D01*
D02*
G37*
G36*
X1811Y4000D02*
X1720D01*
X1712Y4000D01*
X1704Y4001D01*
X1697Y4001D01*
X1691Y4002D01*
X1689Y4002D01*
X1687Y4003D01*
X1684Y4003D01*
X1683Y4004D01*
X1681Y4004D01*
X1681D01*
X1680Y4004D01*
X1680D01*
X1673Y4006D01*
X1667Y4008D01*
X1662Y4010D01*
X1658Y4012D01*
X1654Y4014D01*
X1652Y4015D01*
X1650Y4016D01*
X1650Y4017D01*
X1649D01*
X1645Y4020D01*
X1640Y4024D01*
X1637Y4028D01*
X1633Y4031D01*
X1630Y4035D01*
X1628Y4037D01*
X1628Y4038D01*
X1627Y4039D01*
X1626Y4039D01*
Y4040D01*
X1623Y4045D01*
X1619Y4051D01*
X1616Y4058D01*
X1614Y4063D01*
X1612Y4069D01*
X1611Y4071D01*
X1610Y4073D01*
X1610Y4074D01*
X1610Y4075D01*
X1609Y4076D01*
Y4076D01*
X1607Y4085D01*
X1605Y4094D01*
X1604Y4102D01*
X1603Y4110D01*
X1603Y4114D01*
X1603Y4117D01*
Y4120D01*
X1602Y4122D01*
Y4124D01*
Y4126D01*
Y4127D01*
Y4127D01*
X1603Y4139D01*
X1603Y4145D01*
X1604Y4151D01*
X1605Y4156D01*
X1606Y4161D01*
X1607Y4165D01*
X1607Y4170D01*
X1608Y4174D01*
X1609Y4177D01*
X1610Y4180D01*
X1611Y4182D01*
X1612Y4184D01*
X1612Y4186D01*
X1613Y4187D01*
Y4187D01*
X1617Y4196D01*
X1621Y4205D01*
X1624Y4209D01*
X1626Y4212D01*
X1629Y4215D01*
X1631Y4218D01*
X1633Y4221D01*
X1635Y4223D01*
X1637Y4225D01*
X1639Y4227D01*
X1640Y4229D01*
X1641Y4229D01*
X1642Y4230D01*
X1642Y4230D01*
X1648Y4235D01*
X1655Y4239D01*
X1661Y4242D01*
X1666Y4244D01*
X1672Y4246D01*
X1674Y4247D01*
X1676Y4247D01*
X1677Y4248D01*
X1678Y4248D01*
X1679Y4248D01*
X1679D01*
X1682Y4249D01*
X1685Y4250D01*
X1693Y4250D01*
X1700Y4251D01*
X1708Y4251D01*
X1711Y4252D01*
X1714D01*
X1717Y4252D01*
X1811D01*
Y4000D01*
D02*
G37*
G36*
X1286Y4186D02*
X1292Y4185D01*
X1298Y4184D01*
X1304Y4182D01*
X1309Y4180D01*
X1314Y4177D01*
X1318Y4174D01*
X1322Y4172D01*
X1326Y4169D01*
X1329Y4166D01*
X1331Y4164D01*
X1333Y4161D01*
X1335Y4159D01*
X1336Y4158D01*
X1337Y4157D01*
X1337Y4156D01*
Y4183D01*
X1365D01*
Y4000D01*
X1334D01*
Y4100D01*
X1334Y4106D01*
X1333Y4112D01*
X1332Y4117D01*
X1332Y4122D01*
X1331Y4126D01*
X1329Y4130D01*
X1328Y4134D01*
X1327Y4137D01*
X1325Y4139D01*
X1324Y4142D01*
X1323Y4143D01*
X1322Y4145D01*
X1321Y4146D01*
X1320Y4147D01*
X1320Y4147D01*
X1320Y4147D01*
X1317Y4150D01*
X1314Y4152D01*
X1308Y4155D01*
X1302Y4157D01*
X1297Y4158D01*
X1293Y4159D01*
X1290Y4160D01*
X1289D01*
X1287Y4160D01*
X1286D01*
X1281Y4160D01*
X1277Y4159D01*
X1273Y4158D01*
X1270Y4157D01*
X1267Y4156D01*
X1266Y4155D01*
X1264Y4155D01*
X1264Y4154D01*
X1261Y4152D01*
X1258Y4150D01*
X1256Y4147D01*
X1254Y4145D01*
X1253Y4143D01*
X1252Y4141D01*
X1251Y4140D01*
X1251Y4139D01*
X1250Y4135D01*
X1249Y4131D01*
X1248Y4126D01*
X1248Y4122D01*
X1248Y4118D01*
X1247Y4116D01*
Y4114D01*
Y4113D01*
Y4112D01*
Y4111D01*
Y4111D01*
Y4000D01*
X1216D01*
Y4112D01*
Y4116D01*
Y4120D01*
X1217Y4123D01*
Y4126D01*
X1217Y4129D01*
Y4131D01*
X1217Y4135D01*
X1218Y4138D01*
X1218Y4141D01*
X1218Y4142D01*
Y4142D01*
X1219Y4147D01*
X1221Y4152D01*
X1222Y4155D01*
X1224Y4159D01*
X1226Y4161D01*
X1227Y4164D01*
X1228Y4165D01*
X1228Y4165D01*
X1231Y4169D01*
X1234Y4172D01*
X1237Y4174D01*
X1241Y4177D01*
X1244Y4178D01*
X1246Y4180D01*
X1248Y4180D01*
X1248Y4181D01*
X1249D01*
X1254Y4183D01*
X1259Y4184D01*
X1264Y4185D01*
X1269Y4186D01*
X1273Y4186D01*
X1275D01*
X1276Y4187D01*
X1279D01*
X1286Y4186D01*
D02*
G37*
G36*
X1090D02*
X1097Y4185D01*
X1103Y4184D01*
X1108Y4182D01*
X1114Y4180D01*
X1118Y4177D01*
X1123Y4174D01*
X1126Y4172D01*
X1130Y4169D01*
X1133Y4166D01*
X1135Y4164D01*
X1137Y4161D01*
X1139Y4159D01*
X1140Y4158D01*
X1141Y4157D01*
X1141Y4156D01*
Y4183D01*
X1169D01*
Y4000D01*
X1138D01*
Y4100D01*
X1138Y4106D01*
X1138Y4112D01*
X1137Y4117D01*
X1136Y4122D01*
X1135Y4126D01*
X1134Y4130D01*
X1132Y4134D01*
X1131Y4137D01*
X1130Y4139D01*
X1128Y4142D01*
X1127Y4143D01*
X1126Y4145D01*
X1125Y4146D01*
X1124Y4147D01*
X1124Y4147D01*
X1124Y4147D01*
X1121Y4150D01*
X1118Y4152D01*
X1112Y4155D01*
X1107Y4157D01*
X1102Y4158D01*
X1097Y4159D01*
X1095Y4160D01*
X1093D01*
X1092Y4160D01*
X1090D01*
X1085Y4160D01*
X1081Y4159D01*
X1077Y4158D01*
X1074Y4157D01*
X1072Y4156D01*
X1070Y4155D01*
X1068Y4155D01*
X1068Y4154D01*
X1065Y4152D01*
X1062Y4150D01*
X1060Y4147D01*
X1058Y4145D01*
X1057Y4143D01*
X1056Y4141D01*
X1056Y4140D01*
X1055Y4139D01*
X1054Y4135D01*
X1053Y4131D01*
X1052Y4126D01*
X1052Y4122D01*
X1052Y4118D01*
X1052Y4116D01*
Y4114D01*
Y4113D01*
Y4112D01*
Y4111D01*
Y4111D01*
Y4000D01*
X1021D01*
Y4112D01*
Y4116D01*
Y4120D01*
X1021Y4123D01*
Y4126D01*
X1021Y4129D01*
Y4131D01*
X1022Y4135D01*
X1022Y4138D01*
X1022Y4141D01*
X1023Y4142D01*
Y4142D01*
X1024Y4147D01*
X1025Y4152D01*
X1027Y4155D01*
X1028Y4159D01*
X1030Y4161D01*
X1031Y4164D01*
X1032Y4165D01*
X1032Y4165D01*
X1035Y4169D01*
X1038Y4172D01*
X1042Y4174D01*
X1045Y4177D01*
X1048Y4178D01*
X1051Y4180D01*
X1052Y4180D01*
X1053Y4181D01*
X1053D01*
X1058Y4183D01*
X1063Y4184D01*
X1068Y4185D01*
X1073Y4186D01*
X1077Y4186D01*
X1079D01*
X1080Y4187D01*
X1083D01*
X1090Y4186D01*
D02*
G37*
G36*
X362D02*
X366Y4186D01*
X370Y4185D01*
X373Y4184D01*
X375Y4182D01*
X377Y4182D01*
X378Y4181D01*
X378Y4180D01*
X380Y4179D01*
X382Y4177D01*
X385Y4174D01*
X388Y4170D01*
X391Y4165D01*
X394Y4161D01*
X396Y4158D01*
X397Y4157D01*
X397Y4156D01*
X398Y4155D01*
Y4183D01*
X426D01*
Y4000D01*
X395D01*
Y4096D01*
X395Y4103D01*
X394Y4109D01*
X393Y4115D01*
X393Y4121D01*
X392Y4125D01*
X391Y4127D01*
X391Y4129D01*
X391Y4130D01*
X390Y4131D01*
X390Y4131D01*
Y4132D01*
X388Y4135D01*
X387Y4139D01*
X385Y4142D01*
X383Y4144D01*
X381Y4146D01*
X380Y4147D01*
X379Y4148D01*
X379Y4149D01*
X375Y4151D01*
X372Y4152D01*
X369Y4153D01*
X366Y4154D01*
X364Y4155D01*
X362Y4155D01*
X360D01*
X356Y4155D01*
X352Y4154D01*
X348Y4153D01*
X345Y4152D01*
X342Y4150D01*
X340Y4149D01*
X338Y4148D01*
X338Y4148D01*
X327Y4177D01*
X333Y4180D01*
X339Y4182D01*
X344Y4184D01*
X349Y4185D01*
X353Y4186D01*
X355Y4186D01*
X356D01*
X357Y4187D01*
X359D01*
X362Y4186D01*
D02*
G37*
G36*
X2646Y4253D02*
X2651Y4252D01*
X2655Y4251D01*
X2660Y4251D01*
X2664Y4250D01*
X2667Y4248D01*
X2671Y4247D01*
X2674Y4245D01*
X2677Y4244D01*
X2679Y4243D01*
X2682Y4242D01*
X2683Y4240D01*
X2685Y4239D01*
X2686Y4239D01*
X2686Y4238D01*
X2687Y4238D01*
X2690Y4235D01*
X2693Y4232D01*
X2698Y4225D01*
X2703Y4218D01*
X2707Y4212D01*
X2709Y4208D01*
X2710Y4206D01*
X2711Y4203D01*
X2712Y4201D01*
X2713Y4199D01*
X2713Y4197D01*
X2714Y4196D01*
Y4196D01*
X2715Y4191D01*
X2717Y4185D01*
X2719Y4173D01*
X2721Y4161D01*
X2721Y4156D01*
X2722Y4150D01*
X2722Y4145D01*
X2722Y4140D01*
X2723Y4135D01*
Y4132D01*
X2723Y4129D01*
Y4126D01*
Y4125D01*
Y4124D01*
X2723Y4111D01*
X2722Y4099D01*
X2721Y4088D01*
X2719Y4078D01*
X2717Y4069D01*
X2715Y4061D01*
X2713Y4053D01*
X2710Y4046D01*
X2708Y4041D01*
X2706Y4035D01*
X2704Y4031D01*
X2702Y4028D01*
X2700Y4025D01*
X2699Y4023D01*
X2698Y4022D01*
X2698Y4022D01*
X2694Y4017D01*
X2690Y4013D01*
X2685Y4010D01*
X2680Y4007D01*
X2676Y4004D01*
X2671Y4002D01*
X2666Y4001D01*
X2662Y3999D01*
X2657Y3998D01*
X2654Y3997D01*
X2650Y3997D01*
X2647Y3996D01*
X2645Y3996D01*
X2643Y3996D01*
X2641D01*
X2636Y3996D01*
X2631Y3996D01*
X2626Y3997D01*
X2622Y3998D01*
X2618Y3999D01*
X2614Y4001D01*
X2611Y4002D01*
X2608Y4003D01*
X2605Y4005D01*
X2602Y4006D01*
X2600Y4007D01*
X2599Y4008D01*
X2597Y4009D01*
X2596Y4010D01*
X2596Y4010D01*
X2595Y4011D01*
X2592Y4014D01*
X2589Y4017D01*
X2583Y4023D01*
X2579Y4030D01*
X2575Y4037D01*
X2573Y4040D01*
X2572Y4043D01*
X2571Y4046D01*
X2570Y4048D01*
X2569Y4050D01*
X2569Y4052D01*
X2568Y4052D01*
Y4053D01*
X2566Y4058D01*
X2565Y4064D01*
X2563Y4075D01*
X2561Y4087D01*
X2560Y4093D01*
X2560Y4099D01*
X2560Y4104D01*
X2559Y4109D01*
X2559Y4113D01*
X2559Y4117D01*
Y4120D01*
Y4122D01*
Y4124D01*
Y4124D01*
Y4131D01*
X2559Y4138D01*
X2559Y4144D01*
X2560Y4149D01*
X2560Y4155D01*
X2561Y4159D01*
X2561Y4164D01*
X2562Y4168D01*
X2562Y4171D01*
X2563Y4174D01*
X2563Y4177D01*
X2564Y4179D01*
X2564Y4181D01*
X2564Y4182D01*
X2565Y4183D01*
Y4183D01*
X2567Y4191D01*
X2569Y4199D01*
X2572Y4205D01*
X2574Y4210D01*
X2576Y4213D01*
X2577Y4215D01*
X2578Y4217D01*
X2578Y4218D01*
X2579Y4219D01*
X2580Y4220D01*
X2580Y4221D01*
Y4221D01*
X2584Y4226D01*
X2588Y4231D01*
X2592Y4235D01*
X2596Y4239D01*
X2600Y4241D01*
X2603Y4243D01*
X2604Y4244D01*
X2605Y4244D01*
X2605Y4245D01*
X2605D01*
X2611Y4247D01*
X2617Y4249D01*
X2623Y4251D01*
X2629Y4252D01*
X2634Y4252D01*
X2636Y4253D01*
X2638Y4253D01*
X2641D01*
X2646Y4253D01*
D02*
G37*
G36*
X2254D02*
X2259Y4252D01*
X2264Y4251D01*
X2268Y4251D01*
X2272Y4250D01*
X2276Y4248D01*
X2280Y4247D01*
X2282Y4245D01*
X2286Y4244D01*
X2288Y4243D01*
X2290Y4242D01*
X2292Y4240D01*
X2293Y4239D01*
X2294Y4239D01*
X2295Y4238D01*
X2295Y4238D01*
X2298Y4235D01*
X2301Y4232D01*
X2307Y4225D01*
X2312Y4218D01*
X2316Y4212D01*
X2317Y4208D01*
X2319Y4206D01*
X2320Y4203D01*
X2321Y4201D01*
X2321Y4199D01*
X2322Y4197D01*
X2322Y4196D01*
Y4196D01*
X2324Y4191D01*
X2325Y4185D01*
X2328Y4173D01*
X2329Y4161D01*
X2330Y4156D01*
X2330Y4150D01*
X2331Y4145D01*
X2331Y4140D01*
X2331Y4135D01*
Y4132D01*
X2331Y4129D01*
Y4126D01*
Y4125D01*
Y4124D01*
X2331Y4111D01*
X2330Y4099D01*
X2329Y4088D01*
X2328Y4078D01*
X2326Y4069D01*
X2323Y4061D01*
X2321Y4053D01*
X2319Y4046D01*
X2317Y4041D01*
X2314Y4035D01*
X2312Y4031D01*
X2310Y4028D01*
X2309Y4025D01*
X2308Y4023D01*
X2307Y4022D01*
X2307Y4022D01*
X2302Y4017D01*
X2298Y4013D01*
X2293Y4010D01*
X2289Y4007D01*
X2284Y4004D01*
X2279Y4002D01*
X2275Y4001D01*
X2270Y3999D01*
X2266Y3998D01*
X2262Y3997D01*
X2258Y3997D01*
X2255Y3996D01*
X2253Y3996D01*
X2251Y3996D01*
X2249D01*
X2244Y3996D01*
X2240Y3996D01*
X2235Y3997D01*
X2231Y3998D01*
X2227Y3999D01*
X2223Y4001D01*
X2219Y4002D01*
X2216Y4003D01*
X2213Y4005D01*
X2211Y4006D01*
X2209Y4007D01*
X2207Y4008D01*
X2206Y4009D01*
X2205Y4010D01*
X2204Y4010D01*
X2204Y4011D01*
X2201Y4014D01*
X2197Y4017D01*
X2192Y4023D01*
X2187Y4030D01*
X2183Y4037D01*
X2182Y4040D01*
X2180Y4043D01*
X2179Y4046D01*
X2178Y4048D01*
X2177Y4050D01*
X2177Y4052D01*
X2177Y4052D01*
Y4053D01*
X2175Y4058D01*
X2174Y4064D01*
X2171Y4075D01*
X2169Y4087D01*
X2169Y4093D01*
X2168Y4099D01*
X2168Y4104D01*
X2168Y4109D01*
X2168Y4113D01*
X2167Y4117D01*
Y4120D01*
Y4122D01*
Y4124D01*
Y4124D01*
Y4131D01*
X2168Y4138D01*
X2168Y4144D01*
X2168Y4149D01*
X2169Y4155D01*
X2169Y4159D01*
X2170Y4164D01*
X2170Y4168D01*
X2171Y4171D01*
X2171Y4174D01*
X2172Y4177D01*
X2172Y4179D01*
X2172Y4181D01*
X2173Y4182D01*
X2173Y4183D01*
Y4183D01*
X2175Y4191D01*
X2178Y4199D01*
X2180Y4205D01*
X2183Y4210D01*
X2184Y4213D01*
X2185Y4215D01*
X2186Y4217D01*
X2187Y4218D01*
X2188Y4219D01*
X2188Y4220D01*
X2189Y4221D01*
Y4221D01*
X2192Y4226D01*
X2197Y4231D01*
X2201Y4235D01*
X2205Y4239D01*
X2209Y4241D01*
X2211Y4243D01*
X2212Y4244D01*
X2213Y4244D01*
X2214Y4245D01*
X2214D01*
X2220Y4247D01*
X2226Y4249D01*
X2232Y4251D01*
X2237Y4252D01*
X2242Y4252D01*
X2244Y4253D01*
X2246Y4253D01*
X2249D01*
X2254Y4253D01*
D02*
G37*
G36*
X241Y4186D02*
X247Y4186D01*
X252Y4185D01*
X258Y4183D01*
X263Y4182D01*
X267Y4180D01*
X272Y4179D01*
X276Y4177D01*
X280Y4175D01*
X283Y4173D01*
X285Y4171D01*
X288Y4170D01*
X289Y4168D01*
X291Y4167D01*
X292Y4167D01*
X292Y4166D01*
X297Y4161D01*
X301Y4156D01*
X305Y4150D01*
X308Y4144D01*
X311Y4138D01*
X313Y4132D01*
X315Y4126D01*
X316Y4120D01*
X317Y4114D01*
X319Y4109D01*
X319Y4104D01*
X319Y4099D01*
X320Y4096D01*
X320Y4093D01*
Y4092D01*
Y4091D01*
Y4091D01*
X320Y4083D01*
X319Y4075D01*
X318Y4067D01*
X316Y4061D01*
X314Y4054D01*
X313Y4049D01*
X310Y4043D01*
X308Y4038D01*
X306Y4034D01*
X304Y4031D01*
X302Y4028D01*
X300Y4025D01*
X299Y4023D01*
X298Y4022D01*
X297Y4021D01*
X296Y4020D01*
X292Y4016D01*
X287Y4012D01*
X282Y4009D01*
X277Y4006D01*
X272Y4004D01*
X266Y4002D01*
X261Y4000D01*
X257Y3999D01*
X252Y3998D01*
X248Y3997D01*
X244Y3997D01*
X241Y3996D01*
X238D01*
X236Y3996D01*
X234D01*
X226Y3996D01*
X218Y3998D01*
X210Y3999D01*
X207Y4000D01*
X204Y4001D01*
X201Y4002D01*
X198Y4003D01*
X196Y4004D01*
X194Y4005D01*
X192Y4006D01*
X191Y4006D01*
X191Y4007D01*
X191D01*
X183Y4011D01*
X177Y4016D01*
X172Y4022D01*
X168Y4027D01*
X164Y4031D01*
X163Y4033D01*
X162Y4035D01*
X161Y4036D01*
X160Y4037D01*
X160Y4038D01*
Y4038D01*
X158Y4042D01*
X156Y4046D01*
X153Y4055D01*
X151Y4065D01*
X150Y4073D01*
X150Y4078D01*
X150Y4081D01*
X149Y4085D01*
Y4088D01*
X149Y4090D01*
Y4092D01*
Y4093D01*
Y4094D01*
X149Y4102D01*
X150Y4109D01*
X151Y4116D01*
X153Y4123D01*
X154Y4129D01*
X157Y4134D01*
X159Y4139D01*
X161Y4144D01*
X163Y4148D01*
X165Y4152D01*
X168Y4155D01*
X169Y4157D01*
X171Y4159D01*
X172Y4161D01*
X173Y4162D01*
X173Y4162D01*
X178Y4166D01*
X183Y4170D01*
X188Y4173D01*
X193Y4176D01*
X198Y4179D01*
X203Y4181D01*
X208Y4182D01*
X213Y4184D01*
X217Y4185D01*
X221Y4185D01*
X225Y4186D01*
X228Y4186D01*
X231D01*
X233Y4187D01*
X234D01*
X241Y4186D01*
D02*
G37*
G36*
X874Y3140D02*
X845D01*
Y3162D01*
X841Y3158D01*
X837Y3154D01*
X833Y3150D01*
X829Y3147D01*
X825Y3144D01*
X821Y3142D01*
X817Y3140D01*
X813Y3139D01*
X809Y3138D01*
X806Y3137D01*
X802Y3136D01*
X800Y3136D01*
X797Y3136D01*
X796Y3136D01*
X794D01*
X788Y3136D01*
X783Y3137D01*
X777Y3138D01*
X772Y3140D01*
X767Y3142D01*
X762Y3144D01*
X758Y3146D01*
X754Y3149D01*
X751Y3151D01*
X748Y3153D01*
X745Y3155D01*
X743Y3157D01*
X741Y3159D01*
X740Y3160D01*
X739Y3161D01*
X739Y3161D01*
X735Y3166D01*
X731Y3171D01*
X728Y3177D01*
X725Y3183D01*
X723Y3189D01*
X721Y3195D01*
X719Y3201D01*
X718Y3207D01*
X717Y3212D01*
X717Y3218D01*
X716Y3222D01*
X715Y3226D01*
Y3229D01*
X715Y3231D01*
Y3233D01*
Y3234D01*
X715Y3241D01*
X716Y3248D01*
X717Y3254D01*
X718Y3260D01*
X718Y3262D01*
X719Y3264D01*
X720Y3266D01*
X720Y3268D01*
X720Y3269D01*
X721Y3270D01*
X721Y3271D01*
Y3271D01*
X723Y3277D01*
X726Y3283D01*
X728Y3288D01*
X730Y3292D01*
X733Y3296D01*
X735Y3298D01*
X736Y3300D01*
X736Y3301D01*
X740Y3305D01*
X744Y3309D01*
X748Y3312D01*
X752Y3315D01*
X756Y3317D01*
X758Y3318D01*
X759Y3319D01*
X760Y3319D01*
X761Y3320D01*
X761D01*
X767Y3322D01*
X772Y3323D01*
X777Y3325D01*
X782Y3326D01*
X786Y3326D01*
X788D01*
X790Y3326D01*
X793D01*
X798Y3326D01*
X804Y3325D01*
X809Y3324D01*
X813Y3323D01*
X818Y3321D01*
X822Y3319D01*
X826Y3316D01*
X829Y3314D01*
X832Y3312D01*
X835Y3310D01*
X837Y3308D01*
X839Y3306D01*
X841Y3304D01*
X842Y3303D01*
X842Y3302D01*
X843Y3302D01*
Y3392D01*
X874D01*
Y3140D01*
D02*
G37*
G36*
X2164Y3140D02*
X2133D01*
Y3239D01*
X2133Y3247D01*
X2133Y3254D01*
X2132Y3260D01*
X2131Y3264D01*
X2130Y3268D01*
X2129Y3271D01*
X2129Y3272D01*
X2129Y3272D01*
X2129Y3273D01*
X2126Y3277D01*
X2124Y3281D01*
X2121Y3284D01*
X2118Y3287D01*
X2115Y3289D01*
X2113Y3291D01*
X2112Y3292D01*
X2111Y3292D01*
X2107Y3295D01*
X2102Y3297D01*
X2098Y3298D01*
X2094Y3299D01*
X2090Y3299D01*
X2088Y3300D01*
X2085D01*
X2079Y3299D01*
X2073Y3298D01*
X2068Y3296D01*
X2064Y3295D01*
X2061Y3292D01*
X2059Y3291D01*
X2058Y3290D01*
X2057Y3289D01*
X2055Y3287D01*
X2054Y3285D01*
X2051Y3279D01*
X2049Y3274D01*
X2048Y3268D01*
X2047Y3263D01*
X2047Y3261D01*
Y3259D01*
X2047Y3257D01*
Y3256D01*
Y3256D01*
Y3255D01*
Y3140D01*
X2016D01*
Y3255D01*
Y3260D01*
X2016Y3265D01*
X2017Y3269D01*
X2017Y3273D01*
X2018Y3277D01*
X2018Y3280D01*
X2019Y3283D01*
X2019Y3286D01*
X2020Y3288D01*
X2020Y3290D01*
X2021Y3292D01*
X2021Y3294D01*
X2022Y3295D01*
X2022Y3296D01*
X2023Y3296D01*
Y3296D01*
X2025Y3301D01*
X2029Y3306D01*
X2032Y3310D01*
X2036Y3313D01*
X2039Y3315D01*
X2042Y3317D01*
X2043Y3317D01*
X2044Y3318D01*
X2044Y3318D01*
X2044D01*
X2050Y3321D01*
X2056Y3323D01*
X2062Y3325D01*
X2067Y3325D01*
X2072Y3326D01*
X2074Y3326D01*
X2076Y3327D01*
X2079D01*
X2085Y3326D01*
X2091Y3325D01*
X2096Y3324D01*
X2101Y3323D01*
X2106Y3320D01*
X2111Y3319D01*
X2115Y3316D01*
X2118Y3314D01*
X2122Y3311D01*
X2125Y3309D01*
X2127Y3307D01*
X2130Y3305D01*
X2131Y3304D01*
X2132Y3302D01*
X2133Y3301D01*
X2133Y3301D01*
Y3392D01*
X2164D01*
Y3140D01*
D02*
G37*
G36*
X1167Y3140D02*
X1136D01*
Y3239D01*
X1136Y3247D01*
X1135Y3254D01*
X1134Y3260D01*
X1133Y3264D01*
X1133Y3268D01*
X1132Y3271D01*
X1132Y3272D01*
X1131Y3272D01*
X1131Y3273D01*
X1129Y3277D01*
X1126Y3281D01*
X1123Y3284D01*
X1120Y3287D01*
X1118Y3289D01*
X1116Y3291D01*
X1114Y3292D01*
X1114Y3292D01*
X1109Y3295D01*
X1104Y3297D01*
X1100Y3298D01*
X1096Y3299D01*
X1093Y3299D01*
X1090Y3300D01*
X1088D01*
X1081Y3299D01*
X1076Y3298D01*
X1071Y3296D01*
X1067Y3295D01*
X1064Y3292D01*
X1061Y3291D01*
X1060Y3290D01*
X1059Y3289D01*
X1058Y3287D01*
X1056Y3285D01*
X1054Y3279D01*
X1052Y3274D01*
X1051Y3268D01*
X1050Y3263D01*
X1050Y3261D01*
Y3259D01*
X1049Y3257D01*
Y3256D01*
Y3256D01*
Y3255D01*
Y3140D01*
X1018D01*
Y3255D01*
Y3260D01*
X1019Y3265D01*
X1019Y3269D01*
X1020Y3273D01*
X1020Y3277D01*
X1021Y3280D01*
X1021Y3283D01*
X1022Y3286D01*
X1022Y3288D01*
X1023Y3290D01*
X1023Y3292D01*
X1024Y3294D01*
X1024Y3295D01*
X1025Y3296D01*
X1025Y3296D01*
Y3296D01*
X1028Y3301D01*
X1031Y3306D01*
X1035Y3310D01*
X1038Y3313D01*
X1041Y3315D01*
X1044Y3317D01*
X1045Y3317D01*
X1046Y3318D01*
X1046Y3318D01*
X1047D01*
X1052Y3321D01*
X1058Y3323D01*
X1064Y3325D01*
X1070Y3325D01*
X1074Y3326D01*
X1076Y3326D01*
X1078Y3326D01*
X1082D01*
X1088Y3326D01*
X1093Y3325D01*
X1099Y3324D01*
X1104Y3323D01*
X1109Y3320D01*
X1113Y3319D01*
X1117Y3316D01*
X1121Y3314D01*
X1124Y3311D01*
X1127Y3309D01*
X1130Y3307D01*
X1132Y3305D01*
X1134Y3304D01*
X1135Y3302D01*
X1136Y3301D01*
X1136Y3301D01*
Y3392D01*
X1167D01*
Y3140D01*
D02*
G37*
G36*
X-1767D02*
X-1798D01*
Y3239D01*
X-1799Y3247D01*
X-1799Y3254D01*
X-1800Y3260D01*
X-1801Y3264D01*
X-1802Y3268D01*
X-1802Y3271D01*
X-1803Y3272D01*
X-1803Y3272D01*
X-1803Y3273D01*
X-1805Y3277D01*
X-1808Y3281D01*
X-1811Y3284D01*
X-1814Y3287D01*
X-1816Y3289D01*
X-1819Y3291D01*
X-1820Y3292D01*
X-1820Y3292D01*
X-1825Y3295D01*
X-1830Y3297D01*
X-1834Y3298D01*
X-1838Y3299D01*
X-1841Y3299D01*
X-1844Y3300D01*
X-1846D01*
X-1853Y3299D01*
X-1859Y3298D01*
X-1863Y3296D01*
X-1867Y3295D01*
X-1871Y3292D01*
X-1873Y3291D01*
X-1874Y3290D01*
X-1875Y3289D01*
X-1877Y3287D01*
X-1878Y3285D01*
X-1880Y3279D01*
X-1882Y3274D01*
X-1884Y3268D01*
X-1884Y3263D01*
X-1885Y3261D01*
Y3259D01*
X-1885Y3257D01*
Y3256D01*
Y3256D01*
Y3255D01*
Y3140D01*
X-1916D01*
Y3255D01*
Y3260D01*
X-1915Y3265D01*
X-1915Y3269D01*
X-1915Y3273D01*
X-1914Y3277D01*
X-1914Y3280D01*
X-1913Y3283D01*
X-1912Y3286D01*
X-1912Y3288D01*
X-1911Y3290D01*
X-1911Y3292D01*
X-1910Y3294D01*
X-1910Y3295D01*
X-1909Y3296D01*
X-1909Y3296D01*
Y3296D01*
X-1906Y3301D01*
X-1903Y3306D01*
X-1899Y3310D01*
X-1896Y3313D01*
X-1893Y3315D01*
X-1890Y3317D01*
X-1889Y3317D01*
X-1888Y3318D01*
X-1888Y3318D01*
X-1888D01*
X-1882Y3321D01*
X-1876Y3323D01*
X-1870Y3325D01*
X-1865Y3325D01*
X-1860Y3326D01*
X-1858Y3326D01*
X-1856Y3326D01*
X-1853D01*
X-1847Y3326D01*
X-1841Y3325D01*
X-1835Y3324D01*
X-1830Y3323D01*
X-1826Y3320D01*
X-1821Y3319D01*
X-1817Y3316D01*
X-1813Y3314D01*
X-1810Y3311D01*
X-1807Y3309D01*
X-1804Y3307D01*
X-1802Y3305D01*
X-1801Y3304D01*
X-1799Y3302D01*
X-1799Y3301D01*
X-1798Y3301D01*
Y3392D01*
X-1767D01*
Y3140D01*
D02*
G37*
G36*
X2870Y3326D02*
X2877Y3325D01*
X2882Y3324D01*
X2887Y3322D01*
X2891Y3321D01*
X2892Y3320D01*
X2894Y3320D01*
X2895Y3319D01*
X2896Y3319D01*
X2896Y3318D01*
X2896D01*
X2901Y3315D01*
X2906Y3311D01*
X2910Y3308D01*
X2913Y3304D01*
X2916Y3301D01*
X2917Y3299D01*
X2919Y3297D01*
X2919Y3297D01*
Y3322D01*
X2947D01*
Y3140D01*
X2916D01*
Y3234D01*
Y3239D01*
X2916Y3243D01*
X2915Y3247D01*
X2915Y3251D01*
X2915Y3254D01*
X2914Y3257D01*
X2914Y3260D01*
X2913Y3263D01*
X2913Y3265D01*
X2913Y3267D01*
X2912Y3269D01*
X2912Y3270D01*
X2911Y3271D01*
X2911Y3272D01*
X2911Y3272D01*
Y3272D01*
X2909Y3277D01*
X2906Y3281D01*
X2904Y3285D01*
X2901Y3287D01*
X2899Y3290D01*
X2897Y3291D01*
X2895Y3292D01*
X2895Y3293D01*
X2890Y3295D01*
X2886Y3297D01*
X2882Y3298D01*
X2878Y3299D01*
X2875Y3299D01*
X2873Y3300D01*
X2871D01*
X2865Y3299D01*
X2859Y3298D01*
X2855Y3296D01*
X2852Y3295D01*
X2849Y3293D01*
X2847Y3291D01*
X2846Y3290D01*
X2846Y3289D01*
X2844Y3285D01*
X2842Y3280D01*
X2840Y3275D01*
X2839Y3270D01*
X2839Y3265D01*
Y3263D01*
X2838Y3262D01*
Y3260D01*
Y3259D01*
Y3259D01*
Y3258D01*
Y3140D01*
X2807D01*
Y3246D01*
X2807Y3251D01*
X2807Y3256D01*
X2806Y3260D01*
X2806Y3264D01*
X2804Y3268D01*
X2803Y3271D01*
X2802Y3274D01*
X2801Y3277D01*
X2800Y3279D01*
X2799Y3281D01*
X2798Y3283D01*
X2797Y3284D01*
X2796Y3286D01*
X2795Y3286D01*
X2795Y3287D01*
Y3287D01*
X2792Y3289D01*
X2789Y3291D01*
X2784Y3294D01*
X2779Y3297D01*
X2774Y3298D01*
X2769Y3299D01*
X2767Y3299D01*
X2766D01*
X2764Y3300D01*
X2762D01*
X2759Y3299D01*
X2755Y3299D01*
X2752Y3298D01*
X2749Y3297D01*
X2747Y3296D01*
X2745Y3295D01*
X2744Y3295D01*
X2744Y3295D01*
X2741Y3293D01*
X2739Y3290D01*
X2737Y3288D01*
X2735Y3286D01*
X2734Y3284D01*
X2733Y3283D01*
X2733Y3282D01*
Y3281D01*
X2732Y3278D01*
X2731Y3274D01*
X2731Y3269D01*
X2730Y3265D01*
Y3261D01*
X2730Y3258D01*
Y3257D01*
Y3256D01*
Y3255D01*
Y3255D01*
Y3140D01*
X2699D01*
Y3265D01*
X2699Y3271D01*
X2700Y3276D01*
X2700Y3281D01*
X2701Y3286D01*
X2702Y3290D01*
X2704Y3293D01*
X2705Y3297D01*
X2706Y3300D01*
X2708Y3302D01*
X2709Y3305D01*
X2710Y3307D01*
X2712Y3308D01*
X2712Y3310D01*
X2713Y3310D01*
X2714Y3311D01*
X2714Y3311D01*
X2717Y3314D01*
X2720Y3316D01*
X2723Y3318D01*
X2726Y3320D01*
X2733Y3323D01*
X2740Y3325D01*
X2743Y3325D01*
X2746Y3326D01*
X2749Y3326D01*
X2751Y3326D01*
X2753Y3327D01*
X2756D01*
X2762Y3326D01*
X2768Y3325D01*
X2774Y3323D01*
X2779Y3322D01*
X2784Y3319D01*
X2789Y3316D01*
X2793Y3313D01*
X2797Y3311D01*
X2800Y3308D01*
X2803Y3305D01*
X2806Y3302D01*
X2808Y3299D01*
X2810Y3298D01*
X2811Y3296D01*
X2812Y3295D01*
X2812Y3295D01*
X2815Y3300D01*
X2817Y3305D01*
X2820Y3308D01*
X2823Y3312D01*
X2826Y3314D01*
X2828Y3316D01*
X2830Y3318D01*
X2830Y3318D01*
X2831D01*
X2836Y3321D01*
X2841Y3323D01*
X2847Y3324D01*
X2852Y3325D01*
X2857Y3326D01*
X2859Y3326D01*
X2860Y3327D01*
X2864D01*
X2870Y3326D01*
D02*
G37*
G36*
X-103Y3326D02*
X-97Y3325D01*
X-91Y3324D01*
X-86Y3322D01*
X-83Y3321D01*
X-81Y3320D01*
X-80Y3320D01*
X-78Y3319D01*
X-78Y3319D01*
X-77Y3318D01*
X-77D01*
X-72Y3315D01*
X-68Y3311D01*
X-64Y3308D01*
X-60Y3304D01*
X-58Y3301D01*
X-56Y3299D01*
X-55Y3297D01*
X-54Y3297D01*
Y3322D01*
X-27D01*
Y3140D01*
X-57D01*
Y3234D01*
Y3239D01*
X-58Y3243D01*
X-58Y3247D01*
X-58Y3251D01*
X-58Y3254D01*
X-59Y3257D01*
X-59Y3260D01*
X-60Y3263D01*
X-60Y3265D01*
X-61Y3267D01*
X-61Y3269D01*
X-61Y3270D01*
X-62Y3271D01*
X-62Y3272D01*
X-62Y3272D01*
Y3272D01*
X-65Y3277D01*
X-67Y3281D01*
X-70Y3285D01*
X-72Y3287D01*
X-75Y3290D01*
X-77Y3291D01*
X-78Y3292D01*
X-78Y3293D01*
X-83Y3295D01*
X-87Y3297D01*
X-91Y3298D01*
X-95Y3299D01*
X-98Y3299D01*
X-101Y3300D01*
X-103D01*
X-109Y3299D01*
X-114Y3298D01*
X-118Y3296D01*
X-122Y3295D01*
X-124Y3293D01*
X-126Y3291D01*
X-127Y3290D01*
X-127Y3289D01*
X-130Y3285D01*
X-132Y3280D01*
X-133Y3275D01*
X-134Y3270D01*
X-135Y3265D01*
Y3263D01*
X-135Y3262D01*
Y3260D01*
Y3259D01*
Y3259D01*
Y3258D01*
Y3140D01*
X-166D01*
Y3246D01*
X-166Y3251D01*
X-166Y3256D01*
X-167Y3260D01*
X-168Y3264D01*
X-169Y3268D01*
X-170Y3271D01*
X-171Y3274D01*
X-172Y3277D01*
X-173Y3279D01*
X-175Y3281D01*
X-176Y3283D01*
X-177Y3284D01*
X-178Y3286D01*
X-178Y3286D01*
X-179Y3287D01*
Y3287D01*
X-181Y3289D01*
X-184Y3291D01*
X-189Y3294D01*
X-194Y3297D01*
X-200Y3298D01*
X-204Y3299D01*
X-206Y3299D01*
X-208D01*
X-209Y3300D01*
X-211D01*
X-215Y3299D01*
X-218Y3299D01*
X-221Y3298D01*
X-224Y3297D01*
X-226Y3296D01*
X-228Y3295D01*
X-229Y3295D01*
X-229Y3295D01*
X-232Y3293D01*
X-235Y3290D01*
X-236Y3288D01*
X-238Y3286D01*
X-239Y3284D01*
X-240Y3283D01*
X-240Y3282D01*
Y3281D01*
X-241Y3278D01*
X-242Y3274D01*
X-242Y3269D01*
X-243Y3265D01*
Y3261D01*
X-243Y3258D01*
Y3257D01*
Y3256D01*
Y3255D01*
Y3255D01*
Y3140D01*
X-274D01*
Y3265D01*
X-274Y3271D01*
X-274Y3276D01*
X-273Y3281D01*
X-272Y3286D01*
X-271Y3290D01*
X-270Y3293D01*
X-268Y3297D01*
X-267Y3300D01*
X-265Y3302D01*
X-264Y3305D01*
X-263Y3307D01*
X-262Y3308D01*
X-261Y3310D01*
X-260Y3310D01*
X-260Y3311D01*
X-259Y3311D01*
X-257Y3314D01*
X-253Y3316D01*
X-250Y3318D01*
X-247Y3320D01*
X-240Y3323D01*
X-233Y3325D01*
X-230Y3325D01*
X-227Y3326D01*
X-224Y3326D01*
X-222Y3326D01*
X-220Y3326D01*
X-218D01*
X-211Y3326D01*
X-205Y3325D01*
X-200Y3323D01*
X-194Y3322D01*
X-189Y3319D01*
X-185Y3316D01*
X-180Y3313D01*
X-176Y3311D01*
X-173Y3308D01*
X-170Y3305D01*
X-167Y3302D01*
X-165Y3299D01*
X-163Y3298D01*
X-162Y3296D01*
X-161Y3295D01*
X-161Y3295D01*
X-159Y3300D01*
X-156Y3305D01*
X-153Y3308D01*
X-150Y3312D01*
X-147Y3314D01*
X-145Y3316D01*
X-143Y3318D01*
X-143Y3318D01*
X-143D01*
X-137Y3321D01*
X-132Y3323D01*
X-126Y3324D01*
X-121Y3325D01*
X-117Y3326D01*
X-115Y3326D01*
X-113Y3326D01*
X-110D01*
X-103Y3326D01*
D02*
G37*
G36*
X4463Y3326D02*
X4471Y3325D01*
X4478Y3324D01*
X4481Y3324D01*
X4484Y3323D01*
X4486Y3323D01*
X4489Y3322D01*
X4491Y3322D01*
X4492Y3321D01*
X4494Y3320D01*
X4495Y3320D01*
X4495Y3320D01*
X4496D01*
X4502Y3317D01*
X4507Y3314D01*
X4512Y3311D01*
X4516Y3308D01*
X4519Y3305D01*
X4521Y3303D01*
X4522Y3302D01*
X4523Y3302D01*
Y3301D01*
X4526Y3297D01*
X4529Y3292D01*
X4531Y3286D01*
X4533Y3281D01*
X4534Y3277D01*
X4535Y3275D01*
X4536Y3274D01*
X4536Y3272D01*
X4536Y3271D01*
X4536Y3271D01*
Y3270D01*
X4506Y3266D01*
X4505Y3270D01*
X4504Y3273D01*
X4502Y3278D01*
X4499Y3283D01*
X4497Y3287D01*
X4494Y3290D01*
X4492Y3292D01*
X4491Y3293D01*
X4491Y3293D01*
X4486Y3296D01*
X4481Y3298D01*
X4476Y3299D01*
X4471Y3300D01*
X4466Y3301D01*
X4464D01*
X4462Y3301D01*
X4459D01*
X4450Y3300D01*
X4443Y3299D01*
X4437Y3298D01*
X4432Y3296D01*
X4429Y3293D01*
X4427Y3293D01*
X4426Y3292D01*
X4425Y3291D01*
X4424Y3291D01*
X4424Y3290D01*
X4421Y3287D01*
X4418Y3283D01*
X4417Y3278D01*
X4416Y3274D01*
X4415Y3270D01*
X4415Y3267D01*
Y3266D01*
Y3265D01*
Y3264D01*
Y3264D01*
Y3263D01*
Y3262D01*
Y3259D01*
X4415Y3258D01*
Y3257D01*
Y3256D01*
Y3256D01*
X4418Y3255D01*
X4422Y3254D01*
X4427Y3253D01*
X4431Y3251D01*
X4440Y3250D01*
X4449Y3248D01*
X4453Y3247D01*
X4457Y3247D01*
X4461Y3246D01*
X4464Y3246D01*
X4466Y3245D01*
X4468Y3245D01*
X4469Y3245D01*
X4470D01*
X4477Y3244D01*
X4482Y3243D01*
X4487Y3242D01*
X4491Y3242D01*
X4494Y3241D01*
X4496Y3241D01*
X4497Y3240D01*
X4498D01*
X4502Y3239D01*
X4506Y3237D01*
X4510Y3236D01*
X4513Y3234D01*
X4516Y3233D01*
X4518Y3231D01*
X4519Y3230D01*
X4520Y3230D01*
X4524Y3227D01*
X4527Y3225D01*
X4529Y3222D01*
X4531Y3219D01*
X4533Y3216D01*
X4535Y3214D01*
X4536Y3213D01*
X4536Y3212D01*
X4538Y3208D01*
X4539Y3204D01*
X4540Y3200D01*
X4541Y3196D01*
X4542Y3193D01*
X4542Y3190D01*
Y3188D01*
Y3188D01*
Y3188D01*
X4542Y3184D01*
X4541Y3180D01*
X4540Y3176D01*
X4539Y3172D01*
X4537Y3166D01*
X4534Y3161D01*
X4532Y3158D01*
X4531Y3156D01*
X4530Y3154D01*
X4528Y3153D01*
X4527Y3152D01*
X4527Y3151D01*
X4526Y3150D01*
X4526Y3150D01*
X4522Y3148D01*
X4519Y3146D01*
X4515Y3143D01*
X4512Y3142D01*
X4504Y3139D01*
X4497Y3138D01*
X4493Y3137D01*
X4490Y3136D01*
X4487Y3136D01*
X4484Y3136D01*
X4483Y3136D01*
X4480D01*
X4473Y3136D01*
X4466Y3136D01*
X4461Y3138D01*
X4456Y3139D01*
X4451Y3140D01*
X4450Y3140D01*
X4448Y3141D01*
X4447Y3141D01*
X4446Y3141D01*
X4446Y3142D01*
X4445D01*
X4439Y3144D01*
X4433Y3147D01*
X4428Y3151D01*
X4423Y3155D01*
X4418Y3158D01*
X4417Y3159D01*
X4415Y3160D01*
X4414Y3161D01*
X4413Y3162D01*
X4412Y3162D01*
X4412Y3163D01*
X4412Y3158D01*
X4411Y3153D01*
X4410Y3150D01*
X4409Y3146D01*
X4408Y3144D01*
X4407Y3141D01*
X4406Y3140D01*
X4406Y3140D01*
X4374D01*
X4376Y3144D01*
X4377Y3148D01*
X4379Y3151D01*
X4380Y3155D01*
X4381Y3158D01*
X4381Y3160D01*
X4382Y3161D01*
Y3162D01*
X4382Y3164D01*
X4382Y3167D01*
X4382Y3171D01*
X4383Y3175D01*
X4383Y3179D01*
Y3184D01*
X4383Y3193D01*
Y3198D01*
X4383Y3202D01*
Y3206D01*
Y3209D01*
Y3212D01*
Y3214D01*
Y3216D01*
Y3216D01*
Y3257D01*
Y3261D01*
Y3265D01*
X4384Y3268D01*
Y3271D01*
X4384Y3275D01*
X4384Y3279D01*
X4385Y3282D01*
X4385Y3284D01*
X4385Y3286D01*
Y3286D01*
X4386Y3290D01*
X4388Y3295D01*
X4390Y3298D01*
X4391Y3301D01*
X4392Y3304D01*
X4394Y3305D01*
X4395Y3307D01*
X4395Y3307D01*
X4398Y3310D01*
X4401Y3313D01*
X4405Y3315D01*
X4408Y3317D01*
X4412Y3319D01*
X4414Y3320D01*
X4415Y3320D01*
X4416Y3320D01*
X4416Y3321D01*
X4417D01*
X4422Y3323D01*
X4429Y3324D01*
X4435Y3325D01*
X4441Y3326D01*
X4446Y3326D01*
X4448D01*
X4450Y3327D01*
X4454D01*
X4463Y3326D01*
D02*
G37*
G36*
X2584D02*
X2592Y3325D01*
X2599Y3324D01*
X2603Y3324D01*
X2605Y3323D01*
X2608Y3323D01*
X2611Y3322D01*
X2613Y3322D01*
X2614Y3321D01*
X2616Y3320D01*
X2617Y3320D01*
X2617Y3320D01*
X2617D01*
X2624Y3317D01*
X2629Y3314D01*
X2634Y3311D01*
X2638Y3308D01*
X2641Y3305D01*
X2643Y3303D01*
X2644Y3302D01*
X2645Y3302D01*
Y3301D01*
X2648Y3297D01*
X2651Y3292D01*
X2653Y3286D01*
X2655Y3281D01*
X2656Y3277D01*
X2657Y3275D01*
X2657Y3274D01*
X2658Y3272D01*
X2658Y3271D01*
X2658Y3271D01*
Y3270D01*
X2628Y3266D01*
X2627Y3270D01*
X2626Y3273D01*
X2623Y3278D01*
X2621Y3283D01*
X2618Y3287D01*
X2616Y3290D01*
X2614Y3292D01*
X2613Y3293D01*
X2613Y3293D01*
X2608Y3296D01*
X2603Y3298D01*
X2598Y3299D01*
X2593Y3300D01*
X2588Y3301D01*
X2586D01*
X2584Y3301D01*
X2580D01*
X2572Y3300D01*
X2565Y3299D01*
X2559Y3298D01*
X2554Y3296D01*
X2550Y3293D01*
X2549Y3293D01*
X2548Y3292D01*
X2546Y3291D01*
X2546Y3291D01*
X2545Y3290D01*
X2542Y3287D01*
X2540Y3283D01*
X2539Y3278D01*
X2537Y3274D01*
X2537Y3270D01*
X2536Y3267D01*
Y3266D01*
Y3265D01*
Y3264D01*
Y3264D01*
Y3263D01*
Y3262D01*
Y3259D01*
X2537Y3258D01*
Y3257D01*
Y3256D01*
Y3256D01*
X2540Y3255D01*
X2544Y3254D01*
X2548Y3253D01*
X2553Y3251D01*
X2562Y3250D01*
X2571Y3248D01*
X2575Y3247D01*
X2579Y3247D01*
X2583Y3246D01*
X2586Y3246D01*
X2588Y3245D01*
X2590Y3245D01*
X2591Y3245D01*
X2592D01*
X2598Y3244D01*
X2604Y3243D01*
X2609Y3242D01*
X2613Y3242D01*
X2616Y3241D01*
X2618Y3241D01*
X2619Y3240D01*
X2619D01*
X2624Y3239D01*
X2628Y3237D01*
X2632Y3236D01*
X2635Y3234D01*
X2638Y3233D01*
X2640Y3231D01*
X2641Y3230D01*
X2642Y3230D01*
X2645Y3227D01*
X2648Y3225D01*
X2651Y3222D01*
X2653Y3219D01*
X2655Y3216D01*
X2656Y3214D01*
X2657Y3213D01*
X2658Y3212D01*
X2659Y3208D01*
X2661Y3204D01*
X2662Y3200D01*
X2663Y3196D01*
X2663Y3193D01*
X2664Y3190D01*
Y3188D01*
Y3188D01*
Y3188D01*
X2663Y3184D01*
X2663Y3180D01*
X2662Y3176D01*
X2661Y3172D01*
X2658Y3166D01*
X2655Y3161D01*
X2654Y3158D01*
X2653Y3156D01*
X2651Y3154D01*
X2650Y3153D01*
X2649Y3152D01*
X2648Y3151D01*
X2648Y3150D01*
X2647Y3150D01*
X2644Y3148D01*
X2641Y3146D01*
X2637Y3143D01*
X2634Y3142D01*
X2626Y3139D01*
X2618Y3138D01*
X2615Y3137D01*
X2612Y3136D01*
X2609Y3136D01*
X2606Y3136D01*
X2604Y3136D01*
X2601D01*
X2595Y3136D01*
X2588Y3136D01*
X2583Y3138D01*
X2577Y3139D01*
X2573Y3140D01*
X2571Y3140D01*
X2570Y3141D01*
X2569Y3141D01*
X2568Y3141D01*
X2567Y3142D01*
X2567D01*
X2561Y3144D01*
X2555Y3147D01*
X2550Y3151D01*
X2545Y3155D01*
X2540Y3158D01*
X2539Y3159D01*
X2537Y3160D01*
X2536Y3161D01*
X2535Y3162D01*
X2534Y3162D01*
X2534Y3163D01*
X2533Y3158D01*
X2533Y3153D01*
X2531Y3150D01*
X2530Y3146D01*
X2530Y3144D01*
X2529Y3141D01*
X2528Y3140D01*
X2528Y3140D01*
X2496D01*
X2498Y3144D01*
X2499Y3148D01*
X2501Y3151D01*
X2502Y3155D01*
X2503Y3158D01*
X2503Y3160D01*
X2503Y3161D01*
Y3162D01*
X2504Y3164D01*
X2504Y3167D01*
X2504Y3171D01*
X2504Y3175D01*
X2505Y3179D01*
Y3184D01*
X2505Y3193D01*
Y3198D01*
X2505Y3202D01*
Y3206D01*
Y3209D01*
Y3212D01*
Y3214D01*
Y3216D01*
Y3216D01*
Y3257D01*
Y3261D01*
Y3265D01*
X2506Y3268D01*
Y3271D01*
X2506Y3275D01*
X2506Y3279D01*
X2506Y3282D01*
X2507Y3284D01*
X2507Y3286D01*
Y3286D01*
X2508Y3290D01*
X2510Y3295D01*
X2511Y3298D01*
X2513Y3301D01*
X2514Y3304D01*
X2516Y3305D01*
X2516Y3307D01*
X2517Y3307D01*
X2520Y3310D01*
X2523Y3313D01*
X2527Y3315D01*
X2530Y3317D01*
X2533Y3319D01*
X2536Y3320D01*
X2537Y3320D01*
X2538Y3320D01*
X2538Y3321D01*
X2538D01*
X2544Y3323D01*
X2550Y3324D01*
X2557Y3325D01*
X2563Y3326D01*
X2568Y3326D01*
X2570D01*
X2572Y3327D01*
X2576D01*
X2584Y3326D01*
D02*
G37*
G36*
X1567Y3326D02*
X1575Y3325D01*
X1583Y3324D01*
X1586Y3324D01*
X1589Y3323D01*
X1591Y3323D01*
X1594Y3322D01*
X1596Y3322D01*
X1597Y3321D01*
X1599Y3320D01*
X1600Y3320D01*
X1600Y3320D01*
X1601D01*
X1607Y3317D01*
X1612Y3314D01*
X1617Y3311D01*
X1621Y3308D01*
X1624Y3305D01*
X1626Y3303D01*
X1627Y3302D01*
X1628Y3302D01*
Y3301D01*
X1631Y3297D01*
X1634Y3292D01*
X1636Y3286D01*
X1638Y3281D01*
X1639Y3277D01*
X1640Y3275D01*
X1640Y3274D01*
X1641Y3272D01*
X1641Y3271D01*
X1641Y3271D01*
Y3270D01*
X1611Y3266D01*
X1610Y3270D01*
X1609Y3273D01*
X1607Y3278D01*
X1604Y3283D01*
X1601Y3287D01*
X1599Y3290D01*
X1597Y3292D01*
X1596Y3293D01*
X1596Y3293D01*
X1591Y3296D01*
X1586Y3298D01*
X1581Y3299D01*
X1576Y3300D01*
X1571Y3301D01*
X1569D01*
X1567Y3301D01*
X1563D01*
X1555Y3300D01*
X1548Y3299D01*
X1542Y3298D01*
X1537Y3296D01*
X1533Y3293D01*
X1532Y3293D01*
X1531Y3292D01*
X1530Y3291D01*
X1529Y3291D01*
X1528Y3290D01*
X1525Y3287D01*
X1523Y3283D01*
X1522Y3278D01*
X1521Y3274D01*
X1520Y3270D01*
X1519Y3267D01*
Y3266D01*
Y3265D01*
Y3264D01*
Y3264D01*
Y3263D01*
Y3262D01*
Y3259D01*
X1520Y3258D01*
Y3257D01*
Y3256D01*
Y3256D01*
X1523Y3255D01*
X1527Y3254D01*
X1531Y3253D01*
X1536Y3251D01*
X1545Y3250D01*
X1554Y3248D01*
X1558Y3247D01*
X1562Y3247D01*
X1566Y3246D01*
X1569Y3246D01*
X1571Y3245D01*
X1573Y3245D01*
X1574Y3245D01*
X1575D01*
X1581Y3244D01*
X1587Y3243D01*
X1592Y3242D01*
X1596Y3242D01*
X1599Y3241D01*
X1601Y3241D01*
X1602Y3240D01*
X1602D01*
X1607Y3239D01*
X1611Y3237D01*
X1615Y3236D01*
X1618Y3234D01*
X1621Y3233D01*
X1623Y3231D01*
X1624Y3230D01*
X1625Y3230D01*
X1628Y3227D01*
X1631Y3225D01*
X1634Y3222D01*
X1636Y3219D01*
X1638Y3216D01*
X1640Y3214D01*
X1640Y3213D01*
X1641Y3212D01*
X1643Y3208D01*
X1644Y3204D01*
X1645Y3200D01*
X1646Y3196D01*
X1646Y3193D01*
X1647Y3190D01*
Y3188D01*
Y3188D01*
Y3188D01*
X1646Y3184D01*
X1646Y3180D01*
X1645Y3176D01*
X1644Y3172D01*
X1641Y3166D01*
X1638Y3161D01*
X1637Y3158D01*
X1636Y3156D01*
X1634Y3154D01*
X1633Y3153D01*
X1632Y3152D01*
X1631Y3151D01*
X1631Y3150D01*
X1631Y3150D01*
X1627Y3148D01*
X1624Y3146D01*
X1620Y3143D01*
X1617Y3142D01*
X1609Y3139D01*
X1601Y3138D01*
X1598Y3137D01*
X1595Y3136D01*
X1592Y3136D01*
X1589Y3136D01*
X1587Y3136D01*
X1584D01*
X1578Y3136D01*
X1571Y3136D01*
X1566Y3138D01*
X1560Y3139D01*
X1556Y3140D01*
X1554Y3140D01*
X1553Y3141D01*
X1552Y3141D01*
X1551Y3141D01*
X1551Y3142D01*
X1550D01*
X1544Y3144D01*
X1538Y3147D01*
X1533Y3151D01*
X1528Y3155D01*
X1523Y3158D01*
X1522Y3159D01*
X1520Y3160D01*
X1519Y3161D01*
X1518Y3162D01*
X1517Y3162D01*
X1517Y3163D01*
X1516Y3158D01*
X1516Y3153D01*
X1515Y3150D01*
X1513Y3146D01*
X1513Y3144D01*
X1512Y3141D01*
X1511Y3140D01*
X1511Y3140D01*
X1479D01*
X1481Y3144D01*
X1482Y3148D01*
X1484Y3151D01*
X1485Y3155D01*
X1486Y3158D01*
X1486Y3160D01*
X1486Y3161D01*
Y3162D01*
X1487Y3164D01*
X1487Y3167D01*
X1487Y3171D01*
X1488Y3175D01*
X1488Y3179D01*
Y3184D01*
X1488Y3193D01*
Y3198D01*
X1488Y3202D01*
Y3206D01*
Y3209D01*
Y3212D01*
Y3214D01*
Y3216D01*
Y3216D01*
Y3257D01*
Y3261D01*
Y3265D01*
X1489Y3268D01*
Y3271D01*
X1489Y3275D01*
X1489Y3279D01*
X1489Y3282D01*
X1490Y3284D01*
X1490Y3286D01*
Y3286D01*
X1491Y3290D01*
X1493Y3295D01*
X1494Y3298D01*
X1496Y3301D01*
X1497Y3304D01*
X1499Y3305D01*
X1500Y3307D01*
X1500Y3307D01*
X1503Y3310D01*
X1506Y3313D01*
X1510Y3315D01*
X1513Y3317D01*
X1516Y3319D01*
X1519Y3320D01*
X1520Y3320D01*
X1521Y3320D01*
X1521Y3321D01*
X1521D01*
X1527Y3323D01*
X1533Y3324D01*
X1540Y3325D01*
X1546Y3326D01*
X1551Y3326D01*
X1553D01*
X1555Y3326D01*
X1559D01*
X1567Y3326D01*
D02*
G37*
G36*
X100D02*
X108Y3325D01*
X115Y3324D01*
X118Y3324D01*
X121Y3323D01*
X124Y3323D01*
X126Y3322D01*
X128Y3322D01*
X130Y3321D01*
X131Y3320D01*
X132Y3320D01*
X133Y3320D01*
X133D01*
X139Y3317D01*
X145Y3314D01*
X150Y3311D01*
X153Y3308D01*
X156Y3305D01*
X159Y3303D01*
X160Y3302D01*
X160Y3302D01*
Y3301D01*
X164Y3297D01*
X166Y3292D01*
X169Y3286D01*
X171Y3281D01*
X172Y3277D01*
X172Y3275D01*
X173Y3274D01*
X173Y3272D01*
X174Y3271D01*
X174Y3271D01*
Y3270D01*
X144Y3266D01*
X142Y3270D01*
X141Y3273D01*
X139Y3278D01*
X136Y3283D01*
X134Y3287D01*
X132Y3290D01*
X130Y3292D01*
X129Y3293D01*
X128Y3293D01*
X124Y3296D01*
X119Y3298D01*
X114Y3299D01*
X108Y3300D01*
X103Y3301D01*
X101D01*
X100Y3301D01*
X96D01*
X88Y3300D01*
X81Y3299D01*
X75Y3298D01*
X70Y3296D01*
X66Y3293D01*
X65Y3293D01*
X63Y3292D01*
X62Y3291D01*
X62Y3291D01*
X61Y3290D01*
X58Y3287D01*
X56Y3283D01*
X54Y3278D01*
X53Y3274D01*
X53Y3270D01*
X52Y3267D01*
Y3266D01*
Y3265D01*
Y3264D01*
Y3264D01*
Y3263D01*
Y3262D01*
Y3259D01*
X52Y3258D01*
Y3257D01*
Y3256D01*
Y3256D01*
X56Y3255D01*
X60Y3254D01*
X64Y3253D01*
X68Y3251D01*
X77Y3250D01*
X86Y3248D01*
X91Y3247D01*
X95Y3247D01*
X98Y3246D01*
X101Y3246D01*
X104Y3245D01*
X106Y3245D01*
X107Y3245D01*
X107D01*
X114Y3244D01*
X120Y3243D01*
X124Y3242D01*
X128Y3242D01*
X131Y3241D01*
X133Y3241D01*
X135Y3240D01*
X135D01*
X139Y3239D01*
X144Y3237D01*
X148Y3236D01*
X151Y3234D01*
X154Y3233D01*
X156Y3231D01*
X157Y3230D01*
X157Y3230D01*
X161Y3227D01*
X164Y3225D01*
X167Y3222D01*
X169Y3219D01*
X171Y3216D01*
X172Y3214D01*
X173Y3213D01*
X173Y3212D01*
X175Y3208D01*
X177Y3204D01*
X178Y3200D01*
X178Y3196D01*
X179Y3193D01*
X179Y3190D01*
Y3188D01*
Y3188D01*
Y3188D01*
X179Y3184D01*
X178Y3180D01*
X178Y3176D01*
X177Y3172D01*
X174Y3166D01*
X171Y3161D01*
X170Y3158D01*
X168Y3156D01*
X167Y3154D01*
X166Y3153D01*
X165Y3152D01*
X164Y3151D01*
X163Y3150D01*
X163Y3150D01*
X160Y3148D01*
X157Y3146D01*
X153Y3143D01*
X149Y3142D01*
X142Y3139D01*
X134Y3138D01*
X131Y3137D01*
X127Y3136D01*
X124Y3136D01*
X122Y3136D01*
X120Y3136D01*
X117D01*
X110Y3136D01*
X104Y3136D01*
X98Y3138D01*
X93Y3139D01*
X89Y3140D01*
X87Y3140D01*
X86Y3141D01*
X85Y3141D01*
X84Y3141D01*
X83Y3142D01*
X83D01*
X77Y3144D01*
X71Y3147D01*
X65Y3151D01*
X60Y3155D01*
X56Y3158D01*
X54Y3159D01*
X53Y3160D01*
X51Y3161D01*
X50Y3162D01*
X50Y3162D01*
X50Y3163D01*
X49Y3158D01*
X48Y3153D01*
X47Y3150D01*
X46Y3146D01*
X45Y3144D01*
X44Y3141D01*
X44Y3140D01*
X44Y3140D01*
X11D01*
X13Y3144D01*
X15Y3148D01*
X16Y3151D01*
X17Y3155D01*
X18Y3158D01*
X19Y3160D01*
X19Y3161D01*
Y3162D01*
X19Y3164D01*
X20Y3167D01*
X20Y3171D01*
X20Y3175D01*
X20Y3179D01*
Y3184D01*
X21Y3193D01*
Y3198D01*
X21Y3202D01*
Y3206D01*
Y3209D01*
Y3212D01*
Y3214D01*
Y3216D01*
Y3216D01*
Y3257D01*
Y3261D01*
Y3265D01*
X21Y3268D01*
Y3271D01*
X22Y3275D01*
X22Y3279D01*
X22Y3282D01*
X22Y3284D01*
X23Y3286D01*
Y3286D01*
X24Y3290D01*
X25Y3295D01*
X27Y3298D01*
X29Y3301D01*
X30Y3304D01*
X31Y3305D01*
X32Y3307D01*
X32Y3307D01*
X35Y3310D01*
X39Y3313D01*
X42Y3315D01*
X46Y3317D01*
X49Y3319D01*
X52Y3320D01*
X53Y3320D01*
X53Y3320D01*
X54Y3321D01*
X54D01*
X60Y3323D01*
X66Y3324D01*
X72Y3325D01*
X78Y3326D01*
X83Y3326D01*
X86D01*
X88Y3326D01*
X92D01*
X100Y3326D01*
D02*
G37*
G36*
X-1347D02*
X-1339Y3325D01*
X-1332Y3324D01*
X-1329Y3324D01*
X-1326Y3323D01*
X-1324Y3323D01*
X-1321Y3322D01*
X-1319Y3322D01*
X-1318Y3321D01*
X-1316Y3320D01*
X-1315Y3320D01*
X-1315Y3320D01*
X-1314D01*
X-1308Y3317D01*
X-1303Y3314D01*
X-1298Y3311D01*
X-1294Y3308D01*
X-1291Y3305D01*
X-1289Y3303D01*
X-1288Y3302D01*
X-1287Y3302D01*
Y3301D01*
X-1284Y3297D01*
X-1281Y3292D01*
X-1279Y3286D01*
X-1277Y3281D01*
X-1276Y3277D01*
X-1275Y3275D01*
X-1274Y3274D01*
X-1274Y3272D01*
X-1274Y3271D01*
X-1274Y3271D01*
Y3270D01*
X-1304Y3266D01*
X-1305Y3270D01*
X-1306Y3273D01*
X-1308Y3278D01*
X-1311Y3283D01*
X-1313Y3287D01*
X-1316Y3290D01*
X-1318Y3292D01*
X-1319Y3293D01*
X-1319Y3293D01*
X-1324Y3296D01*
X-1329Y3298D01*
X-1334Y3299D01*
X-1339Y3300D01*
X-1344Y3301D01*
X-1346D01*
X-1348Y3301D01*
X-1351D01*
X-1360Y3300D01*
X-1367Y3299D01*
X-1373Y3298D01*
X-1378Y3296D01*
X-1381Y3293D01*
X-1383Y3293D01*
X-1384Y3292D01*
X-1385Y3291D01*
X-1386Y3291D01*
X-1386Y3290D01*
X-1389Y3287D01*
X-1392Y3283D01*
X-1393Y3278D01*
X-1394Y3274D01*
X-1395Y3270D01*
X-1395Y3267D01*
Y3266D01*
Y3265D01*
Y3264D01*
Y3264D01*
Y3263D01*
Y3262D01*
Y3259D01*
X-1395Y3258D01*
Y3257D01*
Y3256D01*
Y3256D01*
X-1392Y3255D01*
X-1388Y3254D01*
X-1383Y3253D01*
X-1379Y3251D01*
X-1370Y3250D01*
X-1361Y3248D01*
X-1357Y3247D01*
X-1353Y3247D01*
X-1349Y3246D01*
X-1346Y3246D01*
X-1344Y3245D01*
X-1342Y3245D01*
X-1340Y3245D01*
X-1340D01*
X-1333Y3244D01*
X-1328Y3243D01*
X-1323Y3242D01*
X-1319Y3242D01*
X-1316Y3241D01*
X-1314Y3241D01*
X-1313Y3240D01*
X-1312D01*
X-1308Y3239D01*
X-1304Y3237D01*
X-1300Y3236D01*
X-1297Y3234D01*
X-1294Y3233D01*
X-1292Y3231D01*
X-1291Y3230D01*
X-1290Y3230D01*
X-1286Y3227D01*
X-1283Y3225D01*
X-1281Y3222D01*
X-1279Y3219D01*
X-1277Y3216D01*
X-1275Y3214D01*
X-1274Y3213D01*
X-1274Y3212D01*
X-1272Y3208D01*
X-1271Y3204D01*
X-1270Y3200D01*
X-1269Y3196D01*
X-1268Y3193D01*
X-1268Y3190D01*
Y3188D01*
Y3188D01*
Y3188D01*
X-1268Y3184D01*
X-1269Y3180D01*
X-1270Y3176D01*
X-1271Y3172D01*
X-1273Y3166D01*
X-1276Y3161D01*
X-1278Y3158D01*
X-1279Y3156D01*
X-1280Y3154D01*
X-1282Y3153D01*
X-1283Y3152D01*
X-1283Y3151D01*
X-1284Y3150D01*
X-1284Y3150D01*
X-1288Y3148D01*
X-1291Y3146D01*
X-1295Y3143D01*
X-1298Y3142D01*
X-1306Y3139D01*
X-1313Y3138D01*
X-1317Y3137D01*
X-1320Y3136D01*
X-1323Y3136D01*
X-1325Y3136D01*
X-1327Y3136D01*
X-1330D01*
X-1337Y3136D01*
X-1344Y3136D01*
X-1349Y3138D01*
X-1354Y3139D01*
X-1359Y3140D01*
X-1360Y3140D01*
X-1362Y3141D01*
X-1363Y3141D01*
X-1364Y3141D01*
X-1364Y3142D01*
X-1365D01*
X-1371Y3144D01*
X-1377Y3147D01*
X-1382Y3151D01*
X-1387Y3155D01*
X-1392Y3158D01*
X-1393Y3159D01*
X-1395Y3160D01*
X-1396Y3161D01*
X-1397Y3162D01*
X-1398Y3162D01*
X-1398Y3163D01*
X-1398Y3158D01*
X-1399Y3153D01*
X-1400Y3150D01*
X-1401Y3146D01*
X-1402Y3144D01*
X-1403Y3141D01*
X-1404Y3140D01*
X-1404Y3140D01*
X-1436D01*
X-1434Y3144D01*
X-1433Y3148D01*
X-1431Y3151D01*
X-1430Y3155D01*
X-1429Y3158D01*
X-1429Y3160D01*
X-1428Y3161D01*
Y3162D01*
X-1428Y3164D01*
X-1428Y3167D01*
X-1428Y3171D01*
X-1427Y3175D01*
X-1427Y3179D01*
Y3184D01*
X-1427Y3193D01*
Y3198D01*
X-1426Y3202D01*
Y3206D01*
Y3209D01*
Y3212D01*
Y3214D01*
Y3216D01*
Y3216D01*
Y3257D01*
Y3261D01*
Y3265D01*
X-1426Y3268D01*
Y3271D01*
X-1426Y3275D01*
X-1426Y3279D01*
X-1425Y3282D01*
X-1425Y3284D01*
X-1425Y3286D01*
Y3286D01*
X-1424Y3290D01*
X-1422Y3295D01*
X-1420Y3298D01*
X-1419Y3301D01*
X-1417Y3304D01*
X-1416Y3305D01*
X-1415Y3307D01*
X-1415Y3307D01*
X-1412Y3310D01*
X-1409Y3313D01*
X-1405Y3315D01*
X-1402Y3317D01*
X-1398Y3319D01*
X-1396Y3320D01*
X-1395Y3320D01*
X-1394Y3320D01*
X-1394Y3321D01*
X-1393D01*
X-1388Y3323D01*
X-1381Y3324D01*
X-1375Y3325D01*
X-1369Y3326D01*
X-1364Y3326D01*
X-1362D01*
X-1360Y3326D01*
X-1356D01*
X-1347Y3326D01*
D02*
G37*
G36*
X-988Y3140D02*
X-1020D01*
Y3354D01*
X-1093Y3140D01*
X-1123D01*
X-1197Y3351D01*
Y3140D01*
X-1229D01*
Y3392D01*
X-1184D01*
X-1123Y3216D01*
X-1122Y3212D01*
X-1120Y3207D01*
X-1119Y3203D01*
X-1117Y3199D01*
X-1116Y3195D01*
X-1115Y3192D01*
X-1114Y3189D01*
X-1113Y3186D01*
X-1112Y3184D01*
X-1112Y3182D01*
X-1111Y3180D01*
X-1111Y3179D01*
X-1110Y3177D01*
X-1110Y3177D01*
X-1110Y3176D01*
Y3176D01*
X-1109Y3179D01*
X-1108Y3181D01*
X-1106Y3187D01*
X-1104Y3193D01*
X-1102Y3199D01*
X-1101Y3205D01*
X-1100Y3207D01*
X-1099Y3209D01*
X-1099Y3211D01*
X-1098Y3212D01*
X-1098Y3213D01*
Y3213D01*
X-1038Y3392D01*
X-988D01*
Y3140D01*
D02*
G37*
G36*
X1921Y3140D02*
X1886Y3140D01*
X1833Y3332D01*
X1832Y3336D01*
X1831Y3341D01*
X1829Y3346D01*
X1828Y3351D01*
X1827Y3355D01*
X1827Y3357D01*
X1827Y3358D01*
X1826Y3360D01*
Y3360D01*
X1826Y3361D01*
Y3361D01*
X1825Y3360D01*
X1825Y3358D01*
X1824Y3357D01*
X1824Y3354D01*
X1822Y3349D01*
X1821Y3345D01*
X1820Y3340D01*
X1819Y3337D01*
X1819Y3336D01*
X1818Y3334D01*
X1818Y3333D01*
X1818Y3332D01*
Y3332D01*
X1765Y3140D01*
X1732D01*
X1663Y3392D01*
X1697D01*
X1736Y3230D01*
X1739Y3218D01*
X1742Y3208D01*
X1743Y3203D01*
X1744Y3199D01*
X1745Y3195D01*
X1745Y3191D01*
X1746Y3187D01*
X1747Y3184D01*
X1748Y3182D01*
X1748Y3179D01*
X1749Y3177D01*
X1749Y3176D01*
X1749Y3175D01*
Y3175D01*
X1752Y3191D01*
X1755Y3206D01*
X1756Y3214D01*
X1758Y3221D01*
X1760Y3228D01*
X1761Y3235D01*
X1763Y3241D01*
X1764Y3247D01*
X1766Y3252D01*
X1767Y3256D01*
X1768Y3259D01*
X1768Y3262D01*
X1769Y3263D01*
X1769Y3264D01*
X1805Y3392D01*
X1845D01*
X1893Y3221D01*
X1893Y3220D01*
X1894Y3218D01*
X1895Y3215D01*
X1895Y3212D01*
X1896Y3208D01*
X1897Y3204D01*
X1899Y3196D01*
X1900Y3192D01*
X1901Y3188D01*
X1902Y3185D01*
X1903Y3181D01*
X1904Y3179D01*
X1904Y3177D01*
X1904Y3176D01*
Y3175D01*
X1906Y3185D01*
X1908Y3194D01*
X1910Y3202D01*
X1910Y3206D01*
X1911Y3210D01*
X1912Y3214D01*
X1913Y3217D01*
X1913Y3219D01*
X1914Y3222D01*
X1914Y3224D01*
X1915Y3225D01*
X1915Y3226D01*
Y3226D01*
X1953Y3392D01*
X1987D01*
X1921Y3140D01*
D02*
G37*
G36*
X626Y3139D02*
X627Y3136D01*
X628Y3134D01*
X629Y3132D01*
X629Y3132D01*
X630Y3129D01*
X631Y3126D01*
X632Y3123D01*
X633Y3120D01*
X635Y3116D01*
X636Y3113D01*
X637Y3111D01*
X638Y3110D01*
X638Y3109D01*
X638Y3109D01*
X641Y3105D01*
X643Y3103D01*
X645Y3102D01*
X646Y3100D01*
X647Y3100D01*
X648Y3099D01*
X649Y3099D01*
X651Y3098D01*
X654Y3097D01*
X657Y3096D01*
X659Y3096D01*
X661Y3096D01*
X663Y3096D01*
X665D01*
X668Y3096D01*
X671Y3096D01*
X674Y3097D01*
X676Y3097D01*
X679Y3098D01*
X681Y3098D01*
X682Y3099D01*
X682D01*
X679Y3070D01*
X675Y3068D01*
X671Y3067D01*
X668Y3067D01*
X665Y3066D01*
X662Y3066D01*
X661Y3066D01*
X659D01*
X653Y3066D01*
X649Y3067D01*
X644Y3068D01*
X641Y3070D01*
X638Y3071D01*
X635Y3072D01*
X634Y3073D01*
X634Y3073D01*
X630Y3076D01*
X626Y3080D01*
X623Y3083D01*
X620Y3087D01*
X618Y3090D01*
X616Y3093D01*
X616Y3094D01*
X615Y3095D01*
X615Y3095D01*
Y3096D01*
X613Y3098D01*
X612Y3100D01*
X611Y3103D01*
X609Y3107D01*
X607Y3114D01*
X604Y3120D01*
X602Y3124D01*
X601Y3127D01*
X600Y3129D01*
X599Y3132D01*
X598Y3134D01*
X598Y3135D01*
X597Y3136D01*
Y3137D01*
X528Y3322D01*
X559D01*
X598Y3216D01*
X601Y3208D01*
X603Y3201D01*
X605Y3194D01*
X607Y3187D01*
X608Y3185D01*
X609Y3182D01*
X610Y3180D01*
X610Y3178D01*
X610Y3176D01*
X611Y3175D01*
X611Y3174D01*
Y3174D01*
X613Y3182D01*
X615Y3190D01*
X618Y3197D01*
X620Y3204D01*
X621Y3206D01*
X622Y3209D01*
X622Y3211D01*
X623Y3213D01*
X623Y3215D01*
X624Y3216D01*
X624Y3216D01*
Y3216D01*
X662Y3322D01*
X695D01*
X626Y3139D01*
D02*
G37*
G36*
X1435Y3367D02*
Y3322D01*
X1458D01*
Y3298D01*
X1435D01*
Y3193D01*
Y3188D01*
X1435Y3183D01*
Y3179D01*
X1435Y3176D01*
X1435Y3172D01*
X1434Y3169D01*
X1434Y3167D01*
X1433Y3164D01*
X1433Y3162D01*
X1433Y3161D01*
X1433Y3159D01*
X1432Y3158D01*
X1432Y3157D01*
X1432Y3156D01*
X1430Y3153D01*
X1428Y3151D01*
X1426Y3148D01*
X1424Y3146D01*
X1422Y3145D01*
X1420Y3144D01*
X1419Y3143D01*
X1419Y3142D01*
X1415Y3141D01*
X1411Y3139D01*
X1406Y3139D01*
X1402Y3138D01*
X1398Y3138D01*
X1395Y3137D01*
X1392D01*
X1384Y3138D01*
X1380Y3138D01*
X1377Y3139D01*
X1374Y3139D01*
X1371Y3139D01*
X1370Y3140D01*
X1369D01*
X1373Y3167D01*
X1376Y3167D01*
X1379Y3167D01*
X1381Y3167D01*
X1383D01*
X1385Y3166D01*
X1390D01*
X1392Y3167D01*
X1393Y3167D01*
X1395Y3167D01*
X1396Y3168D01*
X1397Y3168D01*
X1397Y3168D01*
X1398D01*
X1400Y3170D01*
X1402Y3172D01*
X1403Y3174D01*
X1403Y3174D01*
Y3174D01*
X1403Y3176D01*
X1404Y3179D01*
X1404Y3182D01*
Y3184D01*
X1405Y3187D01*
Y3189D01*
Y3191D01*
Y3191D01*
Y3191D01*
Y3298D01*
X1373D01*
Y3322D01*
X1405D01*
Y3386D01*
X1435Y3367D01*
D02*
G37*
G36*
X4092Y3326D02*
X4098Y3325D01*
X4104Y3324D01*
X4110Y3322D01*
X4116Y3320D01*
X4121Y3318D01*
X4126Y3316D01*
X4130Y3314D01*
X4134Y3311D01*
X4137Y3309D01*
X4140Y3307D01*
X4142Y3305D01*
X4144Y3303D01*
X4145Y3302D01*
X4146Y3301D01*
X4147Y3301D01*
X4151Y3296D01*
X4154Y3290D01*
X4157Y3285D01*
X4160Y3279D01*
X4162Y3273D01*
X4164Y3267D01*
X4166Y3261D01*
X4167Y3256D01*
X4168Y3250D01*
X4169Y3245D01*
X4169Y3241D01*
X4170Y3237D01*
Y3234D01*
X4170Y3231D01*
Y3230D01*
Y3229D01*
X4170Y3221D01*
X4169Y3213D01*
X4168Y3206D01*
X4166Y3200D01*
X4165Y3194D01*
X4163Y3188D01*
X4160Y3183D01*
X4158Y3178D01*
X4156Y3174D01*
X4154Y3170D01*
X4152Y3167D01*
X4150Y3165D01*
X4149Y3163D01*
X4148Y3161D01*
X4147Y3161D01*
X4147Y3160D01*
X4142Y3156D01*
X4137Y3152D01*
X4132Y3149D01*
X4127Y3146D01*
X4122Y3144D01*
X4116Y3142D01*
X4111Y3140D01*
X4106Y3139D01*
X4101Y3138D01*
X4097Y3137D01*
X4093Y3136D01*
X4090Y3136D01*
X4087D01*
X4085Y3136D01*
X4083D01*
X4077Y3136D01*
X4072Y3136D01*
X4067Y3137D01*
X4062Y3138D01*
X4057Y3139D01*
X4053Y3141D01*
X4049Y3142D01*
X4045Y3143D01*
X4042Y3145D01*
X4039Y3146D01*
X4037Y3147D01*
X4035Y3149D01*
X4033Y3150D01*
X4032Y3150D01*
X4031Y3151D01*
X4031Y3151D01*
X4027Y3154D01*
X4024Y3157D01*
X4021Y3161D01*
X4018Y3164D01*
X4013Y3172D01*
X4009Y3179D01*
X4008Y3182D01*
X4006Y3185D01*
X4005Y3188D01*
X4005Y3190D01*
X4004Y3192D01*
X4003Y3193D01*
X4003Y3194D01*
Y3195D01*
X4035Y3199D01*
X4038Y3192D01*
X4041Y3186D01*
X4044Y3181D01*
X4047Y3177D01*
X4050Y3174D01*
X4052Y3171D01*
X4054Y3170D01*
X4054Y3170D01*
X4054D01*
X4059Y3167D01*
X4064Y3165D01*
X4069Y3163D01*
X4073Y3162D01*
X4077Y3162D01*
X4080Y3161D01*
X4082Y3161D01*
X4083D01*
X4087Y3161D01*
X4091Y3162D01*
X4095Y3162D01*
X4099Y3164D01*
X4105Y3166D01*
X4111Y3169D01*
X4113Y3170D01*
X4115Y3172D01*
X4117Y3173D01*
X4119Y3174D01*
X4120Y3176D01*
X4121Y3176D01*
X4121Y3177D01*
X4121Y3177D01*
X4124Y3180D01*
X4127Y3183D01*
X4129Y3187D01*
X4130Y3191D01*
X4133Y3199D01*
X4136Y3206D01*
X4136Y3210D01*
X4137Y3213D01*
X4138Y3216D01*
X4138Y3218D01*
X4138Y3220D01*
X4138Y3222D01*
Y3223D01*
Y3223D01*
X4002D01*
X4002Y3227D01*
Y3230D01*
Y3231D01*
Y3231D01*
X4002Y3240D01*
X4003Y3247D01*
X4004Y3255D01*
X4005Y3262D01*
X4007Y3268D01*
X4009Y3274D01*
X4011Y3279D01*
X4013Y3283D01*
X4015Y3287D01*
X4018Y3291D01*
X4020Y3294D01*
X4021Y3297D01*
X4023Y3299D01*
X4024Y3300D01*
X4025Y3301D01*
X4025Y3301D01*
X4029Y3306D01*
X4034Y3310D01*
X4039Y3313D01*
X4044Y3316D01*
X4049Y3318D01*
X4054Y3320D01*
X4059Y3322D01*
X4064Y3323D01*
X4068Y3324D01*
X4072Y3325D01*
X4076Y3326D01*
X4079Y3326D01*
X4081D01*
X4083Y3327D01*
X4085D01*
X4092Y3326D01*
D02*
G37*
G36*
X2275Y3326D02*
X2283Y3325D01*
X2291Y3323D01*
X2294Y3322D01*
X2297Y3321D01*
X2300Y3320D01*
X2302Y3319D01*
X2305Y3318D01*
X2307Y3317D01*
X2308Y3316D01*
X2309Y3316D01*
X2310Y3315D01*
X2310D01*
X2317Y3311D01*
X2323Y3305D01*
X2328Y3300D01*
X2332Y3295D01*
X2336Y3290D01*
X2337Y3287D01*
X2338Y3286D01*
X2339Y3284D01*
X2339Y3283D01*
X2340Y3282D01*
Y3282D01*
X2343Y3274D01*
X2345Y3265D01*
X2347Y3256D01*
X2348Y3248D01*
X2349Y3244D01*
X2349Y3241D01*
X2349Y3238D01*
Y3235D01*
X2349Y3233D01*
Y3231D01*
Y3230D01*
Y3230D01*
X2349Y3222D01*
X2348Y3214D01*
X2347Y3207D01*
X2346Y3200D01*
X2344Y3194D01*
X2342Y3188D01*
X2340Y3183D01*
X2338Y3178D01*
X2336Y3174D01*
X2334Y3170D01*
X2332Y3167D01*
X2330Y3165D01*
X2329Y3162D01*
X2328Y3161D01*
X2327Y3160D01*
X2327Y3160D01*
X2322Y3156D01*
X2318Y3152D01*
X2313Y3149D01*
X2308Y3146D01*
X2303Y3144D01*
X2298Y3142D01*
X2293Y3140D01*
X2288Y3139D01*
X2284Y3138D01*
X2280Y3137D01*
X2276Y3136D01*
X2273Y3136D01*
X2270D01*
X2268Y3136D01*
X2267D01*
X2261Y3136D01*
X2256Y3136D01*
X2251Y3137D01*
X2246Y3138D01*
X2242Y3140D01*
X2238Y3141D01*
X2234Y3143D01*
X2230Y3145D01*
X2227Y3146D01*
X2224Y3148D01*
X2222Y3149D01*
X2220Y3151D01*
X2219Y3152D01*
X2217Y3153D01*
X2217Y3153D01*
X2216Y3153D01*
X2213Y3157D01*
X2209Y3161D01*
X2206Y3165D01*
X2204Y3169D01*
X2201Y3173D01*
X2199Y3177D01*
X2196Y3185D01*
X2195Y3188D01*
X2193Y3192D01*
X2193Y3195D01*
X2192Y3197D01*
X2191Y3200D01*
X2191Y3201D01*
X2191Y3202D01*
Y3203D01*
X2221Y3207D01*
X2222Y3202D01*
X2223Y3198D01*
X2224Y3195D01*
X2225Y3191D01*
X2226Y3188D01*
X2227Y3185D01*
X2229Y3183D01*
X2230Y3180D01*
X2231Y3179D01*
X2233Y3177D01*
X2235Y3174D01*
X2236Y3173D01*
X2236Y3172D01*
X2237Y3172D01*
X2242Y3168D01*
X2246Y3166D01*
X2252Y3164D01*
X2256Y3162D01*
X2261Y3162D01*
X2262Y3161D01*
X2264D01*
X2265Y3161D01*
X2267D01*
X2271Y3161D01*
X2275Y3162D01*
X2279Y3163D01*
X2282Y3164D01*
X2288Y3166D01*
X2294Y3170D01*
X2296Y3171D01*
X2298Y3173D01*
X2300Y3174D01*
X2301Y3175D01*
X2302Y3176D01*
X2303Y3177D01*
X2304Y3177D01*
X2304Y3178D01*
X2306Y3181D01*
X2308Y3185D01*
X2310Y3189D01*
X2312Y3193D01*
X2314Y3202D01*
X2316Y3211D01*
X2317Y3215D01*
X2317Y3219D01*
X2317Y3222D01*
X2317Y3225D01*
X2318Y3228D01*
Y3230D01*
Y3231D01*
Y3231D01*
X2317Y3238D01*
X2317Y3244D01*
X2316Y3250D01*
X2316Y3255D01*
X2314Y3260D01*
X2313Y3264D01*
X2312Y3268D01*
X2310Y3271D01*
X2309Y3274D01*
X2308Y3277D01*
X2307Y3279D01*
X2305Y3281D01*
X2305Y3283D01*
X2304Y3283D01*
X2304Y3284D01*
X2303Y3284D01*
X2300Y3287D01*
X2298Y3290D01*
X2294Y3292D01*
X2291Y3294D01*
X2288Y3296D01*
X2285Y3297D01*
X2279Y3299D01*
X2273Y3300D01*
X2271Y3301D01*
X2269Y3301D01*
X2267Y3301D01*
X2265D01*
X2260Y3301D01*
X2255Y3300D01*
X2250Y3298D01*
X2246Y3296D01*
X2243Y3295D01*
X2241Y3293D01*
X2240Y3292D01*
X2239Y3292D01*
X2235Y3288D01*
X2232Y3283D01*
X2230Y3279D01*
X2227Y3274D01*
X2226Y3270D01*
X2225Y3267D01*
X2224Y3266D01*
X2224Y3265D01*
X2224Y3264D01*
Y3264D01*
X2194Y3269D01*
X2195Y3274D01*
X2196Y3278D01*
X2198Y3283D01*
X2200Y3287D01*
X2202Y3291D01*
X2204Y3294D01*
X2206Y3297D01*
X2208Y3300D01*
X2210Y3303D01*
X2212Y3305D01*
X2213Y3307D01*
X2215Y3308D01*
X2216Y3310D01*
X2217Y3310D01*
X2218Y3311D01*
X2218Y3311D01*
X2222Y3314D01*
X2225Y3316D01*
X2230Y3318D01*
X2234Y3320D01*
X2242Y3323D01*
X2249Y3325D01*
X2253Y3325D01*
X2256Y3326D01*
X2259Y3326D01*
X2262Y3326D01*
X2264Y3327D01*
X2267D01*
X2275Y3326D01*
D02*
G37*
G36*
X1278Y3326D02*
X1286Y3325D01*
X1293Y3323D01*
X1296Y3322D01*
X1300Y3321D01*
X1302Y3320D01*
X1305Y3319D01*
X1307Y3318D01*
X1309Y3317D01*
X1311Y3316D01*
X1312Y3316D01*
X1312Y3315D01*
X1313D01*
X1320Y3311D01*
X1326Y3305D01*
X1331Y3300D01*
X1335Y3295D01*
X1338Y3290D01*
X1339Y3287D01*
X1340Y3286D01*
X1341Y3284D01*
X1342Y3283D01*
X1342Y3282D01*
Y3282D01*
X1346Y3274D01*
X1348Y3265D01*
X1349Y3256D01*
X1351Y3248D01*
X1351Y3244D01*
X1351Y3241D01*
X1352Y3238D01*
Y3235D01*
X1352Y3233D01*
Y3231D01*
Y3230D01*
Y3230D01*
X1352Y3222D01*
X1351Y3214D01*
X1350Y3207D01*
X1348Y3200D01*
X1347Y3194D01*
X1345Y3188D01*
X1343Y3183D01*
X1340Y3178D01*
X1338Y3174D01*
X1336Y3170D01*
X1334Y3167D01*
X1333Y3165D01*
X1331Y3162D01*
X1330Y3161D01*
X1329Y3160D01*
X1329Y3160D01*
X1325Y3156D01*
X1320Y3152D01*
X1315Y3149D01*
X1310Y3146D01*
X1305Y3144D01*
X1300Y3142D01*
X1295Y3140D01*
X1291Y3139D01*
X1286Y3138D01*
X1282Y3137D01*
X1278Y3136D01*
X1275Y3136D01*
X1273D01*
X1271Y3136D01*
X1269D01*
X1264Y3136D01*
X1258Y3136D01*
X1254Y3137D01*
X1249Y3138D01*
X1244Y3140D01*
X1240Y3141D01*
X1236Y3143D01*
X1233Y3145D01*
X1230Y3146D01*
X1227Y3148D01*
X1225Y3149D01*
X1222Y3151D01*
X1221Y3152D01*
X1220Y3153D01*
X1219Y3153D01*
X1219Y3153D01*
X1215Y3157D01*
X1212Y3161D01*
X1209Y3165D01*
X1206Y3169D01*
X1204Y3173D01*
X1202Y3177D01*
X1198Y3185D01*
X1197Y3188D01*
X1196Y3192D01*
X1195Y3195D01*
X1194Y3197D01*
X1194Y3200D01*
X1193Y3201D01*
X1193Y3202D01*
Y3203D01*
X1224Y3207D01*
X1224Y3202D01*
X1225Y3198D01*
X1226Y3195D01*
X1227Y3191D01*
X1229Y3188D01*
X1230Y3185D01*
X1231Y3183D01*
X1233Y3180D01*
X1234Y3179D01*
X1235Y3177D01*
X1237Y3174D01*
X1239Y3173D01*
X1239Y3172D01*
X1239Y3172D01*
X1244Y3168D01*
X1249Y3166D01*
X1254Y3164D01*
X1259Y3162D01*
X1263Y3162D01*
X1265Y3161D01*
X1266D01*
X1268Y3161D01*
X1269D01*
X1273Y3161D01*
X1278Y3162D01*
X1281Y3163D01*
X1285Y3164D01*
X1291Y3166D01*
X1296Y3170D01*
X1299Y3171D01*
X1301Y3173D01*
X1302Y3174D01*
X1304Y3175D01*
X1305Y3176D01*
X1306Y3177D01*
X1306Y3177D01*
X1306Y3178D01*
X1309Y3181D01*
X1311Y3185D01*
X1313Y3189D01*
X1314Y3193D01*
X1317Y3202D01*
X1319Y3211D01*
X1319Y3215D01*
X1319Y3219D01*
X1320Y3222D01*
X1320Y3225D01*
X1320Y3228D01*
Y3230D01*
Y3231D01*
Y3231D01*
X1320Y3238D01*
X1320Y3244D01*
X1319Y3250D01*
X1318Y3255D01*
X1317Y3260D01*
X1316Y3264D01*
X1314Y3268D01*
X1313Y3271D01*
X1312Y3274D01*
X1310Y3277D01*
X1309Y3279D01*
X1308Y3281D01*
X1307Y3283D01*
X1306Y3283D01*
X1306Y3284D01*
X1306Y3284D01*
X1303Y3287D01*
X1300Y3290D01*
X1297Y3292D01*
X1294Y3294D01*
X1290Y3296D01*
X1287Y3297D01*
X1281Y3299D01*
X1276Y3300D01*
X1274Y3301D01*
X1272Y3301D01*
X1270Y3301D01*
X1268D01*
X1262Y3301D01*
X1257Y3300D01*
X1253Y3298D01*
X1249Y3296D01*
X1246Y3295D01*
X1243Y3293D01*
X1242Y3292D01*
X1242Y3292D01*
X1238Y3288D01*
X1234Y3283D01*
X1232Y3279D01*
X1230Y3274D01*
X1228Y3270D01*
X1227Y3267D01*
X1227Y3266D01*
X1227Y3265D01*
X1226Y3264D01*
Y3264D01*
X1196Y3269D01*
X1197Y3274D01*
X1199Y3278D01*
X1201Y3283D01*
X1202Y3287D01*
X1204Y3291D01*
X1206Y3294D01*
X1208Y3297D01*
X1210Y3300D01*
X1212Y3303D01*
X1214Y3305D01*
X1216Y3307D01*
X1218Y3308D01*
X1219Y3310D01*
X1220Y3310D01*
X1220Y3311D01*
X1221Y3311D01*
X1224Y3314D01*
X1228Y3316D01*
X1232Y3318D01*
X1236Y3320D01*
X1244Y3323D01*
X1252Y3325D01*
X1255Y3325D01*
X1259Y3326D01*
X1262Y3326D01*
X1264Y3326D01*
X1266Y3326D01*
X1269D01*
X1278Y3326D01*
D02*
G37*
G36*
X-1657D02*
X-1648Y3325D01*
X-1641Y3323D01*
X-1638Y3322D01*
X-1635Y3321D01*
X-1632Y3320D01*
X-1629Y3319D01*
X-1627Y3318D01*
X-1625Y3317D01*
X-1624Y3316D01*
X-1623Y3316D01*
X-1622Y3315D01*
X-1622D01*
X-1615Y3311D01*
X-1609Y3305D01*
X-1603Y3300D01*
X-1599Y3295D01*
X-1596Y3290D01*
X-1595Y3287D01*
X-1594Y3286D01*
X-1593Y3284D01*
X-1592Y3283D01*
X-1592Y3282D01*
Y3282D01*
X-1589Y3274D01*
X-1586Y3265D01*
X-1585Y3256D01*
X-1583Y3248D01*
X-1583Y3244D01*
X-1583Y3241D01*
X-1583Y3238D01*
Y3235D01*
X-1582Y3233D01*
Y3231D01*
Y3230D01*
Y3230D01*
X-1583Y3222D01*
X-1583Y3214D01*
X-1585Y3207D01*
X-1586Y3200D01*
X-1588Y3194D01*
X-1589Y3188D01*
X-1592Y3183D01*
X-1594Y3178D01*
X-1596Y3174D01*
X-1598Y3170D01*
X-1600Y3167D01*
X-1601Y3165D01*
X-1603Y3162D01*
X-1604Y3161D01*
X-1605Y3160D01*
X-1605Y3160D01*
X-1609Y3156D01*
X-1614Y3152D01*
X-1619Y3149D01*
X-1624Y3146D01*
X-1629Y3144D01*
X-1634Y3142D01*
X-1639Y3140D01*
X-1644Y3139D01*
X-1648Y3138D01*
X-1652Y3137D01*
X-1656Y3136D01*
X-1659Y3136D01*
X-1662D01*
X-1663Y3136D01*
X-1665D01*
X-1671Y3136D01*
X-1676Y3136D01*
X-1681Y3137D01*
X-1686Y3138D01*
X-1690Y3140D01*
X-1694Y3141D01*
X-1698Y3143D01*
X-1701Y3145D01*
X-1704Y3146D01*
X-1707Y3148D01*
X-1710Y3149D01*
X-1712Y3151D01*
X-1713Y3152D01*
X-1715Y3153D01*
X-1715Y3153D01*
X-1715Y3153D01*
X-1719Y3157D01*
X-1722Y3161D01*
X-1725Y3165D01*
X-1728Y3169D01*
X-1730Y3173D01*
X-1733Y3177D01*
X-1736Y3185D01*
X-1737Y3188D01*
X-1738Y3192D01*
X-1739Y3195D01*
X-1740Y3197D01*
X-1740Y3200D01*
X-1741Y3201D01*
X-1741Y3202D01*
Y3203D01*
X-1711Y3207D01*
X-1710Y3202D01*
X-1709Y3198D01*
X-1708Y3195D01*
X-1707Y3191D01*
X-1706Y3188D01*
X-1704Y3185D01*
X-1703Y3183D01*
X-1702Y3180D01*
X-1700Y3179D01*
X-1699Y3177D01*
X-1697Y3174D01*
X-1696Y3173D01*
X-1695Y3172D01*
X-1695Y3172D01*
X-1690Y3168D01*
X-1685Y3166D01*
X-1680Y3164D01*
X-1675Y3162D01*
X-1671Y3162D01*
X-1669Y3161D01*
X-1668D01*
X-1666Y3161D01*
X-1665D01*
X-1661Y3161D01*
X-1657Y3162D01*
X-1653Y3163D01*
X-1650Y3164D01*
X-1643Y3166D01*
X-1638Y3170D01*
X-1636Y3171D01*
X-1634Y3173D01*
X-1632Y3174D01*
X-1630Y3175D01*
X-1629Y3176D01*
X-1629Y3177D01*
X-1628Y3177D01*
X-1628Y3178D01*
X-1626Y3181D01*
X-1623Y3185D01*
X-1621Y3189D01*
X-1620Y3193D01*
X-1617Y3202D01*
X-1616Y3211D01*
X-1615Y3215D01*
X-1615Y3219D01*
X-1615Y3222D01*
X-1614Y3225D01*
X-1614Y3228D01*
Y3230D01*
Y3231D01*
Y3231D01*
X-1614Y3238D01*
X-1615Y3244D01*
X-1615Y3250D01*
X-1616Y3255D01*
X-1617Y3260D01*
X-1619Y3264D01*
X-1620Y3268D01*
X-1621Y3271D01*
X-1623Y3274D01*
X-1624Y3277D01*
X-1625Y3279D01*
X-1626Y3281D01*
X-1627Y3283D01*
X-1628Y3283D01*
X-1628Y3284D01*
X-1629Y3284D01*
X-1631Y3287D01*
X-1634Y3290D01*
X-1638Y3292D01*
X-1641Y3294D01*
X-1644Y3296D01*
X-1647Y3297D01*
X-1653Y3299D01*
X-1658Y3300D01*
X-1660Y3301D01*
X-1663Y3301D01*
X-1664Y3301D01*
X-1666D01*
X-1672Y3301D01*
X-1677Y3300D01*
X-1681Y3298D01*
X-1685Y3296D01*
X-1688Y3295D01*
X-1691Y3293D01*
X-1692Y3292D01*
X-1693Y3292D01*
X-1696Y3288D01*
X-1700Y3283D01*
X-1702Y3279D01*
X-1704Y3274D01*
X-1706Y3270D01*
X-1707Y3267D01*
X-1707Y3266D01*
X-1708Y3265D01*
X-1708Y3264D01*
Y3264D01*
X-1738Y3269D01*
X-1737Y3274D01*
X-1735Y3278D01*
X-1734Y3283D01*
X-1732Y3287D01*
X-1730Y3291D01*
X-1728Y3294D01*
X-1726Y3297D01*
X-1724Y3300D01*
X-1722Y3303D01*
X-1720Y3305D01*
X-1718Y3307D01*
X-1717Y3308D01*
X-1716Y3310D01*
X-1715Y3310D01*
X-1714Y3311D01*
X-1714Y3311D01*
X-1710Y3314D01*
X-1706Y3316D01*
X-1702Y3318D01*
X-1698Y3320D01*
X-1690Y3323D01*
X-1682Y3325D01*
X-1679Y3325D01*
X-1675Y3326D01*
X-1672Y3326D01*
X-1670Y3326D01*
X-1668Y3326D01*
X-1665D01*
X-1657Y3326D01*
D02*
G37*
G36*
X4764Y3140D02*
X4668D01*
X4659Y3140D01*
X4651Y3140D01*
X4644Y3141D01*
X4641Y3141D01*
X4638Y3142D01*
X4636Y3142D01*
X4634Y3142D01*
X4632Y3143D01*
X4630Y3143D01*
X4629Y3144D01*
X4628D01*
X4628Y3144D01*
X4627D01*
X4621Y3146D01*
X4616Y3147D01*
X4611Y3150D01*
X4607Y3151D01*
X4604Y3153D01*
X4602Y3155D01*
X4600Y3156D01*
X4600Y3156D01*
X4596Y3160D01*
X4592Y3164D01*
X4589Y3167D01*
X4586Y3171D01*
X4584Y3174D01*
X4583Y3177D01*
X4582Y3178D01*
X4581Y3179D01*
X4581Y3179D01*
Y3180D01*
X4579Y3185D01*
X4577Y3191D01*
X4575Y3197D01*
X4574Y3202D01*
X4574Y3206D01*
Y3208D01*
X4573Y3210D01*
Y3211D01*
Y3212D01*
Y3212D01*
Y3213D01*
Y3217D01*
X4574Y3221D01*
X4575Y3228D01*
X4578Y3234D01*
X4580Y3240D01*
X4581Y3242D01*
X4582Y3245D01*
X4583Y3247D01*
X4584Y3248D01*
X4585Y3249D01*
X4586Y3250D01*
X4586Y3251D01*
X4586Y3251D01*
X4591Y3257D01*
X4597Y3261D01*
X4602Y3265D01*
X4608Y3268D01*
X4613Y3271D01*
X4615Y3272D01*
X4617Y3272D01*
X4619Y3273D01*
X4620Y3274D01*
X4621Y3274D01*
X4621D01*
X4615Y3277D01*
X4610Y3281D01*
X4605Y3285D01*
X4601Y3289D01*
X4598Y3292D01*
X4596Y3294D01*
X4596Y3295D01*
X4595Y3296D01*
X4595Y3296D01*
Y3297D01*
X4592Y3302D01*
X4590Y3307D01*
X4588Y3313D01*
X4587Y3317D01*
X4586Y3321D01*
X4586Y3324D01*
Y3325D01*
Y3326D01*
Y3327D01*
Y3327D01*
X4586Y3334D01*
X4587Y3340D01*
X4589Y3345D01*
X4591Y3350D01*
X4593Y3354D01*
X4593Y3356D01*
X4594Y3358D01*
X4595Y3359D01*
X4595Y3360D01*
X4596Y3360D01*
Y3360D01*
X4600Y3366D01*
X4604Y3371D01*
X4609Y3375D01*
X4613Y3378D01*
X4617Y3381D01*
X4620Y3382D01*
X4622Y3383D01*
X4622Y3384D01*
X4623Y3384D01*
X4623D01*
X4630Y3387D01*
X4638Y3388D01*
X4646Y3390D01*
X4653Y3391D01*
X4656Y3391D01*
X4659Y3391D01*
X4662D01*
X4665Y3392D01*
X4764D01*
Y3140D01*
D02*
G37*
G36*
X3396Y3326D02*
X3402Y3325D01*
X3408Y3324D01*
X3414Y3322D01*
X3419Y3319D01*
X3424Y3317D01*
X3428Y3314D01*
X3432Y3311D01*
X3436Y3308D01*
X3439Y3306D01*
X3441Y3303D01*
X3443Y3301D01*
X3445Y3299D01*
X3446Y3298D01*
X3447Y3296D01*
X3447Y3296D01*
Y3322D01*
X3475D01*
Y3140D01*
X3444D01*
Y3239D01*
X3444Y3246D01*
X3443Y3252D01*
X3442Y3257D01*
X3442Y3262D01*
X3441Y3266D01*
X3439Y3270D01*
X3438Y3274D01*
X3437Y3277D01*
X3435Y3279D01*
X3434Y3281D01*
X3433Y3283D01*
X3432Y3285D01*
X3431Y3286D01*
X3430Y3287D01*
X3430Y3287D01*
X3430Y3287D01*
X3427Y3289D01*
X3424Y3291D01*
X3418Y3295D01*
X3412Y3297D01*
X3407Y3298D01*
X3403Y3299D01*
X3400Y3299D01*
X3399D01*
X3397Y3300D01*
X3395D01*
X3391Y3299D01*
X3387Y3299D01*
X3383Y3298D01*
X3380Y3297D01*
X3377Y3296D01*
X3376Y3295D01*
X3374Y3294D01*
X3374Y3294D01*
X3371Y3292D01*
X3368Y3289D01*
X3366Y3287D01*
X3364Y3284D01*
X3363Y3282D01*
X3362Y3281D01*
X3361Y3280D01*
X3361Y3279D01*
X3360Y3275D01*
X3359Y3271D01*
X3358Y3266D01*
X3358Y3262D01*
X3358Y3257D01*
X3357Y3256D01*
Y3254D01*
Y3253D01*
Y3252D01*
Y3251D01*
Y3251D01*
Y3140D01*
X3326D01*
Y3252D01*
Y3256D01*
Y3259D01*
X3327Y3263D01*
Y3266D01*
X3327Y3269D01*
Y3271D01*
X3327Y3275D01*
X3328Y3278D01*
X3328Y3280D01*
X3328Y3282D01*
Y3282D01*
X3329Y3287D01*
X3331Y3291D01*
X3332Y3295D01*
X3334Y3298D01*
X3336Y3301D01*
X3337Y3303D01*
X3338Y3304D01*
X3338Y3305D01*
X3341Y3308D01*
X3344Y3311D01*
X3347Y3314D01*
X3351Y3316D01*
X3354Y3318D01*
X3356Y3319D01*
X3358Y3320D01*
X3358Y3320D01*
X3359D01*
X3364Y3322D01*
X3369Y3324D01*
X3374Y3325D01*
X3379Y3326D01*
X3383Y3326D01*
X3385D01*
X3386Y3327D01*
X3389D01*
X3396Y3326D01*
D02*
G37*
G36*
X2394D02*
X2398Y3325D01*
X2402Y3325D01*
X2405Y3323D01*
X2407Y3322D01*
X2409Y3321D01*
X2410Y3320D01*
X2410Y3320D01*
X2412Y3319D01*
X2414Y3317D01*
X2417Y3314D01*
X2420Y3309D01*
X2423Y3305D01*
X2426Y3301D01*
X2428Y3298D01*
X2429Y3296D01*
X2429Y3295D01*
X2430Y3295D01*
Y3322D01*
X2458D01*
Y3140D01*
X2427D01*
Y3235D01*
X2427Y3242D01*
X2426Y3249D01*
X2425Y3255D01*
X2424Y3261D01*
X2424Y3265D01*
X2423Y3267D01*
X2423Y3269D01*
X2423Y3270D01*
X2422Y3271D01*
X2422Y3271D01*
Y3271D01*
X2420Y3275D01*
X2419Y3279D01*
X2417Y3281D01*
X2415Y3284D01*
X2413Y3286D01*
X2412Y3287D01*
X2411Y3288D01*
X2411Y3288D01*
X2407Y3290D01*
X2404Y3292D01*
X2401Y3293D01*
X2398Y3294D01*
X2396Y3294D01*
X2394Y3295D01*
X2392D01*
X2388Y3294D01*
X2384Y3293D01*
X2380Y3292D01*
X2377Y3291D01*
X2374Y3290D01*
X2371Y3289D01*
X2370Y3288D01*
X2370Y3288D01*
X2359Y3316D01*
X2365Y3320D01*
X2371Y3322D01*
X2376Y3324D01*
X2381Y3325D01*
X2385Y3326D01*
X2386Y3326D01*
X2388D01*
X2389Y3327D01*
X2391D01*
X2394Y3326D01*
D02*
G37*
G36*
X-771Y3326D02*
X-764Y3325D01*
X-758Y3324D01*
X-752Y3322D01*
X-747Y3319D01*
X-743Y3317D01*
X-738Y3314D01*
X-734Y3311D01*
X-731Y3308D01*
X-728Y3306D01*
X-725Y3303D01*
X-724Y3301D01*
X-722Y3299D01*
X-721Y3298D01*
X-720Y3296D01*
X-720Y3296D01*
Y3322D01*
X-692D01*
Y3140D01*
X-723D01*
Y3239D01*
X-723Y3246D01*
X-723Y3252D01*
X-724Y3257D01*
X-725Y3262D01*
X-726Y3266D01*
X-727Y3270D01*
X-728Y3274D01*
X-730Y3277D01*
X-731Y3279D01*
X-733Y3281D01*
X-734Y3283D01*
X-735Y3285D01*
X-736Y3286D01*
X-736Y3287D01*
X-737Y3287D01*
X-737Y3287D01*
X-740Y3289D01*
X-743Y3291D01*
X-748Y3295D01*
X-754Y3297D01*
X-759Y3298D01*
X-764Y3299D01*
X-766Y3299D01*
X-768D01*
X-769Y3300D01*
X-771D01*
X-776Y3299D01*
X-780Y3299D01*
X-783Y3298D01*
X-787Y3297D01*
X-789Y3296D01*
X-791Y3295D01*
X-792Y3294D01*
X-793Y3294D01*
X-796Y3292D01*
X-799Y3289D01*
X-801Y3287D01*
X-802Y3284D01*
X-804Y3282D01*
X-805Y3281D01*
X-805Y3280D01*
X-805Y3279D01*
X-807Y3275D01*
X-808Y3271D01*
X-808Y3266D01*
X-809Y3262D01*
X-809Y3257D01*
X-809Y3256D01*
Y3254D01*
Y3253D01*
Y3252D01*
Y3251D01*
Y3251D01*
Y3140D01*
X-840D01*
Y3252D01*
Y3256D01*
Y3259D01*
X-840Y3263D01*
Y3266D01*
X-840Y3269D01*
Y3271D01*
X-839Y3275D01*
X-839Y3278D01*
X-838Y3280D01*
X-838Y3282D01*
Y3282D01*
X-837Y3287D01*
X-835Y3291D01*
X-834Y3295D01*
X-832Y3298D01*
X-831Y3301D01*
X-830Y3303D01*
X-829Y3304D01*
X-829Y3305D01*
X-826Y3308D01*
X-823Y3311D01*
X-819Y3314D01*
X-816Y3316D01*
X-813Y3318D01*
X-810Y3319D01*
X-808Y3320D01*
X-808Y3320D01*
X-808D01*
X-803Y3322D01*
X-798Y3324D01*
X-792Y3325D01*
X-788Y3326D01*
X-784Y3326D01*
X-782D01*
X-780Y3326D01*
X-778D01*
X-771Y3326D01*
D02*
G37*
G36*
X-1537D02*
X-1534Y3325D01*
X-1530Y3325D01*
X-1527Y3323D01*
X-1525Y3322D01*
X-1523Y3321D01*
X-1522Y3320D01*
X-1522Y3320D01*
X-1520Y3319D01*
X-1518Y3317D01*
X-1515Y3314D01*
X-1511Y3309D01*
X-1508Y3305D01*
X-1506Y3301D01*
X-1504Y3298D01*
X-1503Y3296D01*
X-1502Y3295D01*
X-1502Y3295D01*
Y3322D01*
X-1474D01*
Y3140D01*
X-1505D01*
Y3235D01*
X-1505Y3242D01*
X-1506Y3249D01*
X-1506Y3255D01*
X-1507Y3261D01*
X-1508Y3265D01*
X-1509Y3267D01*
X-1509Y3269D01*
X-1509Y3270D01*
X-1509Y3271D01*
X-1510Y3271D01*
Y3271D01*
X-1511Y3275D01*
X-1513Y3279D01*
X-1515Y3281D01*
X-1517Y3284D01*
X-1519Y3286D01*
X-1520Y3287D01*
X-1521Y3288D01*
X-1521Y3288D01*
X-1524Y3290D01*
X-1528Y3292D01*
X-1531Y3293D01*
X-1534Y3294D01*
X-1536Y3294D01*
X-1538Y3295D01*
X-1540D01*
X-1544Y3294D01*
X-1548Y3293D01*
X-1552Y3292D01*
X-1555Y3291D01*
X-1558Y3290D01*
X-1560Y3289D01*
X-1562Y3288D01*
X-1562Y3288D01*
X-1573Y3316D01*
X-1567Y3320D01*
X-1561Y3322D01*
X-1556Y3324D01*
X-1551Y3325D01*
X-1547Y3326D01*
X-1545Y3326D01*
X-1544D01*
X-1543Y3326D01*
X-1541D01*
X-1537Y3326D01*
D02*
G37*
G36*
X4281Y3326D02*
X4286Y3326D01*
X4290Y3325D01*
X4294Y3325D01*
X4298Y3324D01*
X4300Y3323D01*
X4302Y3323D01*
X4302Y3323D01*
X4302D01*
X4307Y3321D01*
X4311Y3320D01*
X4314Y3318D01*
X4317Y3317D01*
X4319Y3316D01*
X4321Y3314D01*
X4322Y3314D01*
X4322Y3314D01*
X4326Y3311D01*
X4329Y3308D01*
X4331Y3305D01*
X4333Y3302D01*
X4335Y3300D01*
X4336Y3298D01*
X4337Y3297D01*
X4337Y3296D01*
X4339Y3293D01*
X4341Y3289D01*
X4341Y3285D01*
X4342Y3281D01*
X4343Y3278D01*
X4343Y3276D01*
Y3274D01*
Y3274D01*
Y3274D01*
X4343Y3269D01*
X4342Y3264D01*
X4341Y3260D01*
X4340Y3257D01*
X4338Y3254D01*
X4337Y3251D01*
X4337Y3250D01*
X4336Y3249D01*
X4334Y3245D01*
X4330Y3242D01*
X4327Y3239D01*
X4324Y3237D01*
X4321Y3234D01*
X4319Y3233D01*
X4317Y3232D01*
X4317Y3232D01*
X4316D01*
X4314Y3231D01*
X4310Y3230D01*
X4307Y3228D01*
X4303Y3227D01*
X4295Y3225D01*
X4288Y3222D01*
X4284Y3221D01*
X4280Y3220D01*
X4277Y3219D01*
X4274Y3218D01*
X4272Y3218D01*
X4270Y3217D01*
X4269Y3217D01*
X4269D01*
X4264Y3216D01*
X4260Y3215D01*
X4257Y3214D01*
X4253Y3213D01*
X4250Y3212D01*
X4248Y3211D01*
X4246Y3210D01*
X4243Y3209D01*
X4242Y3209D01*
X4240Y3208D01*
X4239Y3207D01*
X4237Y3207D01*
X4237Y3207D01*
X4234Y3204D01*
X4232Y3201D01*
X4230Y3199D01*
X4229Y3196D01*
X4228Y3194D01*
X4228Y3192D01*
Y3191D01*
Y3190D01*
X4228Y3186D01*
X4230Y3182D01*
X4231Y3178D01*
X4233Y3175D01*
X4235Y3173D01*
X4237Y3171D01*
X4238Y3170D01*
X4238Y3170D01*
X4243Y3167D01*
X4248Y3165D01*
X4253Y3163D01*
X4258Y3162D01*
X4263Y3162D01*
X4265Y3161D01*
X4267D01*
X4268Y3161D01*
X4270D01*
X4278Y3162D01*
X4284Y3163D01*
X4290Y3164D01*
X4294Y3166D01*
X4298Y3168D01*
X4301Y3169D01*
X4303Y3170D01*
X4303Y3171D01*
X4303D01*
X4307Y3175D01*
X4310Y3179D01*
X4313Y3184D01*
X4315Y3189D01*
X4316Y3193D01*
X4317Y3194D01*
X4317Y3196D01*
X4317Y3197D01*
Y3198D01*
X4317Y3199D01*
Y3199D01*
X4348Y3194D01*
X4347Y3189D01*
X4346Y3184D01*
X4344Y3179D01*
X4342Y3175D01*
X4340Y3171D01*
X4338Y3167D01*
X4337Y3164D01*
X4334Y3161D01*
X4332Y3159D01*
X4331Y3156D01*
X4329Y3155D01*
X4328Y3153D01*
X4326Y3152D01*
X4325Y3151D01*
X4325Y3150D01*
X4325Y3150D01*
X4321Y3148D01*
X4317Y3146D01*
X4313Y3143D01*
X4308Y3142D01*
X4299Y3139D01*
X4290Y3138D01*
X4286Y3137D01*
X4282Y3136D01*
X4279Y3136D01*
X4276Y3136D01*
X4273Y3136D01*
X4270D01*
X4262Y3136D01*
X4255Y3137D01*
X4248Y3138D01*
X4243Y3139D01*
X4240Y3140D01*
X4238Y3141D01*
X4236Y3141D01*
X4234Y3142D01*
X4233Y3142D01*
X4232Y3143D01*
X4232Y3143D01*
X4231D01*
X4225Y3146D01*
X4220Y3149D01*
X4216Y3153D01*
X4212Y3156D01*
X4209Y3159D01*
X4207Y3162D01*
X4206Y3164D01*
X4205Y3164D01*
Y3164D01*
X4202Y3169D01*
X4200Y3174D01*
X4198Y3179D01*
X4197Y3184D01*
X4197Y3188D01*
X4196Y3191D01*
Y3192D01*
Y3192D01*
Y3193D01*
Y3193D01*
X4196Y3199D01*
X4197Y3204D01*
X4199Y3209D01*
X4200Y3212D01*
X4201Y3216D01*
X4203Y3218D01*
X4204Y3219D01*
X4204Y3220D01*
X4207Y3224D01*
X4210Y3227D01*
X4214Y3230D01*
X4217Y3232D01*
X4220Y3234D01*
X4222Y3235D01*
X4224Y3236D01*
X4224Y3236D01*
X4224D01*
X4227Y3237D01*
X4230Y3238D01*
X4233Y3239D01*
X4237Y3241D01*
X4244Y3243D01*
X4252Y3245D01*
X4255Y3246D01*
X4259Y3247D01*
X4262Y3248D01*
X4264Y3249D01*
X4267Y3250D01*
X4269Y3250D01*
X4270Y3250D01*
X4270D01*
X4274Y3251D01*
X4278Y3253D01*
X4281Y3253D01*
X4284Y3254D01*
X4286Y3255D01*
X4288Y3256D01*
X4290Y3256D01*
X4292Y3257D01*
X4294Y3257D01*
X4296Y3258D01*
X4297Y3258D01*
X4297D01*
X4300Y3260D01*
X4302Y3261D01*
X4305Y3262D01*
X4306Y3264D01*
X4308Y3265D01*
X4308Y3266D01*
X4309Y3266D01*
X4309Y3266D01*
X4310Y3268D01*
X4311Y3270D01*
X4312Y3274D01*
X4313Y3275D01*
X4313Y3276D01*
Y3277D01*
Y3277D01*
X4313Y3281D01*
X4311Y3284D01*
X4310Y3287D01*
X4308Y3289D01*
X4307Y3291D01*
X4305Y3293D01*
X4304Y3294D01*
X4304Y3294D01*
X4302Y3295D01*
X4300Y3296D01*
X4295Y3298D01*
X4290Y3299D01*
X4285Y3300D01*
X4281Y3301D01*
X4279D01*
X4277Y3301D01*
X4273D01*
X4267Y3301D01*
X4261Y3300D01*
X4257Y3299D01*
X4252Y3297D01*
X4249Y3296D01*
X4247Y3294D01*
X4246Y3293D01*
X4245Y3293D01*
X4242Y3290D01*
X4239Y3286D01*
X4237Y3283D01*
X4236Y3279D01*
X4234Y3276D01*
X4234Y3273D01*
X4233Y3272D01*
Y3271D01*
Y3271D01*
X4203Y3275D01*
X4204Y3281D01*
X4206Y3287D01*
X4208Y3292D01*
X4210Y3296D01*
X4211Y3299D01*
X4213Y3301D01*
X4214Y3303D01*
X4214Y3303D01*
X4217Y3307D01*
X4221Y3310D01*
X4225Y3313D01*
X4229Y3316D01*
X4233Y3318D01*
X4235Y3319D01*
X4236Y3320D01*
X4237Y3320D01*
X4238Y3320D01*
X4238D01*
X4244Y3322D01*
X4251Y3324D01*
X4257Y3325D01*
X4263Y3326D01*
X4268Y3326D01*
X4270D01*
X4272Y3327D01*
X4276D01*
X4281Y3326D01*
D02*
G37*
G36*
X3848Y3301D02*
X3851Y3305D01*
X3855Y3309D01*
X3858Y3312D01*
X3862Y3314D01*
X3865Y3317D01*
X3867Y3318D01*
X3868Y3319D01*
X3869Y3319D01*
X3869D01*
X3874Y3322D01*
X3879Y3323D01*
X3884Y3325D01*
X3889Y3326D01*
X3892Y3326D01*
X3896Y3327D01*
X3902D01*
X3907Y3326D01*
X3914Y3325D01*
X3921Y3323D01*
X3927Y3320D01*
X3930Y3319D01*
X3932Y3318D01*
X3934Y3317D01*
X3936Y3316D01*
X3937Y3316D01*
X3938Y3315D01*
X3939Y3315D01*
X3939Y3314D01*
X3946Y3310D01*
X3951Y3304D01*
X3956Y3299D01*
X3960Y3293D01*
X3963Y3288D01*
X3964Y3286D01*
X3965Y3284D01*
X3965Y3283D01*
X3966Y3281D01*
X3966Y3281D01*
Y3280D01*
X3969Y3272D01*
X3972Y3263D01*
X3973Y3255D01*
X3974Y3247D01*
X3975Y3244D01*
X3975Y3241D01*
X3975Y3238D01*
Y3235D01*
X3975Y3233D01*
Y3232D01*
Y3231D01*
Y3231D01*
X3975Y3221D01*
X3974Y3211D01*
X3973Y3207D01*
X3972Y3203D01*
X3971Y3199D01*
X3970Y3195D01*
X3970Y3192D01*
X3969Y3189D01*
X3968Y3187D01*
X3967Y3185D01*
X3966Y3183D01*
X3966Y3182D01*
X3966Y3182D01*
Y3181D01*
X3961Y3174D01*
X3957Y3167D01*
X3952Y3161D01*
X3948Y3156D01*
X3943Y3153D01*
X3942Y3151D01*
X3940Y3150D01*
X3939Y3149D01*
X3938Y3148D01*
X3937Y3148D01*
X3937Y3148D01*
X3934Y3146D01*
X3930Y3144D01*
X3923Y3141D01*
X3916Y3139D01*
X3910Y3137D01*
X3907Y3137D01*
X3905Y3136D01*
X3903Y3136D01*
X3901D01*
X3899Y3136D01*
X3897D01*
X3891Y3136D01*
X3885Y3137D01*
X3880Y3138D01*
X3875Y3140D01*
X3870Y3142D01*
X3866Y3144D01*
X3862Y3147D01*
X3859Y3149D01*
X3856Y3152D01*
X3853Y3154D01*
X3851Y3156D01*
X3849Y3159D01*
X3848Y3160D01*
X3846Y3162D01*
X3846Y3162D01*
X3846Y3163D01*
Y3140D01*
X3817D01*
Y3392D01*
X3848D01*
Y3301D01*
D02*
G37*
G36*
X3603Y3326D02*
X3609Y3326D01*
X3614Y3325D01*
X3620Y3323D01*
X3625Y3322D01*
X3629Y3320D01*
X3634Y3318D01*
X3638Y3316D01*
X3641Y3314D01*
X3644Y3313D01*
X3647Y3311D01*
X3650Y3309D01*
X3651Y3308D01*
X3653Y3307D01*
X3653Y3306D01*
X3654Y3306D01*
X3659Y3301D01*
X3663Y3296D01*
X3667Y3290D01*
X3670Y3284D01*
X3673Y3278D01*
X3675Y3272D01*
X3677Y3265D01*
X3678Y3259D01*
X3679Y3254D01*
X3681Y3248D01*
X3681Y3243D01*
X3681Y3239D01*
X3682Y3236D01*
X3682Y3233D01*
Y3231D01*
Y3231D01*
Y3231D01*
X3682Y3222D01*
X3681Y3215D01*
X3680Y3207D01*
X3678Y3200D01*
X3676Y3194D01*
X3675Y3188D01*
X3672Y3183D01*
X3670Y3178D01*
X3668Y3174D01*
X3666Y3170D01*
X3664Y3167D01*
X3662Y3165D01*
X3661Y3163D01*
X3659Y3161D01*
X3659Y3161D01*
X3658Y3160D01*
X3654Y3156D01*
X3649Y3152D01*
X3644Y3149D01*
X3639Y3146D01*
X3634Y3144D01*
X3628Y3142D01*
X3623Y3140D01*
X3619Y3139D01*
X3614Y3138D01*
X3610Y3137D01*
X3606Y3136D01*
X3603Y3136D01*
X3600D01*
X3598Y3136D01*
X3596D01*
X3588Y3136D01*
X3580Y3137D01*
X3572Y3139D01*
X3569Y3140D01*
X3566Y3141D01*
X3563Y3142D01*
X3560Y3143D01*
X3558Y3144D01*
X3556Y3145D01*
X3554Y3146D01*
X3553Y3146D01*
X3553Y3147D01*
X3552D01*
X3545Y3151D01*
X3539Y3156D01*
X3534Y3161D01*
X3530Y3167D01*
X3526Y3171D01*
X3525Y3173D01*
X3524Y3175D01*
X3523Y3176D01*
X3522Y3177D01*
X3522Y3178D01*
Y3178D01*
X3520Y3182D01*
X3518Y3186D01*
X3515Y3195D01*
X3513Y3204D01*
X3512Y3213D01*
X3512Y3217D01*
X3512Y3221D01*
X3511Y3225D01*
Y3228D01*
X3511Y3230D01*
Y3232D01*
Y3233D01*
Y3233D01*
X3511Y3241D01*
X3512Y3249D01*
X3513Y3256D01*
X3515Y3263D01*
X3516Y3269D01*
X3519Y3274D01*
X3521Y3279D01*
X3523Y3284D01*
X3525Y3288D01*
X3527Y3292D01*
X3530Y3295D01*
X3531Y3297D01*
X3533Y3299D01*
X3534Y3301D01*
X3535Y3301D01*
X3535Y3302D01*
X3540Y3306D01*
X3545Y3310D01*
X3549Y3313D01*
X3555Y3316D01*
X3560Y3318D01*
X3565Y3320D01*
X3570Y3322D01*
X3575Y3323D01*
X3579Y3324D01*
X3583Y3325D01*
X3587Y3326D01*
X3590Y3326D01*
X3593D01*
X3595Y3327D01*
X3596D01*
X3603Y3326D01*
D02*
G37*
G36*
X3100Y3396D02*
X3108Y3395D01*
X3116Y3393D01*
X3119Y3393D01*
X3123Y3392D01*
X3126Y3391D01*
X3129Y3390D01*
X3131Y3389D01*
X3133Y3389D01*
X3134Y3388D01*
X3136Y3388D01*
X3136Y3387D01*
X3136D01*
X3144Y3384D01*
X3150Y3380D01*
X3156Y3376D01*
X3160Y3372D01*
X3163Y3368D01*
X3166Y3365D01*
X3167Y3364D01*
X3168Y3363D01*
X3168Y3362D01*
Y3362D01*
X3172Y3356D01*
X3174Y3349D01*
X3176Y3344D01*
X3177Y3338D01*
X3178Y3333D01*
X3178Y3331D01*
Y3330D01*
X3179Y3328D01*
Y3327D01*
Y3327D01*
Y3327D01*
X3178Y3320D01*
X3177Y3314D01*
X3176Y3309D01*
X3174Y3304D01*
X3173Y3300D01*
X3171Y3297D01*
X3171Y3296D01*
X3170Y3295D01*
X3170Y3295D01*
Y3295D01*
X3166Y3290D01*
X3162Y3285D01*
X3158Y3281D01*
X3153Y3278D01*
X3149Y3275D01*
X3146Y3273D01*
X3145Y3273D01*
X3144Y3272D01*
X3143Y3272D01*
X3143D01*
X3140Y3270D01*
X3137Y3269D01*
X3133Y3268D01*
X3130Y3266D01*
X3122Y3263D01*
X3113Y3261D01*
X3110Y3260D01*
X3106Y3259D01*
X3103Y3258D01*
X3100Y3257D01*
X3098Y3257D01*
X3096Y3256D01*
X3095Y3256D01*
X3095D01*
X3088Y3254D01*
X3083Y3253D01*
X3078Y3252D01*
X3073Y3250D01*
X3069Y3249D01*
X3065Y3248D01*
X3062Y3247D01*
X3059Y3247D01*
X3057Y3246D01*
X3055Y3245D01*
X3053Y3245D01*
X3052Y3244D01*
X3051Y3244D01*
X3050Y3244D01*
X3050Y3243D01*
X3044Y3241D01*
X3040Y3239D01*
X3036Y3236D01*
X3033Y3234D01*
X3030Y3232D01*
X3029Y3230D01*
X3027Y3229D01*
X3027Y3229D01*
X3025Y3225D01*
X3023Y3222D01*
X3022Y3218D01*
X3021Y3215D01*
X3020Y3212D01*
X3020Y3210D01*
Y3209D01*
Y3208D01*
Y3208D01*
X3020Y3204D01*
X3021Y3200D01*
X3023Y3196D01*
X3024Y3193D01*
X3025Y3190D01*
X3026Y3188D01*
X3027Y3187D01*
X3027Y3186D01*
X3031Y3183D01*
X3034Y3180D01*
X3038Y3177D01*
X3041Y3175D01*
X3044Y3173D01*
X3047Y3172D01*
X3048Y3171D01*
X3049Y3171D01*
X3049Y3171D01*
X3049D01*
X3055Y3169D01*
X3061Y3168D01*
X3066Y3167D01*
X3071Y3166D01*
X3076Y3166D01*
X3078D01*
X3079Y3165D01*
X3083D01*
X3091Y3166D01*
X3098Y3167D01*
X3104Y3168D01*
X3110Y3169D01*
X3113Y3170D01*
X3115Y3170D01*
X3117Y3171D01*
X3118Y3172D01*
X3120Y3172D01*
X3121Y3173D01*
X3121Y3173D01*
X3121D01*
X3127Y3176D01*
X3133Y3179D01*
X3137Y3182D01*
X3141Y3185D01*
X3143Y3188D01*
X3145Y3190D01*
X3147Y3192D01*
X3147Y3192D01*
X3150Y3197D01*
X3152Y3202D01*
X3153Y3207D01*
X3155Y3212D01*
X3156Y3217D01*
X3156Y3219D01*
X3156Y3220D01*
X3157Y3222D01*
X3157Y3223D01*
Y3223D01*
Y3224D01*
X3188Y3221D01*
X3188Y3216D01*
X3187Y3212D01*
X3186Y3203D01*
X3184Y3195D01*
X3183Y3192D01*
X3181Y3189D01*
X3180Y3186D01*
X3179Y3183D01*
X3178Y3181D01*
X3177Y3179D01*
X3176Y3177D01*
X3175Y3176D01*
X3175Y3176D01*
X3175Y3175D01*
X3169Y3168D01*
X3163Y3162D01*
X3157Y3157D01*
X3152Y3153D01*
X3147Y3150D01*
X3144Y3149D01*
X3142Y3147D01*
X3141Y3147D01*
X3140Y3146D01*
X3139Y3146D01*
X3139D01*
X3129Y3142D01*
X3120Y3140D01*
X3110Y3138D01*
X3101Y3137D01*
X3097Y3136D01*
X3093Y3136D01*
X3090Y3136D01*
X3087D01*
X3084Y3136D01*
X3081D01*
X3071Y3136D01*
X3062Y3137D01*
X3054Y3139D01*
X3050Y3140D01*
X3047Y3141D01*
X3044Y3141D01*
X3041Y3142D01*
X3038Y3143D01*
X3037Y3144D01*
X3035Y3145D01*
X3034Y3145D01*
X3033Y3146D01*
X3033D01*
X3025Y3150D01*
X3018Y3154D01*
X3013Y3159D01*
X3008Y3163D01*
X3004Y3167D01*
X3002Y3170D01*
X3001Y3171D01*
X3000Y3172D01*
X3000Y3173D01*
Y3173D01*
X2997Y3176D01*
X2996Y3180D01*
X2993Y3186D01*
X2991Y3193D01*
X2989Y3198D01*
X2988Y3204D01*
X2988Y3206D01*
Y3207D01*
X2988Y3209D01*
Y3210D01*
Y3210D01*
Y3211D01*
X2988Y3218D01*
X2990Y3225D01*
X2991Y3231D01*
X2993Y3236D01*
X2995Y3241D01*
X2996Y3242D01*
X2997Y3244D01*
X2997Y3245D01*
X2998Y3246D01*
X2999Y3246D01*
Y3247D01*
X3001Y3249D01*
X3003Y3252D01*
X3008Y3257D01*
X3013Y3262D01*
X3019Y3265D01*
X3023Y3268D01*
X3026Y3269D01*
X3027Y3270D01*
X3029Y3271D01*
X3030Y3272D01*
X3031Y3272D01*
X3031D01*
X3034Y3274D01*
X3038Y3275D01*
X3042Y3276D01*
X3046Y3278D01*
X3055Y3280D01*
X3065Y3283D01*
X3069Y3284D01*
X3073Y3285D01*
X3077Y3286D01*
X3080Y3286D01*
X3083Y3287D01*
X3085Y3288D01*
X3086Y3288D01*
X3087D01*
X3094Y3290D01*
X3101Y3292D01*
X3106Y3293D01*
X3112Y3295D01*
X3117Y3296D01*
X3121Y3298D01*
X3124Y3299D01*
X3127Y3301D01*
X3130Y3302D01*
X3132Y3303D01*
X3133Y3304D01*
X3135Y3305D01*
X3136Y3305D01*
X3136Y3306D01*
X3137Y3306D01*
X3140Y3310D01*
X3142Y3313D01*
X3144Y3317D01*
X3145Y3321D01*
X3146Y3324D01*
X3146Y3326D01*
X3147Y3328D01*
Y3328D01*
Y3328D01*
X3146Y3331D01*
X3146Y3334D01*
X3144Y3339D01*
X3142Y3344D01*
X3140Y3348D01*
X3137Y3351D01*
X3135Y3353D01*
X3133Y3355D01*
X3133Y3355D01*
X3133D01*
X3130Y3357D01*
X3127Y3359D01*
X3120Y3362D01*
X3113Y3364D01*
X3106Y3365D01*
X3102Y3366D01*
X3099Y3366D01*
X3096Y3366D01*
X3094D01*
X3092Y3366D01*
X3084D01*
X3079Y3366D01*
X3074Y3365D01*
X3070Y3364D01*
X3066Y3364D01*
X3062Y3363D01*
X3059Y3361D01*
X3056Y3360D01*
X3054Y3359D01*
X3052Y3358D01*
X3050Y3357D01*
X3048Y3356D01*
X3047Y3355D01*
X3046Y3355D01*
X3046Y3354D01*
X3045Y3354D01*
X3043Y3352D01*
X3040Y3349D01*
X3036Y3343D01*
X3033Y3337D01*
X3031Y3332D01*
X3029Y3327D01*
X3029Y3324D01*
X3028Y3322D01*
X3028Y3320D01*
Y3319D01*
X3027Y3319D01*
Y3318D01*
X2996Y3321D01*
X2996Y3329D01*
X2998Y3336D01*
X3000Y3343D01*
X3002Y3349D01*
X3003Y3351D01*
X3004Y3354D01*
X3005Y3356D01*
X3006Y3357D01*
X3007Y3359D01*
X3008Y3360D01*
X3008Y3360D01*
X3008Y3360D01*
X3013Y3367D01*
X3018Y3372D01*
X3023Y3376D01*
X3029Y3380D01*
X3034Y3383D01*
X3036Y3384D01*
X3037Y3385D01*
X3039Y3386D01*
X3040Y3386D01*
X3041Y3387D01*
X3041D01*
X3049Y3390D01*
X3058Y3392D01*
X3066Y3394D01*
X3074Y3395D01*
X3077Y3395D01*
X3080Y3396D01*
X3083Y3396D01*
X3086Y3396D01*
X3090D01*
X3100Y3396D01*
D02*
G37*
G36*
X322Y3396D02*
X331Y3395D01*
X338Y3393D01*
X342Y3393D01*
X345Y3392D01*
X348Y3391D01*
X351Y3390D01*
X353Y3389D01*
X355Y3389D01*
X357Y3388D01*
X358Y3388D01*
X359Y3387D01*
X359D01*
X366Y3384D01*
X373Y3380D01*
X378Y3376D01*
X382Y3372D01*
X386Y3368D01*
X389Y3365D01*
X389Y3364D01*
X390Y3363D01*
X391Y3362D01*
Y3362D01*
X394Y3356D01*
X397Y3349D01*
X399Y3344D01*
X400Y3338D01*
X401Y3333D01*
X401Y3331D01*
Y3330D01*
X401Y3328D01*
Y3327D01*
Y3327D01*
Y3326D01*
X401Y3320D01*
X400Y3314D01*
X399Y3309D01*
X397Y3304D01*
X395Y3300D01*
X394Y3297D01*
X393Y3296D01*
X393Y3295D01*
X393Y3295D01*
Y3295D01*
X389Y3290D01*
X385Y3285D01*
X380Y3281D01*
X376Y3278D01*
X372Y3275D01*
X368Y3273D01*
X367Y3273D01*
X366Y3272D01*
X366Y3272D01*
X365D01*
X363Y3270D01*
X359Y3269D01*
X356Y3268D01*
X352Y3266D01*
X344Y3263D01*
X336Y3261D01*
X332Y3260D01*
X329Y3259D01*
X326Y3258D01*
X323Y3257D01*
X320Y3257D01*
X319Y3256D01*
X317Y3256D01*
X317D01*
X311Y3254D01*
X305Y3253D01*
X300Y3252D01*
X296Y3250D01*
X291Y3249D01*
X288Y3248D01*
X285Y3247D01*
X282Y3247D01*
X279Y3246D01*
X277Y3245D01*
X276Y3245D01*
X275Y3244D01*
X273Y3244D01*
X273Y3244D01*
X272Y3243D01*
X267Y3241D01*
X262Y3239D01*
X258Y3236D01*
X255Y3234D01*
X253Y3232D01*
X251Y3230D01*
X250Y3229D01*
X250Y3229D01*
X247Y3225D01*
X246Y3222D01*
X244Y3218D01*
X243Y3215D01*
X243Y3212D01*
X243Y3210D01*
Y3209D01*
Y3208D01*
Y3208D01*
X243Y3204D01*
X244Y3200D01*
X245Y3196D01*
X246Y3193D01*
X248Y3190D01*
X249Y3188D01*
X250Y3187D01*
X250Y3186D01*
X253Y3183D01*
X256Y3180D01*
X260Y3177D01*
X264Y3175D01*
X267Y3173D01*
X269Y3172D01*
X270Y3171D01*
X271Y3171D01*
X272Y3171D01*
X272D01*
X277Y3169D01*
X283Y3168D01*
X289Y3167D01*
X294Y3166D01*
X298Y3166D01*
X300D01*
X302Y3165D01*
X305D01*
X313Y3166D01*
X320Y3167D01*
X327Y3168D01*
X333Y3169D01*
X335Y3170D01*
X337Y3170D01*
X339Y3171D01*
X341Y3172D01*
X342Y3172D01*
X343Y3173D01*
X344Y3173D01*
X344D01*
X350Y3176D01*
X355Y3179D01*
X359Y3182D01*
X363Y3185D01*
X366Y3188D01*
X368Y3190D01*
X369Y3192D01*
X369Y3192D01*
X372Y3197D01*
X374Y3202D01*
X376Y3207D01*
X377Y3212D01*
X378Y3217D01*
X379Y3219D01*
X379Y3220D01*
X379Y3222D01*
X379Y3223D01*
Y3223D01*
Y3224D01*
X411Y3221D01*
X411Y3216D01*
X410Y3212D01*
X408Y3203D01*
X406Y3195D01*
X405Y3192D01*
X404Y3189D01*
X403Y3186D01*
X401Y3183D01*
X400Y3181D01*
X399Y3179D01*
X398Y3177D01*
X398Y3176D01*
X397Y3176D01*
X397Y3175D01*
X392Y3168D01*
X386Y3162D01*
X380Y3157D01*
X374Y3153D01*
X369Y3150D01*
X367Y3149D01*
X365Y3147D01*
X363Y3147D01*
X362Y3146D01*
X361Y3146D01*
X361D01*
X352Y3142D01*
X342Y3140D01*
X333Y3138D01*
X324Y3137D01*
X319Y3136D01*
X316Y3136D01*
X312Y3136D01*
X309D01*
X307Y3136D01*
X304D01*
X294Y3136D01*
X285Y3137D01*
X276Y3139D01*
X273Y3140D01*
X269Y3141D01*
X266Y3141D01*
X263Y3142D01*
X261Y3143D01*
X259Y3144D01*
X257Y3145D01*
X256Y3145D01*
X255Y3146D01*
X255D01*
X248Y3150D01*
X241Y3154D01*
X235Y3159D01*
X231Y3163D01*
X227Y3167D01*
X224Y3170D01*
X223Y3171D01*
X223Y3172D01*
X222Y3173D01*
Y3173D01*
X220Y3176D01*
X218Y3180D01*
X215Y3186D01*
X213Y3193D01*
X212Y3198D01*
X211Y3204D01*
X211Y3206D01*
Y3207D01*
X210Y3209D01*
Y3210D01*
Y3210D01*
Y3211D01*
X211Y3218D01*
X212Y3225D01*
X214Y3231D01*
X216Y3236D01*
X218Y3241D01*
X219Y3242D01*
X219Y3244D01*
X220Y3245D01*
X221Y3246D01*
X221Y3246D01*
Y3247D01*
X223Y3249D01*
X225Y3252D01*
X231Y3257D01*
X236Y3262D01*
X241Y3265D01*
X246Y3268D01*
X248Y3269D01*
X250Y3270D01*
X251Y3271D01*
X252Y3272D01*
X253Y3272D01*
X254D01*
X257Y3274D01*
X260Y3275D01*
X264Y3276D01*
X269Y3278D01*
X278Y3280D01*
X287Y3283D01*
X291Y3284D01*
X296Y3285D01*
X299Y3286D01*
X303Y3286D01*
X305Y3287D01*
X307Y3288D01*
X309Y3288D01*
X309D01*
X317Y3290D01*
X323Y3292D01*
X329Y3293D01*
X334Y3295D01*
X339Y3296D01*
X343Y3298D01*
X347Y3299D01*
X350Y3301D01*
X352Y3302D01*
X354Y3303D01*
X356Y3304D01*
X357Y3305D01*
X358Y3305D01*
X359Y3306D01*
X359Y3306D01*
X363Y3310D01*
X365Y3313D01*
X367Y3317D01*
X368Y3321D01*
X368Y3324D01*
X369Y3326D01*
X369Y3328D01*
Y3328D01*
Y3328D01*
X369Y3331D01*
X368Y3334D01*
X367Y3339D01*
X365Y3344D01*
X362Y3348D01*
X360Y3351D01*
X358Y3353D01*
X356Y3355D01*
X356Y3355D01*
X355D01*
X353Y3357D01*
X349Y3359D01*
X343Y3362D01*
X335Y3364D01*
X328Y3365D01*
X325Y3366D01*
X322Y3366D01*
X319Y3366D01*
X316D01*
X314Y3366D01*
X306D01*
X301Y3366D01*
X297Y3365D01*
X292Y3364D01*
X288Y3364D01*
X285Y3363D01*
X282Y3361D01*
X279Y3360D01*
X276Y3359D01*
X274Y3358D01*
X272Y3357D01*
X270Y3356D01*
X269Y3355D01*
X268Y3355D01*
X268Y3354D01*
X268Y3354D01*
X265Y3352D01*
X263Y3349D01*
X259Y3343D01*
X255Y3337D01*
X253Y3332D01*
X252Y3326D01*
X251Y3324D01*
X251Y3322D01*
X250Y3320D01*
Y3319D01*
X250Y3319D01*
Y3318D01*
X218Y3321D01*
X219Y3329D01*
X221Y3336D01*
X222Y3343D01*
X225Y3349D01*
X226Y3351D01*
X227Y3354D01*
X228Y3356D01*
X229Y3357D01*
X230Y3359D01*
X230Y3360D01*
X230Y3360D01*
X231Y3360D01*
X235Y3367D01*
X240Y3372D01*
X246Y3376D01*
X251Y3380D01*
X256Y3383D01*
X258Y3384D01*
X260Y3385D01*
X261Y3386D01*
X263Y3386D01*
X263Y3387D01*
X263D01*
X272Y3390D01*
X280Y3392D01*
X288Y3394D01*
X296Y3395D01*
X300Y3395D01*
X303Y3396D01*
X306Y3396D01*
X308Y3396D01*
X313D01*
X322Y3396D01*
D02*
G37*
G36*
X-375Y3326D02*
X-370Y3326D01*
X-365Y3325D01*
X-362Y3325D01*
X-358Y3324D01*
X-356Y3323D01*
X-354Y3323D01*
X-354Y3323D01*
X-353D01*
X-349Y3321D01*
X-345Y3320D01*
X-342Y3318D01*
X-339Y3317D01*
X-337Y3316D01*
X-335Y3314D01*
X-334Y3314D01*
X-334Y3314D01*
X-330Y3311D01*
X-327Y3308D01*
X-324Y3305D01*
X-322Y3302D01*
X-321Y3300D01*
X-319Y3298D01*
X-319Y3297D01*
X-318Y3296D01*
X-316Y3293D01*
X-315Y3289D01*
X-314Y3285D01*
X-314Y3281D01*
X-313Y3278D01*
X-313Y3276D01*
Y3274D01*
Y3274D01*
Y3274D01*
X-313Y3269D01*
X-314Y3264D01*
X-315Y3260D01*
X-316Y3257D01*
X-317Y3254D01*
X-318Y3251D01*
X-319Y3250D01*
X-319Y3249D01*
X-322Y3245D01*
X-325Y3242D01*
X-329Y3239D01*
X-332Y3237D01*
X-335Y3234D01*
X-337Y3233D01*
X-339Y3232D01*
X-339Y3232D01*
X-339D01*
X-342Y3231D01*
X-345Y3230D01*
X-349Y3228D01*
X-353Y3227D01*
X-360Y3225D01*
X-368Y3222D01*
X-372Y3221D01*
X-375Y3220D01*
X-379Y3219D01*
X-381Y3218D01*
X-384Y3218D01*
X-386Y3217D01*
X-387Y3217D01*
X-387D01*
X-391Y3216D01*
X-395Y3215D01*
X-399Y3214D01*
X-402Y3213D01*
X-405Y3212D01*
X-408Y3211D01*
X-410Y3210D01*
X-412Y3209D01*
X-414Y3209D01*
X-415Y3208D01*
X-417Y3207D01*
X-418Y3207D01*
X-419Y3207D01*
X-422Y3204D01*
X-424Y3201D01*
X-426Y3199D01*
X-427Y3196D01*
X-427Y3194D01*
X-428Y3192D01*
Y3191D01*
Y3190D01*
X-427Y3186D01*
X-426Y3182D01*
X-425Y3178D01*
X-423Y3175D01*
X-421Y3173D01*
X-419Y3171D01*
X-418Y3170D01*
X-417Y3170D01*
X-413Y3167D01*
X-408Y3165D01*
X-403Y3163D01*
X-398Y3162D01*
X-393Y3162D01*
X-391Y3161D01*
X-389D01*
X-388Y3161D01*
X-386D01*
X-378Y3162D01*
X-372Y3163D01*
X-366Y3164D01*
X-361Y3166D01*
X-357Y3168D01*
X-355Y3169D01*
X-353Y3170D01*
X-353Y3171D01*
X-353D01*
X-348Y3175D01*
X-345Y3179D01*
X-343Y3184D01*
X-341Y3189D01*
X-340Y3193D01*
X-339Y3194D01*
X-339Y3196D01*
X-339Y3197D01*
Y3198D01*
X-338Y3199D01*
Y3199D01*
X-308Y3194D01*
X-309Y3189D01*
X-310Y3184D01*
X-312Y3179D01*
X-313Y3175D01*
X-315Y3171D01*
X-317Y3167D01*
X-319Y3164D01*
X-321Y3161D01*
X-323Y3159D01*
X-325Y3156D01*
X-327Y3155D01*
X-328Y3153D01*
X-330Y3152D01*
X-330Y3151D01*
X-331Y3150D01*
X-331Y3150D01*
X-335Y3148D01*
X-339Y3146D01*
X-343Y3143D01*
X-348Y3142D01*
X-357Y3139D01*
X-366Y3138D01*
X-370Y3137D01*
X-374Y3136D01*
X-377Y3136D01*
X-380Y3136D01*
X-382Y3136D01*
X-386D01*
X-394Y3136D01*
X-401Y3137D01*
X-407Y3138D01*
X-413Y3139D01*
X-416Y3140D01*
X-418Y3141D01*
X-420Y3141D01*
X-421Y3142D01*
X-423Y3142D01*
X-423Y3143D01*
X-424Y3143D01*
X-424D01*
X-430Y3146D01*
X-435Y3149D01*
X-440Y3153D01*
X-444Y3156D01*
X-446Y3159D01*
X-449Y3162D01*
X-450Y3164D01*
X-450Y3164D01*
Y3164D01*
X-453Y3169D01*
X-456Y3174D01*
X-457Y3179D01*
X-458Y3184D01*
X-459Y3188D01*
X-460Y3191D01*
Y3192D01*
Y3192D01*
Y3193D01*
Y3193D01*
X-459Y3199D01*
X-458Y3204D01*
X-457Y3209D01*
X-456Y3212D01*
X-454Y3216D01*
X-453Y3218D01*
X-452Y3219D01*
X-452Y3220D01*
X-449Y3224D01*
X-446Y3227D01*
X-442Y3230D01*
X-439Y3232D01*
X-436Y3234D01*
X-434Y3235D01*
X-432Y3236D01*
X-432Y3236D01*
X-431D01*
X-429Y3237D01*
X-426Y3238D01*
X-422Y3239D01*
X-419Y3241D01*
X-411Y3243D01*
X-404Y3245D01*
X-400Y3246D01*
X-397Y3247D01*
X-394Y3248D01*
X-391Y3249D01*
X-389Y3250D01*
X-387Y3250D01*
X-386Y3250D01*
X-386D01*
X-382Y3251D01*
X-378Y3253D01*
X-375Y3253D01*
X-372Y3254D01*
X-369Y3255D01*
X-367Y3256D01*
X-365Y3256D01*
X-364Y3257D01*
X-361Y3257D01*
X-360Y3258D01*
X-359Y3258D01*
X-359D01*
X-356Y3260D01*
X-353Y3261D01*
X-351Y3262D01*
X-350Y3264D01*
X-348Y3265D01*
X-347Y3266D01*
X-347Y3266D01*
X-347Y3266D01*
X-345Y3268D01*
X-345Y3270D01*
X-344Y3274D01*
X-343Y3275D01*
X-343Y3276D01*
Y3277D01*
Y3277D01*
X-343Y3281D01*
X-344Y3284D01*
X-346Y3287D01*
X-348Y3289D01*
X-349Y3291D01*
X-351Y3293D01*
X-352Y3294D01*
X-352Y3294D01*
X-354Y3295D01*
X-356Y3296D01*
X-360Y3298D01*
X-366Y3299D01*
X-371Y3300D01*
X-375Y3301D01*
X-377D01*
X-379Y3301D01*
X-382D01*
X-389Y3301D01*
X-394Y3300D01*
X-399Y3299D01*
X-403Y3297D01*
X-406Y3296D01*
X-408Y3294D01*
X-410Y3293D01*
X-410Y3293D01*
X-414Y3290D01*
X-416Y3286D01*
X-419Y3283D01*
X-420Y3279D01*
X-421Y3276D01*
X-422Y3273D01*
X-422Y3272D01*
Y3271D01*
Y3271D01*
X-453Y3275D01*
X-451Y3281D01*
X-450Y3287D01*
X-448Y3292D01*
X-446Y3296D01*
X-445Y3299D01*
X-443Y3301D01*
X-442Y3303D01*
X-442Y3303D01*
X-439Y3307D01*
X-435Y3310D01*
X-431Y3313D01*
X-427Y3316D01*
X-423Y3318D01*
X-420Y3319D01*
X-419Y3320D01*
X-419Y3320D01*
X-418Y3320D01*
X-418D01*
X-411Y3322D01*
X-405Y3324D01*
X-399Y3325D01*
X-393Y3326D01*
X-388Y3326D01*
X-386D01*
X-384Y3326D01*
X-380D01*
X-375Y3326D01*
D02*
G37*
G36*
X-564D02*
X-558Y3326D01*
X-552Y3325D01*
X-547Y3323D01*
X-542Y3322D01*
X-537Y3320D01*
X-533Y3318D01*
X-529Y3316D01*
X-525Y3314D01*
X-522Y3313D01*
X-519Y3311D01*
X-517Y3309D01*
X-515Y3308D01*
X-514Y3307D01*
X-513Y3306D01*
X-513Y3306D01*
X-508Y3301D01*
X-503Y3296D01*
X-500Y3290D01*
X-496Y3284D01*
X-494Y3278D01*
X-491Y3272D01*
X-490Y3265D01*
X-488Y3259D01*
X-487Y3254D01*
X-486Y3248D01*
X-485Y3243D01*
X-485Y3239D01*
X-485Y3236D01*
X-485Y3233D01*
Y3231D01*
Y3231D01*
Y3231D01*
X-485Y3222D01*
X-486Y3215D01*
X-487Y3207D01*
X-488Y3200D01*
X-490Y3194D01*
X-492Y3188D01*
X-494Y3183D01*
X-496Y3178D01*
X-499Y3174D01*
X-501Y3170D01*
X-503Y3167D01*
X-505Y3165D01*
X-506Y3163D01*
X-507Y3161D01*
X-508Y3161D01*
X-508Y3160D01*
X-513Y3156D01*
X-518Y3152D01*
X-523Y3149D01*
X-528Y3146D01*
X-533Y3144D01*
X-538Y3142D01*
X-543Y3140D01*
X-548Y3139D01*
X-553Y3138D01*
X-557Y3137D01*
X-561Y3136D01*
X-564Y3136D01*
X-567D01*
X-568Y3136D01*
X-570D01*
X-579Y3136D01*
X-587Y3137D01*
X-594Y3139D01*
X-598Y3140D01*
X-601Y3141D01*
X-604Y3142D01*
X-606Y3143D01*
X-609Y3144D01*
X-611Y3145D01*
X-612Y3146D01*
X-613Y3146D01*
X-614Y3147D01*
X-614D01*
X-621Y3151D01*
X-627Y3156D01*
X-633Y3161D01*
X-637Y3167D01*
X-641Y3171D01*
X-642Y3173D01*
X-643Y3175D01*
X-644Y3176D01*
X-644Y3177D01*
X-645Y3178D01*
Y3178D01*
X-647Y3182D01*
X-648Y3186D01*
X-651Y3195D01*
X-653Y3204D01*
X-654Y3213D01*
X-655Y3217D01*
X-655Y3221D01*
X-655Y3225D01*
Y3228D01*
X-656Y3230D01*
Y3232D01*
Y3233D01*
Y3233D01*
X-655Y3241D01*
X-654Y3249D01*
X-653Y3256D01*
X-652Y3263D01*
X-650Y3269D01*
X-648Y3274D01*
X-646Y3279D01*
X-644Y3284D01*
X-641Y3288D01*
X-639Y3292D01*
X-637Y3295D01*
X-635Y3297D01*
X-634Y3299D01*
X-633Y3301D01*
X-632Y3301D01*
X-632Y3302D01*
X-627Y3306D01*
X-622Y3310D01*
X-617Y3313D01*
X-612Y3316D01*
X-607Y3318D01*
X-602Y3320D01*
X-597Y3322D01*
X-592Y3323D01*
X-587Y3324D01*
X-583Y3325D01*
X-580Y3326D01*
X-576Y3326D01*
X-574D01*
X-572Y3326D01*
X-570D01*
X-564Y3326D01*
D02*
G37*
G36*
X631Y4459D02*
X600D01*
Y4559D01*
X600Y4567D01*
X599Y4573D01*
X598Y4579D01*
X598Y4584D01*
X597Y4588D01*
X596Y4590D01*
X596Y4591D01*
X595Y4592D01*
X595Y4593D01*
X593Y4597D01*
X590Y4601D01*
X587Y4604D01*
X584Y4607D01*
X582Y4609D01*
X580Y4611D01*
X578Y4612D01*
X578Y4612D01*
X573Y4614D01*
X569Y4616D01*
X564Y4617D01*
X560Y4618D01*
X557Y4619D01*
X554Y4619D01*
X552D01*
X545Y4619D01*
X540Y4618D01*
X535Y4616D01*
X531Y4614D01*
X528Y4612D01*
X525Y4610D01*
X524Y4609D01*
X524Y4609D01*
X522Y4606D01*
X520Y4604D01*
X518Y4599D01*
X516Y4593D01*
X515Y4588D01*
X514Y4583D01*
X514Y4580D01*
Y4579D01*
X513Y4577D01*
Y4576D01*
Y4575D01*
Y4575D01*
Y4459D01*
X483D01*
Y4575D01*
Y4580D01*
X483Y4584D01*
X483Y4589D01*
X484Y4593D01*
X484Y4596D01*
X485Y4600D01*
X485Y4603D01*
X486Y4605D01*
X486Y4608D01*
X487Y4610D01*
X488Y4612D01*
X488Y4613D01*
X489Y4614D01*
X489Y4615D01*
X489Y4615D01*
Y4616D01*
X492Y4621D01*
X495Y4625D01*
X499Y4629D01*
X502Y4632D01*
X506Y4635D01*
X508Y4636D01*
X509Y4637D01*
X510Y4638D01*
X510Y4638D01*
X511D01*
X516Y4641D01*
X523Y4642D01*
X528Y4644D01*
X534Y4645D01*
X539Y4645D01*
X541Y4646D01*
X542Y4646D01*
X546D01*
X552Y4646D01*
X557Y4645D01*
X563Y4644D01*
X568Y4642D01*
X573Y4640D01*
X577Y4638D01*
X581Y4636D01*
X585Y4633D01*
X589Y4631D01*
X592Y4629D01*
X594Y4627D01*
X596Y4625D01*
X598Y4623D01*
X599Y4622D01*
X600Y4621D01*
X600Y4621D01*
Y4711D01*
X631D01*
Y4459D01*
D02*
G37*
G36*
X1032Y4646D02*
X1040Y4645D01*
X1047Y4644D01*
X1050Y4643D01*
X1053Y4643D01*
X1055Y4642D01*
X1058Y4642D01*
X1060Y4641D01*
X1061Y4641D01*
X1063Y4640D01*
X1064Y4640D01*
X1064Y4639D01*
X1065D01*
X1071Y4637D01*
X1076Y4634D01*
X1081Y4631D01*
X1085Y4628D01*
X1088Y4625D01*
X1090Y4623D01*
X1091Y4621D01*
X1092Y4621D01*
Y4621D01*
X1095Y4616D01*
X1098Y4611D01*
X1100Y4606D01*
X1102Y4601D01*
X1103Y4597D01*
X1104Y4595D01*
X1105Y4593D01*
X1105Y4592D01*
X1105Y4591D01*
X1105Y4590D01*
Y4590D01*
X1075Y4586D01*
X1074Y4589D01*
X1073Y4593D01*
X1071Y4598D01*
X1068Y4603D01*
X1065Y4606D01*
X1063Y4609D01*
X1061Y4611D01*
X1060Y4612D01*
X1060Y4613D01*
X1055Y4615D01*
X1050Y4617D01*
X1045Y4618D01*
X1040Y4620D01*
X1035Y4620D01*
X1033D01*
X1031Y4620D01*
X1028D01*
X1019Y4620D01*
X1012Y4619D01*
X1006Y4617D01*
X1001Y4615D01*
X998Y4613D01*
X996Y4612D01*
X995Y4611D01*
X994Y4611D01*
X993Y4610D01*
X993Y4610D01*
X990Y4606D01*
X987Y4602D01*
X986Y4598D01*
X985Y4594D01*
X984Y4590D01*
X984Y4586D01*
Y4585D01*
Y4584D01*
Y4583D01*
Y4583D01*
Y4582D01*
Y4581D01*
Y4579D01*
X984Y4577D01*
Y4576D01*
Y4576D01*
Y4575D01*
X987Y4574D01*
X991Y4573D01*
X996Y4572D01*
X1000Y4571D01*
X1009Y4569D01*
X1018Y4567D01*
X1022Y4567D01*
X1026Y4566D01*
X1030Y4566D01*
X1033Y4565D01*
X1035Y4565D01*
X1037Y4565D01*
X1038Y4564D01*
X1039D01*
X1046Y4564D01*
X1051Y4563D01*
X1056Y4562D01*
X1060Y4561D01*
X1063Y4561D01*
X1065Y4560D01*
X1066Y4560D01*
X1067D01*
X1071Y4558D01*
X1075Y4557D01*
X1079Y4555D01*
X1082Y4553D01*
X1085Y4552D01*
X1087Y4551D01*
X1088Y4550D01*
X1089Y4550D01*
X1093Y4547D01*
X1096Y4544D01*
X1098Y4541D01*
X1100Y4538D01*
X1102Y4536D01*
X1104Y4534D01*
X1105Y4532D01*
X1105Y4532D01*
X1107Y4528D01*
X1108Y4523D01*
X1109Y4519D01*
X1110Y4516D01*
X1111Y4512D01*
X1111Y4510D01*
Y4508D01*
Y4508D01*
Y4507D01*
X1111Y4503D01*
X1110Y4499D01*
X1109Y4495D01*
X1108Y4492D01*
X1106Y4485D01*
X1103Y4480D01*
X1101Y4478D01*
X1100Y4476D01*
X1099Y4474D01*
X1097Y4472D01*
X1096Y4471D01*
X1096Y4470D01*
X1095Y4470D01*
X1095Y4470D01*
X1091Y4467D01*
X1088Y4465D01*
X1084Y4463D01*
X1081Y4461D01*
X1073Y4459D01*
X1065Y4457D01*
X1062Y4456D01*
X1059Y4456D01*
X1056Y4456D01*
X1053Y4455D01*
X1052Y4455D01*
X1049D01*
X1042Y4455D01*
X1035Y4456D01*
X1030Y4457D01*
X1025Y4458D01*
X1020Y4459D01*
X1019Y4460D01*
X1017Y4460D01*
X1016Y4461D01*
X1015Y4461D01*
X1015Y4461D01*
X1014D01*
X1008Y4464D01*
X1002Y4467D01*
X997Y4470D01*
X992Y4474D01*
X987Y4477D01*
X986Y4479D01*
X984Y4480D01*
X983Y4481D01*
X982Y4482D01*
X981Y4482D01*
X981Y4482D01*
X981Y4477D01*
X980Y4473D01*
X979Y4469D01*
X978Y4466D01*
X977Y4463D01*
X976Y4461D01*
X975Y4460D01*
X975Y4459D01*
X943D01*
X945Y4463D01*
X946Y4467D01*
X948Y4471D01*
X949Y4474D01*
X950Y4477D01*
X950Y4479D01*
X951Y4481D01*
Y4481D01*
X951Y4484D01*
X951Y4487D01*
X951Y4490D01*
X952Y4494D01*
X952Y4499D01*
Y4503D01*
X952Y4513D01*
Y4517D01*
X952Y4522D01*
Y4525D01*
Y4529D01*
Y4532D01*
Y4534D01*
Y4535D01*
Y4536D01*
Y4577D01*
Y4581D01*
Y4584D01*
X953Y4587D01*
Y4590D01*
X953Y4595D01*
X953Y4599D01*
X954Y4602D01*
X954Y4604D01*
X954Y4605D01*
Y4605D01*
X955Y4610D01*
X957Y4614D01*
X958Y4618D01*
X960Y4621D01*
X961Y4623D01*
X963Y4625D01*
X964Y4626D01*
X964Y4626D01*
X967Y4629D01*
X970Y4632D01*
X974Y4635D01*
X977Y4636D01*
X981Y4638D01*
X983Y4639D01*
X984Y4640D01*
X985Y4640D01*
X985Y4640D01*
X985D01*
X991Y4642D01*
X998Y4644D01*
X1004Y4645D01*
X1010Y4645D01*
X1015Y4646D01*
X1017D01*
X1019Y4646D01*
X1023D01*
X1032Y4646D01*
D02*
G37*
G36*
X1385Y4459D02*
X1351D01*
X1298Y4651D01*
X1296Y4656D01*
X1295Y4661D01*
X1293Y4666D01*
X1292Y4671D01*
X1291Y4674D01*
X1291Y4676D01*
X1291Y4678D01*
X1290Y4679D01*
Y4680D01*
X1290Y4680D01*
Y4681D01*
X1290Y4680D01*
X1289Y4678D01*
X1289Y4676D01*
X1288Y4674D01*
X1287Y4669D01*
X1285Y4664D01*
X1284Y4659D01*
X1283Y4657D01*
X1283Y4655D01*
X1282Y4653D01*
X1282Y4652D01*
X1282Y4651D01*
Y4651D01*
X1229Y4459D01*
X1197D01*
X1127Y4711D01*
X1161D01*
X1201Y4549D01*
X1203Y4538D01*
X1206Y4528D01*
X1207Y4523D01*
X1208Y4518D01*
X1209Y4514D01*
X1210Y4510D01*
X1210Y4507D01*
X1211Y4504D01*
X1212Y4501D01*
X1212Y4499D01*
X1213Y4497D01*
X1213Y4496D01*
X1213Y4495D01*
Y4494D01*
X1216Y4510D01*
X1219Y4526D01*
X1221Y4534D01*
X1222Y4541D01*
X1224Y4548D01*
X1225Y4555D01*
X1227Y4561D01*
X1228Y4566D01*
X1230Y4571D01*
X1231Y4575D01*
X1232Y4579D01*
X1233Y4581D01*
X1233Y4583D01*
X1233Y4583D01*
X1269Y4711D01*
X1309D01*
X1357Y4541D01*
X1358Y4539D01*
X1358Y4537D01*
X1359Y4534D01*
X1360Y4531D01*
X1361Y4527D01*
X1361Y4523D01*
X1364Y4515D01*
X1364Y4511D01*
X1366Y4508D01*
X1366Y4504D01*
X1367Y4501D01*
X1368Y4498D01*
X1368Y4496D01*
X1369Y4495D01*
Y4494D01*
X1370Y4504D01*
X1372Y4513D01*
X1374Y4522D01*
X1375Y4526D01*
X1375Y4530D01*
X1376Y4533D01*
X1377Y4536D01*
X1378Y4539D01*
X1378Y4541D01*
X1379Y4543D01*
X1379Y4545D01*
X1379Y4546D01*
Y4546D01*
X1417Y4711D01*
X1452D01*
X1385Y4459D01*
D02*
G37*
G36*
X900Y4687D02*
Y4642D01*
X922D01*
Y4618D01*
X900D01*
Y4513D01*
Y4508D01*
X899Y4503D01*
Y4499D01*
X899Y4495D01*
X899Y4492D01*
X898Y4489D01*
X898Y4486D01*
X898Y4484D01*
X897Y4482D01*
X897Y4480D01*
X897Y4479D01*
X897Y4478D01*
X896Y4476D01*
X896Y4476D01*
X894Y4473D01*
X892Y4470D01*
X890Y4468D01*
X888Y4466D01*
X886Y4464D01*
X884Y4463D01*
X883Y4462D01*
X883Y4462D01*
X879Y4460D01*
X875Y4459D01*
X871Y4458D01*
X866Y4457D01*
X862Y4457D01*
X859Y4457D01*
X857D01*
X848Y4457D01*
X845Y4458D01*
X841Y4458D01*
X838Y4459D01*
X835Y4459D01*
X834Y4460D01*
X833D01*
X837Y4487D01*
X840Y4487D01*
X843Y4486D01*
X845Y4486D01*
X847D01*
X849Y4486D01*
X854D01*
X856Y4486D01*
X857Y4487D01*
X859Y4487D01*
X860Y4487D01*
X861Y4488D01*
X862Y4488D01*
X862D01*
X864Y4490D01*
X866Y4492D01*
X867Y4493D01*
X867Y4494D01*
Y4494D01*
X868Y4496D01*
X868Y4498D01*
X868Y4501D01*
Y4504D01*
X869Y4507D01*
Y4509D01*
Y4510D01*
Y4511D01*
Y4511D01*
Y4618D01*
X837D01*
Y4642D01*
X869D01*
Y4706D01*
X900Y4687D01*
D02*
G37*
G36*
X1756Y4646D02*
X1763Y4645D01*
X1769Y4644D01*
X1775Y4642D01*
X1780Y4640D01*
X1786Y4638D01*
X1790Y4636D01*
X1794Y4633D01*
X1798Y4631D01*
X1802Y4629D01*
X1805Y4626D01*
X1807Y4624D01*
X1809Y4623D01*
X1810Y4621D01*
X1811Y4621D01*
X1811Y4620D01*
X1815Y4615D01*
X1819Y4610D01*
X1822Y4604D01*
X1825Y4599D01*
X1827Y4593D01*
X1829Y4586D01*
X1830Y4581D01*
X1832Y4575D01*
X1833Y4570D01*
X1833Y4565D01*
X1834Y4560D01*
X1834Y4556D01*
Y4553D01*
X1835Y4551D01*
Y4549D01*
Y4549D01*
X1834Y4541D01*
X1833Y4533D01*
X1832Y4526D01*
X1831Y4519D01*
X1829Y4513D01*
X1827Y4507D01*
X1825Y4502D01*
X1823Y4497D01*
X1821Y4493D01*
X1819Y4490D01*
X1817Y4487D01*
X1815Y4484D01*
X1814Y4482D01*
X1812Y4481D01*
X1812Y4480D01*
X1811Y4480D01*
X1807Y4475D01*
X1802Y4472D01*
X1797Y4468D01*
X1791Y4466D01*
X1786Y4463D01*
X1781Y4461D01*
X1776Y4460D01*
X1771Y4458D01*
X1766Y4457D01*
X1762Y4457D01*
X1758Y4456D01*
X1754Y4455D01*
X1752D01*
X1749Y4455D01*
X1748D01*
X1742Y4455D01*
X1736Y4456D01*
X1731Y4457D01*
X1726Y4458D01*
X1722Y4459D01*
X1717Y4460D01*
X1713Y4461D01*
X1710Y4463D01*
X1707Y4464D01*
X1704Y4466D01*
X1701Y4467D01*
X1699Y4468D01*
X1698Y4469D01*
X1696Y4470D01*
X1696Y4470D01*
X1696Y4470D01*
X1692Y4473D01*
X1688Y4477D01*
X1685Y4480D01*
X1682Y4484D01*
X1678Y4491D01*
X1674Y4498D01*
X1672Y4501D01*
X1671Y4504D01*
X1670Y4507D01*
X1669Y4510D01*
X1668Y4511D01*
X1668Y4513D01*
X1667Y4514D01*
Y4514D01*
X1700Y4518D01*
X1702Y4511D01*
X1706Y4505D01*
X1709Y4500D01*
X1712Y4496D01*
X1715Y4493D01*
X1717Y4491D01*
X1718Y4490D01*
X1719Y4489D01*
X1719D01*
X1723Y4486D01*
X1728Y4484D01*
X1733Y4483D01*
X1738Y4482D01*
X1742Y4481D01*
X1745Y4481D01*
X1746Y4481D01*
X1748D01*
X1752Y4481D01*
X1756Y4481D01*
X1760Y4482D01*
X1763Y4483D01*
X1770Y4485D01*
X1775Y4488D01*
X1778Y4490D01*
X1780Y4491D01*
X1782Y4493D01*
X1783Y4494D01*
X1784Y4495D01*
X1785Y4496D01*
X1786Y4496D01*
X1786Y4496D01*
X1789Y4500D01*
X1791Y4503D01*
X1793Y4507D01*
X1795Y4510D01*
X1798Y4518D01*
X1800Y4526D01*
X1801Y4529D01*
X1802Y4532D01*
X1802Y4535D01*
X1802Y4538D01*
X1803Y4540D01*
X1803Y4541D01*
Y4543D01*
Y4543D01*
X1667D01*
X1666Y4546D01*
Y4549D01*
Y4550D01*
Y4551D01*
X1667Y4559D01*
X1667Y4567D01*
X1669Y4574D01*
X1670Y4581D01*
X1672Y4587D01*
X1674Y4593D01*
X1676Y4598D01*
X1678Y4603D01*
X1680Y4607D01*
X1682Y4611D01*
X1684Y4614D01*
X1686Y4616D01*
X1687Y4618D01*
X1688Y4620D01*
X1689Y4621D01*
X1690Y4621D01*
X1694Y4625D01*
X1699Y4629D01*
X1704Y4633D01*
X1709Y4635D01*
X1714Y4638D01*
X1719Y4640D01*
X1723Y4642D01*
X1728Y4643D01*
X1732Y4644D01*
X1737Y4645D01*
X1740Y4645D01*
X1743Y4646D01*
X1746D01*
X1748Y4646D01*
X1749D01*
X1756Y4646D01*
D02*
G37*
G36*
X742Y4645D02*
X750Y4644D01*
X757Y4642D01*
X761Y4641D01*
X764Y4641D01*
X767Y4639D01*
X769Y4638D01*
X771Y4638D01*
X773Y4636D01*
X775Y4636D01*
X776Y4635D01*
X776Y4635D01*
X777D01*
X784Y4630D01*
X790Y4625D01*
X795Y4619D01*
X799Y4614D01*
X802Y4609D01*
X803Y4607D01*
X805Y4605D01*
X805Y4604D01*
X806Y4603D01*
X806Y4602D01*
Y4602D01*
X810Y4593D01*
X812Y4584D01*
X814Y4575D01*
X815Y4567D01*
X815Y4564D01*
X815Y4560D01*
X816Y4557D01*
Y4555D01*
X816Y4553D01*
Y4551D01*
Y4550D01*
Y4550D01*
X816Y4541D01*
X815Y4534D01*
X814Y4526D01*
X812Y4519D01*
X811Y4513D01*
X809Y4507D01*
X807Y4502D01*
X805Y4497D01*
X803Y4493D01*
X800Y4490D01*
X799Y4487D01*
X797Y4484D01*
X795Y4482D01*
X794Y4481D01*
X794Y4480D01*
X793Y4479D01*
X789Y4475D01*
X784Y4472D01*
X779Y4468D01*
X774Y4466D01*
X769Y4463D01*
X764Y4461D01*
X759Y4460D01*
X755Y4458D01*
X750Y4457D01*
X746Y4457D01*
X743Y4456D01*
X740Y4455D01*
X737D01*
X735Y4455D01*
X733D01*
X728Y4455D01*
X723Y4456D01*
X718Y4457D01*
X713Y4458D01*
X708Y4459D01*
X704Y4461D01*
X700Y4462D01*
X697Y4464D01*
X694Y4466D01*
X691Y4467D01*
X689Y4469D01*
X687Y4470D01*
X685Y4471D01*
X684Y4472D01*
X683Y4473D01*
X683Y4473D01*
X679Y4476D01*
X676Y4480D01*
X673Y4484D01*
X670Y4488D01*
X668Y4492D01*
X666Y4496D01*
X663Y4504D01*
X661Y4508D01*
X660Y4511D01*
X659Y4514D01*
X658Y4517D01*
X658Y4519D01*
X658Y4521D01*
X657Y4522D01*
Y4522D01*
X688Y4526D01*
X688Y4522D01*
X689Y4518D01*
X690Y4514D01*
X691Y4511D01*
X693Y4508D01*
X694Y4505D01*
X695Y4502D01*
X697Y4500D01*
X698Y4498D01*
X699Y4496D01*
X701Y4494D01*
X703Y4492D01*
X703Y4492D01*
X703Y4491D01*
X708Y4488D01*
X713Y4485D01*
X718Y4483D01*
X723Y4482D01*
X727Y4481D01*
X729Y4481D01*
X731D01*
X732Y4481D01*
X734D01*
X738Y4481D01*
X742Y4481D01*
X745Y4482D01*
X749Y4483D01*
X755Y4486D01*
X761Y4489D01*
X763Y4490D01*
X765Y4492D01*
X766Y4493D01*
X768Y4495D01*
X769Y4496D01*
X770Y4496D01*
X770Y4497D01*
X770Y4497D01*
X773Y4500D01*
X775Y4504D01*
X777Y4508D01*
X778Y4513D01*
X781Y4522D01*
X783Y4530D01*
X783Y4534D01*
X783Y4538D01*
X784Y4542D01*
X784Y4545D01*
X784Y4547D01*
Y4549D01*
Y4550D01*
Y4551D01*
X784Y4557D01*
X784Y4564D01*
X783Y4569D01*
X782Y4574D01*
X781Y4579D01*
X780Y4583D01*
X778Y4587D01*
X777Y4591D01*
X776Y4594D01*
X774Y4597D01*
X773Y4599D01*
X772Y4600D01*
X771Y4602D01*
X770Y4603D01*
X770Y4603D01*
X770Y4604D01*
X767Y4607D01*
X764Y4609D01*
X761Y4612D01*
X758Y4614D01*
X755Y4615D01*
X752Y4617D01*
X746Y4618D01*
X740Y4620D01*
X738Y4620D01*
X736Y4620D01*
X734Y4621D01*
X732D01*
X726Y4620D01*
X721Y4619D01*
X717Y4618D01*
X713Y4616D01*
X710Y4614D01*
X708Y4613D01*
X706Y4612D01*
X706Y4611D01*
X702Y4607D01*
X699Y4603D01*
X696Y4598D01*
X694Y4594D01*
X692Y4590D01*
X691Y4586D01*
X691Y4585D01*
X691Y4584D01*
X690Y4584D01*
Y4583D01*
X660Y4588D01*
X661Y4593D01*
X663Y4598D01*
X665Y4602D01*
X666Y4606D01*
X668Y4610D01*
X670Y4614D01*
X672Y4617D01*
X675Y4620D01*
X676Y4622D01*
X678Y4624D01*
X680Y4626D01*
X682Y4628D01*
X683Y4629D01*
X684Y4630D01*
X684Y4630D01*
X685Y4631D01*
X688Y4633D01*
X692Y4636D01*
X696Y4638D01*
X700Y4639D01*
X708Y4642D01*
X716Y4644D01*
X720Y4645D01*
X723Y4645D01*
X726Y4645D01*
X728Y4646D01*
X730Y4646D01*
X733D01*
X742Y4645D01*
D02*
G37*
G36*
X1550Y4646D02*
X1556Y4645D01*
X1562Y4643D01*
X1568Y4641D01*
X1573Y4639D01*
X1578Y4636D01*
X1582Y4634D01*
X1586Y4631D01*
X1589Y4628D01*
X1592Y4625D01*
X1595Y4623D01*
X1597Y4620D01*
X1598Y4618D01*
X1600Y4617D01*
X1600Y4616D01*
X1601Y4616D01*
Y4642D01*
X1628D01*
Y4459D01*
X1598D01*
Y4559D01*
X1597Y4565D01*
X1597Y4571D01*
X1596Y4576D01*
X1595Y4581D01*
X1594Y4586D01*
X1593Y4590D01*
X1592Y4593D01*
X1590Y4596D01*
X1589Y4599D01*
X1588Y4601D01*
X1587Y4603D01*
X1586Y4604D01*
X1585Y4605D01*
X1584Y4606D01*
X1584Y4606D01*
X1583Y4607D01*
X1581Y4609D01*
X1578Y4611D01*
X1572Y4614D01*
X1566Y4616D01*
X1561Y4618D01*
X1556Y4619D01*
X1554Y4619D01*
X1553D01*
X1551Y4619D01*
X1549D01*
X1545Y4619D01*
X1541Y4618D01*
X1537Y4617D01*
X1534Y4617D01*
X1531Y4615D01*
X1529Y4614D01*
X1528Y4614D01*
X1528Y4614D01*
X1524Y4611D01*
X1522Y4609D01*
X1519Y4606D01*
X1518Y4604D01*
X1516Y4602D01*
X1516Y4600D01*
X1515Y4599D01*
X1515Y4599D01*
X1513Y4595D01*
X1513Y4590D01*
X1512Y4586D01*
X1512Y4581D01*
X1511Y4577D01*
X1511Y4575D01*
Y4573D01*
Y4572D01*
Y4571D01*
Y4571D01*
Y4570D01*
Y4459D01*
X1480D01*
Y4571D01*
Y4575D01*
Y4579D01*
X1480Y4582D01*
Y4585D01*
X1481Y4588D01*
Y4591D01*
X1481Y4595D01*
X1482Y4598D01*
X1482Y4600D01*
X1482Y4601D01*
Y4602D01*
X1483Y4606D01*
X1485Y4611D01*
X1486Y4615D01*
X1488Y4618D01*
X1489Y4621D01*
X1491Y4623D01*
X1491Y4624D01*
X1492Y4624D01*
X1494Y4628D01*
X1498Y4631D01*
X1501Y4633D01*
X1504Y4636D01*
X1508Y4638D01*
X1510Y4639D01*
X1512Y4640D01*
X1512Y4640D01*
X1512D01*
X1518Y4642D01*
X1523Y4644D01*
X1528Y4645D01*
X1533Y4645D01*
X1537Y4646D01*
X1538D01*
X1540Y4646D01*
X1543D01*
X1550Y4646D01*
D02*
G37*
G36*
X2189Y4715D02*
X2198Y4714D01*
X2207Y4712D01*
X2215Y4710D01*
X2223Y4707D01*
X2230Y4704D01*
X2237Y4701D01*
X2243Y4698D01*
X2248Y4695D01*
X2253Y4691D01*
X2257Y4688D01*
X2260Y4686D01*
X2263Y4683D01*
X2265Y4682D01*
X2266Y4680D01*
X2266Y4680D01*
X2272Y4673D01*
X2278Y4666D01*
X2282Y4658D01*
X2286Y4650D01*
X2289Y4642D01*
X2292Y4633D01*
X2294Y4626D01*
X2296Y4618D01*
X2297Y4610D01*
X2298Y4604D01*
X2299Y4597D01*
X2299Y4592D01*
X2300Y4588D01*
Y4586D01*
X2300Y4585D01*
Y4583D01*
Y4583D01*
Y4582D01*
Y4582D01*
X2300Y4576D01*
X2299Y4570D01*
X2298Y4558D01*
X2297Y4553D01*
X2296Y4547D01*
X2294Y4543D01*
X2293Y4538D01*
X2292Y4534D01*
X2290Y4530D01*
X2289Y4527D01*
X2288Y4524D01*
X2287Y4522D01*
X2286Y4520D01*
X2286Y4519D01*
X2286Y4519D01*
X2283Y4514D01*
X2280Y4508D01*
X2277Y4504D01*
X2273Y4499D01*
X2269Y4495D01*
X2266Y4491D01*
X2263Y4488D01*
X2259Y4484D01*
X2256Y4482D01*
X2253Y4479D01*
X2250Y4477D01*
X2248Y4475D01*
X2246Y4474D01*
X2244Y4473D01*
X2243Y4472D01*
X2243Y4472D01*
X2238Y4469D01*
X2232Y4467D01*
X2227Y4464D01*
X2221Y4462D01*
X2216Y4461D01*
X2211Y4459D01*
X2206Y4458D01*
X2201Y4457D01*
X2196Y4457D01*
X2192Y4456D01*
X2189Y4456D01*
X2186Y4455D01*
X2183Y4455D01*
X2180D01*
X2174Y4455D01*
X2168Y4456D01*
X2156Y4458D01*
X2151Y4459D01*
X2146Y4460D01*
X2141Y4461D01*
X2137Y4463D01*
X2133Y4464D01*
X2129Y4466D01*
X2126Y4467D01*
X2123Y4468D01*
X2121Y4469D01*
X2120Y4470D01*
X2119Y4470D01*
X2118Y4470D01*
X2113Y4473D01*
X2108Y4477D01*
X2104Y4481D01*
X2100Y4484D01*
X2096Y4488D01*
X2092Y4492D01*
X2089Y4496D01*
X2086Y4499D01*
X2083Y4503D01*
X2081Y4506D01*
X2079Y4509D01*
X2077Y4511D01*
X2076Y4513D01*
X2075Y4515D01*
X2075Y4516D01*
X2075Y4516D01*
X2072Y4522D01*
X2069Y4528D01*
X2067Y4534D01*
X2065Y4540D01*
X2064Y4546D01*
X2063Y4551D01*
X2062Y4557D01*
X2061Y4562D01*
X2060Y4567D01*
X2060Y4571D01*
X2059Y4575D01*
X2059Y4578D01*
X2059Y4581D01*
Y4583D01*
Y4584D01*
Y4585D01*
X2059Y4592D01*
X2059Y4599D01*
X2060Y4605D01*
X2061Y4611D01*
X2062Y4617D01*
X2064Y4623D01*
X2065Y4628D01*
X2066Y4633D01*
X2068Y4637D01*
X2069Y4641D01*
X2070Y4644D01*
X2071Y4647D01*
X2072Y4649D01*
X2073Y4651D01*
X2073Y4652D01*
X2074Y4652D01*
X2077Y4658D01*
X2080Y4663D01*
X2083Y4668D01*
X2087Y4672D01*
X2090Y4676D01*
X2094Y4680D01*
X2097Y4684D01*
X2101Y4687D01*
X2104Y4690D01*
X2107Y4692D01*
X2109Y4694D01*
X2112Y4696D01*
X2114Y4697D01*
X2115Y4698D01*
X2116Y4699D01*
X2117Y4699D01*
X2122Y4702D01*
X2127Y4704D01*
X2133Y4707D01*
X2138Y4709D01*
X2144Y4710D01*
X2149Y4712D01*
X2154Y4713D01*
X2159Y4713D01*
X2163Y4714D01*
X2167Y4715D01*
X2170Y4715D01*
X2174Y4715D01*
X2176Y4716D01*
X2179D01*
X2189Y4715D01*
D02*
G37*
G36*
X1945Y4646D02*
X1951Y4645D01*
X1957Y4644D01*
X1961Y4642D01*
X1964Y4641D01*
X1967Y4640D01*
X1969Y4639D01*
X1969Y4639D01*
X1969D01*
X1974Y4636D01*
X1978Y4633D01*
X1982Y4629D01*
X1985Y4626D01*
X1988Y4623D01*
X1990Y4620D01*
X1991Y4618D01*
X1992Y4618D01*
Y4642D01*
X2020D01*
Y4389D01*
X1989D01*
Y4478D01*
X1986Y4475D01*
X1983Y4471D01*
X1980Y4468D01*
X1976Y4466D01*
X1973Y4464D01*
X1971Y4463D01*
X1970Y4462D01*
X1969Y4461D01*
X1964Y4459D01*
X1960Y4458D01*
X1955Y4457D01*
X1951Y4456D01*
X1947Y4455D01*
X1944Y4455D01*
X1941D01*
X1937Y4455D01*
X1933Y4456D01*
X1926Y4457D01*
X1919Y4459D01*
X1913Y4461D01*
X1910Y4462D01*
X1908Y4463D01*
X1906Y4464D01*
X1904Y4465D01*
X1903Y4466D01*
X1902Y4466D01*
X1901Y4467D01*
X1901D01*
X1894Y4472D01*
X1888Y4477D01*
X1883Y4483D01*
X1879Y4489D01*
X1876Y4494D01*
X1875Y4496D01*
X1874Y4498D01*
X1873Y4499D01*
X1872Y4500D01*
X1872Y4501D01*
Y4501D01*
X1868Y4510D01*
X1866Y4519D01*
X1864Y4527D01*
X1863Y4535D01*
X1862Y4538D01*
X1862Y4542D01*
X1862Y4545D01*
Y4547D01*
X1862Y4549D01*
Y4550D01*
Y4552D01*
Y4552D01*
X1862Y4561D01*
X1863Y4570D01*
X1865Y4579D01*
X1865Y4582D01*
X1866Y4586D01*
X1867Y4589D01*
X1868Y4592D01*
X1869Y4594D01*
X1869Y4596D01*
X1870Y4598D01*
X1871Y4599D01*
X1871Y4600D01*
Y4600D01*
X1875Y4608D01*
X1879Y4614D01*
X1883Y4620D01*
X1888Y4625D01*
X1892Y4629D01*
X1895Y4632D01*
X1896Y4632D01*
X1897Y4633D01*
X1898Y4634D01*
X1898D01*
X1901Y4636D01*
X1905Y4638D01*
X1912Y4641D01*
X1919Y4643D01*
X1925Y4644D01*
X1928Y4645D01*
X1931Y4645D01*
X1933Y4646D01*
X1935D01*
X1937Y4646D01*
X1939D01*
X1945Y4646D01*
D02*
G37*
G36*
X3297Y-4439D02*
X3276D01*
X3216Y-4252D01*
X3237D01*
X3278Y-4388D01*
X3280Y-4394D01*
X3282Y-4399D01*
X3283Y-4404D01*
X3284Y-4409D01*
X3285Y-4411D01*
X3285Y-4413D01*
X3286Y-4414D01*
X3286Y-4416D01*
X3286Y-4417D01*
X3286Y-4418D01*
X3287Y-4418D01*
Y-4418D01*
X3288Y-4413D01*
X3289Y-4407D01*
X3291Y-4402D01*
X3292Y-4398D01*
X3293Y-4396D01*
X3293Y-4394D01*
X3293Y-4392D01*
X3294Y-4391D01*
X3294Y-4390D01*
X3294Y-4389D01*
X3295Y-4388D01*
Y-4388D01*
X3334Y-4252D01*
X3356D01*
X3297Y-4439D01*
D02*
G37*
G36*
X3056Y-4360D02*
X3055Y-4368D01*
X3055Y-4376D01*
X3054Y-4383D01*
X3053Y-4390D01*
X3052Y-4395D01*
X3051Y-4400D01*
X3049Y-4405D01*
X3048Y-4409D01*
X3047Y-4413D01*
X3045Y-4416D01*
X3044Y-4418D01*
X3043Y-4421D01*
X3042Y-4422D01*
X3041Y-4423D01*
X3041Y-4424D01*
X3041Y-4424D01*
X3038Y-4427D01*
X3034Y-4430D01*
X3031Y-4432D01*
X3027Y-4434D01*
X3023Y-4436D01*
X3020Y-4438D01*
X3016Y-4439D01*
X3012Y-4440D01*
X3009Y-4441D01*
X3006Y-4441D01*
X3003Y-4441D01*
X3000Y-4442D01*
X2998D01*
X2997Y-4442D01*
X2995D01*
X2991Y-4442D01*
X2988Y-4442D01*
X2984Y-4441D01*
X2981Y-4440D01*
X2978Y-4440D01*
X2975Y-4439D01*
X2972Y-4438D01*
X2970Y-4437D01*
X2967Y-4436D01*
X2966Y-4435D01*
X2964Y-4434D01*
X2962Y-4434D01*
X2961Y-4433D01*
X2961Y-4432D01*
X2960Y-4432D01*
X2960Y-4432D01*
X2955Y-4428D01*
X2951Y-4424D01*
X2948Y-4419D01*
X2945Y-4415D01*
X2943Y-4411D01*
X2942Y-4409D01*
X2942Y-4408D01*
X2941Y-4406D01*
X2941Y-4406D01*
X2941Y-4405D01*
Y-4405D01*
X2940Y-4401D01*
X2939Y-4398D01*
X2938Y-4390D01*
X2937Y-4383D01*
X2936Y-4376D01*
X2936Y-4373D01*
X2936Y-4370D01*
Y-4367D01*
X2935Y-4365D01*
Y-4363D01*
Y-4361D01*
Y-4360D01*
Y-4360D01*
Y-4252D01*
X2956D01*
Y-4360D01*
X2956Y-4366D01*
X2956Y-4372D01*
X2957Y-4377D01*
X2957Y-4382D01*
X2958Y-4387D01*
X2959Y-4391D01*
X2960Y-4394D01*
X2961Y-4397D01*
X2961Y-4400D01*
X2962Y-4402D01*
X2963Y-4404D01*
X2964Y-4405D01*
X2965Y-4406D01*
X2965Y-4407D01*
X2965Y-4407D01*
X2966Y-4408D01*
X2967Y-4410D01*
X2970Y-4412D01*
X2972Y-4413D01*
X2975Y-4415D01*
X2977Y-4416D01*
X2980Y-4417D01*
X2985Y-4418D01*
X2987Y-4419D01*
X2989Y-4419D01*
X2991Y-4419D01*
X2993Y-4419D01*
X2995Y-4420D01*
X2997D01*
X3001Y-4419D01*
X3006Y-4419D01*
X3009Y-4418D01*
X3013Y-4417D01*
X3015Y-4416D01*
X3017Y-4415D01*
X3018Y-4414D01*
X3018Y-4414D01*
X3019D01*
X3022Y-4412D01*
X3024Y-4409D01*
X3026Y-4406D01*
X3028Y-4403D01*
X3030Y-4401D01*
X3031Y-4399D01*
X3031Y-4398D01*
X3031Y-4397D01*
X3031Y-4397D01*
Y-4397D01*
X3032Y-4394D01*
X3033Y-4392D01*
X3033Y-4389D01*
X3034Y-4386D01*
X3034Y-4380D01*
X3035Y-4374D01*
Y-4371D01*
X3035Y-4369D01*
Y-4366D01*
X3035Y-4364D01*
Y-4363D01*
Y-4361D01*
Y-4360D01*
Y-4360D01*
Y-4252D01*
X3056D01*
Y-4360D01*
D02*
G37*
G36*
X3199Y-4439D02*
X3137D01*
X3133Y-4439D01*
X3130Y-4438D01*
X3127Y-4438D01*
X3124Y-4438D01*
X3122Y-4437D01*
X3119Y-4437D01*
X3117Y-4436D01*
X3115Y-4435D01*
X3114Y-4435D01*
X3112Y-4434D01*
X3111Y-4434D01*
X3110Y-4434D01*
X3109Y-4433D01*
X3109Y-4433D01*
X3109D01*
X3105Y-4431D01*
X3101Y-4428D01*
X3098Y-4425D01*
X3095Y-4422D01*
X3093Y-4419D01*
X3091Y-4417D01*
X3091Y-4416D01*
X3091Y-4415D01*
X3090Y-4415D01*
Y-4415D01*
X3088Y-4410D01*
X3086Y-4405D01*
X3085Y-4400D01*
X3084Y-4395D01*
X3084Y-4393D01*
X3084Y-4391D01*
X3083Y-4389D01*
X3083Y-4388D01*
Y-4387D01*
Y-4386D01*
Y-4385D01*
Y-4385D01*
X3084Y-4379D01*
X3084Y-4373D01*
X3086Y-4368D01*
X3087Y-4364D01*
X3088Y-4363D01*
X3089Y-4361D01*
X3089Y-4360D01*
X3090Y-4358D01*
X3090Y-4358D01*
X3091Y-4357D01*
X3091Y-4357D01*
Y-4356D01*
X3094Y-4352D01*
X3098Y-4349D01*
X3101Y-4346D01*
X3104Y-4344D01*
X3107Y-4342D01*
X3110Y-4341D01*
X3111Y-4340D01*
X3111Y-4340D01*
X3112Y-4340D01*
X3112D01*
X3108Y-4337D01*
X3105Y-4335D01*
X3103Y-4332D01*
X3100Y-4329D01*
X3098Y-4327D01*
X3097Y-4325D01*
X3096Y-4324D01*
X3096Y-4324D01*
Y-4323D01*
X3094Y-4319D01*
X3093Y-4315D01*
X3092Y-4311D01*
X3091Y-4308D01*
X3091Y-4305D01*
Y-4303D01*
X3090Y-4302D01*
Y-4301D01*
Y-4301D01*
Y-4300D01*
Y-4300D01*
X3091Y-4295D01*
X3091Y-4290D01*
X3092Y-4286D01*
X3094Y-4282D01*
X3095Y-4279D01*
X3096Y-4278D01*
X3096Y-4277D01*
X3096Y-4276D01*
X3097Y-4275D01*
X3097Y-4275D01*
Y-4275D01*
X3100Y-4270D01*
X3102Y-4267D01*
X3105Y-4264D01*
X3108Y-4262D01*
X3110Y-4260D01*
X3112Y-4259D01*
X3113Y-4258D01*
X3114Y-4258D01*
X3114D01*
X3118Y-4256D01*
X3122Y-4254D01*
X3127Y-4254D01*
X3131Y-4253D01*
X3135Y-4252D01*
X3137D01*
X3139Y-4252D01*
X3199D01*
Y-4439D01*
D02*
G37*
G36*
X2852Y-4249D02*
X2857Y-4250D01*
X2861Y-4250D01*
X2864Y-4251D01*
X2868Y-4252D01*
X2871Y-4253D01*
X2874Y-4255D01*
X2877Y-4256D01*
X2879Y-4258D01*
X2882Y-4259D01*
X2883Y-4260D01*
X2885Y-4261D01*
X2886Y-4262D01*
X2887Y-4263D01*
X2887Y-4263D01*
X2887Y-4263D01*
X2890Y-4266D01*
X2892Y-4269D01*
X2894Y-4272D01*
X2896Y-4275D01*
X2897Y-4278D01*
X2899Y-4282D01*
X2899Y-4284D01*
X2900Y-4287D01*
X2901Y-4290D01*
X2901Y-4292D01*
X2902Y-4295D01*
X2902Y-4297D01*
X2902Y-4298D01*
Y-4299D01*
Y-4300D01*
Y-4300D01*
X2902Y-4305D01*
X2901Y-4309D01*
X2900Y-4313D01*
X2900Y-4317D01*
X2899Y-4319D01*
X2898Y-4321D01*
X2898Y-4322D01*
X2897Y-4323D01*
X2897Y-4323D01*
Y-4323D01*
X2895Y-4327D01*
X2893Y-4330D01*
X2890Y-4333D01*
X2888Y-4335D01*
X2886Y-4337D01*
X2884Y-4338D01*
X2883Y-4339D01*
X2883Y-4340D01*
X2881Y-4341D01*
X2879Y-4342D01*
X2874Y-4344D01*
X2869Y-4347D01*
X2864Y-4348D01*
X2861Y-4349D01*
X2859Y-4350D01*
X2857Y-4351D01*
X2855Y-4351D01*
X2854Y-4352D01*
X2853Y-4352D01*
X2852Y-4352D01*
X2852D01*
X2848Y-4354D01*
X2844Y-4355D01*
X2840Y-4356D01*
X2837Y-4357D01*
X2834Y-4358D01*
X2831Y-4359D01*
X2829Y-4360D01*
X2827Y-4361D01*
X2825Y-4361D01*
X2824Y-4362D01*
X2823Y-4363D01*
X2822Y-4363D01*
X2821Y-4363D01*
X2821Y-4364D01*
X2820Y-4364D01*
X2818Y-4365D01*
X2816Y-4367D01*
X2814Y-4369D01*
X2812Y-4370D01*
X2811Y-4372D01*
X2810Y-4373D01*
X2810Y-4374D01*
X2809Y-4374D01*
X2808Y-4376D01*
X2807Y-4379D01*
X2806Y-4381D01*
X2806Y-4383D01*
X2806Y-4385D01*
X2806Y-4387D01*
Y-4388D01*
Y-4388D01*
X2806Y-4391D01*
X2806Y-4393D01*
X2807Y-4398D01*
X2809Y-4402D01*
X2811Y-4405D01*
X2812Y-4408D01*
X2814Y-4409D01*
X2815Y-4411D01*
X2816Y-4411D01*
X2816Y-4411D01*
X2820Y-4414D01*
X2824Y-4416D01*
X2829Y-4418D01*
X2834Y-4419D01*
X2838Y-4419D01*
X2839Y-4419D01*
X2841D01*
X2842Y-4420D01*
X2844D01*
X2849Y-4419D01*
X2853Y-4419D01*
X2857Y-4418D01*
X2860Y-4417D01*
X2863Y-4416D01*
X2865Y-4415D01*
X2866Y-4415D01*
X2866Y-4415D01*
X2866Y-4415D01*
X2867D01*
X2870Y-4413D01*
X2873Y-4410D01*
X2876Y-4408D01*
X2878Y-4406D01*
X2880Y-4404D01*
X2881Y-4402D01*
X2882Y-4401D01*
X2882Y-4401D01*
X2884Y-4397D01*
X2885Y-4393D01*
X2887Y-4389D01*
X2887Y-4385D01*
X2888Y-4382D01*
X2888Y-4381D01*
Y-4379D01*
X2889Y-4378D01*
X2889Y-4377D01*
Y-4377D01*
Y-4377D01*
X2908Y-4378D01*
X2908Y-4384D01*
X2907Y-4389D01*
X2906Y-4394D01*
X2905Y-4398D01*
X2904Y-4402D01*
X2902Y-4406D01*
X2901Y-4410D01*
X2899Y-4413D01*
X2898Y-4416D01*
X2896Y-4418D01*
X2894Y-4420D01*
X2893Y-4422D01*
X2892Y-4423D01*
X2891Y-4424D01*
X2891Y-4425D01*
X2891Y-4425D01*
X2887Y-4428D01*
X2884Y-4431D01*
X2880Y-4433D01*
X2876Y-4435D01*
X2873Y-4437D01*
X2869Y-4438D01*
X2865Y-4439D01*
X2862Y-4440D01*
X2858Y-4441D01*
X2855Y-4441D01*
X2852Y-4441D01*
X2850Y-4442D01*
X2848D01*
X2846Y-4442D01*
X2845D01*
X2839Y-4442D01*
X2833Y-4441D01*
X2827Y-4440D01*
X2825Y-4439D01*
X2823Y-4439D01*
X2821Y-4438D01*
X2819Y-4437D01*
X2818Y-4437D01*
X2816Y-4436D01*
X2815Y-4436D01*
X2815Y-4435D01*
X2814Y-4435D01*
X2814D01*
X2810Y-4432D01*
X2805Y-4429D01*
X2802Y-4426D01*
X2799Y-4423D01*
X2797Y-4420D01*
X2795Y-4417D01*
X2794Y-4416D01*
X2794Y-4416D01*
X2794Y-4415D01*
Y-4415D01*
X2791Y-4410D01*
X2789Y-4405D01*
X2788Y-4400D01*
X2787Y-4396D01*
X2787Y-4394D01*
X2786Y-4392D01*
X2786Y-4390D01*
Y-4389D01*
X2786Y-4388D01*
Y-4387D01*
Y-4386D01*
Y-4386D01*
X2786Y-4380D01*
X2787Y-4375D01*
X2788Y-4370D01*
X2790Y-4366D01*
X2790Y-4364D01*
X2791Y-4363D01*
X2792Y-4361D01*
X2792Y-4360D01*
X2793Y-4360D01*
X2793Y-4359D01*
X2793Y-4359D01*
Y-4358D01*
X2796Y-4354D01*
X2800Y-4351D01*
X2803Y-4347D01*
X2807Y-4345D01*
X2810Y-4342D01*
X2811Y-4342D01*
X2812Y-4341D01*
X2813Y-4340D01*
X2814Y-4340D01*
X2814Y-4340D01*
X2814D01*
X2816Y-4339D01*
X2819Y-4338D01*
X2821Y-4337D01*
X2823Y-4336D01*
X2829Y-4334D01*
X2834Y-4332D01*
X2836Y-4332D01*
X2839Y-4331D01*
X2841Y-4330D01*
X2843Y-4330D01*
X2844Y-4329D01*
X2845Y-4329D01*
X2846Y-4328D01*
X2846D01*
X2850Y-4327D01*
X2854Y-4326D01*
X2858Y-4325D01*
X2861Y-4324D01*
X2863Y-4323D01*
X2866Y-4322D01*
X2868Y-4321D01*
X2870Y-4320D01*
X2871Y-4319D01*
X2873Y-4318D01*
X2874Y-4318D01*
X2875Y-4317D01*
X2875Y-4317D01*
X2876Y-4316D01*
X2876Y-4316D01*
X2878Y-4313D01*
X2880Y-4310D01*
X2881Y-4308D01*
X2882Y-4305D01*
X2882Y-4302D01*
X2882Y-4300D01*
X2883Y-4299D01*
Y-4299D01*
Y-4299D01*
Y-4298D01*
X2882Y-4296D01*
X2882Y-4294D01*
X2881Y-4290D01*
X2880Y-4287D01*
X2878Y-4284D01*
X2876Y-4282D01*
X2875Y-4280D01*
X2874Y-4279D01*
X2874Y-4278D01*
X2870Y-4276D01*
X2866Y-4274D01*
X2861Y-4273D01*
X2857Y-4272D01*
X2853Y-4271D01*
X2852Y-4271D01*
X2850D01*
X2849Y-4271D01*
X2844D01*
X2841Y-4271D01*
X2836Y-4272D01*
X2831Y-4274D01*
X2828Y-4275D01*
X2825Y-4277D01*
X2824Y-4277D01*
X2823Y-4278D01*
X2822Y-4279D01*
X2821Y-4279D01*
X2821Y-4279D01*
Y-4279D01*
X2819Y-4281D01*
X2818Y-4283D01*
X2815Y-4287D01*
X2813Y-4292D01*
X2812Y-4296D01*
X2811Y-4300D01*
X2811Y-4302D01*
X2810Y-4303D01*
X2810Y-4305D01*
X2810Y-4306D01*
Y-4306D01*
Y-4307D01*
X2790Y-4305D01*
X2791Y-4299D01*
X2792Y-4293D01*
X2793Y-4288D01*
X2795Y-4284D01*
X2795Y-4282D01*
X2796Y-4280D01*
X2797Y-4279D01*
X2797Y-4277D01*
X2798Y-4276D01*
X2798Y-4276D01*
X2798Y-4275D01*
Y-4275D01*
X2801Y-4271D01*
X2804Y-4267D01*
X2808Y-4263D01*
X2811Y-4261D01*
X2814Y-4259D01*
X2816Y-4257D01*
X2817Y-4256D01*
X2818Y-4256D01*
X2818Y-4256D01*
X2818D01*
X2823Y-4253D01*
X2828Y-4252D01*
X2833Y-4251D01*
X2838Y-4250D01*
X2840Y-4250D01*
X2842Y-4249D01*
X2844Y-4249D01*
X2845Y-4249D01*
X2848D01*
X2852Y-4249D01*
D02*
G37*
G36*
X529Y-4439D02*
X510D01*
Y-4292D01*
X430Y-4439D01*
X409D01*
Y-4252D01*
X428D01*
Y-4399D01*
X509Y-4252D01*
X529D01*
Y-4439D01*
D02*
G37*
G36*
X627Y-4249D02*
X632Y-4249D01*
X639Y-4251D01*
X643Y-4251D01*
X646Y-4252D01*
X649Y-4253D01*
X652Y-4254D01*
X654Y-4255D01*
X656Y-4256D01*
X658Y-4257D01*
X660Y-4258D01*
X661Y-4259D01*
X662Y-4259D01*
X663Y-4260D01*
X663Y-4260D01*
X666Y-4262D01*
X669Y-4264D01*
X674Y-4270D01*
X679Y-4275D01*
X683Y-4281D01*
X684Y-4283D01*
X686Y-4286D01*
X687Y-4288D01*
X688Y-4290D01*
X689Y-4291D01*
X689Y-4292D01*
X690Y-4293D01*
X690Y-4293D01*
X692Y-4298D01*
X693Y-4302D01*
X694Y-4307D01*
X696Y-4311D01*
X698Y-4320D01*
X698Y-4324D01*
X699Y-4328D01*
X699Y-4332D01*
X699Y-4336D01*
X700Y-4339D01*
X700Y-4341D01*
X700Y-4343D01*
Y-4345D01*
Y-4346D01*
Y-4347D01*
X700Y-4352D01*
X700Y-4357D01*
X699Y-4363D01*
X698Y-4367D01*
X698Y-4372D01*
X697Y-4376D01*
X696Y-4380D01*
X695Y-4384D01*
X694Y-4387D01*
X693Y-4390D01*
X692Y-4392D01*
X691Y-4394D01*
X691Y-4396D01*
X690Y-4397D01*
X690Y-4398D01*
X690Y-4398D01*
X688Y-4402D01*
X686Y-4406D01*
X683Y-4409D01*
X681Y-4412D01*
X679Y-4415D01*
X676Y-4418D01*
X674Y-4421D01*
X672Y-4423D01*
X670Y-4425D01*
X668Y-4426D01*
X666Y-4428D01*
X665Y-4429D01*
X664Y-4430D01*
X663Y-4430D01*
X662Y-4431D01*
X662Y-4431D01*
X659Y-4433D01*
X655Y-4435D01*
X652Y-4436D01*
X648Y-4437D01*
X642Y-4439D01*
X639Y-4440D01*
X635Y-4441D01*
X633Y-4441D01*
X630Y-4441D01*
X628Y-4442D01*
X626Y-4442D01*
X624Y-4442D01*
X622D01*
X616Y-4442D01*
X610Y-4441D01*
X604Y-4440D01*
X599Y-4438D01*
X597Y-4438D01*
X595Y-4437D01*
X594Y-4437D01*
X592Y-4436D01*
X591Y-4435D01*
X590Y-4435D01*
X589Y-4435D01*
X589D01*
X583Y-4432D01*
X578Y-4428D01*
X572Y-4425D01*
X568Y-4421D01*
X566Y-4419D01*
X564Y-4418D01*
X562Y-4417D01*
X561Y-4415D01*
X560Y-4414D01*
X559Y-4414D01*
X559Y-4413D01*
X558Y-4413D01*
Y-4343D01*
X623Y-4344D01*
Y-4366D01*
X578D01*
Y-4400D01*
X581Y-4403D01*
X585Y-4406D01*
X588Y-4408D01*
X591Y-4410D01*
X594Y-4412D01*
X596Y-4413D01*
X597Y-4414D01*
X598Y-4414D01*
X598Y-4414D01*
X598D01*
X603Y-4416D01*
X607Y-4417D01*
X611Y-4418D01*
X615Y-4419D01*
X618Y-4419D01*
X620D01*
X621Y-4420D01*
X623D01*
X627Y-4419D01*
X632Y-4419D01*
X636Y-4418D01*
X640Y-4417D01*
X643Y-4415D01*
X647Y-4414D01*
X650Y-4412D01*
X653Y-4410D01*
X655Y-4409D01*
X657Y-4407D01*
X659Y-4405D01*
X661Y-4404D01*
X662Y-4403D01*
X663Y-4402D01*
X663Y-4401D01*
X664Y-4401D01*
X666Y-4397D01*
X669Y-4393D01*
X671Y-4389D01*
X673Y-4384D01*
X674Y-4380D01*
X675Y-4375D01*
X676Y-4371D01*
X677Y-4366D01*
X678Y-4362D01*
X678Y-4358D01*
X679Y-4354D01*
X679Y-4351D01*
Y-4349D01*
X679Y-4347D01*
Y-4345D01*
Y-4345D01*
Y-4341D01*
X679Y-4336D01*
X678Y-4332D01*
X678Y-4328D01*
X677Y-4325D01*
X677Y-4321D01*
X676Y-4318D01*
X675Y-4315D01*
X675Y-4312D01*
X674Y-4310D01*
X674Y-4308D01*
X673Y-4307D01*
X673Y-4305D01*
X672Y-4304D01*
X672Y-4304D01*
Y-4303D01*
X670Y-4300D01*
X669Y-4298D01*
X667Y-4295D01*
X666Y-4292D01*
X664Y-4290D01*
X662Y-4288D01*
X661Y-4286D01*
X659Y-4284D01*
X657Y-4282D01*
X655Y-4280D01*
X654Y-4279D01*
X653Y-4279D01*
X653Y-4278D01*
X653D01*
X648Y-4276D01*
X643Y-4274D01*
X638Y-4272D01*
X634Y-4271D01*
X630Y-4270D01*
X628Y-4270D01*
X627D01*
X625Y-4270D01*
X624D01*
X620Y-4270D01*
X616Y-4271D01*
X612Y-4271D01*
X609Y-4272D01*
X607Y-4273D01*
X605Y-4274D01*
X604Y-4274D01*
X603Y-4275D01*
X600Y-4276D01*
X597Y-4278D01*
X594Y-4281D01*
X592Y-4282D01*
X591Y-4284D01*
X589Y-4286D01*
X589Y-4286D01*
X588Y-4287D01*
X586Y-4290D01*
X585Y-4294D01*
X583Y-4298D01*
X582Y-4302D01*
X580Y-4305D01*
X580Y-4307D01*
X580Y-4308D01*
X579Y-4309D01*
X579Y-4310D01*
X579Y-4310D01*
Y-4310D01*
X561Y-4304D01*
X562Y-4301D01*
X562Y-4297D01*
X563Y-4294D01*
X564Y-4291D01*
X566Y-4288D01*
X567Y-4286D01*
X568Y-4283D01*
X568Y-4281D01*
X569Y-4279D01*
X570Y-4278D01*
X571Y-4276D01*
X572Y-4275D01*
X572Y-4274D01*
X573Y-4274D01*
X573Y-4273D01*
Y-4273D01*
X576Y-4269D01*
X580Y-4265D01*
X583Y-4262D01*
X587Y-4260D01*
X589Y-4258D01*
X592Y-4257D01*
X593Y-4256D01*
X593Y-4256D01*
X594Y-4255D01*
X594D01*
X599Y-4253D01*
X604Y-4252D01*
X609Y-4251D01*
X613Y-4250D01*
X616Y-4250D01*
X617Y-4249D01*
X619Y-4249D01*
X620Y-4249D01*
X623D01*
X627Y-4249D01*
D02*
G37*
G36*
X375Y-4439D02*
X320D01*
X316Y-4439D01*
X312Y-4439D01*
X308Y-4438D01*
X304Y-4438D01*
X301Y-4437D01*
X298Y-4436D01*
X295Y-4435D01*
X292Y-4434D01*
X290Y-4433D01*
X288Y-4433D01*
X286Y-4432D01*
X284Y-4431D01*
X283Y-4431D01*
X282Y-4430D01*
X282Y-4430D01*
X282D01*
X279Y-4428D01*
X277Y-4426D01*
X272Y-4421D01*
X268Y-4416D01*
X264Y-4411D01*
X263Y-4408D01*
X262Y-4406D01*
X261Y-4404D01*
X260Y-4402D01*
X259Y-4401D01*
X258Y-4400D01*
X258Y-4399D01*
Y-4399D01*
X256Y-4394D01*
X255Y-4390D01*
X252Y-4381D01*
X251Y-4372D01*
X250Y-4367D01*
X250Y-4363D01*
X249Y-4359D01*
X249Y-4356D01*
X249Y-4353D01*
Y-4350D01*
X249Y-4348D01*
Y-4346D01*
Y-4345D01*
Y-4345D01*
X249Y-4336D01*
X249Y-4332D01*
X249Y-4327D01*
X250Y-4324D01*
X250Y-4320D01*
X251Y-4317D01*
X251Y-4314D01*
X252Y-4311D01*
X252Y-4309D01*
X253Y-4307D01*
X253Y-4305D01*
X254Y-4304D01*
X254Y-4303D01*
X254Y-4302D01*
Y-4302D01*
X256Y-4295D01*
X259Y-4290D01*
X262Y-4285D01*
X263Y-4282D01*
X264Y-4280D01*
X265Y-4278D01*
X266Y-4277D01*
X267Y-4275D01*
X268Y-4274D01*
X268Y-4273D01*
X269Y-4273D01*
X269Y-4272D01*
X269Y-4272D01*
X273Y-4268D01*
X277Y-4265D01*
X281Y-4262D01*
X285Y-4259D01*
X288Y-4258D01*
X289Y-4257D01*
X290Y-4257D01*
X291Y-4256D01*
X292Y-4256D01*
X292Y-4256D01*
X293D01*
X295Y-4255D01*
X297Y-4254D01*
X301Y-4254D01*
X306Y-4253D01*
X311Y-4253D01*
X316Y-4252D01*
X317Y-4252D01*
X375D01*
Y-4439D01*
D02*
G37*
G36*
X-3288Y2837D02*
X-3289Y2833D01*
X-3289Y2828D01*
X-3289Y2824D01*
X-3288Y2820D01*
X-3288Y2816D01*
X-3288Y2815D01*
X-3287Y2814D01*
X-3287Y2813D01*
X-3287Y2812D01*
X-3287Y2811D01*
X-3287Y2811D01*
X-3286Y2806D01*
X-3284Y2801D01*
X-3282Y2796D01*
X-3280Y2792D01*
X-3279Y2789D01*
X-3278Y2787D01*
X-3277Y2786D01*
X-3277Y2785D01*
X-3276Y2784D01*
X-3276Y2784D01*
X-3276Y2784D01*
X-3285Y2768D01*
X-3287Y2771D01*
X-3289Y2773D01*
X-3291Y2776D01*
X-3292Y2779D01*
X-3293Y2781D01*
X-3294Y2783D01*
X-3294Y2784D01*
X-3295Y2784D01*
X-3295Y2785D01*
X-3295Y2785D01*
X-3296Y2789D01*
X-3298Y2792D01*
X-3299Y2796D01*
X-3300Y2798D01*
X-3300Y2801D01*
X-3301Y2802D01*
X-3301Y2804D01*
X-3301Y2804D01*
X-3363Y2697D01*
X-3376Y2705D01*
X-3297Y2842D01*
X-3288Y2837D01*
D02*
G37*
G36*
X-3208Y2790D02*
X-3236Y2679D01*
X-3237Y2676D01*
X-3238Y2674D01*
X-3238Y2671D01*
X-3239Y2668D01*
X-3239Y2666D01*
X-3240Y2664D01*
X-3240Y2662D01*
X-3241Y2660D01*
X-3241Y2659D01*
X-3242Y2658D01*
X-3242Y2657D01*
X-3242Y2656D01*
X-3242Y2655D01*
X-3243Y2654D01*
X-3243Y2654D01*
X-3243Y2654D01*
X-3226Y2671D01*
X-3143Y2753D01*
X-3121Y2740D01*
X-3200Y2603D01*
X-3214Y2612D01*
X-3147Y2728D01*
X-3246Y2630D01*
X-3260Y2638D01*
X-3226Y2771D01*
X-3292Y2657D01*
X-3307Y2665D01*
X-3228Y2801D01*
X-3208Y2790D01*
D02*
G37*
G36*
X-4367Y-3097D02*
X-4397Y-3127D01*
X-4372Y-3152D01*
X-4385Y-3164D01*
X-4410Y-3140D01*
X-4441Y-3170D01*
X-4451Y-3160D01*
X-4421Y-3129D01*
X-4446Y-3104D01*
X-4433Y-3091D01*
X-4408Y-3116D01*
X-4378Y-3086D01*
X-4367Y-3097D01*
D02*
G37*
G36*
X-4248Y-3175D02*
X-4250Y-3179D01*
X-4251Y-3183D01*
X-4252Y-3187D01*
X-4253Y-3191D01*
X-4253Y-3195D01*
Y-3196D01*
X-4253Y-3197D01*
X-4254Y-3198D01*
Y-3199D01*
Y-3200D01*
Y-3200D01*
X-4254Y-3205D01*
X-4253Y-3211D01*
X-4253Y-3216D01*
X-4252Y-3220D01*
X-4252Y-3224D01*
X-4251Y-3225D01*
X-4251Y-3227D01*
X-4251Y-3228D01*
X-4251Y-3228D01*
X-4250Y-3229D01*
Y-3229D01*
X-4263Y-3242D01*
X-4265Y-3239D01*
X-4266Y-3236D01*
X-4266Y-3233D01*
X-4267Y-3230D01*
X-4268Y-3227D01*
X-4268Y-3225D01*
X-4268Y-3224D01*
X-4268Y-3224D01*
X-4268Y-3223D01*
X-4268Y-3223D01*
X-4269Y-3219D01*
X-4269Y-3215D01*
X-4269Y-3212D01*
X-4270Y-3209D01*
Y-3207D01*
Y-3205D01*
Y-3204D01*
X-4269Y-3203D01*
X-4356Y-3290D01*
X-4368Y-3279D01*
X-4256Y-3167D01*
X-4248Y-3175D01*
D02*
G37*
G36*
X-4134Y-3290D02*
X-4147Y-3303D01*
X-4177Y-3273D01*
X-4276Y-3371D01*
X-4288Y-3359D01*
X-4189Y-3261D01*
X-4220Y-3230D01*
X-4207Y-3217D01*
X-4134Y-3290D01*
D02*
G37*
G36*
X-4030Y-3405D02*
X-4028Y-3405D01*
X-4026Y-3406D01*
X-4025Y-3406D01*
X-4024D01*
X-4024Y-3406D01*
X-4021Y-3408D01*
X-4017Y-3410D01*
X-4014Y-3412D01*
X-4011Y-3414D01*
X-4008Y-3416D01*
X-4007Y-3417D01*
X-4006Y-3418D01*
X-3970Y-3454D01*
X-4082Y-3565D01*
X-4119Y-3528D01*
X-4121Y-3526D01*
X-4122Y-3524D01*
X-4124Y-3522D01*
X-4125Y-3520D01*
X-4127Y-3518D01*
X-4128Y-3516D01*
X-4129Y-3515D01*
X-4129Y-3513D01*
X-4130Y-3512D01*
X-4131Y-3511D01*
X-4131Y-3510D01*
X-4132Y-3509D01*
X-4132Y-3509D01*
X-4132Y-3508D01*
X-4132Y-3508D01*
X-4133Y-3504D01*
X-4133Y-3500D01*
X-4133Y-3496D01*
X-4133Y-3493D01*
X-4133Y-3490D01*
X-4132Y-3488D01*
X-4132Y-3487D01*
X-4132Y-3487D01*
Y-3486D01*
X-4132Y-3486D01*
X-4130Y-3482D01*
X-4128Y-3478D01*
X-4126Y-3474D01*
X-4124Y-3471D01*
X-4123Y-3469D01*
X-4122Y-3468D01*
X-4121Y-3467D01*
X-4120Y-3466D01*
X-4119Y-3465D01*
X-4119Y-3465D01*
X-4119Y-3464D01*
X-4118Y-3464D01*
X-4114Y-3461D01*
X-4111Y-3458D01*
X-4107Y-3456D01*
X-4104Y-3454D01*
X-4102Y-3453D01*
X-4101Y-3453D01*
X-4100Y-3452D01*
X-4099Y-3452D01*
X-4098Y-3452D01*
X-4097Y-3452D01*
X-4097D01*
X-4097Y-3452D01*
X-4092Y-3451D01*
X-4088D01*
X-4084Y-3451D01*
X-4081Y-3452D01*
X-4078Y-3453D01*
X-4076Y-3453D01*
X-4075Y-3454D01*
X-4075Y-3454D01*
X-4074Y-3454D01*
X-4074Y-3454D01*
X-4075Y-3451D01*
X-4075Y-3447D01*
X-4075Y-3444D01*
X-4075Y-3441D01*
X-4075Y-3438D01*
X-4074Y-3437D01*
X-4074Y-3435D01*
Y-3435D01*
X-4074Y-3435D01*
X-4073Y-3431D01*
X-4071Y-3428D01*
X-4069Y-3425D01*
X-4068Y-3423D01*
X-4066Y-3421D01*
X-4065Y-3420D01*
X-4065Y-3419D01*
X-4064Y-3418D01*
X-4064Y-3418D01*
X-4063Y-3418D01*
X-4063Y-3418D01*
X-4060Y-3415D01*
X-4057Y-3412D01*
X-4054Y-3410D01*
X-4051Y-3409D01*
X-4048Y-3408D01*
X-4047Y-3407D01*
X-4046Y-3407D01*
X-4045Y-3407D01*
X-4045Y-3407D01*
X-4044Y-3406D01*
X-4044Y-3406D01*
X-4040Y-3405D01*
X-4037Y-3405D01*
X-4033Y-3405D01*
X-4030Y-3405D01*
D02*
G37*
G36*
X-4081Y-3343D02*
X-4157Y-3490D01*
X-4170Y-3477D01*
X-4146Y-3433D01*
X-4184Y-3395D01*
X-4229Y-3418D01*
X-4243Y-3404D01*
X-4094Y-3330D01*
X-4081Y-3343D01*
D02*
G37*
%LPC*%
G36*
X37Y4161D02*
X35D01*
X31Y4161D01*
X28Y4161D01*
X24Y4160D01*
X21Y4159D01*
X15Y4156D01*
X10Y4153D01*
X6Y4150D01*
X4Y4148D01*
X3Y4147D01*
X2Y4146D01*
X1Y4145D01*
X1Y4144D01*
X0Y4144D01*
X-2Y4141D01*
X-4Y4137D01*
X-6Y4133D01*
X-8Y4129D01*
X-10Y4120D01*
X-12Y4111D01*
X-13Y4108D01*
X-13Y4104D01*
X-13Y4100D01*
X-13Y4097D01*
X-14Y4095D01*
Y4093D01*
Y4092D01*
Y4091D01*
X-13Y4085D01*
X-13Y4079D01*
X-12Y4074D01*
X-11Y4069D01*
X-10Y4064D01*
X-9Y4060D01*
X-8Y4055D01*
X-6Y4052D01*
X-5Y4049D01*
X-3Y4046D01*
X-2Y4044D01*
X-1Y4042D01*
X-0Y4041D01*
X1Y4040D01*
X1Y4039D01*
X1Y4039D01*
X4Y4036D01*
X7Y4033D01*
X10Y4031D01*
X13Y4029D01*
X16Y4027D01*
X19Y4026D01*
X24Y4023D01*
X29Y4022D01*
X31Y4022D01*
X33Y4022D01*
X34Y4021D01*
X36D01*
X41Y4022D01*
X45Y4022D01*
X49Y4023D01*
X53Y4025D01*
X56Y4027D01*
X60Y4029D01*
X63Y4031D01*
X65Y4033D01*
X68Y4035D01*
X70Y4038D01*
X72Y4040D01*
X73Y4041D01*
X74Y4043D01*
X75Y4044D01*
X76Y4045D01*
X76Y4045D01*
X77Y4048D01*
X79Y4051D01*
X80Y4055D01*
X81Y4059D01*
X82Y4067D01*
X83Y4074D01*
X84Y4078D01*
X84Y4081D01*
X84Y4085D01*
Y4087D01*
X85Y4090D01*
Y4091D01*
Y4092D01*
Y4093D01*
X84Y4099D01*
X84Y4104D01*
X83Y4110D01*
X82Y4115D01*
X81Y4119D01*
X80Y4123D01*
X79Y4127D01*
X77Y4130D01*
X76Y4133D01*
X74Y4136D01*
X73Y4138D01*
X72Y4140D01*
X71Y4142D01*
X70Y4143D01*
X70Y4143D01*
X70Y4144D01*
X67Y4147D01*
X64Y4149D01*
X61Y4152D01*
X58Y4154D01*
X55Y4156D01*
X52Y4157D01*
X47Y4159D01*
X42Y4161D01*
X40Y4161D01*
X38Y4161D01*
X37Y4161D01*
D02*
G37*
G36*
X1444Y4092D02*
X1444D01*
X1444Y4080D01*
X1444Y4073D01*
X1445Y4067D01*
X1445Y4061D01*
X1446Y4057D01*
X1447Y4054D01*
X1448Y4051D01*
X1448Y4050D01*
X1449Y4049D01*
X1451Y4044D01*
X1455Y4040D01*
X1458Y4037D01*
X1461Y4034D01*
X1465Y4031D01*
X1467Y4029D01*
X1469Y4028D01*
X1469Y4028D01*
X1469D01*
X1475Y4025D01*
X1480Y4023D01*
X1485Y4022D01*
X1491Y4021D01*
X1495Y4021D01*
X1497Y4020D01*
X1498Y4020D01*
X1501D01*
X1507Y4020D01*
X1513Y4022D01*
X1518Y4023D01*
X1522Y4024D01*
X1525Y4026D01*
X1527Y4027D01*
X1528Y4028D01*
X1528Y4028D01*
X1531Y4032D01*
X1534Y4035D01*
X1536Y4038D01*
X1537Y4042D01*
X1537Y4044D01*
X1537Y4047D01*
X1538Y4048D01*
Y4049D01*
X1537Y4052D01*
X1537Y4055D01*
X1536Y4057D01*
X1536Y4059D01*
X1535Y4061D01*
X1534Y4063D01*
X1534Y4063D01*
X1534Y4064D01*
X1532Y4066D01*
X1530Y4068D01*
X1528Y4070D01*
X1526Y4071D01*
X1524Y4072D01*
X1523Y4073D01*
X1522Y4073D01*
X1521Y4074D01*
X1518Y4075D01*
X1514Y4076D01*
X1509Y4077D01*
X1505Y4078D01*
X1501Y4079D01*
X1497Y4079D01*
X1496Y4080D01*
X1495Y4080D01*
X1494D01*
X1488Y4081D01*
X1482Y4082D01*
X1477Y4083D01*
X1472Y4084D01*
X1468Y4085D01*
X1464Y4086D01*
X1460Y4087D01*
X1456Y4088D01*
X1453Y4088D01*
X1451Y4089D01*
X1448Y4090D01*
X1447Y4091D01*
X1445Y4091D01*
X1444Y4091D01*
X1444Y4092D01*
D02*
G37*
G36*
X1777Y4222D02*
X1719D01*
X1714Y4222D01*
X1710Y4222D01*
X1705Y4221D01*
X1702Y4221D01*
X1698Y4221D01*
X1695Y4220D01*
X1692Y4220D01*
X1690Y4219D01*
X1687Y4219D01*
X1686Y4218D01*
X1684Y4218D01*
X1683Y4218D01*
X1682Y4217D01*
X1682Y4217D01*
X1682D01*
X1678Y4215D01*
X1675Y4214D01*
X1669Y4209D01*
X1663Y4205D01*
X1659Y4200D01*
X1655Y4195D01*
X1654Y4194D01*
X1652Y4192D01*
X1651Y4190D01*
X1651Y4189D01*
X1650Y4189D01*
X1650Y4188D01*
X1648Y4184D01*
X1646Y4180D01*
X1642Y4170D01*
X1640Y4160D01*
X1638Y4150D01*
X1638Y4146D01*
X1637Y4141D01*
X1637Y4138D01*
Y4134D01*
X1637Y4132D01*
Y4129D01*
Y4128D01*
Y4128D01*
X1637Y4117D01*
X1638Y4108D01*
X1638Y4104D01*
X1639Y4100D01*
X1640Y4096D01*
X1640Y4093D01*
X1641Y4090D01*
X1641Y4087D01*
X1642Y4085D01*
X1643Y4083D01*
X1643Y4081D01*
X1643Y4080D01*
X1644Y4079D01*
Y4079D01*
X1646Y4072D01*
X1649Y4066D01*
X1652Y4060D01*
X1655Y4056D01*
X1658Y4052D01*
X1660Y4049D01*
X1661Y4048D01*
X1662Y4047D01*
X1662Y4047D01*
X1665Y4044D01*
X1669Y4042D01*
X1673Y4039D01*
X1676Y4037D01*
X1680Y4036D01*
X1682Y4035D01*
X1683Y4035D01*
X1684Y4034D01*
X1684Y4034D01*
X1685D01*
X1690Y4033D01*
X1697Y4032D01*
X1703Y4031D01*
X1709Y4030D01*
X1715Y4030D01*
X1717D01*
X1720Y4030D01*
X1777D01*
Y4222D01*
D02*
G37*
G36*
X2643Y4227D02*
X2641D01*
X2637Y4227D01*
X2634Y4226D01*
X2630Y4225D01*
X2626Y4224D01*
X2620Y4221D01*
X2615Y4217D01*
X2613Y4215D01*
X2611Y4213D01*
X2609Y4211D01*
X2608Y4210D01*
X2607Y4209D01*
X2606Y4207D01*
X2605Y4207D01*
X2605Y4207D01*
X2602Y4202D01*
X2600Y4197D01*
X2598Y4191D01*
X2597Y4185D01*
X2595Y4179D01*
X2594Y4172D01*
X2592Y4158D01*
X2592Y4151D01*
X2591Y4145D01*
X2591Y4139D01*
X2591Y4134D01*
X2590Y4130D01*
Y4128D01*
Y4127D01*
Y4126D01*
Y4125D01*
Y4124D01*
Y4124D01*
X2591Y4113D01*
X2591Y4103D01*
X2592Y4094D01*
X2593Y4085D01*
X2594Y4078D01*
X2595Y4071D01*
X2596Y4065D01*
X2598Y4060D01*
X2599Y4055D01*
X2601Y4052D01*
X2602Y4048D01*
X2603Y4046D01*
X2604Y4044D01*
X2605Y4043D01*
X2605Y4042D01*
X2605Y4042D01*
X2608Y4038D01*
X2611Y4035D01*
X2614Y4032D01*
X2617Y4030D01*
X2620Y4028D01*
X2623Y4026D01*
X2626Y4025D01*
X2628Y4024D01*
X2633Y4022D01*
X2635Y4022D01*
X2637Y4022D01*
X2639D01*
X2640Y4021D01*
X2641D01*
X2645Y4022D01*
X2649Y4022D01*
X2652Y4023D01*
X2655Y4025D01*
X2662Y4028D01*
X2667Y4031D01*
X2671Y4035D01*
X2673Y4037D01*
X2674Y4038D01*
X2675Y4040D01*
X2676Y4041D01*
X2676Y4041D01*
X2677Y4042D01*
X2679Y4046D01*
X2681Y4051D01*
X2684Y4057D01*
X2685Y4063D01*
X2687Y4070D01*
X2688Y4077D01*
X2689Y4091D01*
X2690Y4097D01*
X2690Y4103D01*
X2691Y4109D01*
X2691Y4114D01*
X2691Y4118D01*
Y4120D01*
Y4121D01*
Y4123D01*
Y4123D01*
Y4124D01*
Y4124D01*
X2691Y4135D01*
X2690Y4146D01*
X2690Y4155D01*
X2689Y4164D01*
X2688Y4171D01*
X2686Y4178D01*
X2685Y4184D01*
X2683Y4190D01*
X2682Y4195D01*
X2680Y4198D01*
X2679Y4202D01*
X2678Y4204D01*
X2677Y4207D01*
X2676Y4208D01*
X2676Y4209D01*
X2675Y4209D01*
X2673Y4212D01*
X2670Y4215D01*
X2667Y4218D01*
X2665Y4219D01*
X2662Y4221D01*
X2659Y4223D01*
X2654Y4225D01*
X2649Y4226D01*
X2646Y4227D01*
X2645Y4227D01*
X2643Y4227D01*
D02*
G37*
G36*
X2252D02*
X2250D01*
X2246Y4227D01*
X2242Y4226D01*
X2238Y4225D01*
X2235Y4224D01*
X2229Y4221D01*
X2224Y4217D01*
X2221Y4215D01*
X2219Y4213D01*
X2218Y4211D01*
X2216Y4210D01*
X2215Y4209D01*
X2214Y4207D01*
X2214Y4207D01*
X2214Y4207D01*
X2211Y4202D01*
X2209Y4197D01*
X2207Y4191D01*
X2205Y4185D01*
X2204Y4179D01*
X2203Y4172D01*
X2201Y4158D01*
X2200Y4151D01*
X2200Y4145D01*
X2200Y4139D01*
X2199Y4134D01*
X2199Y4130D01*
Y4128D01*
Y4127D01*
Y4126D01*
Y4125D01*
Y4124D01*
Y4124D01*
X2199Y4113D01*
X2200Y4103D01*
X2200Y4094D01*
X2201Y4085D01*
X2202Y4078D01*
X2204Y4071D01*
X2205Y4065D01*
X2206Y4060D01*
X2208Y4055D01*
X2209Y4052D01*
X2210Y4048D01*
X2212Y4046D01*
X2212Y4044D01*
X2213Y4043D01*
X2213Y4042D01*
X2214Y4042D01*
X2216Y4038D01*
X2219Y4035D01*
X2222Y4032D01*
X2225Y4030D01*
X2228Y4028D01*
X2231Y4026D01*
X2234Y4025D01*
X2237Y4024D01*
X2242Y4022D01*
X2244Y4022D01*
X2246Y4022D01*
X2247D01*
X2249Y4021D01*
X2249D01*
X2253Y4022D01*
X2257Y4022D01*
X2261Y4023D01*
X2264Y4025D01*
X2270Y4028D01*
X2275Y4031D01*
X2280Y4035D01*
X2281Y4037D01*
X2282Y4038D01*
X2284Y4040D01*
X2285Y4041D01*
X2285Y4041D01*
X2285Y4042D01*
X2288Y4046D01*
X2290Y4051D01*
X2292Y4057D01*
X2294Y4063D01*
X2295Y4070D01*
X2296Y4077D01*
X2298Y4091D01*
X2299Y4097D01*
X2299Y4103D01*
X2299Y4109D01*
X2299Y4114D01*
X2300Y4118D01*
Y4120D01*
Y4121D01*
Y4123D01*
Y4123D01*
Y4124D01*
Y4124D01*
X2299Y4135D01*
X2299Y4146D01*
X2298Y4155D01*
X2297Y4164D01*
X2296Y4171D01*
X2295Y4178D01*
X2293Y4184D01*
X2292Y4190D01*
X2290Y4195D01*
X2289Y4198D01*
X2287Y4202D01*
X2286Y4204D01*
X2285Y4207D01*
X2284Y4208D01*
X2284Y4209D01*
X2284Y4209D01*
X2281Y4212D01*
X2279Y4215D01*
X2276Y4218D01*
X2273Y4219D01*
X2270Y4221D01*
X2267Y4223D01*
X2262Y4225D01*
X2257Y4226D01*
X2255Y4227D01*
X2253Y4227D01*
X2252Y4227D01*
D02*
G37*
G36*
X237Y4161D02*
X234D01*
X230Y4161D01*
X226Y4160D01*
X222Y4159D01*
X219Y4158D01*
X212Y4156D01*
X207Y4152D01*
X204Y4151D01*
X202Y4149D01*
X201Y4148D01*
X199Y4146D01*
X198Y4145D01*
X197Y4144D01*
X197Y4144D01*
X196Y4144D01*
X194Y4140D01*
X191Y4137D01*
X189Y4132D01*
X187Y4128D01*
X186Y4124D01*
X184Y4120D01*
X183Y4111D01*
X182Y4108D01*
X181Y4104D01*
X181Y4101D01*
X181Y4098D01*
X181Y4096D01*
Y4094D01*
Y4093D01*
Y4092D01*
X181Y4086D01*
X181Y4080D01*
X182Y4074D01*
X183Y4069D01*
X184Y4064D01*
X186Y4060D01*
X187Y4055D01*
X188Y4052D01*
X190Y4049D01*
X191Y4046D01*
X193Y4044D01*
X194Y4042D01*
X195Y4041D01*
X196Y4040D01*
X196Y4039D01*
X196Y4039D01*
X199Y4036D01*
X202Y4033D01*
X206Y4031D01*
X209Y4029D01*
X212Y4027D01*
X215Y4026D01*
X221Y4023D01*
X226Y4022D01*
X229Y4022D01*
X231Y4022D01*
X232Y4021D01*
X234D01*
X239Y4022D01*
X243Y4022D01*
X247Y4023D01*
X250Y4024D01*
X257Y4027D01*
X262Y4030D01*
X265Y4031D01*
X267Y4033D01*
X269Y4034D01*
X270Y4036D01*
X271Y4037D01*
X272Y4038D01*
X273Y4038D01*
X273Y4038D01*
X276Y4042D01*
X278Y4046D01*
X280Y4050D01*
X282Y4054D01*
X284Y4063D01*
X286Y4072D01*
X287Y4075D01*
X287Y4079D01*
X288Y4082D01*
X288Y4085D01*
X288Y4088D01*
Y4090D01*
Y4091D01*
Y4091D01*
X288Y4097D01*
X288Y4103D01*
X287Y4109D01*
X286Y4114D01*
X285Y4119D01*
X283Y4123D01*
X282Y4127D01*
X281Y4130D01*
X279Y4133D01*
X278Y4136D01*
X277Y4138D01*
X275Y4140D01*
X274Y4142D01*
X273Y4143D01*
X273Y4143D01*
X273Y4144D01*
X270Y4147D01*
X267Y4149D01*
X264Y4152D01*
X260Y4154D01*
X257Y4155D01*
X254Y4157D01*
X248Y4159D01*
X243Y4160D01*
X240Y4161D01*
X238Y4161D01*
X237Y4161D01*
D02*
G37*
G36*
X797Y3301D02*
X795D01*
X792Y3301D01*
X788Y3300D01*
X785Y3299D01*
X782Y3298D01*
X776Y3296D01*
X771Y3293D01*
X767Y3289D01*
X765Y3288D01*
X764Y3287D01*
X762Y3286D01*
X762Y3285D01*
X761Y3284D01*
X761Y3284D01*
X759Y3281D01*
X756Y3277D01*
X755Y3273D01*
X753Y3269D01*
X750Y3260D01*
X749Y3251D01*
X748Y3247D01*
X748Y3243D01*
X747Y3240D01*
X747Y3237D01*
X747Y3235D01*
Y3233D01*
Y3232D01*
Y3231D01*
X747Y3225D01*
X747Y3219D01*
X748Y3213D01*
X749Y3208D01*
X750Y3204D01*
X751Y3199D01*
X753Y3195D01*
X754Y3192D01*
X756Y3189D01*
X757Y3186D01*
X758Y3184D01*
X759Y3182D01*
X761Y3180D01*
X761Y3179D01*
X762Y3179D01*
X762Y3179D01*
X765Y3176D01*
X768Y3173D01*
X771Y3170D01*
X774Y3168D01*
X777Y3167D01*
X779Y3165D01*
X785Y3163D01*
X790Y3162D01*
X792Y3162D01*
X794Y3161D01*
X795Y3161D01*
X797D01*
X801Y3161D01*
X806Y3162D01*
X810Y3163D01*
X813Y3165D01*
X817Y3167D01*
X820Y3169D01*
X823Y3171D01*
X826Y3173D01*
X828Y3175D01*
X830Y3177D01*
X832Y3179D01*
X834Y3181D01*
X835Y3183D01*
X836Y3184D01*
X836Y3185D01*
X836Y3185D01*
X838Y3188D01*
X839Y3191D01*
X840Y3195D01*
X841Y3198D01*
X843Y3206D01*
X844Y3214D01*
X844Y3218D01*
X845Y3221D01*
X845Y3224D01*
Y3227D01*
X845Y3229D01*
Y3231D01*
Y3232D01*
Y3232D01*
X845Y3238D01*
X845Y3244D01*
X844Y3250D01*
X843Y3254D01*
X842Y3259D01*
X840Y3263D01*
X839Y3267D01*
X838Y3270D01*
X836Y3273D01*
X835Y3276D01*
X834Y3278D01*
X833Y3280D01*
X832Y3281D01*
X831Y3283D01*
X831Y3283D01*
X830Y3283D01*
X828Y3286D01*
X825Y3289D01*
X822Y3292D01*
X819Y3294D01*
X816Y3295D01*
X813Y3297D01*
X807Y3299D01*
X803Y3300D01*
X801Y3301D01*
X799Y3301D01*
X797Y3301D01*
D02*
G37*
G36*
X4415Y3231D02*
X4415D01*
X4415Y3220D01*
X4415Y3213D01*
X4416Y3207D01*
X4417Y3201D01*
X4417Y3197D01*
X4418Y3194D01*
X4419Y3191D01*
X4420Y3190D01*
X4420Y3189D01*
X4423Y3184D01*
X4426Y3180D01*
X4429Y3176D01*
X4432Y3173D01*
X4436Y3171D01*
X4438Y3169D01*
X4440Y3168D01*
X4440Y3168D01*
X4440D01*
X4446Y3165D01*
X4451Y3163D01*
X4456Y3162D01*
X4462Y3161D01*
X4466Y3161D01*
X4468Y3160D01*
X4469Y3160D01*
X4472D01*
X4478Y3160D01*
X4484Y3161D01*
X4489Y3163D01*
X4493Y3164D01*
X4496Y3166D01*
X4498Y3167D01*
X4499Y3168D01*
X4500Y3168D01*
X4503Y3171D01*
X4505Y3175D01*
X4507Y3178D01*
X4508Y3182D01*
X4508Y3184D01*
X4509Y3187D01*
X4509Y3188D01*
Y3189D01*
X4509Y3192D01*
X4508Y3194D01*
X4507Y3197D01*
X4507Y3199D01*
X4506Y3201D01*
X4505Y3202D01*
X4505Y3203D01*
X4505Y3203D01*
X4503Y3206D01*
X4501Y3208D01*
X4499Y3209D01*
X4497Y3211D01*
X4495Y3212D01*
X4494Y3213D01*
X4493Y3213D01*
X4492Y3213D01*
X4489Y3215D01*
X4485Y3216D01*
X4480Y3217D01*
X4476Y3218D01*
X4472Y3219D01*
X4468Y3219D01*
X4467Y3219D01*
X4466Y3220D01*
X4465D01*
X4459Y3221D01*
X4453Y3222D01*
X4448Y3222D01*
X4443Y3224D01*
X4439Y3225D01*
X4435Y3225D01*
X4431Y3227D01*
X4427Y3227D01*
X4424Y3228D01*
X4422Y3229D01*
X4420Y3230D01*
X4418Y3230D01*
X4417Y3231D01*
X4415Y3231D01*
X4415Y3231D01*
D02*
G37*
G36*
X2537D02*
X2536D01*
X2537Y3220D01*
X2537Y3213D01*
X2537Y3207D01*
X2538Y3201D01*
X2539Y3197D01*
X2540Y3194D01*
X2541Y3191D01*
X2541Y3190D01*
X2542Y3189D01*
X2544Y3184D01*
X2548Y3180D01*
X2551Y3176D01*
X2554Y3173D01*
X2557Y3171D01*
X2560Y3169D01*
X2561Y3168D01*
X2562Y3168D01*
X2562D01*
X2567Y3165D01*
X2573Y3163D01*
X2578Y3162D01*
X2583Y3161D01*
X2587Y3161D01*
X2589Y3160D01*
X2591Y3160D01*
X2594D01*
X2600Y3160D01*
X2606Y3161D01*
X2611Y3163D01*
X2614Y3164D01*
X2617Y3166D01*
X2620Y3167D01*
X2621Y3168D01*
X2621Y3168D01*
X2624Y3171D01*
X2627Y3175D01*
X2628Y3178D01*
X2629Y3182D01*
X2630Y3184D01*
X2630Y3187D01*
X2631Y3188D01*
Y3189D01*
X2630Y3192D01*
X2630Y3194D01*
X2629Y3197D01*
X2628Y3199D01*
X2628Y3201D01*
X2627Y3202D01*
X2627Y3203D01*
X2626Y3203D01*
X2625Y3206D01*
X2623Y3208D01*
X2621Y3209D01*
X2619Y3211D01*
X2617Y3212D01*
X2616Y3213D01*
X2614Y3213D01*
X2614Y3213D01*
X2611Y3215D01*
X2607Y3216D01*
X2602Y3217D01*
X2598Y3218D01*
X2594Y3219D01*
X2590Y3219D01*
X2589Y3219D01*
X2588Y3220D01*
X2587D01*
X2581Y3221D01*
X2575Y3222D01*
X2570Y3222D01*
X2565Y3224D01*
X2560Y3225D01*
X2556Y3225D01*
X2552Y3227D01*
X2549Y3227D01*
X2546Y3228D01*
X2543Y3229D01*
X2541Y3230D01*
X2540Y3230D01*
X2538Y3231D01*
X2537Y3231D01*
X2537Y3231D01*
D02*
G37*
G36*
X1520Y3231D02*
X1519D01*
X1520Y3220D01*
X1520Y3213D01*
X1521Y3207D01*
X1521Y3201D01*
X1522Y3197D01*
X1523Y3194D01*
X1524Y3191D01*
X1524Y3190D01*
X1525Y3189D01*
X1527Y3184D01*
X1531Y3180D01*
X1534Y3176D01*
X1537Y3173D01*
X1540Y3171D01*
X1543Y3169D01*
X1545Y3168D01*
X1545Y3168D01*
X1545D01*
X1551Y3165D01*
X1556Y3163D01*
X1561Y3162D01*
X1566Y3161D01*
X1570Y3161D01*
X1572Y3160D01*
X1574Y3160D01*
X1577D01*
X1583Y3160D01*
X1589Y3161D01*
X1594Y3163D01*
X1598Y3164D01*
X1601Y3166D01*
X1603Y3167D01*
X1604Y3168D01*
X1604Y3168D01*
X1607Y3171D01*
X1610Y3175D01*
X1611Y3178D01*
X1613Y3182D01*
X1613Y3184D01*
X1613Y3187D01*
X1614Y3188D01*
Y3189D01*
X1613Y3192D01*
X1613Y3194D01*
X1612Y3197D01*
X1611Y3199D01*
X1611Y3201D01*
X1610Y3202D01*
X1610Y3203D01*
X1610Y3203D01*
X1608Y3206D01*
X1606Y3208D01*
X1604Y3209D01*
X1602Y3211D01*
X1600Y3212D01*
X1599Y3213D01*
X1598Y3213D01*
X1597Y3213D01*
X1594Y3215D01*
X1590Y3216D01*
X1585Y3217D01*
X1581Y3218D01*
X1577Y3219D01*
X1573Y3219D01*
X1572Y3219D01*
X1571Y3220D01*
X1570D01*
X1564Y3221D01*
X1558Y3222D01*
X1553Y3222D01*
X1548Y3224D01*
X1543Y3225D01*
X1539Y3225D01*
X1536Y3227D01*
X1532Y3227D01*
X1529Y3228D01*
X1527Y3229D01*
X1524Y3230D01*
X1523Y3230D01*
X1521Y3231D01*
X1520Y3231D01*
X1520Y3231D01*
D02*
G37*
G36*
X52D02*
X52D01*
X52Y3220D01*
X53Y3213D01*
X53Y3207D01*
X54Y3201D01*
X55Y3197D01*
X56Y3194D01*
X56Y3191D01*
X57Y3190D01*
X57Y3189D01*
X60Y3184D01*
X63Y3180D01*
X67Y3176D01*
X70Y3173D01*
X73Y3171D01*
X76Y3169D01*
X77Y3168D01*
X77Y3168D01*
X78D01*
X83Y3165D01*
X89Y3163D01*
X94Y3162D01*
X99Y3161D01*
X103Y3161D01*
X105Y3160D01*
X107Y3160D01*
X110D01*
X116Y3160D01*
X121Y3161D01*
X126Y3163D01*
X130Y3164D01*
X133Y3166D01*
X135Y3167D01*
X136Y3168D01*
X137Y3168D01*
X140Y3171D01*
X142Y3175D01*
X144Y3178D01*
X145Y3182D01*
X146Y3184D01*
X146Y3187D01*
X146Y3188D01*
Y3189D01*
X146Y3192D01*
X146Y3194D01*
X145Y3197D01*
X144Y3199D01*
X144Y3201D01*
X143Y3202D01*
X142Y3203D01*
X142Y3203D01*
X140Y3206D01*
X138Y3208D01*
X136Y3209D01*
X134Y3211D01*
X133Y3212D01*
X131Y3213D01*
X130Y3213D01*
X130Y3213D01*
X126Y3215D01*
X122Y3216D01*
X118Y3217D01*
X114Y3218D01*
X109Y3219D01*
X106Y3219D01*
X105Y3219D01*
X104Y3220D01*
X103D01*
X97Y3221D01*
X91Y3222D01*
X86Y3222D01*
X81Y3224D01*
X76Y3225D01*
X72Y3225D01*
X68Y3227D01*
X65Y3227D01*
X62Y3228D01*
X59Y3229D01*
X57Y3230D01*
X55Y3230D01*
X54Y3231D01*
X53Y3231D01*
X52Y3231D01*
D02*
G37*
G36*
X-1395D02*
X-1395D01*
X-1395Y3220D01*
X-1395Y3213D01*
X-1394Y3207D01*
X-1393Y3201D01*
X-1393Y3197D01*
X-1392Y3194D01*
X-1391Y3191D01*
X-1390Y3190D01*
X-1390Y3189D01*
X-1387Y3184D01*
X-1384Y3180D01*
X-1381Y3176D01*
X-1378Y3173D01*
X-1374Y3171D01*
X-1372Y3169D01*
X-1370Y3168D01*
X-1370Y3168D01*
X-1370D01*
X-1364Y3165D01*
X-1359Y3163D01*
X-1354Y3162D01*
X-1348Y3161D01*
X-1344Y3161D01*
X-1342Y3160D01*
X-1341Y3160D01*
X-1338D01*
X-1331Y3160D01*
X-1326Y3161D01*
X-1321Y3163D01*
X-1317Y3164D01*
X-1314Y3166D01*
X-1312Y3167D01*
X-1311Y3168D01*
X-1310Y3168D01*
X-1307Y3171D01*
X-1305Y3175D01*
X-1303Y3178D01*
X-1302Y3182D01*
X-1302Y3184D01*
X-1301Y3187D01*
X-1301Y3188D01*
Y3189D01*
X-1301Y3192D01*
X-1302Y3194D01*
X-1303Y3197D01*
X-1303Y3199D01*
X-1304Y3201D01*
X-1305Y3202D01*
X-1305Y3203D01*
X-1305Y3203D01*
X-1307Y3206D01*
X-1309Y3208D01*
X-1311Y3209D01*
X-1313Y3211D01*
X-1315Y3212D01*
X-1316Y3213D01*
X-1317Y3213D01*
X-1318Y3213D01*
X-1321Y3215D01*
X-1325Y3216D01*
X-1330Y3217D01*
X-1334Y3218D01*
X-1338Y3219D01*
X-1342Y3219D01*
X-1343Y3219D01*
X-1344Y3220D01*
X-1345D01*
X-1351Y3221D01*
X-1357Y3222D01*
X-1362Y3222D01*
X-1367Y3224D01*
X-1371Y3225D01*
X-1375Y3225D01*
X-1379Y3227D01*
X-1383Y3227D01*
X-1386Y3228D01*
X-1388Y3229D01*
X-1390Y3230D01*
X-1392Y3230D01*
X-1393Y3231D01*
X-1395Y3231D01*
X-1395Y3231D01*
D02*
G37*
G36*
X4087Y3301D02*
X4085D01*
X4080Y3301D01*
X4076Y3300D01*
X4073Y3299D01*
X4069Y3298D01*
X4062Y3295D01*
X4059Y3294D01*
X4057Y3292D01*
X4055Y3290D01*
X4052Y3289D01*
X4050Y3287D01*
X4049Y3286D01*
X4048Y3285D01*
X4047Y3284D01*
X4047Y3283D01*
X4046Y3283D01*
X4043Y3278D01*
X4040Y3273D01*
X4038Y3267D01*
X4037Y3262D01*
X4036Y3257D01*
X4035Y3254D01*
X4035Y3253D01*
X4035Y3251D01*
X4035Y3250D01*
Y3249D01*
Y3249D01*
X4137D01*
X4136Y3253D01*
X4136Y3257D01*
X4134Y3265D01*
X4131Y3271D01*
X4130Y3274D01*
X4128Y3277D01*
X4127Y3279D01*
X4126Y3281D01*
X4124Y3283D01*
X4123Y3284D01*
X4122Y3285D01*
X4121Y3286D01*
X4121Y3286D01*
X4121Y3287D01*
X4118Y3289D01*
X4115Y3292D01*
X4112Y3293D01*
X4109Y3295D01*
X4103Y3298D01*
X4097Y3299D01*
X4092Y3300D01*
X4090Y3301D01*
X4088Y3301D01*
X4087Y3301D01*
D02*
G37*
G36*
X4730Y3362D02*
X4675D01*
X4671Y3362D01*
X4667D01*
X4663Y3361D01*
X4659Y3361D01*
X4656Y3361D01*
X4653Y3361D01*
X4651Y3360D01*
X4649Y3360D01*
X4647Y3360D01*
X4645Y3359D01*
X4644Y3359D01*
X4643Y3359D01*
X4643D01*
X4642Y3358D01*
X4638Y3357D01*
X4635Y3355D01*
X4632Y3353D01*
X4629Y3351D01*
X4627Y3349D01*
X4626Y3347D01*
X4625Y3346D01*
X4625Y3345D01*
X4623Y3342D01*
X4621Y3338D01*
X4620Y3334D01*
X4619Y3331D01*
X4619Y3328D01*
X4619Y3325D01*
Y3324D01*
Y3323D01*
Y3323D01*
X4619Y3318D01*
X4620Y3314D01*
X4621Y3310D01*
X4622Y3307D01*
X4623Y3305D01*
X4624Y3303D01*
X4625Y3302D01*
X4625Y3301D01*
X4628Y3298D01*
X4631Y3295D01*
X4634Y3293D01*
X4637Y3292D01*
X4640Y3290D01*
X4642Y3289D01*
X4644Y3289D01*
X4644Y3289D01*
X4644D01*
X4646Y3288D01*
X4648Y3288D01*
X4653Y3287D01*
X4659Y3286D01*
X4664Y3286D01*
X4669D01*
X4671Y3286D01*
X4730D01*
Y3362D01*
D02*
G37*
G36*
Y3256D02*
X4672D01*
X4664Y3256D01*
X4656Y3256D01*
X4653Y3255D01*
X4650Y3255D01*
X4647Y3254D01*
X4645Y3254D01*
X4643Y3254D01*
X4641Y3253D01*
X4639Y3253D01*
X4638Y3253D01*
X4637Y3252D01*
X4636Y3252D01*
X4636Y3252D01*
X4635D01*
X4631Y3250D01*
X4627Y3248D01*
X4623Y3245D01*
X4620Y3243D01*
X4618Y3241D01*
X4617Y3239D01*
X4616Y3238D01*
X4615Y3237D01*
X4613Y3233D01*
X4611Y3229D01*
X4610Y3225D01*
X4609Y3221D01*
X4608Y3218D01*
X4608Y3215D01*
Y3214D01*
Y3213D01*
Y3213D01*
Y3213D01*
X4608Y3208D01*
X4609Y3204D01*
X4610Y3201D01*
X4610Y3198D01*
X4611Y3195D01*
X4612Y3193D01*
X4613Y3192D01*
X4613Y3191D01*
X4615Y3188D01*
X4617Y3185D01*
X4619Y3183D01*
X4621Y3181D01*
X4623Y3179D01*
X4625Y3178D01*
X4626Y3178D01*
X4626Y3177D01*
X4629Y3176D01*
X4632Y3174D01*
X4635Y3173D01*
X4638Y3172D01*
X4641Y3171D01*
X4643Y3171D01*
X4644Y3171D01*
X4645D01*
X4648Y3170D01*
X4651Y3170D01*
X4655Y3170D01*
X4659D01*
X4662Y3170D01*
X4730D01*
Y3256D01*
D02*
G37*
G36*
X3897Y3301D02*
X3895D01*
X3892Y3301D01*
X3888Y3300D01*
X3884Y3299D01*
X3881Y3298D01*
X3875Y3295D01*
X3869Y3292D01*
X3865Y3289D01*
X3864Y3287D01*
X3862Y3286D01*
X3861Y3285D01*
X3860Y3284D01*
X3860Y3283D01*
X3860Y3283D01*
X3857Y3280D01*
X3855Y3276D01*
X3853Y3272D01*
X3851Y3267D01*
X3848Y3258D01*
X3847Y3249D01*
X3846Y3245D01*
X3846Y3241D01*
X3845Y3237D01*
X3845Y3234D01*
X3845Y3232D01*
Y3230D01*
Y3229D01*
Y3228D01*
X3845Y3222D01*
X3845Y3216D01*
X3846Y3211D01*
X3847Y3206D01*
X3848Y3201D01*
X3850Y3197D01*
X3851Y3193D01*
X3852Y3190D01*
X3853Y3187D01*
X3855Y3185D01*
X3856Y3182D01*
X3857Y3181D01*
X3858Y3179D01*
X3859Y3178D01*
X3859Y3178D01*
X3859Y3177D01*
X3862Y3174D01*
X3865Y3172D01*
X3868Y3170D01*
X3871Y3168D01*
X3874Y3167D01*
X3877Y3165D01*
X3882Y3163D01*
X3887Y3162D01*
X3889Y3162D01*
X3890Y3161D01*
X3892Y3161D01*
X3894D01*
X3898Y3161D01*
X3901Y3162D01*
X3905Y3163D01*
X3908Y3164D01*
X3914Y3167D01*
X3919Y3170D01*
X3923Y3173D01*
X3925Y3174D01*
X3926Y3176D01*
X3927Y3177D01*
X3928Y3177D01*
X3929Y3178D01*
X3929Y3178D01*
X3931Y3182D01*
X3934Y3186D01*
X3936Y3190D01*
X3937Y3194D01*
X3940Y3203D01*
X3942Y3211D01*
X3942Y3215D01*
X3943Y3219D01*
X3943Y3222D01*
X3943Y3225D01*
X3944Y3227D01*
Y3229D01*
Y3230D01*
Y3231D01*
X3943Y3237D01*
X3943Y3243D01*
X3942Y3249D01*
X3941Y3254D01*
X3940Y3259D01*
X3939Y3263D01*
X3938Y3268D01*
X3937Y3271D01*
X3936Y3274D01*
X3934Y3277D01*
X3933Y3279D01*
X3932Y3281D01*
X3931Y3282D01*
X3931Y3283D01*
X3930Y3284D01*
X3930Y3284D01*
X3927Y3287D01*
X3925Y3289D01*
X3922Y3292D01*
X3919Y3294D01*
X3916Y3295D01*
X3913Y3297D01*
X3907Y3299D01*
X3903Y3300D01*
X3901Y3300D01*
X3899Y3301D01*
X3897Y3301D01*
D02*
G37*
G36*
X3599D02*
X3596D01*
X3592Y3301D01*
X3588Y3300D01*
X3584Y3299D01*
X3581Y3298D01*
X3574Y3295D01*
X3569Y3292D01*
X3566Y3290D01*
X3564Y3289D01*
X3563Y3287D01*
X3561Y3286D01*
X3560Y3285D01*
X3559Y3284D01*
X3558Y3284D01*
X3558Y3283D01*
X3555Y3280D01*
X3553Y3276D01*
X3551Y3272D01*
X3549Y3268D01*
X3548Y3264D01*
X3546Y3259D01*
X3545Y3251D01*
X3544Y3247D01*
X3543Y3244D01*
X3543Y3241D01*
X3543Y3237D01*
X3543Y3235D01*
Y3233D01*
Y3232D01*
Y3232D01*
X3543Y3225D01*
X3543Y3219D01*
X3544Y3214D01*
X3545Y3209D01*
X3546Y3204D01*
X3548Y3199D01*
X3549Y3195D01*
X3550Y3192D01*
X3552Y3189D01*
X3553Y3186D01*
X3555Y3184D01*
X3556Y3182D01*
X3557Y3180D01*
X3558Y3179D01*
X3558Y3179D01*
X3558Y3179D01*
X3561Y3176D01*
X3564Y3173D01*
X3567Y3170D01*
X3571Y3168D01*
X3574Y3167D01*
X3577Y3165D01*
X3583Y3163D01*
X3588Y3162D01*
X3591Y3162D01*
X3593Y3161D01*
X3594Y3161D01*
X3596D01*
X3601Y3161D01*
X3605Y3162D01*
X3609Y3163D01*
X3612Y3164D01*
X3619Y3167D01*
X3624Y3170D01*
X3627Y3171D01*
X3629Y3173D01*
X3631Y3174D01*
X3632Y3176D01*
X3633Y3177D01*
X3634Y3177D01*
X3635Y3178D01*
X3635Y3178D01*
X3638Y3182D01*
X3640Y3186D01*
X3642Y3190D01*
X3644Y3194D01*
X3646Y3203D01*
X3648Y3211D01*
X3649Y3215D01*
X3649Y3219D01*
X3650Y3222D01*
X3650Y3225D01*
X3650Y3228D01*
Y3229D01*
Y3231D01*
Y3231D01*
X3650Y3237D01*
X3650Y3243D01*
X3649Y3249D01*
X3648Y3254D01*
X3647Y3259D01*
X3645Y3263D01*
X3644Y3267D01*
X3643Y3270D01*
X3641Y3273D01*
X3640Y3276D01*
X3638Y3278D01*
X3637Y3280D01*
X3636Y3281D01*
X3635Y3283D01*
X3635Y3283D01*
X3635Y3283D01*
X3632Y3286D01*
X3629Y3289D01*
X3626Y3292D01*
X3622Y3293D01*
X3619Y3295D01*
X3616Y3296D01*
X3610Y3299D01*
X3605Y3300D01*
X3602Y3300D01*
X3600Y3301D01*
X3599Y3301D01*
D02*
G37*
G36*
X-568Y3301D02*
X-570D01*
X-574Y3301D01*
X-578Y3300D01*
X-582Y3299D01*
X-586Y3298D01*
X-592Y3295D01*
X-598Y3292D01*
X-600Y3290D01*
X-602Y3289D01*
X-604Y3287D01*
X-606Y3286D01*
X-607Y3285D01*
X-607Y3284D01*
X-608Y3284D01*
X-608Y3283D01*
X-611Y3280D01*
X-613Y3276D01*
X-615Y3272D01*
X-617Y3268D01*
X-619Y3264D01*
X-620Y3259D01*
X-622Y3251D01*
X-623Y3247D01*
X-623Y3244D01*
X-623Y3241D01*
X-624Y3237D01*
X-624Y3235D01*
Y3233D01*
Y3232D01*
Y3232D01*
X-624Y3225D01*
X-623Y3219D01*
X-623Y3214D01*
X-621Y3209D01*
X-620Y3204D01*
X-619Y3199D01*
X-618Y3195D01*
X-616Y3192D01*
X-615Y3189D01*
X-613Y3186D01*
X-612Y3184D01*
X-611Y3182D01*
X-610Y3180D01*
X-609Y3179D01*
X-609Y3179D01*
X-608Y3179D01*
X-605Y3176D01*
X-602Y3173D01*
X-599Y3170D01*
X-596Y3168D01*
X-593Y3167D01*
X-589Y3165D01*
X-583Y3163D01*
X-578Y3162D01*
X-576Y3162D01*
X-574Y3161D01*
X-572Y3161D01*
X-570D01*
X-566Y3161D01*
X-562Y3162D01*
X-558Y3163D01*
X-554Y3164D01*
X-548Y3167D01*
X-542Y3170D01*
X-540Y3171D01*
X-538Y3173D01*
X-536Y3174D01*
X-534Y3176D01*
X-533Y3177D01*
X-532Y3177D01*
X-532Y3178D01*
X-532Y3178D01*
X-529Y3182D01*
X-527Y3186D01*
X-525Y3190D01*
X-523Y3194D01*
X-520Y3203D01*
X-518Y3211D01*
X-518Y3215D01*
X-517Y3219D01*
X-517Y3222D01*
X-517Y3225D01*
X-516Y3228D01*
Y3229D01*
Y3231D01*
Y3231D01*
X-517Y3237D01*
X-517Y3243D01*
X-518Y3249D01*
X-519Y3254D01*
X-520Y3259D01*
X-521Y3263D01*
X-523Y3267D01*
X-524Y3270D01*
X-525Y3273D01*
X-527Y3276D01*
X-528Y3278D01*
X-529Y3280D01*
X-530Y3281D01*
X-531Y3283D01*
X-531Y3283D01*
X-532Y3283D01*
X-535Y3286D01*
X-538Y3289D01*
X-541Y3292D01*
X-544Y3293D01*
X-547Y3295D01*
X-550Y3296D01*
X-557Y3299D01*
X-562Y3300D01*
X-564Y3300D01*
X-566Y3301D01*
X-568Y3301D01*
D02*
G37*
G36*
X984Y4551D02*
X984D01*
X984Y4540D01*
X984Y4532D01*
X985Y4526D01*
X985Y4521D01*
X986Y4516D01*
X987Y4513D01*
X988Y4511D01*
X989Y4509D01*
X989Y4509D01*
X992Y4504D01*
X995Y4500D01*
X998Y4496D01*
X1001Y4493D01*
X1005Y4490D01*
X1007Y4488D01*
X1009Y4487D01*
X1009Y4487D01*
X1009D01*
X1015Y4485D01*
X1020Y4483D01*
X1025Y4481D01*
X1031Y4481D01*
X1035Y4480D01*
X1037Y4480D01*
X1038Y4479D01*
X1041D01*
X1047Y4480D01*
X1053Y4481D01*
X1058Y4482D01*
X1062Y4484D01*
X1065Y4485D01*
X1067Y4486D01*
X1068Y4487D01*
X1068Y4488D01*
X1072Y4491D01*
X1074Y4494D01*
X1076Y4498D01*
X1077Y4501D01*
X1077Y4504D01*
X1078Y4506D01*
X1078Y4508D01*
Y4508D01*
X1078Y4511D01*
X1077Y4514D01*
X1076Y4516D01*
X1076Y4519D01*
X1075Y4520D01*
X1074Y4522D01*
X1074Y4523D01*
X1074Y4523D01*
X1072Y4525D01*
X1070Y4527D01*
X1068Y4529D01*
X1066Y4531D01*
X1064Y4532D01*
X1063Y4532D01*
X1062Y4533D01*
X1061Y4533D01*
X1058Y4534D01*
X1054Y4535D01*
X1049Y4537D01*
X1045Y4537D01*
X1041Y4538D01*
X1037Y4539D01*
X1036Y4539D01*
X1035Y4539D01*
X1034D01*
X1028Y4540D01*
X1022Y4541D01*
X1017Y4542D01*
X1012Y4543D01*
X1008Y4544D01*
X1004Y4545D01*
X1000Y4546D01*
X996Y4547D01*
X993Y4548D01*
X991Y4549D01*
X989Y4549D01*
X987Y4550D01*
X985Y4550D01*
X984Y4551D01*
X984Y4551D01*
D02*
G37*
G36*
X1752Y4621D02*
X1749D01*
X1745Y4620D01*
X1741Y4620D01*
X1737Y4619D01*
X1734Y4618D01*
X1727Y4615D01*
X1724Y4613D01*
X1721Y4612D01*
X1719Y4610D01*
X1717Y4608D01*
X1715Y4607D01*
X1714Y4605D01*
X1713Y4604D01*
X1711Y4603D01*
X1711Y4603D01*
X1711Y4603D01*
X1708Y4598D01*
X1705Y4593D01*
X1703Y4587D01*
X1701Y4581D01*
X1700Y4576D01*
X1700Y4574D01*
X1700Y4572D01*
X1699Y4570D01*
X1699Y4569D01*
Y4568D01*
Y4568D01*
X1801D01*
X1801Y4573D01*
X1800Y4577D01*
X1798Y4584D01*
X1796Y4591D01*
X1794Y4594D01*
X1793Y4596D01*
X1791Y4599D01*
X1790Y4600D01*
X1789Y4602D01*
X1788Y4604D01*
X1787Y4605D01*
X1786Y4606D01*
X1786Y4606D01*
X1785Y4606D01*
X1783Y4609D01*
X1780Y4611D01*
X1777Y4613D01*
X1774Y4615D01*
X1767Y4617D01*
X1762Y4619D01*
X1757Y4620D01*
X1755Y4620D01*
X1753Y4620D01*
X1752Y4621D01*
D02*
G37*
G36*
X2181Y4687D02*
X2175D01*
X2170Y4686D01*
X2162Y4685D01*
X2154Y4683D01*
X2151Y4682D01*
X2147Y4681D01*
X2144Y4679D01*
X2142Y4678D01*
X2140Y4677D01*
X2138Y4676D01*
X2136Y4675D01*
X2135Y4675D01*
X2135Y4674D01*
X2134Y4674D01*
X2127Y4669D01*
X2121Y4663D01*
X2116Y4657D01*
X2112Y4652D01*
X2108Y4647D01*
X2107Y4644D01*
X2106Y4642D01*
X2105Y4641D01*
X2105Y4640D01*
X2104Y4639D01*
Y4639D01*
X2100Y4630D01*
X2098Y4621D01*
X2096Y4612D01*
X2095Y4603D01*
X2094Y4599D01*
X2094Y4596D01*
X2094Y4593D01*
Y4590D01*
X2093Y4588D01*
Y4586D01*
Y4585D01*
Y4585D01*
X2094Y4576D01*
X2094Y4568D01*
X2096Y4560D01*
X2097Y4553D01*
X2099Y4546D01*
X2101Y4540D01*
X2103Y4534D01*
X2106Y4529D01*
X2108Y4525D01*
X2110Y4521D01*
X2112Y4517D01*
X2114Y4515D01*
X2116Y4513D01*
X2117Y4511D01*
X2118Y4510D01*
X2118Y4510D01*
X2123Y4505D01*
X2127Y4501D01*
X2133Y4498D01*
X2138Y4495D01*
X2143Y4492D01*
X2148Y4490D01*
X2153Y4488D01*
X2158Y4487D01*
X2162Y4486D01*
X2167Y4485D01*
X2170Y4484D01*
X2174Y4484D01*
X2176Y4484D01*
X2178Y4484D01*
X2180D01*
X2187Y4484D01*
X2193Y4485D01*
X2199Y4486D01*
X2205Y4488D01*
X2210Y4490D01*
X2215Y4492D01*
X2220Y4494D01*
X2224Y4497D01*
X2228Y4499D01*
X2231Y4501D01*
X2234Y4503D01*
X2237Y4505D01*
X2239Y4507D01*
X2240Y4508D01*
X2241Y4509D01*
X2241Y4510D01*
X2246Y4515D01*
X2249Y4520D01*
X2253Y4526D01*
X2255Y4532D01*
X2258Y4538D01*
X2260Y4544D01*
X2261Y4550D01*
X2263Y4555D01*
X2264Y4561D01*
X2264Y4565D01*
X2265Y4570D01*
X2265Y4574D01*
Y4577D01*
X2266Y4579D01*
Y4581D01*
Y4581D01*
X2265Y4592D01*
X2265Y4601D01*
X2263Y4610D01*
X2262Y4618D01*
X2260Y4625D01*
X2258Y4632D01*
X2255Y4638D01*
X2253Y4643D01*
X2251Y4648D01*
X2248Y4652D01*
X2246Y4655D01*
X2244Y4658D01*
X2243Y4660D01*
X2241Y4661D01*
X2240Y4662D01*
X2240Y4662D01*
X2235Y4667D01*
X2230Y4671D01*
X2225Y4674D01*
X2220Y4677D01*
X2215Y4679D01*
X2210Y4681D01*
X2205Y4683D01*
X2200Y4684D01*
X2196Y4685D01*
X2192Y4686D01*
X2188Y4686D01*
X2185Y4687D01*
X2183D01*
X2181Y4687D01*
D02*
G37*
G36*
X1944Y4622D02*
X1942D01*
X1939Y4621D01*
X1935Y4621D01*
X1931Y4620D01*
X1928Y4619D01*
X1922Y4616D01*
X1918Y4613D01*
X1913Y4610D01*
X1912Y4608D01*
X1910Y4607D01*
X1909Y4606D01*
X1908Y4605D01*
X1908Y4605D01*
X1908Y4604D01*
X1905Y4601D01*
X1903Y4597D01*
X1901Y4593D01*
X1899Y4589D01*
X1897Y4580D01*
X1895Y4571D01*
X1894Y4567D01*
X1894Y4564D01*
X1894Y4561D01*
X1893Y4558D01*
X1893Y4555D01*
Y4553D01*
Y4552D01*
Y4552D01*
X1893Y4545D01*
X1894Y4539D01*
X1895Y4533D01*
X1895Y4528D01*
X1897Y4523D01*
X1898Y4519D01*
X1899Y4515D01*
X1901Y4511D01*
X1902Y4508D01*
X1903Y4505D01*
X1904Y4503D01*
X1906Y4501D01*
X1907Y4500D01*
X1907Y4499D01*
X1908Y4498D01*
X1908Y4498D01*
X1911Y4495D01*
X1914Y4492D01*
X1917Y4490D01*
X1920Y4488D01*
X1923Y4486D01*
X1926Y4485D01*
X1931Y4483D01*
X1936Y4481D01*
X1938Y4481D01*
X1940Y4481D01*
X1942Y4481D01*
X1943D01*
X1947Y4481D01*
X1951Y4481D01*
X1954Y4482D01*
X1957Y4483D01*
X1963Y4486D01*
X1968Y4489D01*
X1972Y4492D01*
X1974Y4493D01*
X1975Y4495D01*
X1976Y4496D01*
X1977Y4496D01*
X1978Y4497D01*
X1978Y4497D01*
X1980Y4500D01*
X1982Y4504D01*
X1984Y4508D01*
X1986Y4513D01*
X1989Y4521D01*
X1990Y4530D01*
X1991Y4534D01*
X1991Y4537D01*
X1992Y4541D01*
X1992Y4544D01*
X1992Y4546D01*
Y4548D01*
Y4549D01*
Y4549D01*
X1992Y4556D01*
X1992Y4562D01*
X1991Y4567D01*
X1990Y4573D01*
X1989Y4577D01*
X1987Y4582D01*
X1986Y4586D01*
X1984Y4590D01*
X1983Y4593D01*
X1982Y4595D01*
X1981Y4598D01*
X1980Y4600D01*
X1978Y4601D01*
X1978Y4602D01*
X1977Y4603D01*
X1977Y4603D01*
X1974Y4606D01*
X1971Y4609D01*
X1968Y4612D01*
X1965Y4614D01*
X1962Y4616D01*
X1959Y4617D01*
X1954Y4620D01*
X1949Y4621D01*
X1947Y4621D01*
X1945Y4621D01*
X1944Y4622D01*
D02*
G37*
G36*
X3179Y-4274D02*
X3145D01*
X3142Y-4274D01*
X3140D01*
X3137Y-4275D01*
X3135Y-4275D01*
X3133Y-4275D01*
X3132Y-4275D01*
X3130Y-4275D01*
X3128Y-4276D01*
X3126Y-4276D01*
X3125Y-4277D01*
X3125Y-4277D01*
X3123Y-4278D01*
X3120Y-4279D01*
X3119Y-4281D01*
X3117Y-4282D01*
X3116Y-4284D01*
X3115Y-4285D01*
X3115Y-4286D01*
X3114Y-4286D01*
X3113Y-4289D01*
X3112Y-4292D01*
X3112Y-4294D01*
X3111Y-4297D01*
X3111Y-4299D01*
X3110Y-4301D01*
Y-4302D01*
Y-4303D01*
Y-4303D01*
X3111Y-4307D01*
X3111Y-4310D01*
X3112Y-4313D01*
X3113Y-4316D01*
X3113Y-4317D01*
X3114Y-4319D01*
X3115Y-4320D01*
X3115Y-4320D01*
X3117Y-4322D01*
X3119Y-4324D01*
X3121Y-4326D01*
X3123Y-4327D01*
X3124Y-4328D01*
X3126Y-4328D01*
X3127Y-4329D01*
X3127Y-4329D01*
X3129Y-4330D01*
X3132Y-4330D01*
X3135Y-4330D01*
X3138Y-4331D01*
X3141Y-4331D01*
X3179D01*
Y-4274D01*
D02*
G37*
G36*
Y-4353D02*
X3143D01*
X3138Y-4353D01*
X3133Y-4353D01*
X3129Y-4354D01*
X3126Y-4354D01*
X3123Y-4355D01*
X3122Y-4356D01*
X3121Y-4356D01*
X3120Y-4356D01*
X3118Y-4358D01*
X3115Y-4359D01*
X3113Y-4361D01*
X3112Y-4363D01*
X3110Y-4365D01*
X3109Y-4366D01*
X3109Y-4367D01*
X3109Y-4367D01*
X3107Y-4370D01*
X3106Y-4373D01*
X3105Y-4376D01*
X3105Y-4379D01*
X3104Y-4381D01*
X3104Y-4383D01*
Y-4384D01*
Y-4384D01*
Y-4385D01*
Y-4385D01*
X3104Y-4389D01*
X3105Y-4393D01*
X3106Y-4396D01*
X3106Y-4399D01*
X3107Y-4401D01*
X3108Y-4402D01*
X3109Y-4404D01*
X3109Y-4404D01*
X3111Y-4407D01*
X3113Y-4409D01*
X3115Y-4411D01*
X3117Y-4412D01*
X3119Y-4413D01*
X3121Y-4414D01*
X3122Y-4415D01*
X3122Y-4415D01*
X3124Y-4416D01*
X3127Y-4416D01*
X3131Y-4416D01*
X3133Y-4417D01*
X3136D01*
X3139Y-4417D01*
X3179D01*
Y-4353D01*
D02*
G37*
G36*
X355Y-4274D02*
X320D01*
X317Y-4274D01*
X314Y-4275D01*
X311Y-4275D01*
X309Y-4275D01*
X307Y-4275D01*
X305Y-4276D01*
X303Y-4276D01*
X302Y-4276D01*
X300Y-4277D01*
X299Y-4277D01*
X297Y-4278D01*
X297Y-4278D01*
X295Y-4279D01*
X293Y-4281D01*
X289Y-4284D01*
X285Y-4287D01*
X283Y-4291D01*
X280Y-4294D01*
X280Y-4296D01*
X279Y-4297D01*
X278Y-4298D01*
X278Y-4299D01*
X277Y-4300D01*
Y-4300D01*
X276Y-4303D01*
X275Y-4306D01*
X273Y-4314D01*
X271Y-4321D01*
X271Y-4328D01*
X270Y-4332D01*
X270Y-4335D01*
X270Y-4337D01*
Y-4340D01*
X269Y-4342D01*
Y-4343D01*
Y-4344D01*
Y-4344D01*
Y-4349D01*
X270Y-4354D01*
X270Y-4358D01*
X271Y-4363D01*
X271Y-4367D01*
X272Y-4371D01*
X273Y-4374D01*
X273Y-4377D01*
X274Y-4380D01*
X275Y-4383D01*
X275Y-4385D01*
X276Y-4387D01*
X276Y-4388D01*
X276Y-4389D01*
X277Y-4390D01*
Y-4390D01*
X279Y-4395D01*
X282Y-4399D01*
X284Y-4403D01*
X287Y-4406D01*
X289Y-4408D01*
X291Y-4409D01*
X292Y-4410D01*
X292Y-4411D01*
X292D01*
X295Y-4412D01*
X297Y-4413D01*
X301Y-4414D01*
X306Y-4415D01*
X311Y-4416D01*
X314Y-4416D01*
X316Y-4417D01*
X317Y-4417D01*
X319D01*
X321Y-4417D01*
X355D01*
Y-4274D01*
D02*
G37*
G36*
X-4037Y-3423D02*
X-4038Y-3423D01*
X-4040Y-3423D01*
X-4040Y-3424D01*
X-4041D01*
X-4043Y-3424D01*
X-4045Y-3426D01*
X-4047Y-3427D01*
X-4049Y-3428D01*
X-4051Y-3429D01*
X-4052Y-3430D01*
X-4053Y-3431D01*
X-4053Y-3431D01*
X-4053Y-3431D01*
X-4055Y-3434D01*
X-4057Y-3436D01*
X-4058Y-3438D01*
X-4059Y-3440D01*
X-4060Y-3442D01*
X-4060Y-3443D01*
X-4061Y-3444D01*
Y-3444D01*
X-4061Y-3447D01*
Y-3449D01*
X-4061Y-3451D01*
X-4060Y-3453D01*
X-4060Y-3455D01*
X-4059Y-3456D01*
X-4059Y-3456D01*
X-4059Y-3457D01*
X-4058Y-3459D01*
X-4056Y-3461D01*
X-4055Y-3462D01*
X-4053Y-3464D01*
X-4052Y-3466D01*
X-4029Y-3489D01*
X-3995Y-3455D01*
X-4015Y-3435D01*
X-4017Y-3433D01*
X-4019Y-3432D01*
X-4020Y-3430D01*
X-4022Y-3429D01*
X-4023Y-3428D01*
X-4024Y-3427D01*
X-4025Y-3427D01*
X-4027Y-3426D01*
X-4028Y-3425D01*
X-4029Y-3424D01*
X-4029D01*
X-4031Y-3424D01*
X-4033Y-3423D01*
X-4035Y-3423D01*
X-4037D01*
D02*
G37*
G36*
X-4086Y-3468D02*
X-4088Y-3468D01*
X-4090Y-3468D01*
X-4091Y-3468D01*
X-4092Y-3468D01*
X-4092Y-3468D01*
X-4095Y-3469D01*
X-4098Y-3470D01*
X-4100Y-3472D01*
X-4102Y-3473D01*
X-4103Y-3474D01*
X-4105Y-3475D01*
X-4105Y-3476D01*
X-4106Y-3476D01*
X-4106Y-3476D01*
X-4106Y-3476D01*
X-4108Y-3479D01*
X-4110Y-3482D01*
X-4112Y-3484D01*
X-4113Y-3486D01*
X-4113Y-3488D01*
X-4114Y-3489D01*
X-4114Y-3490D01*
X-4114Y-3491D01*
X-4115Y-3493D01*
X-4115Y-3496D01*
X-4115Y-3498D01*
X-4114Y-3500D01*
X-4114Y-3502D01*
X-4114Y-3504D01*
X-4113Y-3505D01*
X-4113Y-3505D01*
X-4112Y-3507D01*
X-4111Y-3509D01*
X-4109Y-3511D01*
X-4107Y-3513D01*
X-4106Y-3515D01*
X-4104Y-3516D01*
X-4081Y-3540D01*
X-4042Y-3502D01*
X-4063Y-3481D01*
X-4067Y-3477D01*
X-4070Y-3475D01*
X-4072Y-3473D01*
X-4075Y-3471D01*
X-4077Y-3470D01*
X-4078Y-3469D01*
X-4079Y-3469D01*
X-4079Y-3469D01*
X-4081Y-3468D01*
X-4084Y-3468D01*
X-4086Y-3468D01*
D02*
G37*
G36*
X-4099Y-3349D02*
X-4101Y-3350D01*
X-4103Y-3351D01*
X-4108Y-3354D01*
X-4113Y-3357D01*
X-4118Y-3360D01*
X-4120Y-3361D01*
X-4122Y-3362D01*
X-4124Y-3363D01*
X-4125Y-3364D01*
X-4127Y-3364D01*
X-4127Y-3365D01*
X-4128Y-3365D01*
X-4128Y-3365D01*
X-4169Y-3387D01*
X-4137Y-3418D01*
X-4115Y-3375D01*
X-4112Y-3370D01*
X-4109Y-3365D01*
X-4107Y-3361D01*
X-4105Y-3359D01*
X-4104Y-3357D01*
X-4103Y-3355D01*
X-4102Y-3353D01*
X-4101Y-3352D01*
X-4100Y-3351D01*
X-4100Y-3350D01*
X-4099Y-3349D01*
X-4099Y-3349D01*
X-4099Y-3349D01*
D02*
G37*
%LPD*%
D11*
X6265Y585D02*
G03*
X6265Y585I-4823J0D01*
G01*
D15*
X-4769Y1340D02*
G03*
X-4088Y947I-320J-1340D01*
G01*
X-3646Y2577D02*
X-3578Y2537D01*
X-4768Y1342D02*
X-4229Y2277D01*
X-4086Y949D02*
X-3547Y1883D01*
D86*
X-5090Y-3488D02*
X-5060D01*
X-5080Y-2678D02*
X-4990D01*
X-5090Y-2668D02*
X-5000D01*
X-5110Y-2658D02*
X-5010D01*
X-5120Y-2648D02*
X-5020D01*
X-5070Y-2638D02*
X-5030D01*
X-5080Y-2628D02*
X-5040D01*
X-5080Y-2618D02*
X-5050D01*
X-5090Y-2608D02*
X-5060D01*
X-5090Y-2598D02*
X-5060D01*
X-5090Y-2588D02*
X-5070D01*
X-5160Y-2388D02*
X-4920D01*
X-5130Y-2378D02*
X-4940D01*
X-5090Y-2368D02*
X-4980D01*
X-5080Y-3158D02*
X-5050D01*
X-5090Y-3478D02*
X-5060D01*
X-5080Y-3468D02*
X-5050D01*
X-5080Y-3458D02*
X-5050D01*
X-5080Y-3448D02*
X-5050D01*
X-5080Y-3438D02*
X-5050D01*
X-5080Y-3428D02*
X-5050D01*
X-5080Y-3418D02*
X-5050D01*
X-5080Y-3408D02*
X-5050D01*
X-5080Y-3398D02*
X-5050D01*
X-5080Y-3388D02*
X-5050D01*
X-5080Y-3378D02*
X-5050D01*
X-5080Y-3368D02*
X-5050D01*
X-5080Y-3358D02*
X-5050D01*
X-5080Y-3348D02*
X-5050D01*
X-5080Y-3338D02*
X-5050D01*
X-5080Y-3328D02*
X-5050D01*
X-5080Y-3318D02*
X-5050D01*
X-5080Y-3308D02*
X-5050D01*
X-5080Y-3298D02*
X-5050D01*
X-5080Y-3288D02*
X-5050D01*
X-5080Y-3278D02*
X-5050D01*
X-5080Y-3268D02*
X-5050D01*
X-5080Y-3258D02*
X-5050D01*
X-5080Y-3248D02*
X-5050D01*
X-5080Y-3238D02*
X-5050D01*
X-5080Y-3228D02*
X-5050D01*
X-5080Y-3218D02*
X-5050D01*
X-5080Y-3208D02*
X-5050D01*
X-5080Y-3198D02*
X-5050D01*
X-5080Y-3188D02*
X-5050D01*
X-5080Y-3178D02*
X-5050D01*
X-5080Y-3168D02*
X-5050D01*
X-5080Y-3148D02*
X-5050D01*
X-5130Y-3138D02*
X-5060D01*
X-5120Y-3128D02*
X-5050D01*
X-5100Y-3118D02*
X-5050D01*
X-5100Y-3108D02*
X-5030D01*
X-5090Y-3098D02*
X-5010D01*
X-5090Y-3088D02*
X-4980D01*
X-5090Y-3078D02*
X-5060D01*
X-5090Y-3068D02*
X-5060D01*
X-5090Y-3058D02*
X-5060D01*
X-5090Y-3048D02*
X-5060D01*
X-5090Y-3038D02*
X-5060D01*
X-5090Y-3028D02*
X-5060D01*
X-5090Y-3018D02*
X-5060D01*
X-5090Y-3008D02*
X-5060D01*
X-5090Y-2998D02*
X-5060D01*
X-5090Y-2988D02*
X-5060D01*
X-5090Y-2978D02*
X-5060D01*
X-5090Y-2968D02*
X-5060D01*
X-5090Y-2958D02*
X-5060D01*
X-5090Y-2948D02*
X-5060D01*
X-5090Y-2938D02*
X-5060D01*
X-5090Y-2928D02*
X-5060D01*
X-5090Y-2918D02*
X-5060D01*
X-5090Y-2908D02*
X-5060D01*
X-5090Y-2898D02*
X-5060D01*
X-5100Y-2888D02*
X-5050D01*
X-5120Y-2878D02*
X-5050D01*
X-5070Y-2868D02*
X-5010D01*
X-5070Y-2858D02*
X-5020D01*
X-5220Y-3578D02*
X-5050D01*
X-5210Y-3568D02*
X-5050D01*
X-5200Y-3558D02*
X-5060D01*
X-5180Y-3548D02*
X-5060D01*
X-5150Y-3538D02*
X-5070D01*
X-5110Y-3508D02*
X-5070D01*
X-5100Y-3498D02*
X-5070D01*
X-4690Y-2688D02*
X-4660D01*
X-4920D02*
X-4880D01*
X-5060D02*
X-4980D01*
X-5350D02*
X-5300D01*
X-5180D02*
X-5160D01*
X-5230D02*
X-5220D01*
X-5280D02*
X-5260D01*
X-5200Y-1888D02*
X-5170D01*
X-5300D02*
X-5280D01*
X-5420D02*
X-5380D01*
X-4700Y-2678D02*
X-4660D01*
X-4930D02*
X-4890D01*
X-4700Y-2668D02*
X-4670D01*
X-4950D02*
X-4900D01*
X-4700Y-2658D02*
X-4670D01*
X-4960D02*
X-4910D01*
X-4710Y-2648D02*
X-4680D01*
X-4960D02*
X-4930D01*
X-4710Y-2638D02*
X-4680D01*
X-4970D02*
X-4940D01*
X-4720Y-2628D02*
X-4690D01*
X-4980D02*
X-4940D01*
X-4730Y-2618D02*
X-4690D01*
X-4990D02*
X-4950D01*
X-4730Y-2608D02*
X-4700D01*
X-5000D02*
X-4960D01*
X-4740Y-2598D02*
X-4700D01*
X-5000D02*
X-4970D01*
X-4740Y-2588D02*
X-4710D01*
X-5010D02*
X-4980D01*
X-4750Y-2578D02*
X-4710D01*
X-5010D02*
X-4990D01*
X-4750Y-2568D02*
X-4720D01*
X-5020D02*
X-4990D01*
X-4760Y-2558D02*
X-4720D01*
X-5020D02*
X-5000D01*
X-4770Y-2548D02*
X-4730D01*
X-5030D02*
X-5010D01*
X-4770Y-2538D02*
X-4740D01*
X-4860D02*
X-4850D01*
X-4780Y-2528D02*
X-4740D01*
X-4860D02*
X-4840D01*
X-4790Y-2518D02*
X-4750D01*
X-4850D02*
X-4830D01*
X-4890D02*
X-4880D01*
X-4800Y-2508D02*
X-4760D01*
X-4850D02*
X-4810D01*
X-4890D02*
X-4870D01*
X-4840Y-2498D02*
X-4770D01*
X-4880D02*
X-4850D01*
X-4930D02*
X-4910D01*
X-4830Y-2488D02*
X-4770D01*
X-4880D02*
X-4840D01*
X-4920D02*
X-4900D01*
X-4870Y-2478D02*
X-4780D01*
X-4920D02*
X-4890D01*
X-4860Y-2468D02*
X-4790D01*
X-4910D02*
X-4880D01*
X-4960D02*
X-4940D01*
X-4850Y-2458D02*
X-4810D01*
X-4910D02*
X-4870D01*
X-4950D02*
X-4930D01*
X-4900Y-2448D02*
X-4820D01*
X-4940D02*
X-4920D01*
X-4990D02*
X-4980D01*
X-4890Y-2438D02*
X-4830D01*
X-4940D02*
X-4910D01*
X-4990D02*
X-4970D01*
X-4930Y-2428D02*
X-4850D01*
X-4980D02*
X-4960D01*
X-5030D02*
X-5010D01*
X-4930Y-2418D02*
X-4860D01*
X-4980D02*
X-4950D01*
X-5030D02*
X-5000D01*
X-4970Y-2408D02*
X-4880D01*
X-5020D02*
X-5000D01*
X-4970Y-2398D02*
X-4900D01*
X-5020D02*
X-4990D01*
X-5040Y-3078D02*
X-4960D01*
X-5010Y-3068D02*
X-4930D01*
X-4990Y-3058D02*
X-4890D01*
X-4960Y-3048D02*
X-4860D01*
X-4930Y-3038D02*
X-4860D01*
X-4890Y-3028D02*
X-4860D01*
X-4900Y-3018D02*
X-4870D01*
X-4910Y-3008D02*
X-4870D01*
X-4910Y-2998D02*
X-4880D01*
X-4920Y-2988D02*
X-4890D01*
X-4930Y-2978D02*
X-4890D01*
X-4930Y-2968D02*
X-4900D01*
X-4940Y-2958D02*
X-4910D01*
X-4950Y-2948D02*
X-4910D01*
X-4950Y-2938D02*
X-4920D01*
X-4960Y-2928D02*
X-4930D01*
X-4970Y-2918D02*
X-4930D01*
X-4980Y-2908D02*
X-4940D01*
X-5000Y-2898D02*
X-4950D01*
X-5020Y-2888D02*
X-4950D01*
X-4970Y-2878D02*
X-4950D01*
X-5040D02*
X-4990D01*
X-4970Y-2868D02*
X-4950D01*
X-4690Y-2858D02*
X-4650D01*
X-4970D02*
X-4950D01*
X-4720Y-2848D02*
X-4610D01*
X-4970D02*
X-4950D01*
X-5060D02*
X-5030D01*
X-4740Y-2838D02*
X-4600D01*
X-4970D02*
X-4950D01*
X-5060D02*
X-5030D01*
X-4640Y-2828D02*
X-4590D01*
X-4760D02*
X-4690D01*
X-4970D02*
X-4940D01*
X-5050D02*
X-5020D01*
X-4780Y-2818D02*
X-4720D01*
X-4970D02*
X-4950D01*
X-5050D02*
X-5020D01*
X-4600Y-2808D02*
X-4550D01*
X-4800D02*
X-4740D01*
X-4970D02*
X-4950D01*
X-5040D02*
X-5010D01*
X-4610Y-2798D02*
X-4560D01*
X-4810D02*
X-4750D01*
X-5040D02*
X-4860D01*
X-4620Y-2788D02*
X-4580D01*
X-5030D02*
X-4770D01*
X-4630Y-2778D02*
X-4590D01*
X-5020D02*
X-4790D01*
X-4640Y-2768D02*
X-4600D01*
X-4880D02*
X-4800D01*
X-4640Y-2758D02*
X-4610D01*
X-4910D02*
X-4810D01*
X-4650Y-2748D02*
X-4620D01*
X-4930D02*
X-4810D01*
X-4660Y-2738D02*
X-4620D01*
X-4860D02*
X-4820D01*
X-4960D02*
X-4880D01*
X-4670Y-2728D02*
X-4630D01*
X-4870D02*
X-4830D01*
X-4980D02*
X-4910D01*
X-4670Y-2718D02*
X-4640D01*
X-4880D02*
X-4840D01*
X-5000D02*
X-4930D01*
X-4680Y-2708D02*
X-4640D01*
X-4900D02*
X-4850D01*
X-5020D02*
X-4950D01*
X-4680Y-2698D02*
X-4650D01*
X-4910D02*
X-4860D01*
X-5040D02*
X-4970D01*
X-5400Y-1858D02*
X-5290D01*
X-5390Y-1848D02*
X-5310D01*
X-5380Y-1838D02*
X-5310D01*
X-5370Y-1828D02*
X-5240D01*
X-5350Y-1818D02*
X-5260D01*
X-5210Y-1878D02*
X-5180D01*
X-5310D02*
X-5280D01*
X-5220Y-1868D02*
X-5190D01*
X-5320D02*
X-5290D01*
X-5240Y-1858D02*
X-5200D01*
X-5250Y-1848D02*
X-5210D01*
X-5270Y-1838D02*
X-5220D01*
X-5410Y-1878D02*
X-5370D01*
X-5400Y-1868D02*
X-5360D01*
Y-2358D02*
X-5320D01*
X-5510D02*
X-5480D01*
X-5350Y-2678D02*
X-5300D01*
X-5360Y-2668D02*
X-5300D01*
X-5360Y-2658D02*
X-5330D01*
X-5360Y-2648D02*
X-5330D01*
Y-2488D02*
X-5300D01*
X-5360Y-2478D02*
X-5280D01*
X-5380Y-2468D02*
X-5260D01*
X-5380Y-2378D02*
X-5330D01*
X-5370Y-2368D02*
X-5330D01*
X-5360Y-2348D02*
X-5310D01*
X-5350Y-2338D02*
X-5300D01*
X-5340Y-2328D02*
X-5290D01*
X-5330Y-2318D02*
X-5280D01*
X-5370Y-2208D02*
X-5330D01*
X-5350Y-2198D02*
X-5320D01*
X-5340Y-2188D02*
X-5310D01*
X-5330Y-2178D02*
X-5300D01*
X-5370Y-2038D02*
X-5330D01*
X-5370Y-2028D02*
X-5300D01*
X-5370Y-2018D02*
X-5290D01*
X-5380Y-2008D02*
X-5280D01*
X-5340Y-1998D02*
X-5270D01*
X-5340Y-1988D02*
X-5320D01*
X-5330Y-1978D02*
X-5320D01*
X-5330Y-1968D02*
X-5320D01*
X-5330Y-1958D02*
X-5310D01*
X-5330Y-1948D02*
X-5300D01*
X-5380Y-1918D02*
X-5330D01*
X-5170Y-2678D02*
X-5150D01*
X-5270D02*
X-5260D01*
X-5160Y-2668D02*
X-5140D01*
X-5270D02*
X-5250D01*
X-5270Y-2658D02*
X-5250D01*
X-5320D02*
X-5300D01*
X-5260Y-2648D02*
X-5250D01*
X-5310D02*
X-5300D01*
X-5130Y-2638D02*
X-5080D01*
X-5310D02*
X-5290D01*
X-5140Y-2628D02*
X-5090D01*
X-5310D02*
X-5290D01*
X-5150Y-2618D02*
X-5110D01*
X-5310D02*
X-5290D01*
X-5160Y-2608D02*
X-5120D01*
X-5170Y-2598D02*
X-5130D01*
X-5180Y-2588D02*
X-5140D01*
X-5090Y-2578D02*
X-5080D01*
X-5180D02*
X-5150D01*
X-5190Y-2568D02*
X-5160D01*
X-5190Y-2558D02*
X-5160D01*
X-5200Y-2548D02*
X-5170D01*
X-5210Y-2538D02*
X-5180D01*
X-5210Y-2528D02*
X-5180D01*
X-5210Y-2518D02*
X-5190D01*
X-5220Y-2508D02*
X-5190D01*
X-5220Y-2498D02*
X-5200D01*
X-5210Y-2488D02*
X-5200D01*
X-5290Y-2458D02*
X-5240D01*
X-5270Y-2448D02*
X-5230D01*
X-5260Y-2438D02*
X-5210D01*
X-5240Y-2428D02*
X-5190D01*
X-5230Y-2418D02*
X-5170D01*
X-5210Y-2408D02*
X-5140D01*
X-5190Y-2398D02*
X-5100D01*
X-5370Y-2638D02*
X-5340D01*
X-5410Y-2628D02*
X-5340D01*
X-5440Y-2618D02*
X-5340D01*
X-5360Y-2608D02*
X-5340D01*
X-5450D02*
X-5380D01*
X-5350Y-2598D02*
X-5340D01*
X-5470D02*
X-5410D01*
X-5350Y-2588D02*
X-5340D01*
X-5480D02*
X-5430D01*
X-5500Y-2578D02*
X-5450D01*
X-5510Y-2568D02*
X-5450D01*
X-5470Y-2558D02*
X-5450D01*
X-5520D02*
X-5480D01*
X-5460Y-2548D02*
X-5440D01*
X-5530D02*
X-5480D01*
X-5460Y-2538D02*
X-5440D01*
X-5530D02*
X-5480D01*
X-5450Y-2528D02*
X-5430D01*
X-5490D02*
X-5480D01*
X-5540D02*
X-5500D01*
X-5450Y-2518D02*
X-5430D01*
X-5490D02*
X-5470D01*
X-5540D02*
X-5510D01*
X-5450Y-2508D02*
X-5430D01*
X-5490D02*
X-5470D01*
X-5540D02*
X-5510D01*
X-5480Y-2498D02*
X-5460D01*
X-5550D02*
X-5510D01*
X-5480Y-2488D02*
X-5460D01*
X-5550D02*
X-5500D01*
X-5550Y-2478D02*
X-5490D01*
X-5510Y-2468D02*
X-5490D01*
X-5550D02*
X-5520D01*
X-5380Y-2458D02*
X-5340D01*
X-5500D02*
X-5480D01*
X-5550D02*
X-5520D01*
X-5390Y-2448D02*
X-5350D01*
X-5490D02*
X-5480D01*
X-5550D02*
X-5520D01*
X-5390Y-2438D02*
X-5360D01*
X-5540D02*
X-5510D01*
X-5400Y-2428D02*
X-5360D01*
X-5540D02*
X-5510D01*
X-5400Y-2418D02*
X-5360D01*
X-5540D02*
X-5510D01*
X-5400Y-2408D02*
X-5360D01*
X-5530D02*
X-5500D01*
X-5390Y-2398D02*
X-5350D01*
X-5530D02*
X-5500D01*
X-5390Y-2388D02*
X-5340D01*
X-5530D02*
X-5490D01*
X-5520Y-2378D02*
X-5490D01*
X-5520Y-2368D02*
X-5480D01*
X-5320Y-2308D02*
X-5260D01*
X-5300Y-2298D02*
X-5250D01*
X-5290Y-2288D02*
X-5240D01*
X-5280Y-2278D02*
X-5230D01*
X-5270Y-2268D02*
X-5220D01*
X-5260Y-2258D02*
X-5210D01*
X-5250Y-2248D02*
X-5200D01*
X-5240Y-2238D02*
X-5190D01*
X-5230Y-2228D02*
X-5180D01*
X-5220Y-2218D02*
X-5180D01*
X-5210Y-2208D02*
X-5170D01*
X-5200Y-2198D02*
X-5160D01*
X-5200Y-2188D02*
X-5160D01*
X-5190Y-2178D02*
X-5150D01*
X-5190Y-2168D02*
X-5150D01*
X-5320D02*
X-5290D01*
X-5180Y-2158D02*
X-5150D01*
X-5320D02*
X-5280D01*
X-5180Y-2148D02*
X-5140D01*
X-5310D02*
X-5280D01*
X-5170Y-2138D02*
X-5140D01*
X-5300D02*
X-5270D01*
X-5170Y-2128D02*
X-5130D01*
X-5290D02*
X-5260D01*
X-5170Y-2118D02*
X-5130D01*
X-5290D02*
X-5260D01*
X-5160Y-2108D02*
X-5130D01*
X-5280D02*
X-5250D01*
X-5160Y-2098D02*
X-5130D01*
X-5280D02*
X-5250D01*
X-5160Y-2088D02*
X-5130D01*
X-5270D02*
X-5240D01*
X-5160Y-2078D02*
X-5120D01*
X-5270D02*
X-5240D01*
X-5160Y-2068D02*
X-5120D01*
X-5270D02*
X-5240D01*
X-5150Y-2058D02*
X-5120D01*
X-5260D02*
X-5240D01*
X-5150Y-2048D02*
X-5120D01*
X-5260D02*
X-5240D01*
X-5150Y-2038D02*
X-5120D01*
X-5260D02*
X-5240D01*
X-5150Y-2028D02*
X-5120D01*
X-5260D02*
X-5240D01*
X-5160Y-2018D02*
X-5120D01*
X-5260D02*
X-5240D01*
X-5160Y-2008D02*
X-5130D01*
X-5260D02*
X-5240D01*
X-5160Y-1998D02*
X-5130D01*
X-5260D02*
X-5240D01*
X-5160Y-1988D02*
X-5130D01*
X-5300D02*
X-5240D01*
X-5160Y-1978D02*
X-5130D01*
X-5290D02*
X-5240D01*
X-5170Y-1968D02*
X-5140D01*
X-5290D02*
X-5240D01*
X-5170Y-1958D02*
X-5140D01*
X-5280D02*
X-5260D01*
X-5170Y-1948D02*
X-5140D01*
X-5180Y-1938D02*
X-5150D01*
X-5320D02*
X-5300D01*
X-5180Y-1928D02*
X-5150D01*
X-5310D02*
X-5290D01*
X-5180Y-1918D02*
X-5150D01*
X-5310D02*
X-5280D01*
X-5190Y-1908D02*
X-5160D01*
X-5310D02*
X-5280D01*
X-5200Y-1898D02*
X-5170D01*
X-5300D02*
X-5280D01*
X-5500Y-2348D02*
X-5470D01*
X-5500Y-2338D02*
X-5460D01*
X-5490Y-2328D02*
X-5450D01*
X-5480Y-2318D02*
X-5450D01*
X-5480Y-2308D02*
X-5440D01*
X-5470Y-2298D02*
X-5430D01*
X-5460Y-2288D02*
X-5420D01*
X-5450Y-2278D02*
X-5410D01*
X-5440Y-2268D02*
X-5390D01*
X-5420Y-2258D02*
X-5380D01*
X-5410Y-2248D02*
X-5370D01*
X-5400Y-2238D02*
X-5360D01*
X-5390Y-2228D02*
X-5350D01*
X-5380Y-2218D02*
X-5340D01*
X-5420Y-2178D02*
X-5390D01*
X-5430Y-2168D02*
X-5380D01*
X-5440Y-2158D02*
X-5370D01*
X-5450Y-2148D02*
X-5370D01*
X-5400Y-2138D02*
X-5370D01*
X-5450D02*
X-5410D01*
X-5400Y-2128D02*
X-5370D01*
X-5460D02*
X-5420D01*
X-5400Y-2118D02*
X-5370D01*
X-5460D02*
X-5430D01*
X-5400Y-2108D02*
X-5360D01*
X-5470D02*
X-5430D01*
X-5400Y-2098D02*
X-5360D01*
X-5470D02*
X-5440D01*
X-5390Y-2088D02*
X-5360D01*
X-5470D02*
X-5440D01*
X-5390Y-2078D02*
X-5360D01*
X-5470D02*
X-5440D01*
X-5390Y-2068D02*
X-5350D01*
X-5470D02*
X-5440D01*
X-5380Y-2058D02*
X-5350D01*
X-5470D02*
X-5440D01*
X-5380Y-2048D02*
X-5340D01*
X-5470D02*
X-5440D01*
X-5470Y-2038D02*
X-5440D01*
X-5470Y-2028D02*
X-5440D01*
X-5470Y-2018D02*
X-5430D01*
X-5460Y-2008D02*
X-5430D01*
X-5380Y-1998D02*
X-5350D01*
X-5460D02*
X-5420D01*
X-5450Y-1988D02*
X-5360D01*
X-5440Y-1978D02*
X-5360D01*
X-5430Y-1968D02*
X-5390D01*
X-5430Y-1958D02*
X-5390D01*
X-5420Y-1948D02*
X-5390D01*
X-5430Y-1938D02*
X-5390D01*
X-5430Y-1928D02*
X-5390D01*
X-5420Y-1918D02*
X-5390D01*
X-5370Y-1908D02*
X-5340D01*
X-5420D02*
X-5390D01*
X-5420Y-1898D02*
X-5380D01*
X-5170Y-3158D02*
X-5110D01*
X-5330Y-2718D02*
X-5270D01*
X-5340Y-2708D02*
X-5300D01*
X-5340Y-2698D02*
X-5300D01*
Y-3388D02*
X-5270D01*
X-5300Y-3378D02*
X-5250D01*
X-5300Y-3368D02*
X-5240D01*
X-5300Y-3358D02*
X-5230D01*
X-5300Y-3348D02*
X-5220D01*
X-5300Y-3338D02*
X-5220D01*
X-5300Y-3328D02*
X-5220D01*
X-5290Y-3318D02*
X-5230D01*
X-5290Y-3308D02*
X-5230D01*
X-5280Y-3298D02*
X-5230D01*
X-5280Y-3288D02*
X-5230D01*
X-5270Y-3278D02*
X-5230D01*
X-5270Y-3268D02*
X-5230D01*
X-5260Y-3258D02*
X-5230D01*
X-5250Y-3248D02*
X-5220D01*
X-5250Y-3238D02*
X-5210D01*
X-5240Y-3228D02*
X-5200D01*
X-5230Y-3218D02*
X-5190D01*
X-5220Y-3208D02*
X-5180D01*
X-5210Y-3198D02*
X-5170D01*
X-5200Y-3188D02*
X-5160D01*
X-5190Y-3178D02*
X-5140D01*
X-5180Y-3168D02*
X-5130D01*
X-5150Y-3148D02*
X-5090D01*
X-5130Y-2868D02*
X-5090D01*
X-5140Y-2858D02*
X-5100D01*
X-5140Y-2848D02*
X-5110D01*
X-5150Y-2838D02*
X-5110D01*
X-5170Y-2828D02*
X-5120D01*
X-5190Y-2818D02*
X-5130D01*
X-5200Y-2808D02*
X-5140D01*
X-5220Y-2798D02*
X-5160D01*
X-5240Y-2788D02*
X-5170D01*
X-5250Y-2778D02*
X-5190D01*
X-5270Y-2768D02*
X-5190D01*
X-5210Y-2758D02*
X-5180D01*
X-5290D02*
X-5220D01*
X-5190Y-2748D02*
X-5160D01*
X-5300D02*
X-5240D01*
X-5180Y-2738D02*
X-5140D01*
X-5200D02*
X-5190D01*
X-5310D02*
X-5260D01*
X-5320Y-2728D02*
X-5150D01*
Y-2718D02*
X-5140D01*
X-5180D02*
X-5170D01*
X-5210D02*
X-5190D01*
X-5260D02*
X-5220D01*
X-5170Y-2708D02*
X-5160D01*
X-5200D02*
X-5180D01*
X-5250D02*
X-5210D01*
X-5290D02*
X-5270D01*
X-5200Y-2698D02*
X-5170D01*
X-5240D02*
X-5220D01*
X-5280D02*
X-5260D01*
X-5130Y-3528D02*
X-5080D01*
X-5120Y-3518D02*
X-5080D01*
M02*
