G04*
G04 #@! TF.GenerationSoftware,Altium Limited,Altium Designer,20.0.11 (256)*
G04*
G04 Layer_Color=32896*
%FSLAX24Y24*%
%MOIN*%
G70*
G01*
G75*
%ADD11C,0.0039*%
%ADD15C,0.0010*%
%ADD86C,0.0010*%
G36*
X1072Y4000D02*
X1050D01*
Y4017D01*
X1048Y4013D01*
X1045Y4010D01*
X1042Y4008D01*
X1039Y4005D01*
X1036Y4003D01*
X1033Y4002D01*
X1029Y4000D01*
X1026Y3999D01*
X1024Y3999D01*
X1021Y3998D01*
X1019Y3998D01*
X1017Y3997D01*
X1015Y3997D01*
X1014Y3997D01*
X1013D01*
X1008Y3997D01*
X1004Y3998D01*
X1000Y3999D01*
X996Y4000D01*
X993Y4001D01*
X989Y4003D01*
X986Y4005D01*
X983Y4006D01*
X981Y4008D01*
X978Y4010D01*
X976Y4011D01*
X975Y4013D01*
X974Y4014D01*
X973Y4015D01*
X972Y4016D01*
X972Y4016D01*
X969Y4020D01*
X966Y4023D01*
X964Y4028D01*
X962Y4032D01*
X960Y4037D01*
X959Y4041D01*
X957Y4045D01*
X957Y4050D01*
X956Y4054D01*
X955Y4058D01*
X955Y4061D01*
X955Y4064D01*
Y4066D01*
X954Y4068D01*
Y4069D01*
Y4069D01*
X955Y4075D01*
X955Y4080D01*
X956Y4085D01*
X956Y4089D01*
X957Y4090D01*
X957Y4092D01*
X958Y4094D01*
X958Y4095D01*
X958Y4096D01*
X958Y4096D01*
X959Y4097D01*
Y4097D01*
X960Y4102D01*
X962Y4106D01*
X964Y4110D01*
X966Y4113D01*
X967Y4115D01*
X969Y4117D01*
X969Y4119D01*
X970Y4119D01*
X973Y4122D01*
X976Y4125D01*
X979Y4127D01*
X982Y4129D01*
X984Y4131D01*
X986Y4132D01*
X987Y4133D01*
X988Y4133D01*
X988Y4133D01*
X988D01*
X992Y4135D01*
X996Y4136D01*
X1000Y4137D01*
X1004Y4138D01*
X1007Y4138D01*
X1008D01*
X1009Y4138D01*
X1012D01*
X1016Y4138D01*
X1020Y4137D01*
X1023Y4137D01*
X1027Y4135D01*
X1030Y4134D01*
X1033Y4133D01*
X1036Y4131D01*
X1039Y4129D01*
X1041Y4127D01*
X1043Y4126D01*
X1045Y4124D01*
X1046Y4123D01*
X1047Y4122D01*
X1048Y4121D01*
X1048Y4120D01*
X1049Y4120D01*
Y4186D01*
X1072D01*
Y4000D01*
D02*
G37*
G36*
X2027Y4000D02*
X2004D01*
Y4074D01*
X2004Y4079D01*
X2003Y4084D01*
X2003Y4089D01*
X2002Y4092D01*
X2001Y4095D01*
X2001Y4097D01*
X2000Y4098D01*
X2000Y4098D01*
X2000Y4099D01*
X1998Y4102D01*
X1996Y4105D01*
X1994Y4107D01*
X1992Y4109D01*
X1990Y4111D01*
X1989Y4112D01*
X1988Y4113D01*
X1987Y4113D01*
X1984Y4115D01*
X1981Y4116D01*
X1977Y4117D01*
X1974Y4118D01*
X1972Y4118D01*
X1970Y4118D01*
X1968D01*
X1963Y4118D01*
X1959Y4117D01*
X1956Y4116D01*
X1953Y4115D01*
X1950Y4113D01*
X1949Y4112D01*
X1948Y4111D01*
X1947Y4110D01*
X1946Y4109D01*
X1945Y4107D01*
X1943Y4103D01*
X1942Y4099D01*
X1941Y4095D01*
X1940Y4091D01*
X1940Y4090D01*
Y4088D01*
X1940Y4087D01*
Y4086D01*
Y4086D01*
Y4085D01*
Y4000D01*
X1917D01*
Y4085D01*
Y4089D01*
X1917Y4093D01*
X1917Y4096D01*
X1918Y4099D01*
X1918Y4101D01*
X1918Y4104D01*
X1919Y4106D01*
X1919Y4108D01*
X1920Y4110D01*
X1920Y4112D01*
X1921Y4113D01*
X1921Y4114D01*
X1921Y4115D01*
X1922Y4115D01*
X1922Y4116D01*
Y4116D01*
X1924Y4119D01*
X1926Y4123D01*
X1929Y4126D01*
X1931Y4128D01*
X1934Y4130D01*
X1936Y4131D01*
X1937Y4132D01*
X1937Y4132D01*
X1937Y4132D01*
X1938D01*
X1942Y4134D01*
X1946Y4136D01*
X1951Y4137D01*
X1955Y4137D01*
X1958Y4138D01*
X1960Y4138D01*
X1961Y4138D01*
X1964D01*
X1968Y4138D01*
X1972Y4137D01*
X1976Y4136D01*
X1980Y4135D01*
X1984Y4134D01*
X1987Y4132D01*
X1990Y4130D01*
X1993Y4129D01*
X1995Y4127D01*
X1997Y4125D01*
X1999Y4124D01*
X2001Y4122D01*
X2002Y4121D01*
X2003Y4120D01*
X2004Y4120D01*
X2004Y4119D01*
Y4186D01*
X2027D01*
Y4000D01*
D02*
G37*
G36*
X1288D02*
X1266D01*
Y4074D01*
X1265Y4079D01*
X1265Y4084D01*
X1264Y4089D01*
X1264Y4092D01*
X1263Y4095D01*
X1263Y4097D01*
X1262Y4098D01*
X1262Y4098D01*
X1262Y4099D01*
X1260Y4102D01*
X1258Y4105D01*
X1256Y4107D01*
X1254Y4109D01*
X1252Y4111D01*
X1251Y4112D01*
X1250Y4113D01*
X1249Y4113D01*
X1246Y4115D01*
X1242Y4116D01*
X1239Y4117D01*
X1236Y4118D01*
X1234Y4118D01*
X1232Y4118D01*
X1230D01*
X1225Y4118D01*
X1221Y4117D01*
X1218Y4116D01*
X1215Y4115D01*
X1212Y4113D01*
X1210Y4112D01*
X1209Y4111D01*
X1209Y4110D01*
X1208Y4109D01*
X1207Y4107D01*
X1205Y4103D01*
X1203Y4099D01*
X1203Y4095D01*
X1202Y4091D01*
X1202Y4090D01*
Y4088D01*
X1202Y4087D01*
Y4086D01*
Y4086D01*
Y4085D01*
Y4000D01*
X1179D01*
Y4085D01*
Y4089D01*
X1179Y4093D01*
X1179Y4096D01*
X1180Y4099D01*
X1180Y4101D01*
X1180Y4104D01*
X1181Y4106D01*
X1181Y4108D01*
X1182Y4110D01*
X1182Y4112D01*
X1182Y4113D01*
X1183Y4114D01*
X1183Y4115D01*
X1183Y4115D01*
X1184Y4116D01*
Y4116D01*
X1186Y4119D01*
X1188Y4123D01*
X1191Y4126D01*
X1193Y4128D01*
X1196Y4130D01*
X1198Y4131D01*
X1199Y4132D01*
X1199Y4132D01*
X1199Y4132D01*
X1200D01*
X1204Y4134D01*
X1208Y4136D01*
X1213Y4137D01*
X1217Y4137D01*
X1220Y4138D01*
X1222Y4138D01*
X1223Y4138D01*
X1225D01*
X1230Y4138D01*
X1234Y4137D01*
X1238Y4136D01*
X1242Y4135D01*
X1245Y4134D01*
X1249Y4132D01*
X1252Y4130D01*
X1255Y4129D01*
X1257Y4127D01*
X1259Y4125D01*
X1261Y4124D01*
X1263Y4122D01*
X1264Y4121D01*
X1265Y4120D01*
X1265Y4120D01*
X1266Y4119D01*
Y4186D01*
X1288D01*
Y4000D01*
D02*
G37*
G36*
X-883Y4000D02*
X-905D01*
Y4074D01*
X-906Y4079D01*
X-906Y4084D01*
X-907Y4089D01*
X-907Y4092D01*
X-908Y4095D01*
X-909Y4097D01*
X-909Y4098D01*
X-909Y4098D01*
X-909Y4099D01*
X-911Y4102D01*
X-913Y4105D01*
X-915Y4107D01*
X-917Y4109D01*
X-919Y4111D01*
X-920Y4112D01*
X-921Y4113D01*
X-922Y4113D01*
X-925Y4115D01*
X-929Y4116D01*
X-932Y4117D01*
X-935Y4118D01*
X-937Y4118D01*
X-939Y4118D01*
X-941D01*
X-946Y4118D01*
X-950Y4117D01*
X-954Y4116D01*
X-957Y4115D01*
X-959Y4113D01*
X-961Y4112D01*
X-962Y4111D01*
X-962Y4110D01*
X-963Y4109D01*
X-964Y4107D01*
X-966Y4103D01*
X-968Y4099D01*
X-969Y4095D01*
X-969Y4091D01*
X-969Y4090D01*
Y4088D01*
X-970Y4087D01*
Y4086D01*
Y4086D01*
Y4085D01*
Y4000D01*
X-992D01*
Y4085D01*
Y4089D01*
X-992Y4093D01*
X-992Y4096D01*
X-992Y4099D01*
X-991Y4101D01*
X-991Y4104D01*
X-990Y4106D01*
X-990Y4108D01*
X-990Y4110D01*
X-989Y4112D01*
X-989Y4113D01*
X-988Y4114D01*
X-988Y4115D01*
X-988Y4115D01*
X-987Y4116D01*
Y4116D01*
X-985Y4119D01*
X-983Y4123D01*
X-980Y4126D01*
X-978Y4128D01*
X-975Y4130D01*
X-973Y4131D01*
X-973Y4132D01*
X-972Y4132D01*
X-972Y4132D01*
X-972D01*
X-967Y4134D01*
X-963Y4136D01*
X-959Y4137D01*
X-955Y4137D01*
X-951Y4138D01*
X-950Y4138D01*
X-948Y4138D01*
X-946D01*
X-941Y4138D01*
X-937Y4137D01*
X-933Y4136D01*
X-929Y4135D01*
X-926Y4134D01*
X-922Y4132D01*
X-919Y4130D01*
X-917Y4129D01*
X-914Y4127D01*
X-912Y4125D01*
X-910Y4124D01*
X-908Y4122D01*
X-907Y4121D01*
X-906Y4120D01*
X-906Y4120D01*
X-905Y4119D01*
Y4186D01*
X-883D01*
Y4000D01*
D02*
G37*
G36*
X2549Y4138D02*
X2554Y4137D01*
X2558Y4136D01*
X2561Y4135D01*
X2564Y4134D01*
X2565Y4134D01*
X2566Y4133D01*
X2567Y4133D01*
X2568Y4132D01*
X2568Y4132D01*
X2568D01*
X2572Y4130D01*
X2575Y4127D01*
X2578Y4124D01*
X2580Y4122D01*
X2582Y4120D01*
X2584Y4118D01*
X2585Y4117D01*
X2585Y4116D01*
Y4135D01*
X2605D01*
Y4000D01*
X2583D01*
Y4070D01*
Y4074D01*
X2582Y4077D01*
X2582Y4080D01*
X2582Y4082D01*
X2582Y4085D01*
X2581Y4087D01*
X2581Y4089D01*
X2581Y4091D01*
X2580Y4093D01*
X2580Y4094D01*
X2580Y4095D01*
X2580Y4096D01*
X2579Y4097D01*
X2579Y4098D01*
X2579Y4098D01*
Y4098D01*
X2577Y4102D01*
X2576Y4105D01*
X2574Y4107D01*
X2572Y4109D01*
X2570Y4111D01*
X2569Y4112D01*
X2568Y4113D01*
X2567Y4113D01*
X2564Y4115D01*
X2561Y4116D01*
X2558Y4117D01*
X2555Y4118D01*
X2553Y4118D01*
X2551Y4118D01*
X2549D01*
X2545Y4118D01*
X2541Y4117D01*
X2538Y4116D01*
X2535Y4115D01*
X2533Y4113D01*
X2532Y4112D01*
X2531Y4111D01*
X2531Y4111D01*
X2529Y4107D01*
X2528Y4104D01*
X2527Y4100D01*
X2526Y4096D01*
X2526Y4093D01*
Y4092D01*
X2525Y4090D01*
Y4089D01*
Y4088D01*
Y4088D01*
Y4088D01*
Y4000D01*
X2502D01*
Y4078D01*
X2502Y4082D01*
X2502Y4086D01*
X2502Y4089D01*
X2501Y4092D01*
X2500Y4095D01*
X2499Y4097D01*
X2499Y4100D01*
X2498Y4102D01*
X2497Y4103D01*
X2496Y4105D01*
X2495Y4106D01*
X2494Y4107D01*
X2494Y4108D01*
X2493Y4108D01*
X2493Y4109D01*
Y4109D01*
X2491Y4110D01*
X2489Y4112D01*
X2485Y4114D01*
X2481Y4116D01*
X2477Y4117D01*
X2474Y4118D01*
X2473Y4118D01*
X2472D01*
X2471Y4118D01*
X2469D01*
X2466Y4118D01*
X2464Y4118D01*
X2461Y4117D01*
X2459Y4117D01*
X2458Y4116D01*
X2456Y4115D01*
X2456Y4115D01*
X2455Y4115D01*
X2453Y4113D01*
X2452Y4112D01*
X2450Y4110D01*
X2449Y4108D01*
X2448Y4107D01*
X2448Y4106D01*
X2447Y4105D01*
Y4105D01*
X2447Y4102D01*
X2446Y4099D01*
X2446Y4096D01*
X2445Y4093D01*
Y4090D01*
X2445Y4087D01*
Y4086D01*
Y4086D01*
Y4085D01*
Y4085D01*
Y4000D01*
X2422D01*
Y4093D01*
X2422Y4097D01*
X2423Y4101D01*
X2423Y4104D01*
X2424Y4108D01*
X2425Y4111D01*
X2426Y4114D01*
X2427Y4116D01*
X2428Y4118D01*
X2429Y4120D01*
X2430Y4122D01*
X2431Y4124D01*
X2432Y4125D01*
X2432Y4126D01*
X2433Y4126D01*
X2433Y4127D01*
X2433Y4127D01*
X2435Y4129D01*
X2438Y4131D01*
X2440Y4132D01*
X2442Y4133D01*
X2448Y4135D01*
X2453Y4137D01*
X2455Y4137D01*
X2457Y4138D01*
X2459Y4138D01*
X2461Y4138D01*
X2462Y4138D01*
X2464D01*
X2469Y4138D01*
X2473Y4137D01*
X2477Y4136D01*
X2481Y4135D01*
X2485Y4133D01*
X2489Y4131D01*
X2492Y4128D01*
X2495Y4126D01*
X2497Y4124D01*
X2499Y4122D01*
X2501Y4120D01*
X2503Y4118D01*
X2504Y4117D01*
X2505Y4116D01*
X2506Y4115D01*
X2506Y4115D01*
X2508Y4119D01*
X2510Y4122D01*
X2512Y4125D01*
X2514Y4127D01*
X2516Y4129D01*
X2518Y4131D01*
X2519Y4132D01*
X2519Y4132D01*
X2520D01*
X2523Y4134D01*
X2528Y4136D01*
X2532Y4137D01*
X2535Y4137D01*
X2539Y4138D01*
X2540Y4138D01*
X2542Y4138D01*
X2544D01*
X2549Y4138D01*
D02*
G37*
G36*
X349Y4138D02*
X354Y4137D01*
X358Y4136D01*
X361Y4135D01*
X364Y4134D01*
X365Y4134D01*
X366Y4133D01*
X367Y4133D01*
X368Y4132D01*
X368Y4132D01*
X368D01*
X372Y4130D01*
X375Y4127D01*
X378Y4124D01*
X380Y4122D01*
X382Y4120D01*
X384Y4118D01*
X385Y4117D01*
X385Y4116D01*
Y4135D01*
X406D01*
Y4000D01*
X383D01*
Y4070D01*
Y4074D01*
X382Y4077D01*
X382Y4080D01*
X382Y4082D01*
X382Y4085D01*
X381Y4087D01*
X381Y4089D01*
X381Y4091D01*
X380Y4093D01*
X380Y4094D01*
X380Y4095D01*
X380Y4096D01*
X379Y4097D01*
X379Y4098D01*
X379Y4098D01*
Y4098D01*
X377Y4102D01*
X376Y4105D01*
X374Y4107D01*
X372Y4109D01*
X370Y4111D01*
X369Y4112D01*
X368Y4113D01*
X367Y4113D01*
X364Y4115D01*
X361Y4116D01*
X358Y4117D01*
X355Y4118D01*
X353Y4118D01*
X351Y4118D01*
X349D01*
X345Y4118D01*
X341Y4117D01*
X338Y4116D01*
X335Y4115D01*
X333Y4113D01*
X332Y4112D01*
X331Y4111D01*
X331Y4111D01*
X329Y4107D01*
X328Y4104D01*
X327Y4100D01*
X326Y4096D01*
X326Y4093D01*
Y4092D01*
X325Y4090D01*
Y4089D01*
Y4088D01*
Y4088D01*
Y4088D01*
Y4000D01*
X302D01*
Y4078D01*
X302Y4082D01*
X302Y4086D01*
X302Y4089D01*
X301Y4092D01*
X300Y4095D01*
X299Y4097D01*
X299Y4100D01*
X298Y4102D01*
X297Y4103D01*
X296Y4105D01*
X295Y4106D01*
X294Y4107D01*
X294Y4108D01*
X293Y4108D01*
X293Y4109D01*
Y4109D01*
X291Y4110D01*
X289Y4112D01*
X285Y4114D01*
X281Y4116D01*
X277Y4117D01*
X274Y4118D01*
X273Y4118D01*
X272D01*
X271Y4118D01*
X269D01*
X266Y4118D01*
X264Y4118D01*
X261Y4117D01*
X259Y4117D01*
X258Y4116D01*
X256Y4115D01*
X256Y4115D01*
X255Y4115D01*
X253Y4113D01*
X252Y4112D01*
X250Y4110D01*
X249Y4108D01*
X248Y4107D01*
X248Y4106D01*
X247Y4105D01*
Y4105D01*
X247Y4102D01*
X246Y4099D01*
X246Y4096D01*
X245Y4093D01*
Y4090D01*
X245Y4087D01*
Y4086D01*
Y4086D01*
Y4085D01*
Y4085D01*
Y4000D01*
X222D01*
Y4093D01*
X222Y4097D01*
X223Y4101D01*
X223Y4104D01*
X224Y4108D01*
X225Y4111D01*
X226Y4114D01*
X227Y4116D01*
X228Y4118D01*
X229Y4120D01*
X230Y4122D01*
X231Y4124D01*
X232Y4125D01*
X232Y4126D01*
X233Y4126D01*
X233Y4127D01*
X233Y4127D01*
X235Y4129D01*
X238Y4131D01*
X240Y4132D01*
X242Y4133D01*
X248Y4135D01*
X253Y4137D01*
X255Y4137D01*
X257Y4138D01*
X259Y4138D01*
X261Y4138D01*
X262Y4138D01*
X264D01*
X269Y4138D01*
X273Y4137D01*
X277Y4136D01*
X281Y4135D01*
X285Y4133D01*
X289Y4131D01*
X292Y4128D01*
X295Y4126D01*
X297Y4124D01*
X299Y4122D01*
X301Y4120D01*
X303Y4118D01*
X304Y4117D01*
X305Y4116D01*
X306Y4115D01*
X306Y4115D01*
X308Y4119D01*
X310Y4122D01*
X312Y4125D01*
X314Y4127D01*
X316Y4129D01*
X318Y4131D01*
X319Y4132D01*
X319Y4132D01*
X320D01*
X323Y4134D01*
X328Y4136D01*
X332Y4137D01*
X335Y4137D01*
X339Y4138D01*
X340Y4138D01*
X342Y4138D01*
X344D01*
X349Y4138D01*
D02*
G37*
G36*
X3727Y4138D02*
X3733Y4137D01*
X3738Y4137D01*
X3741Y4136D01*
X3743Y4136D01*
X3745Y4135D01*
X3747Y4135D01*
X3748Y4135D01*
X3749Y4134D01*
X3750Y4134D01*
X3751Y4134D01*
X3751Y4133D01*
X3752D01*
X3756Y4131D01*
X3760Y4129D01*
X3764Y4127D01*
X3767Y4125D01*
X3769Y4123D01*
X3770Y4121D01*
X3771Y4120D01*
X3772Y4120D01*
Y4120D01*
X3774Y4116D01*
X3776Y4112D01*
X3778Y4108D01*
X3779Y4105D01*
X3780Y4102D01*
X3781Y4100D01*
X3781Y4099D01*
X3781Y4098D01*
X3782Y4097D01*
X3782Y4097D01*
Y4097D01*
X3759Y4094D01*
X3758Y4096D01*
X3758Y4099D01*
X3756Y4103D01*
X3754Y4106D01*
X3752Y4109D01*
X3751Y4111D01*
X3749Y4113D01*
X3748Y4113D01*
X3748Y4114D01*
X3745Y4115D01*
X3741Y4117D01*
X3737Y4118D01*
X3733Y4119D01*
X3730Y4119D01*
X3728D01*
X3727Y4119D01*
X3724D01*
X3718Y4119D01*
X3713Y4118D01*
X3708Y4117D01*
X3705Y4115D01*
X3702Y4114D01*
X3701Y4113D01*
X3700Y4113D01*
X3699Y4112D01*
X3699Y4112D01*
X3698Y4111D01*
X3696Y4109D01*
X3694Y4106D01*
X3693Y4103D01*
X3692Y4099D01*
X3692Y4096D01*
X3692Y4094D01*
Y4093D01*
Y4092D01*
Y4092D01*
Y4092D01*
Y4091D01*
Y4090D01*
Y4088D01*
X3692Y4087D01*
Y4087D01*
Y4086D01*
Y4086D01*
X3694Y4085D01*
X3697Y4084D01*
X3701Y4083D01*
X3704Y4083D01*
X3710Y4081D01*
X3717Y4080D01*
X3720Y4080D01*
X3723Y4079D01*
X3726Y4079D01*
X3728Y4078D01*
X3730Y4078D01*
X3731Y4078D01*
X3732Y4078D01*
X3733D01*
X3738Y4077D01*
X3742Y4077D01*
X3745Y4076D01*
X3748Y4076D01*
X3750Y4075D01*
X3752Y4075D01*
X3753Y4074D01*
X3753D01*
X3756Y4073D01*
X3760Y4072D01*
X3762Y4071D01*
X3765Y4070D01*
X3767Y4069D01*
X3768Y4068D01*
X3769Y4067D01*
X3770Y4067D01*
X3772Y4065D01*
X3774Y4063D01*
X3776Y4061D01*
X3778Y4059D01*
X3780Y4057D01*
X3781Y4055D01*
X3781Y4054D01*
X3781Y4054D01*
X3783Y4051D01*
X3784Y4047D01*
X3785Y4044D01*
X3785Y4042D01*
X3786Y4039D01*
X3786Y4037D01*
Y4036D01*
Y4036D01*
Y4036D01*
X3786Y4033D01*
X3785Y4029D01*
X3785Y4027D01*
X3784Y4024D01*
X3782Y4019D01*
X3780Y4015D01*
X3779Y4014D01*
X3778Y4012D01*
X3777Y4011D01*
X3776Y4010D01*
X3775Y4009D01*
X3774Y4008D01*
X3774Y4008D01*
X3774Y4008D01*
X3771Y4006D01*
X3769Y4004D01*
X3766Y4003D01*
X3764Y4001D01*
X3758Y4000D01*
X3752Y3998D01*
X3750Y3998D01*
X3747Y3998D01*
X3745Y3997D01*
X3743Y3997D01*
X3742Y3997D01*
X3740D01*
X3735Y3997D01*
X3730Y3998D01*
X3726Y3998D01*
X3722Y3999D01*
X3719Y4000D01*
X3717Y4000D01*
X3716Y4001D01*
X3716Y4001D01*
X3715Y4001D01*
X3715Y4001D01*
X3714D01*
X3710Y4003D01*
X3706Y4006D01*
X3702Y4008D01*
X3698Y4011D01*
X3694Y4013D01*
X3693Y4014D01*
X3692Y4015D01*
X3691Y4016D01*
X3690Y4017D01*
X3690Y4017D01*
X3690Y4017D01*
X3689Y4013D01*
X3689Y4010D01*
X3688Y4007D01*
X3687Y4005D01*
X3687Y4003D01*
X3686Y4001D01*
X3686Y4000D01*
X3685Y4000D01*
X3662D01*
X3663Y4003D01*
X3664Y4006D01*
X3665Y4008D01*
X3666Y4011D01*
X3667Y4013D01*
X3667Y4015D01*
X3667Y4016D01*
Y4016D01*
X3667Y4018D01*
X3668Y4020D01*
X3668Y4023D01*
X3668Y4026D01*
X3668Y4029D01*
Y4033D01*
X3668Y4040D01*
Y4043D01*
X3669Y4046D01*
Y4049D01*
Y4052D01*
Y4054D01*
Y4055D01*
Y4056D01*
Y4057D01*
Y4087D01*
Y4090D01*
Y4092D01*
X3669Y4095D01*
Y4097D01*
X3669Y4100D01*
X3669Y4103D01*
X3669Y4105D01*
X3670Y4107D01*
X3670Y4108D01*
Y4108D01*
X3671Y4112D01*
X3672Y4115D01*
X3673Y4117D01*
X3674Y4119D01*
X3675Y4121D01*
X3676Y4123D01*
X3677Y4123D01*
X3677Y4124D01*
X3679Y4126D01*
X3682Y4128D01*
X3684Y4130D01*
X3687Y4131D01*
X3689Y4132D01*
X3691Y4133D01*
X3692Y4134D01*
X3693Y4134D01*
X3693Y4134D01*
X3693D01*
X3697Y4135D01*
X3702Y4136D01*
X3707Y4137D01*
X3711Y4138D01*
X3715Y4138D01*
X3717D01*
X3718Y4138D01*
X3721D01*
X3727Y4138D01*
D02*
G37*
G36*
X2337D02*
X2343Y4137D01*
X2349Y4137D01*
X2351Y4136D01*
X2353Y4136D01*
X2355Y4135D01*
X2357Y4135D01*
X2358Y4135D01*
X2359Y4134D01*
X2360Y4134D01*
X2361Y4134D01*
X2362Y4133D01*
X2362D01*
X2367Y4131D01*
X2371Y4129D01*
X2374Y4127D01*
X2377Y4125D01*
X2379Y4123D01*
X2381Y4121D01*
X2382Y4120D01*
X2382Y4120D01*
Y4120D01*
X2385Y4116D01*
X2387Y4112D01*
X2388Y4108D01*
X2390Y4105D01*
X2391Y4102D01*
X2391Y4100D01*
X2391Y4099D01*
X2392Y4098D01*
X2392Y4097D01*
X2392Y4097D01*
Y4097D01*
X2370Y4094D01*
X2369Y4096D01*
X2368Y4099D01*
X2366Y4103D01*
X2364Y4106D01*
X2362Y4109D01*
X2361Y4111D01*
X2359Y4113D01*
X2359Y4113D01*
X2358Y4114D01*
X2355Y4115D01*
X2351Y4117D01*
X2347Y4118D01*
X2343Y4119D01*
X2340Y4119D01*
X2338D01*
X2337Y4119D01*
X2334D01*
X2328Y4119D01*
X2323Y4118D01*
X2319Y4117D01*
X2315Y4115D01*
X2312Y4114D01*
X2311Y4113D01*
X2310Y4113D01*
X2309Y4112D01*
X2309Y4112D01*
X2309Y4111D01*
X2306Y4109D01*
X2305Y4106D01*
X2304Y4103D01*
X2303Y4099D01*
X2302Y4096D01*
X2302Y4094D01*
Y4093D01*
Y4092D01*
Y4092D01*
Y4092D01*
Y4091D01*
Y4090D01*
Y4088D01*
X2302Y4087D01*
Y4087D01*
Y4086D01*
Y4086D01*
X2305Y4085D01*
X2308Y4084D01*
X2311Y4083D01*
X2314Y4083D01*
X2321Y4081D01*
X2327Y4080D01*
X2331Y4080D01*
X2333Y4079D01*
X2336Y4079D01*
X2338Y4078D01*
X2340Y4078D01*
X2342Y4078D01*
X2342Y4078D01*
X2343D01*
X2348Y4077D01*
X2352Y4077D01*
X2355Y4076D01*
X2358Y4076D01*
X2360Y4075D01*
X2362Y4075D01*
X2363Y4074D01*
X2363D01*
X2367Y4073D01*
X2370Y4072D01*
X2373Y4071D01*
X2375Y4070D01*
X2377Y4069D01*
X2378Y4068D01*
X2379Y4067D01*
X2380Y4067D01*
X2382Y4065D01*
X2385Y4063D01*
X2387Y4061D01*
X2388Y4059D01*
X2390Y4057D01*
X2391Y4055D01*
X2391Y4054D01*
X2392Y4054D01*
X2393Y4051D01*
X2394Y4047D01*
X2395Y4044D01*
X2395Y4042D01*
X2396Y4039D01*
X2396Y4037D01*
Y4036D01*
Y4036D01*
Y4036D01*
X2396Y4033D01*
X2395Y4029D01*
X2395Y4027D01*
X2394Y4024D01*
X2392Y4019D01*
X2390Y4015D01*
X2389Y4014D01*
X2388Y4012D01*
X2387Y4011D01*
X2386Y4010D01*
X2385Y4009D01*
X2385Y4008D01*
X2384Y4008D01*
X2384Y4008D01*
X2382Y4006D01*
X2379Y4004D01*
X2376Y4003D01*
X2374Y4001D01*
X2368Y4000D01*
X2362Y3998D01*
X2360Y3998D01*
X2358Y3998D01*
X2355Y3997D01*
X2354Y3997D01*
X2352Y3997D01*
X2350D01*
X2345Y3997D01*
X2340Y3998D01*
X2336Y3998D01*
X2332Y3999D01*
X2329Y4000D01*
X2328Y4000D01*
X2327Y4001D01*
X2326Y4001D01*
X2325Y4001D01*
X2325Y4001D01*
X2325D01*
X2320Y4003D01*
X2316Y4006D01*
X2312Y4008D01*
X2308Y4011D01*
X2305Y4013D01*
X2304Y4014D01*
X2302Y4015D01*
X2301Y4016D01*
X2301Y4017D01*
X2300Y4017D01*
X2300Y4017D01*
X2300Y4013D01*
X2299Y4010D01*
X2298Y4007D01*
X2297Y4005D01*
X2297Y4003D01*
X2296Y4001D01*
X2296Y4000D01*
X2296Y4000D01*
X2272D01*
X2273Y4003D01*
X2274Y4006D01*
X2275Y4008D01*
X2276Y4011D01*
X2277Y4013D01*
X2277Y4015D01*
X2277Y4016D01*
Y4016D01*
X2278Y4018D01*
X2278Y4020D01*
X2278Y4023D01*
X2278Y4026D01*
X2278Y4029D01*
Y4033D01*
X2279Y4040D01*
Y4043D01*
X2279Y4046D01*
Y4049D01*
Y4052D01*
Y4054D01*
Y4055D01*
Y4056D01*
Y4057D01*
Y4087D01*
Y4090D01*
Y4092D01*
X2279Y4095D01*
Y4097D01*
X2279Y4100D01*
X2279Y4103D01*
X2280Y4105D01*
X2280Y4107D01*
X2280Y4108D01*
Y4108D01*
X2281Y4112D01*
X2282Y4115D01*
X2283Y4117D01*
X2285Y4119D01*
X2286Y4121D01*
X2287Y4123D01*
X2287Y4123D01*
X2287Y4124D01*
X2290Y4126D01*
X2292Y4128D01*
X2295Y4130D01*
X2297Y4131D01*
X2300Y4132D01*
X2301Y4133D01*
X2302Y4134D01*
X2303Y4134D01*
X2303Y4134D01*
X2303D01*
X2308Y4135D01*
X2312Y4136D01*
X2317Y4137D01*
X2321Y4138D01*
X2325Y4138D01*
X2327D01*
X2328Y4138D01*
X2331D01*
X2337Y4138D01*
D02*
G37*
G36*
X1585D02*
X1591Y4137D01*
X1596Y4137D01*
X1599Y4136D01*
X1601Y4136D01*
X1603Y4135D01*
X1604Y4135D01*
X1606Y4135D01*
X1607Y4134D01*
X1608Y4134D01*
X1609Y4134D01*
X1609Y4133D01*
X1609D01*
X1614Y4131D01*
X1618Y4129D01*
X1622Y4127D01*
X1624Y4125D01*
X1627Y4123D01*
X1628Y4121D01*
X1629Y4120D01*
X1630Y4120D01*
Y4120D01*
X1632Y4116D01*
X1634Y4112D01*
X1636Y4108D01*
X1637Y4105D01*
X1638Y4102D01*
X1639Y4100D01*
X1639Y4099D01*
X1639Y4098D01*
X1639Y4097D01*
X1640Y4097D01*
Y4097D01*
X1617Y4094D01*
X1616Y4096D01*
X1615Y4099D01*
X1614Y4103D01*
X1612Y4106D01*
X1610Y4109D01*
X1608Y4111D01*
X1607Y4113D01*
X1606Y4113D01*
X1606Y4114D01*
X1603Y4115D01*
X1599Y4117D01*
X1595Y4118D01*
X1591Y4119D01*
X1587Y4119D01*
X1586D01*
X1585Y4119D01*
X1582D01*
X1576Y4119D01*
X1571Y4118D01*
X1566Y4117D01*
X1563Y4115D01*
X1560Y4114D01*
X1559Y4113D01*
X1558Y4113D01*
X1557Y4112D01*
X1557Y4112D01*
X1556Y4111D01*
X1554Y4109D01*
X1552Y4106D01*
X1551Y4103D01*
X1550Y4099D01*
X1550Y4096D01*
X1549Y4094D01*
Y4093D01*
Y4092D01*
Y4092D01*
Y4092D01*
Y4091D01*
Y4090D01*
Y4088D01*
X1550Y4087D01*
Y4087D01*
Y4086D01*
Y4086D01*
X1552Y4085D01*
X1555Y4084D01*
X1558Y4083D01*
X1562Y4083D01*
X1568Y4081D01*
X1575Y4080D01*
X1578Y4080D01*
X1581Y4079D01*
X1584Y4079D01*
X1586Y4078D01*
X1588Y4078D01*
X1589Y4078D01*
X1590Y4078D01*
X1590D01*
X1595Y4077D01*
X1599Y4077D01*
X1603Y4076D01*
X1606Y4076D01*
X1608Y4075D01*
X1610Y4075D01*
X1610Y4074D01*
X1611D01*
X1614Y4073D01*
X1617Y4072D01*
X1620Y4071D01*
X1623Y4070D01*
X1625Y4069D01*
X1626Y4068D01*
X1627Y4067D01*
X1627Y4067D01*
X1630Y4065D01*
X1632Y4063D01*
X1634Y4061D01*
X1636Y4059D01*
X1637Y4057D01*
X1638Y4055D01*
X1639Y4054D01*
X1639Y4054D01*
X1641Y4051D01*
X1642Y4047D01*
X1643Y4044D01*
X1643Y4042D01*
X1643Y4039D01*
X1644Y4037D01*
Y4036D01*
Y4036D01*
Y4036D01*
X1643Y4033D01*
X1643Y4029D01*
X1643Y4027D01*
X1642Y4024D01*
X1640Y4019D01*
X1637Y4015D01*
X1636Y4014D01*
X1635Y4012D01*
X1634Y4011D01*
X1633Y4010D01*
X1633Y4009D01*
X1632Y4008D01*
X1632Y4008D01*
X1632Y4008D01*
X1629Y4006D01*
X1627Y4004D01*
X1624Y4003D01*
X1621Y4001D01*
X1616Y4000D01*
X1610Y3998D01*
X1608Y3998D01*
X1605Y3998D01*
X1603Y3997D01*
X1601Y3997D01*
X1600Y3997D01*
X1598D01*
X1592Y3997D01*
X1588Y3998D01*
X1584Y3998D01*
X1580Y3999D01*
X1577Y4000D01*
X1575Y4000D01*
X1574Y4001D01*
X1573Y4001D01*
X1573Y4001D01*
X1572Y4001D01*
X1572D01*
X1568Y4003D01*
X1563Y4006D01*
X1559Y4008D01*
X1555Y4011D01*
X1552Y4013D01*
X1551Y4014D01*
X1550Y4015D01*
X1549Y4016D01*
X1548Y4017D01*
X1548Y4017D01*
X1548Y4017D01*
X1547Y4013D01*
X1547Y4010D01*
X1546Y4007D01*
X1545Y4005D01*
X1544Y4003D01*
X1544Y4001D01*
X1543Y4000D01*
X1543Y4000D01*
X1519D01*
X1521Y4003D01*
X1522Y4006D01*
X1523Y4008D01*
X1524Y4011D01*
X1524Y4013D01*
X1525Y4015D01*
X1525Y4016D01*
Y4016D01*
X1525Y4018D01*
X1525Y4020D01*
X1526Y4023D01*
X1526Y4026D01*
X1526Y4029D01*
Y4033D01*
X1526Y4040D01*
Y4043D01*
X1526Y4046D01*
Y4049D01*
Y4052D01*
Y4054D01*
Y4055D01*
Y4056D01*
Y4057D01*
Y4087D01*
Y4090D01*
Y4092D01*
X1527Y4095D01*
Y4097D01*
X1527Y4100D01*
X1527Y4103D01*
X1527Y4105D01*
X1527Y4107D01*
X1528Y4108D01*
Y4108D01*
X1528Y4112D01*
X1530Y4115D01*
X1531Y4117D01*
X1532Y4119D01*
X1533Y4121D01*
X1534Y4123D01*
X1535Y4123D01*
X1535Y4124D01*
X1537Y4126D01*
X1540Y4128D01*
X1542Y4130D01*
X1545Y4131D01*
X1547Y4132D01*
X1549Y4133D01*
X1550Y4134D01*
X1550Y4134D01*
X1551Y4134D01*
X1551D01*
X1555Y4135D01*
X1560Y4136D01*
X1564Y4137D01*
X1569Y4138D01*
X1573Y4138D01*
X1574D01*
X1576Y4138D01*
X1579D01*
X1585Y4138D01*
D02*
G37*
G36*
X499Y4138D02*
X505Y4137D01*
X510Y4137D01*
X513Y4136D01*
X515Y4136D01*
X517Y4135D01*
X519Y4135D01*
X520Y4135D01*
X521Y4134D01*
X522Y4134D01*
X523Y4134D01*
X523Y4133D01*
X524D01*
X528Y4131D01*
X532Y4129D01*
X536Y4127D01*
X539Y4125D01*
X541Y4123D01*
X542Y4121D01*
X543Y4120D01*
X544Y4120D01*
Y4120D01*
X546Y4116D01*
X548Y4112D01*
X550Y4108D01*
X551Y4105D01*
X552Y4102D01*
X553Y4100D01*
X553Y4099D01*
X553Y4098D01*
X554Y4097D01*
X554Y4097D01*
Y4097D01*
X531Y4094D01*
X531Y4096D01*
X530Y4099D01*
X528Y4103D01*
X526Y4106D01*
X524Y4109D01*
X523Y4111D01*
X521Y4113D01*
X520Y4113D01*
X520Y4114D01*
X517Y4115D01*
X513Y4117D01*
X509Y4118D01*
X505Y4119D01*
X502Y4119D01*
X500D01*
X499Y4119D01*
X496D01*
X490Y4119D01*
X485Y4118D01*
X480Y4117D01*
X477Y4115D01*
X474Y4114D01*
X473Y4113D01*
X472Y4113D01*
X471Y4112D01*
X471Y4112D01*
X470Y4111D01*
X468Y4109D01*
X467Y4106D01*
X465Y4103D01*
X464Y4099D01*
X464Y4096D01*
X464Y4094D01*
Y4093D01*
Y4092D01*
Y4092D01*
Y4092D01*
Y4091D01*
Y4090D01*
Y4088D01*
X464Y4087D01*
Y4087D01*
Y4086D01*
Y4086D01*
X467Y4085D01*
X469Y4084D01*
X473Y4083D01*
X476Y4083D01*
X482Y4081D01*
X489Y4080D01*
X492Y4080D01*
X495Y4079D01*
X498Y4079D01*
X500Y4078D01*
X502Y4078D01*
X503Y4078D01*
X504Y4078D01*
X505D01*
X510Y4077D01*
X514Y4077D01*
X517Y4076D01*
X520Y4076D01*
X522Y4075D01*
X524Y4075D01*
X525Y4074D01*
X525D01*
X528Y4073D01*
X532Y4072D01*
X534Y4071D01*
X537Y4070D01*
X539Y4069D01*
X540Y4068D01*
X541Y4067D01*
X542Y4067D01*
X544Y4065D01*
X547Y4063D01*
X549Y4061D01*
X550Y4059D01*
X552Y4057D01*
X553Y4055D01*
X553Y4054D01*
X553Y4054D01*
X555Y4051D01*
X556Y4047D01*
X557Y4044D01*
X557Y4042D01*
X558Y4039D01*
X558Y4037D01*
Y4036D01*
Y4036D01*
Y4036D01*
X558Y4033D01*
X557Y4029D01*
X557Y4027D01*
X556Y4024D01*
X554Y4019D01*
X552Y4015D01*
X551Y4014D01*
X550Y4012D01*
X549Y4011D01*
X548Y4010D01*
X547Y4009D01*
X547Y4008D01*
X546Y4008D01*
X546Y4008D01*
X543Y4006D01*
X541Y4004D01*
X538Y4003D01*
X536Y4001D01*
X530Y4000D01*
X524Y3998D01*
X522Y3998D01*
X519Y3998D01*
X517Y3997D01*
X515Y3997D01*
X514Y3997D01*
X512D01*
X507Y3997D01*
X502Y3998D01*
X498Y3998D01*
X494Y3999D01*
X491Y4000D01*
X490Y4000D01*
X489Y4001D01*
X488Y4001D01*
X487Y4001D01*
X487Y4001D01*
X487D01*
X482Y4003D01*
X478Y4006D01*
X474Y4008D01*
X470Y4011D01*
X467Y4013D01*
X465Y4014D01*
X464Y4015D01*
X463Y4016D01*
X462Y4017D01*
X462Y4017D01*
X462Y4017D01*
X461Y4013D01*
X461Y4010D01*
X460Y4007D01*
X459Y4005D01*
X459Y4003D01*
X458Y4001D01*
X458Y4000D01*
X457Y4000D01*
X434D01*
X435Y4003D01*
X436Y4006D01*
X437Y4008D01*
X438Y4011D01*
X439Y4013D01*
X439Y4015D01*
X439Y4016D01*
Y4016D01*
X439Y4018D01*
X440Y4020D01*
X440Y4023D01*
X440Y4026D01*
X440Y4029D01*
Y4033D01*
X440Y4040D01*
Y4043D01*
X441Y4046D01*
Y4049D01*
Y4052D01*
Y4054D01*
Y4055D01*
Y4056D01*
Y4057D01*
Y4087D01*
Y4090D01*
Y4092D01*
X441Y4095D01*
Y4097D01*
X441Y4100D01*
X441Y4103D01*
X441Y4105D01*
X442Y4107D01*
X442Y4108D01*
Y4108D01*
X443Y4112D01*
X444Y4115D01*
X445Y4117D01*
X446Y4119D01*
X447Y4121D01*
X448Y4123D01*
X449Y4123D01*
X449Y4124D01*
X451Y4126D01*
X454Y4128D01*
X456Y4130D01*
X459Y4131D01*
X461Y4132D01*
X463Y4133D01*
X464Y4134D01*
X465Y4134D01*
X465Y4134D01*
X465D01*
X469Y4135D01*
X474Y4136D01*
X479Y4137D01*
X483Y4138D01*
X487Y4138D01*
X489D01*
X490Y4138D01*
X493D01*
X499Y4138D01*
D02*
G37*
G36*
X-572D02*
X-566Y4137D01*
X-561Y4137D01*
X-558Y4136D01*
X-556Y4136D01*
X-554Y4135D01*
X-552Y4135D01*
X-551Y4135D01*
X-550Y4134D01*
X-549Y4134D01*
X-548Y4134D01*
X-548Y4133D01*
X-547D01*
X-543Y4131D01*
X-539Y4129D01*
X-535Y4127D01*
X-532Y4125D01*
X-530Y4123D01*
X-529Y4121D01*
X-528Y4120D01*
X-527Y4120D01*
Y4120D01*
X-525Y4116D01*
X-523Y4112D01*
X-521Y4108D01*
X-520Y4105D01*
X-519Y4102D01*
X-518Y4100D01*
X-518Y4099D01*
X-518Y4098D01*
X-517Y4097D01*
X-517Y4097D01*
Y4097D01*
X-540Y4094D01*
X-540Y4096D01*
X-541Y4099D01*
X-543Y4103D01*
X-545Y4106D01*
X-547Y4109D01*
X-548Y4111D01*
X-550Y4113D01*
X-551Y4113D01*
X-551Y4114D01*
X-554Y4115D01*
X-558Y4117D01*
X-562Y4118D01*
X-566Y4119D01*
X-569Y4119D01*
X-571D01*
X-572Y4119D01*
X-575D01*
X-581Y4119D01*
X-586Y4118D01*
X-591Y4117D01*
X-594Y4115D01*
X-597Y4114D01*
X-598Y4113D01*
X-599Y4113D01*
X-600Y4112D01*
X-600Y4112D01*
X-601Y4111D01*
X-603Y4109D01*
X-604Y4106D01*
X-606Y4103D01*
X-607Y4099D01*
X-607Y4096D01*
X-607Y4094D01*
Y4093D01*
Y4092D01*
Y4092D01*
Y4092D01*
Y4091D01*
Y4090D01*
Y4088D01*
X-607Y4087D01*
Y4087D01*
Y4086D01*
Y4086D01*
X-604Y4085D01*
X-602Y4084D01*
X-598Y4083D01*
X-595Y4083D01*
X-589Y4081D01*
X-582Y4080D01*
X-579Y4080D01*
X-576Y4079D01*
X-573Y4079D01*
X-571Y4078D01*
X-569Y4078D01*
X-568Y4078D01*
X-567Y4078D01*
X-566D01*
X-561Y4077D01*
X-557Y4077D01*
X-554Y4076D01*
X-551Y4076D01*
X-549Y4075D01*
X-547Y4075D01*
X-546Y4074D01*
X-546D01*
X-543Y4073D01*
X-539Y4072D01*
X-537Y4071D01*
X-534Y4070D01*
X-532Y4069D01*
X-531Y4068D01*
X-530Y4067D01*
X-529Y4067D01*
X-527Y4065D01*
X-525Y4063D01*
X-522Y4061D01*
X-521Y4059D01*
X-519Y4057D01*
X-518Y4055D01*
X-518Y4054D01*
X-518Y4054D01*
X-516Y4051D01*
X-515Y4047D01*
X-514Y4044D01*
X-514Y4042D01*
X-513Y4039D01*
X-513Y4037D01*
Y4036D01*
Y4036D01*
Y4036D01*
X-513Y4033D01*
X-514Y4029D01*
X-514Y4027D01*
X-515Y4024D01*
X-517Y4019D01*
X-519Y4015D01*
X-520Y4014D01*
X-521Y4012D01*
X-522Y4011D01*
X-523Y4010D01*
X-524Y4009D01*
X-525Y4008D01*
X-525Y4008D01*
X-525Y4008D01*
X-528Y4006D01*
X-530Y4004D01*
X-533Y4003D01*
X-535Y4001D01*
X-541Y4000D01*
X-547Y3998D01*
X-549Y3998D01*
X-552Y3998D01*
X-554Y3997D01*
X-556Y3997D01*
X-557Y3997D01*
X-559D01*
X-564Y3997D01*
X-569Y3998D01*
X-573Y3998D01*
X-577Y3999D01*
X-580Y4000D01*
X-581Y4000D01*
X-582Y4001D01*
X-583Y4001D01*
X-584Y4001D01*
X-584Y4001D01*
X-584D01*
X-589Y4003D01*
X-593Y4006D01*
X-597Y4008D01*
X-601Y4011D01*
X-604Y4013D01*
X-606Y4014D01*
X-607Y4015D01*
X-608Y4016D01*
X-609Y4017D01*
X-609Y4017D01*
X-609Y4017D01*
X-610Y4013D01*
X-610Y4010D01*
X-611Y4007D01*
X-612Y4005D01*
X-612Y4003D01*
X-613Y4001D01*
X-613Y4000D01*
X-614Y4000D01*
X-637D01*
X-636Y4003D01*
X-635Y4006D01*
X-634Y4008D01*
X-633Y4011D01*
X-632Y4013D01*
X-632Y4015D01*
X-632Y4016D01*
Y4016D01*
X-632Y4018D01*
X-631Y4020D01*
X-631Y4023D01*
X-631Y4026D01*
X-631Y4029D01*
Y4033D01*
X-631Y4040D01*
Y4043D01*
X-630Y4046D01*
Y4049D01*
Y4052D01*
Y4054D01*
Y4055D01*
Y4056D01*
Y4057D01*
Y4087D01*
Y4090D01*
Y4092D01*
X-630Y4095D01*
Y4097D01*
X-630Y4100D01*
X-630Y4103D01*
X-630Y4105D01*
X-629Y4107D01*
X-629Y4108D01*
Y4108D01*
X-628Y4112D01*
X-627Y4115D01*
X-626Y4117D01*
X-625Y4119D01*
X-624Y4121D01*
X-623Y4123D01*
X-622Y4123D01*
X-622Y4124D01*
X-620Y4126D01*
X-617Y4128D01*
X-615Y4130D01*
X-612Y4131D01*
X-610Y4132D01*
X-608Y4133D01*
X-607Y4134D01*
X-606Y4134D01*
X-606Y4134D01*
X-606D01*
X-602Y4135D01*
X-597Y4136D01*
X-592Y4137D01*
X-588Y4138D01*
X-584Y4138D01*
X-582D01*
X-581Y4138D01*
X-578D01*
X-572Y4138D01*
D02*
G37*
G36*
X-306Y4000D02*
X-330D01*
Y4159D01*
X-384Y4000D01*
X-406D01*
X-460Y4156D01*
Y4000D01*
X-484D01*
Y4186D01*
X-451D01*
X-406Y4057D01*
X-405Y4053D01*
X-404Y4050D01*
X-402Y4047D01*
X-401Y4044D01*
X-401Y4041D01*
X-400Y4039D01*
X-399Y4036D01*
X-398Y4034D01*
X-398Y4033D01*
X-397Y4031D01*
X-397Y4030D01*
X-397Y4029D01*
X-396Y4028D01*
X-396Y4027D01*
X-396Y4027D01*
Y4027D01*
X-395Y4029D01*
X-395Y4031D01*
X-393Y4035D01*
X-392Y4040D01*
X-391Y4044D01*
X-389Y4048D01*
X-389Y4050D01*
X-388Y4051D01*
X-388Y4053D01*
X-387Y4054D01*
X-387Y4054D01*
Y4054D01*
X-343Y4186D01*
X-306D01*
Y4000D01*
D02*
G37*
G36*
X1847Y4000D02*
X1821D01*
X1782Y4142D01*
X1781Y4145D01*
X1780Y4149D01*
X1779Y4153D01*
X1778Y4156D01*
X1777Y4159D01*
X1777Y4161D01*
X1777Y4162D01*
X1776Y4163D01*
Y4163D01*
X1776Y4164D01*
Y4164D01*
X1776Y4163D01*
X1775Y4162D01*
X1775Y4160D01*
X1775Y4159D01*
X1774Y4155D01*
X1773Y4151D01*
X1772Y4148D01*
X1771Y4146D01*
X1771Y4145D01*
X1770Y4144D01*
X1770Y4143D01*
X1770Y4142D01*
Y4142D01*
X1731Y4000D01*
X1707D01*
X1656Y4186D01*
X1681D01*
X1710Y4066D01*
X1712Y4058D01*
X1714Y4051D01*
X1715Y4047D01*
X1715Y4044D01*
X1716Y4041D01*
X1717Y4038D01*
X1717Y4035D01*
X1718Y4033D01*
X1718Y4031D01*
X1719Y4029D01*
X1719Y4028D01*
X1719Y4027D01*
X1719Y4026D01*
Y4026D01*
X1721Y4038D01*
X1724Y4049D01*
X1725Y4055D01*
X1726Y4060D01*
X1727Y4066D01*
X1728Y4071D01*
X1730Y4075D01*
X1731Y4079D01*
X1732Y4083D01*
X1732Y4086D01*
X1733Y4088D01*
X1734Y4090D01*
X1734Y4092D01*
X1734Y4092D01*
X1761Y4186D01*
X1790D01*
X1826Y4060D01*
X1826Y4059D01*
X1827Y4058D01*
X1827Y4056D01*
X1828Y4053D01*
X1828Y4050D01*
X1829Y4047D01*
X1831Y4041D01*
X1831Y4039D01*
X1832Y4036D01*
X1833Y4033D01*
X1833Y4031D01*
X1834Y4029D01*
X1834Y4027D01*
X1834Y4026D01*
Y4026D01*
X1835Y4033D01*
X1837Y4040D01*
X1838Y4046D01*
X1839Y4049D01*
X1839Y4052D01*
X1840Y4055D01*
X1841Y4057D01*
X1841Y4059D01*
X1841Y4061D01*
X1842Y4062D01*
X1842Y4063D01*
X1842Y4064D01*
Y4064D01*
X1870Y4186D01*
X1896D01*
X1847Y4000D01*
D02*
G37*
G36*
X888Y4000D02*
X889Y3997D01*
X890Y3996D01*
X890Y3995D01*
X891Y3994D01*
X891Y3992D01*
X892Y3990D01*
X893Y3987D01*
X894Y3986D01*
X895Y3983D01*
X896Y3980D01*
X896Y3979D01*
X897Y3978D01*
X897Y3977D01*
X897Y3977D01*
X900Y3974D01*
X901Y3973D01*
X902Y3972D01*
X903Y3971D01*
X904Y3970D01*
X905Y3970D01*
X905Y3970D01*
X907Y3969D01*
X909Y3968D01*
X911Y3968D01*
X913Y3968D01*
X915Y3967D01*
X916Y3967D01*
X917D01*
X919Y3967D01*
X921Y3968D01*
X924Y3968D01*
X926Y3968D01*
X927Y3969D01*
X929Y3969D01*
X930Y3970D01*
X930D01*
X927Y3948D01*
X924Y3947D01*
X922Y3946D01*
X919Y3946D01*
X917Y3946D01*
X915Y3945D01*
X914Y3945D01*
X913D01*
X909Y3945D01*
X905Y3946D01*
X902Y3947D01*
X899Y3948D01*
X897Y3949D01*
X895Y3950D01*
X894Y3951D01*
X894Y3951D01*
X891Y3953D01*
X888Y3956D01*
X886Y3958D01*
X884Y3961D01*
X882Y3963D01*
X881Y3965D01*
X881Y3966D01*
X880Y3967D01*
X880Y3967D01*
Y3967D01*
X879Y3969D01*
X878Y3971D01*
X877Y3973D01*
X876Y3976D01*
X874Y3981D01*
X872Y3986D01*
X871Y3988D01*
X870Y3990D01*
X869Y3992D01*
X868Y3994D01*
X868Y3996D01*
X867Y3997D01*
X867Y3998D01*
Y3998D01*
X816Y4135D01*
X839D01*
X868Y4056D01*
X870Y4051D01*
X872Y4045D01*
X873Y4040D01*
X875Y4035D01*
X875Y4033D01*
X876Y4031D01*
X876Y4029D01*
X876Y4028D01*
X877Y4027D01*
X877Y4026D01*
X877Y4026D01*
Y4025D01*
X879Y4032D01*
X880Y4037D01*
X882Y4043D01*
X884Y4047D01*
X884Y4049D01*
X885Y4051D01*
X886Y4053D01*
X886Y4054D01*
X886Y4055D01*
X887Y4056D01*
X887Y4057D01*
Y4057D01*
X915Y4135D01*
X939D01*
X888Y4000D01*
D02*
G37*
G36*
X1487Y4168D02*
Y4135D01*
X1504D01*
Y4117D01*
X1487D01*
Y4039D01*
Y4036D01*
X1487Y4032D01*
Y4029D01*
X1487Y4026D01*
X1487Y4024D01*
X1486Y4022D01*
X1486Y4020D01*
X1486Y4018D01*
X1486Y4017D01*
X1485Y4016D01*
X1485Y4015D01*
X1485Y4014D01*
X1485Y4013D01*
X1485Y4012D01*
X1483Y4010D01*
X1482Y4008D01*
X1480Y4006D01*
X1479Y4005D01*
X1477Y4004D01*
X1476Y4003D01*
X1475Y4002D01*
X1475Y4002D01*
X1472Y4001D01*
X1469Y4000D01*
X1466Y3999D01*
X1463Y3999D01*
X1460Y3998D01*
X1458Y3998D01*
X1455D01*
X1449Y3999D01*
X1447Y3999D01*
X1444Y3999D01*
X1442Y4000D01*
X1440Y4000D01*
X1439Y4000D01*
X1438D01*
X1441Y4020D01*
X1443Y4020D01*
X1445Y4020D01*
X1447Y4020D01*
X1449D01*
X1450Y4020D01*
X1453D01*
X1455Y4020D01*
X1456Y4020D01*
X1457Y4020D01*
X1458Y4021D01*
X1459Y4021D01*
X1459Y4021D01*
X1459D01*
X1461Y4023D01*
X1462Y4024D01*
X1463Y4025D01*
X1463Y4025D01*
Y4026D01*
X1464Y4027D01*
X1464Y4029D01*
X1464Y4031D01*
Y4033D01*
X1464Y4035D01*
Y4037D01*
Y4038D01*
Y4038D01*
Y4038D01*
Y4117D01*
X1441D01*
Y4135D01*
X1464D01*
Y4182D01*
X1487Y4168D01*
D02*
G37*
G36*
X3453Y4138D02*
X3458Y4137D01*
X3462Y4136D01*
X3467Y4135D01*
X3471Y4134D01*
X3474Y4132D01*
X3478Y4130D01*
X3481Y4129D01*
X3484Y4127D01*
X3486Y4125D01*
X3488Y4124D01*
X3490Y4122D01*
X3491Y4121D01*
X3492Y4120D01*
X3493Y4119D01*
X3493Y4119D01*
X3496Y4116D01*
X3499Y4112D01*
X3501Y4107D01*
X3503Y4103D01*
X3505Y4099D01*
X3506Y4094D01*
X3508Y4090D01*
X3508Y4086D01*
X3509Y4082D01*
X3510Y4078D01*
X3510Y4075D01*
X3510Y4072D01*
Y4069D01*
X3511Y4068D01*
Y4067D01*
Y4066D01*
X3510Y4060D01*
X3510Y4055D01*
X3509Y4049D01*
X3508Y4044D01*
X3507Y4040D01*
X3505Y4036D01*
X3504Y4032D01*
X3502Y4028D01*
X3501Y4025D01*
X3499Y4023D01*
X3498Y4020D01*
X3496Y4019D01*
X3495Y4017D01*
X3494Y4016D01*
X3494Y4015D01*
X3493Y4015D01*
X3490Y4012D01*
X3486Y4009D01*
X3483Y4007D01*
X3479Y4005D01*
X3475Y4003D01*
X3471Y4001D01*
X3467Y4000D01*
X3463Y3999D01*
X3460Y3999D01*
X3457Y3998D01*
X3454Y3998D01*
X3451Y3997D01*
X3449D01*
X3448Y3997D01*
X3446D01*
X3442Y3997D01*
X3438Y3997D01*
X3434Y3998D01*
X3430Y3999D01*
X3427Y4000D01*
X3424Y4001D01*
X3421Y4002D01*
X3418Y4003D01*
X3416Y4004D01*
X3414Y4005D01*
X3412Y4006D01*
X3410Y4006D01*
X3409Y4007D01*
X3408Y4008D01*
X3408Y4008D01*
X3408Y4008D01*
X3405Y4011D01*
X3403Y4013D01*
X3400Y4016D01*
X3398Y4018D01*
X3395Y4024D01*
X3392Y4029D01*
X3391Y4031D01*
X3390Y4033D01*
X3389Y4035D01*
X3388Y4037D01*
X3388Y4039D01*
X3387Y4040D01*
X3387Y4040D01*
Y4041D01*
X3411Y4044D01*
X3413Y4039D01*
X3415Y4034D01*
X3418Y4030D01*
X3420Y4027D01*
X3422Y4025D01*
X3424Y4023D01*
X3425Y4023D01*
X3425Y4022D01*
X3425D01*
X3428Y4020D01*
X3432Y4019D01*
X3436Y4017D01*
X3439Y4017D01*
X3442Y4016D01*
X3444Y4016D01*
X3445Y4016D01*
X3446D01*
X3449Y4016D01*
X3452Y4016D01*
X3455Y4017D01*
X3458Y4018D01*
X3463Y4019D01*
X3467Y4022D01*
X3469Y4023D01*
X3470Y4024D01*
X3471Y4025D01*
X3473Y4026D01*
X3473Y4026D01*
X3474Y4027D01*
X3474Y4027D01*
X3475Y4027D01*
X3477Y4030D01*
X3479Y4032D01*
X3480Y4035D01*
X3481Y4038D01*
X3484Y4044D01*
X3485Y4049D01*
X3486Y4052D01*
X3486Y4054D01*
X3487Y4056D01*
X3487Y4058D01*
X3487Y4060D01*
X3487Y4061D01*
Y4062D01*
Y4062D01*
X3386D01*
X3386Y4064D01*
Y4066D01*
Y4067D01*
Y4068D01*
X3386Y4074D01*
X3387Y4080D01*
X3388Y4085D01*
X3389Y4090D01*
X3390Y4095D01*
X3392Y4099D01*
X3393Y4103D01*
X3395Y4106D01*
X3396Y4109D01*
X3398Y4112D01*
X3399Y4114D01*
X3401Y4116D01*
X3402Y4118D01*
X3403Y4119D01*
X3403Y4119D01*
X3403Y4120D01*
X3407Y4123D01*
X3410Y4126D01*
X3414Y4128D01*
X3418Y4130D01*
X3421Y4132D01*
X3425Y4134D01*
X3428Y4135D01*
X3432Y4136D01*
X3435Y4137D01*
X3438Y4137D01*
X3441Y4138D01*
X3443Y4138D01*
X3445D01*
X3446Y4138D01*
X3448D01*
X3453Y4138D01*
D02*
G37*
G36*
X2109Y4138D02*
X2115Y4137D01*
X2120Y4136D01*
X2123Y4135D01*
X2125Y4134D01*
X2127Y4133D01*
X2129Y4133D01*
X2130Y4132D01*
X2132Y4131D01*
X2133Y4131D01*
X2134Y4130D01*
X2134Y4130D01*
X2134D01*
X2140Y4126D01*
X2144Y4123D01*
X2148Y4118D01*
X2151Y4115D01*
X2153Y4111D01*
X2154Y4109D01*
X2155Y4108D01*
X2156Y4107D01*
X2156Y4106D01*
X2156Y4105D01*
Y4105D01*
X2159Y4099D01*
X2160Y4092D01*
X2162Y4086D01*
X2163Y4080D01*
X2163Y4077D01*
X2163Y4075D01*
X2163Y4073D01*
Y4071D01*
X2164Y4069D01*
Y4068D01*
Y4067D01*
Y4067D01*
X2163Y4061D01*
X2163Y4055D01*
X2162Y4049D01*
X2161Y4044D01*
X2160Y4040D01*
X2158Y4036D01*
X2157Y4032D01*
X2155Y4028D01*
X2154Y4025D01*
X2152Y4022D01*
X2151Y4020D01*
X2149Y4018D01*
X2148Y4017D01*
X2148Y4016D01*
X2147Y4015D01*
X2147Y4015D01*
X2144Y4012D01*
X2140Y4009D01*
X2136Y4007D01*
X2133Y4005D01*
X2129Y4003D01*
X2125Y4001D01*
X2122Y4000D01*
X2118Y3999D01*
X2115Y3998D01*
X2112Y3998D01*
X2109Y3998D01*
X2107Y3997D01*
X2105D01*
X2104Y3997D01*
X2102D01*
X2098Y3997D01*
X2094Y3998D01*
X2091Y3998D01*
X2087Y3999D01*
X2084Y4000D01*
X2081Y4001D01*
X2078Y4002D01*
X2075Y4004D01*
X2073Y4005D01*
X2071Y4006D01*
X2069Y4007D01*
X2068Y4008D01*
X2067Y4009D01*
X2066Y4009D01*
X2065Y4010D01*
X2065Y4010D01*
X2063Y4013D01*
X2060Y4015D01*
X2058Y4018D01*
X2056Y4021D01*
X2054Y4024D01*
X2052Y4027D01*
X2050Y4033D01*
X2049Y4036D01*
X2048Y4038D01*
X2048Y4041D01*
X2047Y4043D01*
X2047Y4044D01*
X2046Y4045D01*
X2046Y4046D01*
Y4046D01*
X2069Y4049D01*
X2069Y4046D01*
X2070Y4043D01*
X2071Y4041D01*
X2071Y4038D01*
X2072Y4036D01*
X2073Y4034D01*
X2074Y4032D01*
X2075Y4030D01*
X2076Y4029D01*
X2077Y4027D01*
X2079Y4025D01*
X2080Y4024D01*
X2080Y4024D01*
X2080Y4024D01*
X2084Y4021D01*
X2087Y4019D01*
X2091Y4018D01*
X2095Y4017D01*
X2098Y4016D01*
X2099Y4016D01*
X2100D01*
X2101Y4016D01*
X2103D01*
X2106Y4016D01*
X2109Y4016D01*
X2111Y4017D01*
X2114Y4018D01*
X2118Y4020D01*
X2123Y4022D01*
X2124Y4023D01*
X2126Y4024D01*
X2127Y4025D01*
X2128Y4026D01*
X2129Y4027D01*
X2129Y4027D01*
X2130Y4028D01*
X2130Y4028D01*
X2132Y4031D01*
X2133Y4033D01*
X2135Y4036D01*
X2136Y4039D01*
X2138Y4046D01*
X2139Y4053D01*
X2139Y4056D01*
X2139Y4058D01*
X2140Y4061D01*
X2140Y4063D01*
X2140Y4065D01*
Y4066D01*
Y4067D01*
Y4068D01*
X2140Y4073D01*
X2140Y4077D01*
X2139Y4081D01*
X2138Y4085D01*
X2138Y4089D01*
X2137Y4092D01*
X2136Y4095D01*
X2135Y4097D01*
X2134Y4100D01*
X2133Y4102D01*
X2132Y4103D01*
X2131Y4104D01*
X2130Y4106D01*
X2130Y4106D01*
X2130Y4107D01*
X2129Y4107D01*
X2127Y4109D01*
X2125Y4111D01*
X2123Y4113D01*
X2120Y4114D01*
X2118Y4115D01*
X2116Y4116D01*
X2111Y4118D01*
X2107Y4119D01*
X2106Y4119D01*
X2104Y4119D01*
X2103Y4119D01*
X2101D01*
X2097Y4119D01*
X2093Y4118D01*
X2090Y4117D01*
X2087Y4116D01*
X2085Y4115D01*
X2083Y4114D01*
X2082Y4113D01*
X2082Y4112D01*
X2079Y4109D01*
X2077Y4106D01*
X2075Y4103D01*
X2073Y4100D01*
X2072Y4097D01*
X2071Y4094D01*
X2071Y4093D01*
X2071Y4093D01*
X2071Y4092D01*
Y4092D01*
X2048Y4095D01*
X2049Y4099D01*
X2050Y4103D01*
X2052Y4106D01*
X2053Y4109D01*
X2054Y4112D01*
X2056Y4114D01*
X2057Y4117D01*
X2059Y4119D01*
X2060Y4121D01*
X2062Y4122D01*
X2063Y4124D01*
X2064Y4125D01*
X2065Y4126D01*
X2066Y4126D01*
X2066Y4127D01*
X2066Y4127D01*
X2069Y4129D01*
X2072Y4131D01*
X2075Y4132D01*
X2078Y4133D01*
X2084Y4135D01*
X2090Y4137D01*
X2092Y4137D01*
X2095Y4138D01*
X2097Y4138D01*
X2099Y4138D01*
X2100Y4138D01*
X2102D01*
X2109Y4138D01*
D02*
G37*
G36*
X1370D02*
X1377Y4137D01*
X1382Y4136D01*
X1384Y4135D01*
X1387Y4134D01*
X1389Y4133D01*
X1391Y4133D01*
X1392Y4132D01*
X1394Y4131D01*
X1395Y4131D01*
X1396Y4130D01*
X1396Y4130D01*
X1396D01*
X1402Y4126D01*
X1406Y4123D01*
X1410Y4118D01*
X1413Y4115D01*
X1415Y4111D01*
X1416Y4109D01*
X1417Y4108D01*
X1418Y4107D01*
X1418Y4106D01*
X1418Y4105D01*
Y4105D01*
X1421Y4099D01*
X1422Y4092D01*
X1424Y4086D01*
X1425Y4080D01*
X1425Y4077D01*
X1425Y4075D01*
X1425Y4073D01*
Y4071D01*
X1425Y4069D01*
Y4068D01*
Y4067D01*
Y4067D01*
X1425Y4061D01*
X1425Y4055D01*
X1424Y4049D01*
X1423Y4044D01*
X1422Y4040D01*
X1420Y4036D01*
X1419Y4032D01*
X1417Y4028D01*
X1416Y4025D01*
X1414Y4022D01*
X1412Y4020D01*
X1411Y4018D01*
X1410Y4017D01*
X1409Y4016D01*
X1409Y4015D01*
X1409Y4015D01*
X1405Y4012D01*
X1402Y4009D01*
X1398Y4007D01*
X1395Y4005D01*
X1391Y4003D01*
X1387Y4001D01*
X1384Y4000D01*
X1380Y3999D01*
X1377Y3998D01*
X1374Y3998D01*
X1371Y3998D01*
X1369Y3997D01*
X1367D01*
X1365Y3997D01*
X1364D01*
X1360Y3997D01*
X1356Y3998D01*
X1353Y3998D01*
X1349Y3999D01*
X1346Y4000D01*
X1343Y4001D01*
X1340Y4002D01*
X1337Y4004D01*
X1335Y4005D01*
X1333Y4006D01*
X1331Y4007D01*
X1330Y4008D01*
X1329Y4009D01*
X1328Y4009D01*
X1327Y4010D01*
X1327Y4010D01*
X1324Y4013D01*
X1322Y4015D01*
X1320Y4018D01*
X1318Y4021D01*
X1316Y4024D01*
X1314Y4027D01*
X1312Y4033D01*
X1311Y4036D01*
X1310Y4038D01*
X1309Y4041D01*
X1309Y4043D01*
X1308Y4044D01*
X1308Y4045D01*
X1308Y4046D01*
Y4046D01*
X1330Y4049D01*
X1331Y4046D01*
X1332Y4043D01*
X1332Y4041D01*
X1333Y4038D01*
X1334Y4036D01*
X1335Y4034D01*
X1336Y4032D01*
X1337Y4030D01*
X1338Y4029D01*
X1339Y4027D01*
X1341Y4025D01*
X1342Y4024D01*
X1342Y4024D01*
X1342Y4024D01*
X1346Y4021D01*
X1349Y4019D01*
X1353Y4018D01*
X1357Y4017D01*
X1360Y4016D01*
X1361Y4016D01*
X1362D01*
X1363Y4016D01*
X1364D01*
X1367Y4016D01*
X1370Y4016D01*
X1373Y4017D01*
X1376Y4018D01*
X1380Y4020D01*
X1384Y4022D01*
X1386Y4023D01*
X1387Y4024D01*
X1389Y4025D01*
X1390Y4026D01*
X1391Y4027D01*
X1391Y4027D01*
X1391Y4028D01*
X1392Y4028D01*
X1393Y4031D01*
X1395Y4033D01*
X1397Y4036D01*
X1398Y4039D01*
X1400Y4046D01*
X1401Y4053D01*
X1401Y4056D01*
X1401Y4058D01*
X1402Y4061D01*
X1402Y4063D01*
X1402Y4065D01*
Y4066D01*
Y4067D01*
Y4068D01*
X1402Y4073D01*
X1402Y4077D01*
X1401Y4081D01*
X1400Y4085D01*
X1400Y4089D01*
X1399Y4092D01*
X1398Y4095D01*
X1397Y4097D01*
X1396Y4100D01*
X1395Y4102D01*
X1394Y4103D01*
X1393Y4104D01*
X1392Y4106D01*
X1392Y4106D01*
X1391Y4107D01*
X1391Y4107D01*
X1389Y4109D01*
X1387Y4111D01*
X1385Y4113D01*
X1382Y4114D01*
X1380Y4115D01*
X1378Y4116D01*
X1373Y4118D01*
X1369Y4119D01*
X1368Y4119D01*
X1366Y4119D01*
X1365Y4119D01*
X1363D01*
X1359Y4119D01*
X1355Y4118D01*
X1352Y4117D01*
X1349Y4116D01*
X1347Y4115D01*
X1345Y4114D01*
X1344Y4113D01*
X1344Y4112D01*
X1341Y4109D01*
X1339Y4106D01*
X1337Y4103D01*
X1335Y4100D01*
X1334Y4097D01*
X1333Y4094D01*
X1333Y4093D01*
X1333Y4093D01*
X1332Y4092D01*
Y4092D01*
X1310Y4095D01*
X1311Y4099D01*
X1312Y4103D01*
X1313Y4106D01*
X1315Y4109D01*
X1316Y4112D01*
X1318Y4114D01*
X1319Y4117D01*
X1321Y4119D01*
X1322Y4121D01*
X1324Y4122D01*
X1325Y4124D01*
X1326Y4125D01*
X1327Y4126D01*
X1328Y4126D01*
X1328Y4127D01*
X1328Y4127D01*
X1331Y4129D01*
X1334Y4131D01*
X1337Y4132D01*
X1340Y4133D01*
X1346Y4135D01*
X1351Y4137D01*
X1354Y4137D01*
X1357Y4138D01*
X1359Y4138D01*
X1361Y4138D01*
X1362Y4138D01*
X1364D01*
X1370Y4138D01*
D02*
G37*
G36*
X-801Y4138D02*
X-795Y4137D01*
X-789Y4136D01*
X-787Y4135D01*
X-784Y4134D01*
X-782Y4133D01*
X-780Y4133D01*
X-779Y4132D01*
X-777Y4131D01*
X-776Y4131D01*
X-775Y4130D01*
X-775Y4130D01*
X-775D01*
X-770Y4126D01*
X-765Y4123D01*
X-761Y4118D01*
X-758Y4115D01*
X-756Y4111D01*
X-755Y4109D01*
X-754Y4108D01*
X-754Y4107D01*
X-753Y4106D01*
X-753Y4105D01*
Y4105D01*
X-750Y4099D01*
X-749Y4092D01*
X-748Y4086D01*
X-746Y4080D01*
X-746Y4077D01*
X-746Y4075D01*
X-746Y4073D01*
Y4071D01*
X-746Y4069D01*
Y4068D01*
Y4067D01*
Y4067D01*
X-746Y4061D01*
X-746Y4055D01*
X-747Y4049D01*
X-748Y4044D01*
X-750Y4040D01*
X-751Y4036D01*
X-753Y4032D01*
X-754Y4028D01*
X-756Y4025D01*
X-757Y4022D01*
X-759Y4020D01*
X-760Y4018D01*
X-761Y4017D01*
X-762Y4016D01*
X-762Y4015D01*
X-762Y4015D01*
X-766Y4012D01*
X-769Y4009D01*
X-773Y4007D01*
X-776Y4005D01*
X-780Y4003D01*
X-784Y4001D01*
X-788Y4000D01*
X-791Y3999D01*
X-794Y3998D01*
X-797Y3998D01*
X-800Y3998D01*
X-802Y3997D01*
X-804D01*
X-806Y3997D01*
X-807D01*
X-811Y3997D01*
X-815Y3998D01*
X-818Y3998D01*
X-822Y3999D01*
X-825Y4000D01*
X-828Y4001D01*
X-831Y4002D01*
X-834Y4004D01*
X-836Y4005D01*
X-838Y4006D01*
X-840Y4007D01*
X-841Y4008D01*
X-842Y4009D01*
X-843Y4009D01*
X-844Y4010D01*
X-844Y4010D01*
X-847Y4013D01*
X-849Y4015D01*
X-852Y4018D01*
X-853Y4021D01*
X-855Y4024D01*
X-857Y4027D01*
X-859Y4033D01*
X-860Y4036D01*
X-861Y4038D01*
X-862Y4041D01*
X-862Y4043D01*
X-863Y4044D01*
X-863Y4045D01*
X-863Y4046D01*
Y4046D01*
X-841Y4049D01*
X-840Y4046D01*
X-839Y4043D01*
X-839Y4041D01*
X-838Y4038D01*
X-837Y4036D01*
X-836Y4034D01*
X-835Y4032D01*
X-834Y4030D01*
X-833Y4029D01*
X-832Y4027D01*
X-831Y4025D01*
X-830Y4024D01*
X-829Y4024D01*
X-829Y4024D01*
X-825Y4021D01*
X-822Y4019D01*
X-818Y4018D01*
X-815Y4017D01*
X-811Y4016D01*
X-810Y4016D01*
X-809D01*
X-808Y4016D01*
X-807D01*
X-804Y4016D01*
X-801Y4016D01*
X-798Y4017D01*
X-795Y4018D01*
X-791Y4020D01*
X-787Y4022D01*
X-785Y4023D01*
X-784Y4024D01*
X-782Y4025D01*
X-781Y4026D01*
X-780Y4027D01*
X-780Y4027D01*
X-780Y4028D01*
X-779Y4028D01*
X-778Y4031D01*
X-776Y4033D01*
X-775Y4036D01*
X-774Y4039D01*
X-772Y4046D01*
X-770Y4053D01*
X-770Y4056D01*
X-770Y4058D01*
X-770Y4061D01*
X-769Y4063D01*
X-769Y4065D01*
Y4066D01*
Y4067D01*
Y4068D01*
X-769Y4073D01*
X-770Y4077D01*
X-770Y4081D01*
X-771Y4085D01*
X-772Y4089D01*
X-773Y4092D01*
X-774Y4095D01*
X-775Y4097D01*
X-775Y4100D01*
X-776Y4102D01*
X-777Y4103D01*
X-778Y4104D01*
X-779Y4106D01*
X-779Y4106D01*
X-780Y4107D01*
X-780Y4107D01*
X-782Y4109D01*
X-784Y4111D01*
X-786Y4113D01*
X-789Y4114D01*
X-791Y4115D01*
X-793Y4116D01*
X-798Y4118D01*
X-802Y4119D01*
X-803Y4119D01*
X-805Y4119D01*
X-806Y4119D01*
X-808D01*
X-812Y4119D01*
X-816Y4118D01*
X-819Y4117D01*
X-822Y4116D01*
X-824Y4115D01*
X-826Y4114D01*
X-827Y4113D01*
X-827Y4112D01*
X-830Y4109D01*
X-833Y4106D01*
X-834Y4103D01*
X-836Y4100D01*
X-837Y4097D01*
X-838Y4094D01*
X-838Y4093D01*
X-838Y4093D01*
X-839Y4092D01*
Y4092D01*
X-861Y4095D01*
X-860Y4099D01*
X-859Y4103D01*
X-858Y4106D01*
X-856Y4109D01*
X-855Y4112D01*
X-853Y4114D01*
X-852Y4117D01*
X-850Y4119D01*
X-849Y4121D01*
X-847Y4122D01*
X-846Y4124D01*
X-845Y4125D01*
X-844Y4126D01*
X-843Y4126D01*
X-843Y4127D01*
X-843Y4127D01*
X-840Y4129D01*
X-837Y4131D01*
X-834Y4132D01*
X-831Y4133D01*
X-825Y4135D01*
X-820Y4137D01*
X-817Y4137D01*
X-815Y4138D01*
X-812Y4138D01*
X-811Y4138D01*
X-809Y4138D01*
X-807D01*
X-801Y4138D01*
D02*
G37*
G36*
X3950Y4000D02*
X3879D01*
X3873Y4000D01*
X3867Y4000D01*
X3862Y4001D01*
X3859Y4001D01*
X3857Y4002D01*
X3855Y4002D01*
X3854Y4002D01*
X3852Y4002D01*
X3851Y4003D01*
X3850Y4003D01*
X3850D01*
X3849Y4003D01*
X3849D01*
X3845Y4004D01*
X3841Y4006D01*
X3837Y4007D01*
X3834Y4009D01*
X3832Y4010D01*
X3830Y4011D01*
X3829Y4012D01*
X3829Y4012D01*
X3826Y4015D01*
X3823Y4018D01*
X3821Y4020D01*
X3819Y4023D01*
X3817Y4026D01*
X3816Y4028D01*
X3815Y4028D01*
X3815Y4029D01*
X3815Y4029D01*
Y4029D01*
X3813Y4034D01*
X3812Y4038D01*
X3811Y4042D01*
X3810Y4046D01*
X3809Y4049D01*
Y4051D01*
X3809Y4052D01*
Y4053D01*
Y4053D01*
Y4054D01*
Y4054D01*
Y4057D01*
X3810Y4060D01*
X3811Y4065D01*
X3812Y4070D01*
X3814Y4074D01*
X3815Y4076D01*
X3815Y4078D01*
X3816Y4079D01*
X3817Y4080D01*
X3818Y4081D01*
X3818Y4082D01*
X3818Y4082D01*
X3819Y4082D01*
X3822Y4086D01*
X3826Y4090D01*
X3831Y4093D01*
X3835Y4095D01*
X3839Y4097D01*
X3840Y4098D01*
X3842Y4098D01*
X3843Y4099D01*
X3844Y4099D01*
X3844Y4099D01*
X3844D01*
X3840Y4102D01*
X3836Y4105D01*
X3832Y4107D01*
X3830Y4110D01*
X3828Y4113D01*
X3826Y4114D01*
X3826Y4115D01*
X3825Y4116D01*
X3825Y4116D01*
Y4116D01*
X3823Y4120D01*
X3821Y4124D01*
X3820Y4128D01*
X3819Y4131D01*
X3819Y4134D01*
X3818Y4137D01*
Y4137D01*
Y4138D01*
Y4138D01*
Y4139D01*
X3819Y4143D01*
X3820Y4148D01*
X3821Y4152D01*
X3822Y4156D01*
X3823Y4159D01*
X3824Y4160D01*
X3825Y4161D01*
X3825Y4162D01*
X3825Y4163D01*
X3826Y4163D01*
Y4163D01*
X3829Y4167D01*
X3832Y4171D01*
X3835Y4174D01*
X3839Y4176D01*
X3842Y4178D01*
X3844Y4180D01*
X3845Y4180D01*
X3845Y4180D01*
X3846Y4181D01*
X3846D01*
X3851Y4183D01*
X3857Y4184D01*
X3863Y4185D01*
X3868Y4186D01*
X3870Y4186D01*
X3873Y4186D01*
X3875D01*
X3877Y4186D01*
X3950D01*
Y4000D01*
D02*
G37*
G36*
X2938Y4138D02*
X2943Y4137D01*
X2947Y4136D01*
X2951Y4135D01*
X2955Y4133D01*
X2959Y4131D01*
X2962Y4129D01*
X2965Y4127D01*
X2967Y4125D01*
X2969Y4123D01*
X2971Y4121D01*
X2973Y4119D01*
X2974Y4118D01*
X2975Y4117D01*
X2975Y4116D01*
X2976Y4116D01*
Y4135D01*
X2996D01*
Y4000D01*
X2973D01*
Y4074D01*
X2973Y4078D01*
X2973Y4083D01*
X2972Y4087D01*
X2972Y4090D01*
X2971Y4094D01*
X2970Y4096D01*
X2969Y4099D01*
X2968Y4101D01*
X2967Y4103D01*
X2966Y4105D01*
X2965Y4106D01*
X2964Y4107D01*
X2964Y4108D01*
X2963Y4109D01*
X2963Y4109D01*
X2963Y4109D01*
X2961Y4111D01*
X2959Y4112D01*
X2954Y4115D01*
X2950Y4116D01*
X2946Y4117D01*
X2943Y4118D01*
X2941Y4118D01*
X2940D01*
X2939Y4118D01*
X2938D01*
X2934Y4118D01*
X2931Y4118D01*
X2928Y4117D01*
X2926Y4116D01*
X2924Y4116D01*
X2923Y4115D01*
X2922Y4114D01*
X2922Y4114D01*
X2919Y4113D01*
X2917Y4111D01*
X2916Y4109D01*
X2914Y4107D01*
X2913Y4105D01*
X2913Y4104D01*
X2912Y4103D01*
X2912Y4103D01*
X2911Y4100D01*
X2911Y4097D01*
X2910Y4094D01*
X2910Y4090D01*
X2910Y4087D01*
X2909Y4086D01*
Y4084D01*
Y4084D01*
Y4083D01*
Y4082D01*
Y4082D01*
Y4000D01*
X2886D01*
Y4083D01*
Y4086D01*
Y4088D01*
X2887Y4091D01*
Y4093D01*
X2887Y4095D01*
Y4097D01*
X2887Y4100D01*
X2887Y4102D01*
X2888Y4104D01*
X2888Y4105D01*
Y4105D01*
X2889Y4109D01*
X2890Y4112D01*
X2891Y4115D01*
X2892Y4117D01*
X2893Y4119D01*
X2894Y4121D01*
X2895Y4122D01*
X2895Y4122D01*
X2897Y4125D01*
X2899Y4127D01*
X2902Y4129D01*
X2904Y4131D01*
X2907Y4132D01*
X2909Y4133D01*
X2910Y4134D01*
X2910Y4134D01*
X2910D01*
X2914Y4135D01*
X2918Y4136D01*
X2922Y4137D01*
X2925Y4138D01*
X2928Y4138D01*
X2930D01*
X2931Y4138D01*
X2933D01*
X2938Y4138D01*
D02*
G37*
G36*
X2197D02*
X2200Y4137D01*
X2202Y4137D01*
X2204Y4136D01*
X2206Y4135D01*
X2207Y4134D01*
X2208Y4134D01*
X2209Y4134D01*
X2210Y4133D01*
X2211Y4131D01*
X2214Y4129D01*
X2216Y4125D01*
X2218Y4122D01*
X2220Y4119D01*
X2222Y4117D01*
X2222Y4116D01*
X2223Y4115D01*
X2223Y4115D01*
Y4135D01*
X2244D01*
Y4000D01*
X2221D01*
Y4071D01*
X2221Y4076D01*
X2220Y4081D01*
X2220Y4085D01*
X2219Y4089D01*
X2218Y4093D01*
X2218Y4094D01*
X2218Y4095D01*
X2218Y4096D01*
X2217Y4097D01*
X2217Y4097D01*
Y4097D01*
X2216Y4100D01*
X2215Y4103D01*
X2213Y4105D01*
X2212Y4107D01*
X2211Y4108D01*
X2210Y4109D01*
X2209Y4110D01*
X2209Y4110D01*
X2206Y4112D01*
X2204Y4113D01*
X2202Y4113D01*
X2200Y4114D01*
X2198Y4114D01*
X2196Y4115D01*
X2195D01*
X2192Y4114D01*
X2189Y4114D01*
X2186Y4113D01*
X2184Y4112D01*
X2181Y4111D01*
X2180Y4110D01*
X2179Y4110D01*
X2178Y4109D01*
X2170Y4131D01*
X2175Y4133D01*
X2179Y4135D01*
X2183Y4136D01*
X2187Y4137D01*
X2190Y4138D01*
X2191Y4138D01*
X2192D01*
X2193Y4138D01*
X2194D01*
X2197Y4138D01*
D02*
G37*
G36*
X-145Y4138D02*
X-140Y4137D01*
X-136Y4136D01*
X-132Y4135D01*
X-128Y4133D01*
X-124Y4131D01*
X-121Y4129D01*
X-118Y4127D01*
X-116Y4125D01*
X-113Y4123D01*
X-112Y4121D01*
X-110Y4119D01*
X-109Y4118D01*
X-108Y4117D01*
X-108Y4116D01*
X-107Y4116D01*
Y4135D01*
X-87D01*
Y4000D01*
X-110D01*
Y4074D01*
X-110Y4078D01*
X-110Y4083D01*
X-111Y4087D01*
X-111Y4090D01*
X-112Y4094D01*
X-113Y4096D01*
X-114Y4099D01*
X-115Y4101D01*
X-116Y4103D01*
X-117Y4105D01*
X-118Y4106D01*
X-118Y4107D01*
X-119Y4108D01*
X-120Y4109D01*
X-120Y4109D01*
X-120Y4109D01*
X-122Y4111D01*
X-124Y4112D01*
X-129Y4115D01*
X-133Y4116D01*
X-137Y4117D01*
X-140Y4118D01*
X-142Y4118D01*
X-143D01*
X-144Y4118D01*
X-145D01*
X-149Y4118D01*
X-152Y4118D01*
X-154Y4117D01*
X-157Y4116D01*
X-159Y4116D01*
X-160Y4115D01*
X-161Y4114D01*
X-161Y4114D01*
X-164Y4113D01*
X-166Y4111D01*
X-167Y4109D01*
X-169Y4107D01*
X-170Y4105D01*
X-170Y4104D01*
X-171Y4103D01*
X-171Y4103D01*
X-172Y4100D01*
X-172Y4097D01*
X-173Y4094D01*
X-173Y4090D01*
X-173Y4087D01*
X-174Y4086D01*
Y4084D01*
Y4084D01*
Y4083D01*
Y4082D01*
Y4082D01*
Y4000D01*
X-196D01*
Y4083D01*
Y4086D01*
Y4088D01*
X-196Y4091D01*
Y4093D01*
X-196Y4095D01*
Y4097D01*
X-196Y4100D01*
X-195Y4102D01*
X-195Y4104D01*
X-195Y4105D01*
Y4105D01*
X-194Y4109D01*
X-193Y4112D01*
X-192Y4115D01*
X-191Y4117D01*
X-190Y4119D01*
X-189Y4121D01*
X-188Y4122D01*
X-188Y4122D01*
X-186Y4125D01*
X-184Y4127D01*
X-181Y4129D01*
X-178Y4131D01*
X-176Y4132D01*
X-174Y4133D01*
X-173Y4134D01*
X-173Y4134D01*
X-173D01*
X-169Y4135D01*
X-165Y4136D01*
X-161Y4137D01*
X-158Y4138D01*
X-155Y4138D01*
X-153D01*
X-152Y4138D01*
X-150D01*
X-145Y4138D01*
D02*
G37*
G36*
X-712D02*
X-710Y4137D01*
X-707Y4137D01*
X-705Y4136D01*
X-703Y4135D01*
X-702Y4134D01*
X-701Y4134D01*
X-701Y4134D01*
X-699Y4133D01*
X-698Y4131D01*
X-696Y4129D01*
X-693Y4125D01*
X-691Y4122D01*
X-689Y4119D01*
X-688Y4117D01*
X-687Y4116D01*
X-687Y4115D01*
X-686Y4115D01*
Y4135D01*
X-666D01*
Y4000D01*
X-688D01*
Y4071D01*
X-689Y4076D01*
X-689Y4081D01*
X-690Y4085D01*
X-690Y4089D01*
X-691Y4093D01*
X-691Y4094D01*
X-691Y4095D01*
X-692Y4096D01*
X-692Y4097D01*
X-692Y4097D01*
Y4097D01*
X-693Y4100D01*
X-694Y4103D01*
X-696Y4105D01*
X-697Y4107D01*
X-698Y4108D01*
X-699Y4109D01*
X-700Y4110D01*
X-700Y4110D01*
X-703Y4112D01*
X-705Y4113D01*
X-707Y4113D01*
X-710Y4114D01*
X-711Y4114D01*
X-713Y4115D01*
X-714D01*
X-717Y4114D01*
X-720Y4114D01*
X-723Y4113D01*
X-725Y4112D01*
X-728Y4111D01*
X-729Y4110D01*
X-730Y4110D01*
X-731Y4109D01*
X-739Y4131D01*
X-734Y4133D01*
X-730Y4135D01*
X-726Y4136D01*
X-722Y4137D01*
X-719Y4138D01*
X-718Y4138D01*
X-717D01*
X-716Y4138D01*
X-715D01*
X-712Y4138D01*
D02*
G37*
G36*
X3593Y4138D02*
X3596Y4138D01*
X3600Y4137D01*
X3603Y4137D01*
X3605Y4136D01*
X3607Y4136D01*
X3608Y4136D01*
X3608Y4135D01*
X3609D01*
X3612Y4134D01*
X3615Y4133D01*
X3617Y4132D01*
X3619Y4131D01*
X3621Y4130D01*
X3622Y4129D01*
X3623Y4129D01*
X3623Y4129D01*
X3626Y4127D01*
X3628Y4125D01*
X3630Y4122D01*
X3631Y4120D01*
X3633Y4119D01*
X3634Y4117D01*
X3634Y4116D01*
X3634Y4116D01*
X3636Y4113D01*
X3637Y4110D01*
X3638Y4107D01*
X3638Y4105D01*
X3638Y4102D01*
X3639Y4101D01*
Y4100D01*
Y4099D01*
Y4099D01*
X3638Y4096D01*
X3638Y4092D01*
X3637Y4089D01*
X3636Y4086D01*
X3635Y4084D01*
X3634Y4082D01*
X3634Y4081D01*
X3634Y4081D01*
X3632Y4078D01*
X3629Y4076D01*
X3627Y4074D01*
X3624Y4072D01*
X3622Y4070D01*
X3621Y4069D01*
X3619Y4068D01*
X3619Y4068D01*
X3619D01*
X3617Y4067D01*
X3614Y4066D01*
X3612Y4065D01*
X3609Y4065D01*
X3603Y4063D01*
X3598Y4061D01*
X3595Y4060D01*
X3592Y4059D01*
X3590Y4059D01*
X3588Y4058D01*
X3586Y4058D01*
X3585Y4057D01*
X3584Y4057D01*
X3584D01*
X3581Y4056D01*
X3578Y4056D01*
X3575Y4055D01*
X3572Y4054D01*
X3570Y4053D01*
X3568Y4053D01*
X3567Y4052D01*
X3565Y4052D01*
X3564Y4051D01*
X3563Y4051D01*
X3561Y4050D01*
X3561Y4050D01*
X3560Y4049D01*
X3558Y4048D01*
X3556Y4046D01*
X3555Y4044D01*
X3554Y4042D01*
X3554Y4040D01*
X3553Y4038D01*
Y4038D01*
Y4037D01*
X3554Y4034D01*
X3555Y4031D01*
X3556Y4028D01*
X3557Y4026D01*
X3559Y4024D01*
X3560Y4023D01*
X3561Y4022D01*
X3561Y4022D01*
X3564Y4020D01*
X3568Y4018D01*
X3572Y4017D01*
X3576Y4017D01*
X3579Y4016D01*
X3581Y4016D01*
X3582D01*
X3583Y4016D01*
X3585D01*
X3590Y4016D01*
X3595Y4017D01*
X3599Y4018D01*
X3603Y4019D01*
X3606Y4021D01*
X3608Y4022D01*
X3609Y4023D01*
X3609Y4023D01*
X3609D01*
X3612Y4026D01*
X3614Y4029D01*
X3616Y4033D01*
X3618Y4036D01*
X3619Y4039D01*
X3619Y4040D01*
X3619Y4042D01*
X3620Y4043D01*
Y4043D01*
X3620Y4044D01*
Y4044D01*
X3642Y4040D01*
X3642Y4036D01*
X3641Y4033D01*
X3639Y4029D01*
X3638Y4026D01*
X3637Y4023D01*
X3635Y4020D01*
X3634Y4018D01*
X3632Y4016D01*
X3631Y4014D01*
X3629Y4012D01*
X3628Y4011D01*
X3627Y4010D01*
X3626Y4009D01*
X3626Y4008D01*
X3625Y4008D01*
X3625Y4008D01*
X3622Y4006D01*
X3619Y4004D01*
X3616Y4003D01*
X3613Y4001D01*
X3606Y4000D01*
X3600Y3998D01*
X3596Y3998D01*
X3594Y3998D01*
X3591Y3997D01*
X3589Y3997D01*
X3587Y3997D01*
X3585D01*
X3579Y3997D01*
X3573Y3998D01*
X3569Y3999D01*
X3564Y4000D01*
X3563Y4000D01*
X3561Y4001D01*
X3560Y4001D01*
X3558Y4002D01*
X3557Y4002D01*
X3557Y4002D01*
X3556Y4002D01*
X3556D01*
X3552Y4005D01*
X3548Y4007D01*
X3545Y4010D01*
X3542Y4012D01*
X3540Y4015D01*
X3538Y4016D01*
X3537Y4018D01*
X3537Y4018D01*
Y4018D01*
X3535Y4022D01*
X3533Y4026D01*
X3532Y4029D01*
X3531Y4033D01*
X3530Y4035D01*
X3530Y4038D01*
Y4038D01*
Y4039D01*
Y4039D01*
Y4040D01*
X3530Y4044D01*
X3531Y4048D01*
X3532Y4051D01*
X3533Y4054D01*
X3534Y4056D01*
X3535Y4058D01*
X3535Y4059D01*
X3536Y4059D01*
X3538Y4062D01*
X3540Y4064D01*
X3543Y4066D01*
X3545Y4068D01*
X3547Y4069D01*
X3549Y4070D01*
X3550Y4071D01*
X3551Y4071D01*
X3551D01*
X3553Y4072D01*
X3555Y4073D01*
X3558Y4074D01*
X3560Y4075D01*
X3566Y4076D01*
X3571Y4078D01*
X3574Y4079D01*
X3577Y4080D01*
X3579Y4080D01*
X3581Y4081D01*
X3582Y4081D01*
X3584Y4082D01*
X3584Y4082D01*
X3585D01*
X3588Y4083D01*
X3590Y4083D01*
X3593Y4084D01*
X3595Y4085D01*
X3597Y4085D01*
X3598Y4086D01*
X3600Y4086D01*
X3601Y4086D01*
X3603Y4087D01*
X3604Y4087D01*
X3605Y4088D01*
X3605D01*
X3607Y4089D01*
X3609Y4090D01*
X3610Y4091D01*
X3611Y4092D01*
X3612Y4093D01*
X3613Y4093D01*
X3613Y4094D01*
X3614Y4094D01*
X3614Y4095D01*
X3615Y4097D01*
X3616Y4099D01*
X3616Y4100D01*
X3616Y4101D01*
Y4102D01*
Y4102D01*
X3616Y4104D01*
X3615Y4107D01*
X3614Y4109D01*
X3613Y4111D01*
X3612Y4112D01*
X3611Y4113D01*
X3610Y4114D01*
X3610Y4114D01*
X3608Y4115D01*
X3607Y4116D01*
X3603Y4117D01*
X3600Y4118D01*
X3596Y4119D01*
X3592Y4119D01*
X3591D01*
X3590Y4119D01*
X3587D01*
X3582Y4119D01*
X3578Y4118D01*
X3575Y4118D01*
X3572Y4116D01*
X3569Y4115D01*
X3568Y4114D01*
X3567Y4114D01*
X3566Y4113D01*
X3564Y4111D01*
X3562Y4108D01*
X3560Y4106D01*
X3559Y4103D01*
X3558Y4101D01*
X3558Y4099D01*
X3558Y4098D01*
Y4097D01*
Y4097D01*
X3535Y4100D01*
X3536Y4105D01*
X3537Y4109D01*
X3539Y4113D01*
X3540Y4116D01*
X3541Y4118D01*
X3542Y4120D01*
X3543Y4121D01*
X3543Y4121D01*
X3546Y4124D01*
X3548Y4126D01*
X3551Y4128D01*
X3554Y4130D01*
X3557Y4132D01*
X3559Y4133D01*
X3560Y4133D01*
X3560Y4133D01*
X3561Y4134D01*
X3561D01*
X3566Y4135D01*
X3570Y4136D01*
X3575Y4137D01*
X3579Y4138D01*
X3583Y4138D01*
X3585D01*
X3586Y4138D01*
X3589D01*
X3593Y4138D01*
D02*
G37*
G36*
X3272Y4119D02*
X3275Y4122D01*
X3277Y4125D01*
X3280Y4127D01*
X3282Y4129D01*
X3285Y4131D01*
X3286Y4132D01*
X3287Y4133D01*
X3288Y4133D01*
X3288D01*
X3291Y4135D01*
X3295Y4136D01*
X3299Y4137D01*
X3302Y4138D01*
X3305Y4138D01*
X3308Y4138D01*
X3313D01*
X3316Y4138D01*
X3321Y4137D01*
X3326Y4135D01*
X3331Y4134D01*
X3333Y4133D01*
X3335Y4132D01*
X3336Y4131D01*
X3337Y4131D01*
X3338Y4130D01*
X3339Y4130D01*
X3340Y4129D01*
X3340Y4129D01*
X3345Y4126D01*
X3349Y4122D01*
X3352Y4118D01*
X3355Y4113D01*
X3357Y4110D01*
X3358Y4108D01*
X3359Y4107D01*
X3359Y4106D01*
X3360Y4105D01*
X3360Y4104D01*
Y4104D01*
X3362Y4098D01*
X3364Y4091D01*
X3365Y4085D01*
X3366Y4080D01*
X3366Y4077D01*
X3366Y4075D01*
X3366Y4073D01*
Y4071D01*
X3367Y4069D01*
Y4068D01*
Y4067D01*
Y4067D01*
X3366Y4060D01*
X3365Y4053D01*
X3365Y4050D01*
X3364Y4047D01*
X3364Y4044D01*
X3363Y4041D01*
X3362Y4039D01*
X3362Y4037D01*
X3361Y4035D01*
X3361Y4034D01*
X3360Y4032D01*
X3360Y4032D01*
X3359Y4031D01*
Y4031D01*
X3356Y4025D01*
X3353Y4020D01*
X3349Y4016D01*
X3346Y4012D01*
X3343Y4009D01*
X3342Y4008D01*
X3341Y4007D01*
X3340Y4007D01*
X3339Y4006D01*
X3339Y4006D01*
X3338Y4006D01*
X3336Y4004D01*
X3333Y4003D01*
X3328Y4001D01*
X3323Y3999D01*
X3318Y3998D01*
X3316Y3998D01*
X3315Y3997D01*
X3313Y3997D01*
X3311D01*
X3310Y3997D01*
X3309D01*
X3304Y3997D01*
X3300Y3998D01*
X3296Y3999D01*
X3292Y4000D01*
X3289Y4002D01*
X3286Y4003D01*
X3283Y4005D01*
X3280Y4007D01*
X3278Y4009D01*
X3276Y4011D01*
X3275Y4012D01*
X3273Y4014D01*
X3272Y4015D01*
X3271Y4016D01*
X3271Y4017D01*
X3271Y4017D01*
Y4000D01*
X3249D01*
Y4186D01*
X3272D01*
Y4119D01*
D02*
G37*
G36*
X3091Y4138D02*
X3095Y4138D01*
X3099Y4137D01*
X3103Y4136D01*
X3107Y4135D01*
X3111Y4133D01*
X3114Y4132D01*
X3117Y4131D01*
X3120Y4129D01*
X3122Y4128D01*
X3124Y4126D01*
X3126Y4125D01*
X3127Y4124D01*
X3128Y4124D01*
X3128Y4123D01*
X3129Y4123D01*
X3132Y4119D01*
X3136Y4116D01*
X3138Y4111D01*
X3141Y4107D01*
X3143Y4102D01*
X3144Y4098D01*
X3146Y4093D01*
X3147Y4088D01*
X3148Y4084D01*
X3148Y4080D01*
X3149Y4077D01*
X3149Y4074D01*
X3149Y4071D01*
X3149Y4069D01*
Y4068D01*
Y4068D01*
Y4067D01*
X3149Y4061D01*
X3149Y4055D01*
X3148Y4050D01*
X3147Y4045D01*
X3145Y4040D01*
X3144Y4036D01*
X3142Y4032D01*
X3141Y4028D01*
X3139Y4025D01*
X3138Y4023D01*
X3136Y4020D01*
X3135Y4019D01*
X3134Y4017D01*
X3133Y4016D01*
X3132Y4015D01*
X3132Y4015D01*
X3129Y4012D01*
X3125Y4009D01*
X3121Y4007D01*
X3118Y4005D01*
X3114Y4003D01*
X3110Y4001D01*
X3106Y4000D01*
X3103Y3999D01*
X3099Y3999D01*
X3096Y3998D01*
X3093Y3998D01*
X3091Y3997D01*
X3089D01*
X3087Y3997D01*
X3086D01*
X3080Y3997D01*
X3074Y3998D01*
X3068Y4000D01*
X3066Y4000D01*
X3063Y4001D01*
X3061Y4002D01*
X3059Y4002D01*
X3058Y4003D01*
X3056Y4004D01*
X3055Y4004D01*
X3054Y4005D01*
X3054Y4005D01*
X3054D01*
X3048Y4008D01*
X3044Y4012D01*
X3040Y4016D01*
X3037Y4020D01*
X3034Y4023D01*
X3033Y4025D01*
X3032Y4026D01*
X3032Y4027D01*
X3031Y4028D01*
X3031Y4028D01*
Y4028D01*
X3029Y4031D01*
X3028Y4034D01*
X3026Y4041D01*
X3025Y4048D01*
X3024Y4054D01*
X3024Y4057D01*
X3023Y4060D01*
X3023Y4063D01*
Y4065D01*
X3023Y4067D01*
Y4068D01*
Y4069D01*
Y4069D01*
X3023Y4075D01*
X3024Y4081D01*
X3025Y4086D01*
X3026Y4091D01*
X3027Y4095D01*
X3029Y4099D01*
X3030Y4103D01*
X3032Y4107D01*
X3034Y4110D01*
X3035Y4112D01*
X3037Y4115D01*
X3038Y4116D01*
X3039Y4118D01*
X3040Y4119D01*
X3041Y4120D01*
X3041Y4120D01*
X3044Y4123D01*
X3048Y4126D01*
X3052Y4128D01*
X3055Y4130D01*
X3059Y4132D01*
X3063Y4134D01*
X3067Y4135D01*
X3070Y4136D01*
X3074Y4137D01*
X3077Y4137D01*
X3079Y4138D01*
X3082Y4138D01*
X3084D01*
X3085Y4138D01*
X3086D01*
X3091Y4138D01*
D02*
G37*
G36*
X2719Y4189D02*
X2725Y4189D01*
X2731Y4188D01*
X2733Y4187D01*
X2736Y4186D01*
X2738Y4186D01*
X2740Y4185D01*
X2742Y4185D01*
X2743Y4184D01*
X2744Y4184D01*
X2745Y4183D01*
X2746Y4183D01*
X2746D01*
X2751Y4181D01*
X2756Y4178D01*
X2760Y4175D01*
X2763Y4171D01*
X2766Y4169D01*
X2768Y4166D01*
X2768Y4166D01*
X2769Y4165D01*
X2769Y4165D01*
Y4164D01*
X2772Y4160D01*
X2774Y4155D01*
X2775Y4151D01*
X2776Y4147D01*
X2777Y4143D01*
X2777Y4142D01*
Y4141D01*
X2777Y4140D01*
Y4139D01*
Y4138D01*
Y4138D01*
X2777Y4134D01*
X2776Y4129D01*
X2775Y4125D01*
X2774Y4122D01*
X2773Y4119D01*
X2772Y4117D01*
X2771Y4116D01*
X2771Y4115D01*
X2771Y4115D01*
Y4115D01*
X2768Y4111D01*
X2765Y4108D01*
X2762Y4105D01*
X2758Y4102D01*
X2755Y4100D01*
X2753Y4099D01*
X2752Y4098D01*
X2751Y4098D01*
X2751Y4098D01*
X2751D01*
X2749Y4097D01*
X2746Y4096D01*
X2744Y4095D01*
X2741Y4094D01*
X2735Y4092D01*
X2729Y4090D01*
X2726Y4089D01*
X2724Y4088D01*
X2721Y4087D01*
X2719Y4087D01*
X2717Y4086D01*
X2716Y4086D01*
X2715Y4086D01*
X2715D01*
X2710Y4085D01*
X2706Y4084D01*
X2702Y4083D01*
X2699Y4082D01*
X2696Y4081D01*
X2693Y4080D01*
X2691Y4080D01*
X2689Y4079D01*
X2687Y4079D01*
X2685Y4078D01*
X2684Y4078D01*
X2683Y4077D01*
X2683Y4077D01*
X2682Y4077D01*
X2682Y4077D01*
X2678Y4075D01*
X2674Y4073D01*
X2671Y4071D01*
X2669Y4070D01*
X2667Y4068D01*
X2666Y4067D01*
X2665Y4066D01*
X2665Y4066D01*
X2663Y4063D01*
X2662Y4061D01*
X2661Y4058D01*
X2660Y4056D01*
X2660Y4054D01*
X2660Y4052D01*
Y4051D01*
Y4051D01*
Y4051D01*
X2660Y4047D01*
X2661Y4044D01*
X2662Y4042D01*
X2662Y4039D01*
X2663Y4037D01*
X2664Y4036D01*
X2665Y4035D01*
X2665Y4035D01*
X2668Y4032D01*
X2670Y4030D01*
X2673Y4028D01*
X2675Y4026D01*
X2678Y4025D01*
X2680Y4024D01*
X2680Y4023D01*
X2681Y4023D01*
X2681Y4023D01*
X2681D01*
X2685Y4022D01*
X2690Y4021D01*
X2694Y4020D01*
X2698Y4020D01*
X2701Y4019D01*
X2702D01*
X2704Y4019D01*
X2706D01*
X2712Y4019D01*
X2717Y4020D01*
X2722Y4021D01*
X2726Y4022D01*
X2728Y4022D01*
X2730Y4023D01*
X2731Y4023D01*
X2733Y4024D01*
X2734Y4024D01*
X2734Y4024D01*
X2735Y4024D01*
X2735D01*
X2739Y4027D01*
X2743Y4029D01*
X2746Y4031D01*
X2749Y4034D01*
X2751Y4036D01*
X2752Y4037D01*
X2753Y4038D01*
X2754Y4039D01*
X2756Y4042D01*
X2757Y4046D01*
X2758Y4050D01*
X2759Y4054D01*
X2760Y4057D01*
X2760Y4058D01*
X2761Y4060D01*
X2761Y4061D01*
X2761Y4061D01*
Y4062D01*
Y4062D01*
X2784Y4060D01*
X2784Y4057D01*
X2784Y4053D01*
X2782Y4047D01*
X2781Y4041D01*
X2780Y4038D01*
X2779Y4036D01*
X2778Y4034D01*
X2777Y4032D01*
X2776Y4030D01*
X2776Y4029D01*
X2775Y4028D01*
X2775Y4027D01*
X2774Y4026D01*
X2774Y4026D01*
X2770Y4021D01*
X2766Y4017D01*
X2761Y4013D01*
X2757Y4010D01*
X2753Y4007D01*
X2752Y4006D01*
X2750Y4006D01*
X2749Y4005D01*
X2748Y4005D01*
X2748Y4004D01*
X2747D01*
X2741Y4002D01*
X2734Y4000D01*
X2726Y3999D01*
X2720Y3998D01*
X2717Y3998D01*
X2714Y3997D01*
X2711Y3997D01*
X2709D01*
X2707Y3997D01*
X2705D01*
X2698Y3997D01*
X2691Y3998D01*
X2685Y3999D01*
X2682Y4000D01*
X2680Y4001D01*
X2677Y4001D01*
X2675Y4002D01*
X2673Y4003D01*
X2672Y4003D01*
X2671Y4004D01*
X2670Y4004D01*
X2669Y4004D01*
X2669D01*
X2663Y4007D01*
X2659Y4011D01*
X2654Y4014D01*
X2651Y4017D01*
X2648Y4020D01*
X2646Y4022D01*
X2645Y4023D01*
X2645Y4024D01*
X2645Y4024D01*
Y4025D01*
X2643Y4027D01*
X2642Y4030D01*
X2640Y4035D01*
X2638Y4039D01*
X2637Y4043D01*
X2636Y4047D01*
X2636Y4049D01*
Y4050D01*
X2636Y4051D01*
Y4052D01*
Y4052D01*
Y4053D01*
X2636Y4058D01*
X2637Y4063D01*
X2638Y4067D01*
X2640Y4071D01*
X2641Y4075D01*
X2642Y4076D01*
X2643Y4077D01*
X2643Y4078D01*
X2643Y4078D01*
X2644Y4079D01*
Y4079D01*
X2645Y4081D01*
X2647Y4083D01*
X2651Y4087D01*
X2655Y4090D01*
X2659Y4093D01*
X2662Y4095D01*
X2664Y4096D01*
X2665Y4097D01*
X2666Y4097D01*
X2667Y4098D01*
X2668Y4098D01*
X2668D01*
X2670Y4099D01*
X2673Y4100D01*
X2676Y4101D01*
X2679Y4102D01*
X2686Y4104D01*
X2693Y4106D01*
X2696Y4107D01*
X2699Y4107D01*
X2702Y4108D01*
X2704Y4108D01*
X2706Y4109D01*
X2708Y4109D01*
X2709Y4110D01*
X2709D01*
X2715Y4111D01*
X2719Y4112D01*
X2724Y4114D01*
X2728Y4115D01*
X2731Y4116D01*
X2734Y4117D01*
X2737Y4118D01*
X2739Y4119D01*
X2741Y4120D01*
X2742Y4121D01*
X2744Y4121D01*
X2745Y4122D01*
X2745Y4123D01*
X2746Y4123D01*
X2746Y4123D01*
X2749Y4126D01*
X2750Y4128D01*
X2752Y4131D01*
X2753Y4134D01*
X2753Y4136D01*
X2753Y4138D01*
X2753Y4139D01*
Y4139D01*
Y4140D01*
X2753Y4142D01*
X2753Y4144D01*
X2752Y4147D01*
X2750Y4151D01*
X2748Y4154D01*
X2746Y4156D01*
X2745Y4158D01*
X2744Y4159D01*
X2743Y4159D01*
X2743D01*
X2741Y4161D01*
X2739Y4162D01*
X2734Y4164D01*
X2729Y4166D01*
X2723Y4167D01*
X2721Y4167D01*
X2718Y4167D01*
X2716Y4167D01*
X2714D01*
X2713Y4168D01*
X2707D01*
X2703Y4167D01*
X2700Y4167D01*
X2697Y4166D01*
X2694Y4166D01*
X2691Y4165D01*
X2689Y4164D01*
X2686Y4163D01*
X2685Y4162D01*
X2683Y4161D01*
X2682Y4161D01*
X2680Y4160D01*
X2680Y4159D01*
X2679Y4159D01*
X2679Y4159D01*
X2678Y4159D01*
X2676Y4157D01*
X2675Y4155D01*
X2672Y4151D01*
X2669Y4146D01*
X2668Y4142D01*
X2666Y4138D01*
X2666Y4137D01*
X2666Y4135D01*
X2665Y4134D01*
Y4133D01*
X2665Y4132D01*
Y4132D01*
X2642Y4134D01*
X2642Y4140D01*
X2643Y4145D01*
X2645Y4150D01*
X2646Y4155D01*
X2648Y4157D01*
X2648Y4158D01*
X2649Y4160D01*
X2650Y4161D01*
X2650Y4162D01*
X2651Y4163D01*
X2651Y4163D01*
X2651Y4163D01*
X2654Y4168D01*
X2658Y4172D01*
X2662Y4175D01*
X2666Y4178D01*
X2670Y4180D01*
X2671Y4181D01*
X2673Y4182D01*
X2674Y4182D01*
X2675Y4182D01*
X2675Y4183D01*
X2675D01*
X2681Y4185D01*
X2688Y4187D01*
X2694Y4188D01*
X2699Y4189D01*
X2702Y4189D01*
X2704Y4189D01*
X2706Y4189D01*
X2708Y4190D01*
X2712D01*
X2719Y4189D01*
D02*
G37*
G36*
X663Y4189D02*
X670Y4189D01*
X676Y4188D01*
X678Y4187D01*
X681Y4186D01*
X683Y4186D01*
X685Y4185D01*
X687Y4185D01*
X688Y4184D01*
X689Y4184D01*
X690Y4183D01*
X691Y4183D01*
X691D01*
X696Y4181D01*
X701Y4178D01*
X705Y4175D01*
X708Y4171D01*
X711Y4169D01*
X713Y4166D01*
X713Y4166D01*
X714Y4165D01*
X714Y4165D01*
Y4164D01*
X717Y4160D01*
X719Y4155D01*
X720Y4151D01*
X721Y4147D01*
X722Y4143D01*
X722Y4142D01*
Y4141D01*
X722Y4140D01*
Y4139D01*
Y4138D01*
Y4138D01*
X722Y4134D01*
X721Y4129D01*
X720Y4125D01*
X719Y4122D01*
X718Y4119D01*
X717Y4117D01*
X716Y4116D01*
X716Y4115D01*
X716Y4115D01*
Y4115D01*
X713Y4111D01*
X710Y4108D01*
X706Y4105D01*
X703Y4102D01*
X700Y4100D01*
X698Y4099D01*
X697Y4098D01*
X696Y4098D01*
X696Y4098D01*
X696D01*
X694Y4097D01*
X691Y4096D01*
X689Y4095D01*
X686Y4094D01*
X680Y4092D01*
X674Y4090D01*
X671Y4089D01*
X669Y4088D01*
X666Y4087D01*
X664Y4087D01*
X662Y4086D01*
X661Y4086D01*
X660Y4086D01*
X660D01*
X655Y4085D01*
X651Y4084D01*
X647Y4083D01*
X644Y4082D01*
X641Y4081D01*
X638Y4080D01*
X636Y4080D01*
X634Y4079D01*
X632Y4079D01*
X630Y4078D01*
X629Y4078D01*
X628Y4077D01*
X627Y4077D01*
X627Y4077D01*
X627Y4077D01*
X623Y4075D01*
X619Y4073D01*
X616Y4071D01*
X614Y4070D01*
X612Y4068D01*
X611Y4067D01*
X610Y4066D01*
X610Y4066D01*
X608Y4063D01*
X607Y4061D01*
X606Y4058D01*
X605Y4056D01*
X605Y4054D01*
X605Y4052D01*
Y4051D01*
Y4051D01*
Y4051D01*
X605Y4047D01*
X605Y4044D01*
X606Y4042D01*
X607Y4039D01*
X608Y4037D01*
X609Y4036D01*
X610Y4035D01*
X610Y4035D01*
X612Y4032D01*
X615Y4030D01*
X618Y4028D01*
X620Y4026D01*
X623Y4025D01*
X624Y4024D01*
X625Y4023D01*
X626Y4023D01*
X626Y4023D01*
X626D01*
X630Y4022D01*
X635Y4021D01*
X639Y4020D01*
X643Y4020D01*
X646Y4019D01*
X647D01*
X649Y4019D01*
X651D01*
X657Y4019D01*
X662Y4020D01*
X667Y4021D01*
X671Y4022D01*
X673Y4022D01*
X675Y4023D01*
X676Y4023D01*
X677Y4024D01*
X678Y4024D01*
X679Y4024D01*
X679Y4024D01*
X680D01*
X684Y4027D01*
X688Y4029D01*
X691Y4031D01*
X694Y4034D01*
X696Y4036D01*
X697Y4037D01*
X698Y4038D01*
X698Y4039D01*
X700Y4042D01*
X702Y4046D01*
X703Y4050D01*
X704Y4054D01*
X705Y4057D01*
X705Y4058D01*
X705Y4060D01*
X706Y4061D01*
X706Y4061D01*
Y4062D01*
Y4062D01*
X729Y4060D01*
X729Y4057D01*
X728Y4053D01*
X727Y4047D01*
X726Y4041D01*
X725Y4038D01*
X724Y4036D01*
X723Y4034D01*
X722Y4032D01*
X721Y4030D01*
X720Y4029D01*
X720Y4028D01*
X719Y4027D01*
X719Y4026D01*
X719Y4026D01*
X715Y4021D01*
X711Y4017D01*
X706Y4013D01*
X702Y4010D01*
X698Y4007D01*
X697Y4006D01*
X695Y4006D01*
X694Y4005D01*
X693Y4005D01*
X693Y4004D01*
X692D01*
X685Y4002D01*
X678Y4000D01*
X671Y3999D01*
X665Y3998D01*
X661Y3998D01*
X659Y3997D01*
X656Y3997D01*
X654D01*
X652Y3997D01*
X650D01*
X642Y3997D01*
X636Y3998D01*
X630Y3999D01*
X627Y4000D01*
X624Y4001D01*
X622Y4001D01*
X620Y4002D01*
X618Y4003D01*
X617Y4003D01*
X616Y4004D01*
X615Y4004D01*
X614Y4004D01*
X614D01*
X608Y4007D01*
X603Y4011D01*
X599Y4014D01*
X596Y4017D01*
X593Y4020D01*
X591Y4022D01*
X590Y4023D01*
X590Y4024D01*
X590Y4024D01*
Y4025D01*
X588Y4027D01*
X587Y4030D01*
X584Y4035D01*
X583Y4039D01*
X582Y4043D01*
X581Y4047D01*
X581Y4049D01*
Y4050D01*
X581Y4051D01*
Y4052D01*
Y4052D01*
Y4053D01*
X581Y4058D01*
X582Y4063D01*
X583Y4067D01*
X585Y4071D01*
X586Y4075D01*
X587Y4076D01*
X588Y4077D01*
X588Y4078D01*
X588Y4078D01*
X589Y4079D01*
Y4079D01*
X590Y4081D01*
X592Y4083D01*
X596Y4087D01*
X600Y4090D01*
X604Y4093D01*
X607Y4095D01*
X609Y4096D01*
X610Y4097D01*
X611Y4097D01*
X612Y4098D01*
X613Y4098D01*
X613D01*
X615Y4099D01*
X618Y4100D01*
X621Y4101D01*
X624Y4102D01*
X631Y4104D01*
X638Y4106D01*
X641Y4107D01*
X644Y4107D01*
X647Y4108D01*
X649Y4108D01*
X651Y4109D01*
X653Y4109D01*
X654Y4110D01*
X654D01*
X659Y4111D01*
X664Y4112D01*
X669Y4114D01*
X673Y4115D01*
X676Y4116D01*
X679Y4117D01*
X682Y4118D01*
X684Y4119D01*
X686Y4120D01*
X687Y4121D01*
X689Y4121D01*
X690Y4122D01*
X690Y4123D01*
X691Y4123D01*
X691Y4123D01*
X694Y4126D01*
X695Y4128D01*
X696Y4131D01*
X697Y4134D01*
X698Y4136D01*
X698Y4138D01*
X698Y4139D01*
Y4139D01*
Y4140D01*
X698Y4142D01*
X698Y4144D01*
X697Y4147D01*
X695Y4151D01*
X693Y4154D01*
X691Y4156D01*
X690Y4158D01*
X689Y4159D01*
X688Y4159D01*
X688D01*
X686Y4161D01*
X684Y4162D01*
X679Y4164D01*
X673Y4166D01*
X668Y4167D01*
X665Y4167D01*
X663Y4167D01*
X661Y4167D01*
X659D01*
X658Y4168D01*
X652D01*
X648Y4167D01*
X645Y4167D01*
X641Y4166D01*
X639Y4166D01*
X636Y4165D01*
X634Y4164D01*
X631Y4163D01*
X630Y4162D01*
X628Y4161D01*
X626Y4161D01*
X625Y4160D01*
X624Y4159D01*
X624Y4159D01*
X623Y4159D01*
X623Y4159D01*
X621Y4157D01*
X619Y4155D01*
X617Y4151D01*
X614Y4146D01*
X613Y4142D01*
X611Y4138D01*
X611Y4137D01*
X611Y4135D01*
X610Y4134D01*
Y4133D01*
X610Y4132D01*
Y4132D01*
X586Y4134D01*
X587Y4140D01*
X588Y4145D01*
X590Y4150D01*
X591Y4155D01*
X592Y4157D01*
X593Y4158D01*
X594Y4160D01*
X594Y4161D01*
X595Y4162D01*
X595Y4163D01*
X596Y4163D01*
X596Y4163D01*
X599Y4168D01*
X603Y4172D01*
X607Y4175D01*
X611Y4178D01*
X615Y4180D01*
X616Y4181D01*
X617Y4182D01*
X618Y4182D01*
X619Y4182D01*
X620Y4183D01*
X620D01*
X626Y4185D01*
X632Y4187D01*
X639Y4188D01*
X644Y4189D01*
X647Y4189D01*
X649Y4189D01*
X651Y4189D01*
X653Y4190D01*
X657D01*
X663Y4189D01*
D02*
G37*
G36*
X148Y4138D02*
X151Y4138D01*
X155Y4137D01*
X158Y4137D01*
X160Y4136D01*
X162Y4136D01*
X163Y4136D01*
X164Y4135D01*
X164D01*
X167Y4134D01*
X170Y4133D01*
X172Y4132D01*
X174Y4131D01*
X176Y4130D01*
X177Y4129D01*
X178Y4129D01*
X178Y4129D01*
X181Y4127D01*
X183Y4125D01*
X185Y4122D01*
X187Y4120D01*
X188Y4119D01*
X189Y4117D01*
X189Y4116D01*
X190Y4116D01*
X191Y4113D01*
X192Y4110D01*
X193Y4107D01*
X193Y4105D01*
X193Y4102D01*
X194Y4101D01*
Y4100D01*
Y4099D01*
Y4099D01*
X193Y4096D01*
X193Y4092D01*
X192Y4089D01*
X191Y4086D01*
X190Y4084D01*
X190Y4082D01*
X189Y4081D01*
X189Y4081D01*
X187Y4078D01*
X184Y4076D01*
X182Y4074D01*
X179Y4072D01*
X177Y4070D01*
X176Y4069D01*
X174Y4068D01*
X174Y4068D01*
X174D01*
X172Y4067D01*
X170Y4066D01*
X167Y4065D01*
X164Y4065D01*
X158Y4063D01*
X153Y4061D01*
X150Y4060D01*
X147Y4059D01*
X145Y4059D01*
X143Y4058D01*
X141Y4058D01*
X140Y4057D01*
X139Y4057D01*
X139D01*
X136Y4056D01*
X133Y4056D01*
X130Y4055D01*
X127Y4054D01*
X125Y4053D01*
X123Y4053D01*
X122Y4052D01*
X120Y4052D01*
X119Y4051D01*
X118Y4051D01*
X116Y4050D01*
X116Y4050D01*
X115Y4049D01*
X113Y4048D01*
X111Y4046D01*
X110Y4044D01*
X109Y4042D01*
X109Y4040D01*
X109Y4038D01*
Y4038D01*
Y4037D01*
X109Y4034D01*
X110Y4031D01*
X111Y4028D01*
X112Y4026D01*
X114Y4024D01*
X115Y4023D01*
X116Y4022D01*
X116Y4022D01*
X119Y4020D01*
X123Y4018D01*
X127Y4017D01*
X131Y4017D01*
X134Y4016D01*
X136Y4016D01*
X137D01*
X138Y4016D01*
X140D01*
X145Y4016D01*
X150Y4017D01*
X154Y4018D01*
X158Y4019D01*
X161Y4021D01*
X163Y4022D01*
X164Y4023D01*
X164Y4023D01*
X164D01*
X167Y4026D01*
X170Y4029D01*
X171Y4033D01*
X173Y4036D01*
X174Y4039D01*
X174Y4040D01*
X174Y4042D01*
X175Y4043D01*
Y4043D01*
X175Y4044D01*
Y4044D01*
X197Y4040D01*
X197Y4036D01*
X196Y4033D01*
X194Y4029D01*
X193Y4026D01*
X192Y4023D01*
X190Y4020D01*
X189Y4018D01*
X187Y4016D01*
X186Y4014D01*
X185Y4012D01*
X183Y4011D01*
X182Y4010D01*
X181Y4009D01*
X181Y4008D01*
X180Y4008D01*
X180Y4008D01*
X177Y4006D01*
X174Y4004D01*
X171Y4003D01*
X168Y4001D01*
X161Y4000D01*
X155Y3998D01*
X152Y3998D01*
X149Y3998D01*
X146Y3997D01*
X144Y3997D01*
X142Y3997D01*
X140D01*
X134Y3997D01*
X129Y3998D01*
X124Y3999D01*
X119Y4000D01*
X118Y4000D01*
X116Y4001D01*
X115Y4001D01*
X113Y4002D01*
X112Y4002D01*
X112Y4002D01*
X111Y4002D01*
X111D01*
X107Y4005D01*
X103Y4007D01*
X100Y4010D01*
X97Y4012D01*
X95Y4015D01*
X93Y4016D01*
X92Y4018D01*
X92Y4018D01*
Y4018D01*
X90Y4022D01*
X88Y4026D01*
X87Y4029D01*
X86Y4033D01*
X86Y4035D01*
X85Y4038D01*
Y4038D01*
Y4039D01*
Y4039D01*
Y4040D01*
X85Y4044D01*
X86Y4048D01*
X87Y4051D01*
X88Y4054D01*
X89Y4056D01*
X90Y4058D01*
X91Y4059D01*
X91Y4059D01*
X93Y4062D01*
X95Y4064D01*
X98Y4066D01*
X100Y4068D01*
X103Y4069D01*
X104Y4070D01*
X106Y4071D01*
X106Y4071D01*
X106D01*
X108Y4072D01*
X110Y4073D01*
X113Y4074D01*
X115Y4075D01*
X121Y4076D01*
X126Y4078D01*
X129Y4079D01*
X132Y4080D01*
X134Y4080D01*
X136Y4081D01*
X137Y4081D01*
X139Y4082D01*
X139Y4082D01*
X140D01*
X143Y4083D01*
X145Y4083D01*
X148Y4084D01*
X150Y4085D01*
X152Y4085D01*
X153Y4086D01*
X155Y4086D01*
X156Y4086D01*
X158Y4087D01*
X159Y4087D01*
X160Y4088D01*
X160D01*
X162Y4089D01*
X164Y4090D01*
X165Y4091D01*
X167Y4092D01*
X168Y4093D01*
X168Y4093D01*
X169Y4094D01*
X169Y4094D01*
X170Y4095D01*
X170Y4097D01*
X171Y4099D01*
X171Y4100D01*
X171Y4101D01*
Y4102D01*
Y4102D01*
X171Y4104D01*
X170Y4107D01*
X169Y4109D01*
X168Y4111D01*
X167Y4112D01*
X166Y4113D01*
X165Y4114D01*
X165Y4114D01*
X163Y4115D01*
X162Y4116D01*
X158Y4117D01*
X155Y4118D01*
X151Y4119D01*
X148Y4119D01*
X146D01*
X145Y4119D01*
X142D01*
X137Y4119D01*
X133Y4118D01*
X130Y4118D01*
X127Y4116D01*
X125Y4115D01*
X123Y4114D01*
X122Y4114D01*
X121Y4113D01*
X119Y4111D01*
X117Y4108D01*
X115Y4106D01*
X114Y4103D01*
X113Y4101D01*
X113Y4099D01*
X113Y4098D01*
Y4097D01*
Y4097D01*
X90Y4100D01*
X91Y4105D01*
X92Y4109D01*
X94Y4113D01*
X95Y4116D01*
X96Y4118D01*
X97Y4120D01*
X98Y4121D01*
X98Y4121D01*
X101Y4124D01*
X104Y4126D01*
X106Y4128D01*
X109Y4130D01*
X112Y4132D01*
X114Y4133D01*
X115Y4133D01*
X115Y4133D01*
X116Y4134D01*
X116D01*
X121Y4135D01*
X125Y4136D01*
X130Y4137D01*
X134Y4138D01*
X138Y4138D01*
X140D01*
X141Y4138D01*
X144D01*
X148Y4138D01*
D02*
G37*
G36*
X8D02*
X12Y4138D01*
X16Y4137D01*
X20Y4136D01*
X24Y4135D01*
X28Y4133D01*
X31Y4132D01*
X34Y4131D01*
X37Y4129D01*
X39Y4128D01*
X41Y4126D01*
X43Y4125D01*
X44Y4124D01*
X45Y4124D01*
X46Y4123D01*
X46Y4123D01*
X49Y4119D01*
X53Y4116D01*
X55Y4111D01*
X58Y4107D01*
X60Y4102D01*
X61Y4098D01*
X63Y4093D01*
X64Y4088D01*
X65Y4084D01*
X66Y4080D01*
X66Y4077D01*
X66Y4074D01*
X66Y4071D01*
X67Y4069D01*
Y4068D01*
Y4068D01*
Y4067D01*
X66Y4061D01*
X66Y4055D01*
X65Y4050D01*
X64Y4045D01*
X63Y4040D01*
X61Y4036D01*
X59Y4032D01*
X58Y4028D01*
X56Y4025D01*
X55Y4023D01*
X53Y4020D01*
X52Y4019D01*
X51Y4017D01*
X50Y4016D01*
X49Y4015D01*
X49Y4015D01*
X46Y4012D01*
X42Y4009D01*
X38Y4007D01*
X35Y4005D01*
X31Y4003D01*
X27Y4001D01*
X23Y4000D01*
X20Y3999D01*
X16Y3999D01*
X13Y3998D01*
X10Y3998D01*
X8Y3997D01*
X6D01*
X5Y3997D01*
X3D01*
X-3Y3997D01*
X-9Y3998D01*
X-15Y4000D01*
X-17Y4000D01*
X-19Y4001D01*
X-22Y4002D01*
X-24Y4002D01*
X-25Y4003D01*
X-27Y4004D01*
X-28Y4004D01*
X-29Y4005D01*
X-29Y4005D01*
X-29D01*
X-34Y4008D01*
X-39Y4012D01*
X-43Y4016D01*
X-46Y4020D01*
X-49Y4023D01*
X-50Y4025D01*
X-51Y4026D01*
X-51Y4027D01*
X-52Y4028D01*
X-52Y4028D01*
Y4028D01*
X-53Y4031D01*
X-55Y4034D01*
X-57Y4041D01*
X-58Y4048D01*
X-59Y4054D01*
X-59Y4057D01*
X-60Y4060D01*
X-60Y4063D01*
Y4065D01*
X-60Y4067D01*
Y4068D01*
Y4069D01*
Y4069D01*
X-60Y4075D01*
X-59Y4081D01*
X-58Y4086D01*
X-57Y4091D01*
X-56Y4095D01*
X-54Y4099D01*
X-53Y4103D01*
X-51Y4107D01*
X-49Y4110D01*
X-48Y4112D01*
X-46Y4115D01*
X-45Y4116D01*
X-44Y4118D01*
X-43Y4119D01*
X-42Y4120D01*
X-42Y4120D01*
X-39Y4123D01*
X-35Y4126D01*
X-31Y4128D01*
X-28Y4130D01*
X-24Y4132D01*
X-20Y4134D01*
X-16Y4135D01*
X-13Y4136D01*
X-9Y4137D01*
X-6Y4137D01*
X-4Y4138D01*
X-1Y4138D01*
X1D01*
X2Y4138D01*
X3D01*
X8Y4138D01*
D02*
G37*
G36*
X53Y4533D02*
X32D01*
Y4550D01*
X29Y4546D01*
X26Y4543D01*
X23Y4540D01*
X20Y4538D01*
X17Y4536D01*
X14Y4535D01*
X11Y4533D01*
X8Y4532D01*
X5Y4531D01*
X3Y4531D01*
X0Y4530D01*
X-2Y4530D01*
X-3Y4530D01*
X-5Y4530D01*
X-6D01*
X-10Y4530D01*
X-14Y4531D01*
X-18Y4532D01*
X-22Y4533D01*
X-26Y4534D01*
X-29Y4536D01*
X-32Y4537D01*
X-35Y4539D01*
X-38Y4541D01*
X-40Y4543D01*
X-42Y4544D01*
X-44Y4546D01*
X-45Y4547D01*
X-46Y4548D01*
X-47Y4548D01*
X-47Y4549D01*
X-50Y4552D01*
X-52Y4556D01*
X-55Y4560D01*
X-57Y4565D01*
X-58Y4569D01*
X-60Y4574D01*
X-61Y4578D01*
X-62Y4582D01*
X-63Y4586D01*
X-63Y4590D01*
X-64Y4594D01*
X-64Y4597D01*
Y4599D01*
X-64Y4601D01*
Y4602D01*
Y4602D01*
X-64Y4608D01*
X-64Y4613D01*
X-63Y4617D01*
X-62Y4621D01*
X-62Y4623D01*
X-61Y4625D01*
X-61Y4626D01*
X-61Y4627D01*
X-60Y4629D01*
X-60Y4629D01*
X-60Y4630D01*
Y4630D01*
X-58Y4634D01*
X-56Y4639D01*
X-55Y4642D01*
X-53Y4646D01*
X-51Y4648D01*
X-50Y4650D01*
X-49Y4651D01*
X-49Y4652D01*
X-46Y4655D01*
X-43Y4658D01*
X-40Y4660D01*
X-37Y4662D01*
X-34Y4664D01*
X-32Y4665D01*
X-31Y4665D01*
X-31Y4666D01*
X-31Y4666D01*
X-30D01*
X-26Y4667D01*
X-22Y4669D01*
X-18Y4670D01*
X-14Y4670D01*
X-11Y4671D01*
X-10D01*
X-9Y4671D01*
X-7D01*
X-3Y4671D01*
X1Y4670D01*
X5Y4669D01*
X9Y4668D01*
X12Y4667D01*
X15Y4665D01*
X18Y4663D01*
X20Y4662D01*
X23Y4660D01*
X25Y4659D01*
X26Y4657D01*
X28Y4656D01*
X29Y4654D01*
X30Y4654D01*
X30Y4653D01*
X30Y4653D01*
Y4719D01*
X53D01*
Y4533D01*
D02*
G37*
G36*
X1688Y4533D02*
X1665D01*
Y4606D01*
X1665Y4612D01*
X1665Y4617D01*
X1664Y4621D01*
X1664Y4625D01*
X1663Y4628D01*
X1662Y4630D01*
X1662Y4630D01*
X1662Y4631D01*
X1662Y4631D01*
X1660Y4635D01*
X1658Y4637D01*
X1656Y4640D01*
X1654Y4642D01*
X1652Y4643D01*
X1650Y4645D01*
X1649Y4645D01*
X1649Y4646D01*
X1646Y4647D01*
X1642Y4649D01*
X1639Y4650D01*
X1636Y4651D01*
X1633Y4651D01*
X1631Y4651D01*
X1630D01*
X1625Y4651D01*
X1621Y4650D01*
X1617Y4649D01*
X1614Y4647D01*
X1612Y4646D01*
X1610Y4644D01*
X1609Y4644D01*
X1609Y4643D01*
X1607Y4642D01*
X1606Y4640D01*
X1605Y4636D01*
X1603Y4632D01*
X1602Y4628D01*
X1602Y4624D01*
X1602Y4622D01*
Y4621D01*
X1601Y4620D01*
Y4619D01*
Y4618D01*
Y4618D01*
Y4533D01*
X1579D01*
Y4618D01*
Y4622D01*
X1579Y4625D01*
X1579Y4629D01*
X1579Y4631D01*
X1580Y4634D01*
X1580Y4637D01*
X1581Y4639D01*
X1581Y4641D01*
X1581Y4643D01*
X1582Y4644D01*
X1582Y4645D01*
X1583Y4647D01*
X1583Y4647D01*
X1583Y4648D01*
X1583Y4648D01*
Y4649D01*
X1585Y4652D01*
X1588Y4656D01*
X1591Y4658D01*
X1593Y4661D01*
X1595Y4662D01*
X1598Y4664D01*
X1598Y4664D01*
X1599Y4665D01*
X1599Y4665D01*
X1599D01*
X1604Y4667D01*
X1608Y4668D01*
X1612Y4670D01*
X1616Y4670D01*
X1620Y4671D01*
X1621Y4671D01*
X1623Y4671D01*
X1625D01*
X1630Y4671D01*
X1634Y4670D01*
X1638Y4669D01*
X1642Y4668D01*
X1645Y4666D01*
X1649Y4665D01*
X1652Y4663D01*
X1654Y4662D01*
X1657Y4660D01*
X1659Y4658D01*
X1661Y4657D01*
X1663Y4655D01*
X1664Y4654D01*
X1665Y4653D01*
X1665Y4652D01*
X1665Y4652D01*
Y4719D01*
X1688D01*
Y4533D01*
D02*
G37*
G36*
X1985Y4671D02*
X1991Y4670D01*
X1996Y4669D01*
X1998Y4669D01*
X2000Y4669D01*
X2002Y4668D01*
X2004Y4668D01*
X2006Y4667D01*
X2007Y4667D01*
X2008Y4666D01*
X2009Y4666D01*
X2009Y4666D01*
X2009D01*
X2014Y4664D01*
X2018Y4662D01*
X2021Y4660D01*
X2024Y4657D01*
X2026Y4655D01*
X2028Y4654D01*
X2029Y4653D01*
X2029Y4653D01*
Y4652D01*
X2032Y4649D01*
X2034Y4645D01*
X2035Y4641D01*
X2037Y4638D01*
X2038Y4634D01*
X2038Y4633D01*
X2039Y4632D01*
X2039Y4631D01*
X2039Y4630D01*
X2039Y4630D01*
Y4629D01*
X2017Y4626D01*
X2016Y4629D01*
X2015Y4631D01*
X2014Y4635D01*
X2012Y4639D01*
X2010Y4642D01*
X2008Y4644D01*
X2007Y4645D01*
X2006Y4646D01*
X2006Y4646D01*
X2002Y4648D01*
X1998Y4650D01*
X1995Y4651D01*
X1991Y4651D01*
X1987Y4652D01*
X1986D01*
X1984Y4652D01*
X1982D01*
X1976Y4652D01*
X1970Y4651D01*
X1966Y4650D01*
X1962Y4648D01*
X1959Y4646D01*
X1958Y4646D01*
X1957Y4645D01*
X1957Y4645D01*
X1956Y4644D01*
X1956Y4644D01*
X1954Y4642D01*
X1952Y4639D01*
X1951Y4635D01*
X1950Y4632D01*
X1950Y4629D01*
X1949Y4627D01*
Y4626D01*
Y4625D01*
Y4625D01*
Y4624D01*
Y4624D01*
Y4623D01*
Y4621D01*
X1949Y4620D01*
Y4619D01*
Y4619D01*
Y4619D01*
X1952Y4618D01*
X1955Y4617D01*
X1958Y4616D01*
X1961Y4615D01*
X1968Y4614D01*
X1975Y4613D01*
X1978Y4612D01*
X1981Y4612D01*
X1983Y4612D01*
X1986Y4611D01*
X1988Y4611D01*
X1989Y4611D01*
X1990Y4611D01*
X1990D01*
X1995Y4610D01*
X1999Y4609D01*
X2003Y4609D01*
X2006Y4608D01*
X2008Y4608D01*
X2009Y4608D01*
X2010Y4607D01*
X2011D01*
X2014Y4606D01*
X2017Y4605D01*
X2020Y4604D01*
X2022Y4602D01*
X2024Y4601D01*
X2026Y4600D01*
X2027Y4600D01*
X2027Y4600D01*
X2030Y4598D01*
X2032Y4596D01*
X2034Y4593D01*
X2036Y4591D01*
X2037Y4589D01*
X2038Y4588D01*
X2039Y4587D01*
X2039Y4586D01*
X2040Y4583D01*
X2042Y4580D01*
X2042Y4577D01*
X2043Y4574D01*
X2043Y4572D01*
X2043Y4570D01*
Y4569D01*
Y4569D01*
Y4568D01*
X2043Y4565D01*
X2043Y4562D01*
X2042Y4559D01*
X2042Y4557D01*
X2039Y4552D01*
X2037Y4548D01*
X2036Y4546D01*
X2035Y4545D01*
X2034Y4543D01*
X2033Y4542D01*
X2032Y4542D01*
X2032Y4541D01*
X2032Y4541D01*
X2031Y4540D01*
X2029Y4539D01*
X2027Y4537D01*
X2024Y4535D01*
X2021Y4534D01*
X2015Y4532D01*
X2010Y4531D01*
X2007Y4531D01*
X2005Y4530D01*
X2003Y4530D01*
X2001Y4530D01*
X1999Y4530D01*
X1997D01*
X1992Y4530D01*
X1988Y4530D01*
X1983Y4531D01*
X1979Y4532D01*
X1976Y4533D01*
X1975Y4533D01*
X1974Y4534D01*
X1973Y4534D01*
X1973Y4534D01*
X1972Y4534D01*
X1972D01*
X1968Y4536D01*
X1963Y4538D01*
X1959Y4541D01*
X1955Y4544D01*
X1952Y4546D01*
X1951Y4547D01*
X1950Y4548D01*
X1949Y4549D01*
X1948Y4549D01*
X1948Y4550D01*
X1947Y4550D01*
X1947Y4546D01*
X1946Y4543D01*
X1946Y4540D01*
X1945Y4538D01*
X1944Y4536D01*
X1944Y4534D01*
X1943Y4533D01*
X1943Y4533D01*
X1919D01*
X1921Y4536D01*
X1922Y4539D01*
X1923Y4541D01*
X1924Y4544D01*
X1924Y4546D01*
X1925Y4548D01*
X1925Y4549D01*
Y4549D01*
X1925Y4551D01*
X1925Y4553D01*
X1925Y4556D01*
X1926Y4559D01*
X1926Y4562D01*
Y4565D01*
X1926Y4572D01*
Y4576D01*
X1926Y4579D01*
Y4582D01*
Y4584D01*
Y4586D01*
Y4588D01*
Y4589D01*
Y4589D01*
Y4620D01*
Y4623D01*
Y4625D01*
X1926Y4627D01*
Y4630D01*
X1927Y4633D01*
X1927Y4636D01*
X1927Y4638D01*
X1927Y4640D01*
X1927Y4641D01*
Y4641D01*
X1928Y4644D01*
X1929Y4647D01*
X1931Y4650D01*
X1932Y4652D01*
X1933Y4654D01*
X1934Y4655D01*
X1934Y4656D01*
X1935Y4656D01*
X1937Y4659D01*
X1939Y4661D01*
X1942Y4662D01*
X1945Y4664D01*
X1947Y4665D01*
X1949Y4666D01*
X1950Y4666D01*
X1950Y4666D01*
X1950Y4667D01*
X1951D01*
X1955Y4668D01*
X1959Y4669D01*
X1964Y4670D01*
X1969Y4670D01*
X1972Y4671D01*
X1974D01*
X1976Y4671D01*
X1978D01*
X1985Y4671D01*
D02*
G37*
G36*
X1073D02*
X1079Y4670D01*
X1084Y4669D01*
X1087Y4669D01*
X1089Y4669D01*
X1091Y4668D01*
X1093Y4668D01*
X1094Y4667D01*
X1095Y4667D01*
X1096Y4666D01*
X1097Y4666D01*
X1097Y4666D01*
X1098D01*
X1102Y4664D01*
X1106Y4662D01*
X1110Y4660D01*
X1113Y4657D01*
X1115Y4655D01*
X1116Y4654D01*
X1117Y4653D01*
X1118Y4653D01*
Y4652D01*
X1120Y4649D01*
X1122Y4645D01*
X1124Y4641D01*
X1125Y4638D01*
X1126Y4634D01*
X1127Y4633D01*
X1127Y4632D01*
X1127Y4631D01*
X1127Y4630D01*
X1128Y4630D01*
Y4629D01*
X1105Y4626D01*
X1104Y4629D01*
X1104Y4631D01*
X1102Y4635D01*
X1100Y4639D01*
X1098Y4642D01*
X1097Y4644D01*
X1095Y4645D01*
X1094Y4646D01*
X1094Y4646D01*
X1091Y4648D01*
X1087Y4650D01*
X1083Y4651D01*
X1079Y4651D01*
X1076Y4652D01*
X1074D01*
X1073Y4652D01*
X1070D01*
X1064Y4652D01*
X1059Y4651D01*
X1054Y4650D01*
X1051Y4648D01*
X1048Y4646D01*
X1047Y4646D01*
X1046Y4645D01*
X1045Y4645D01*
X1045Y4644D01*
X1044Y4644D01*
X1042Y4642D01*
X1040Y4639D01*
X1039Y4635D01*
X1038Y4632D01*
X1038Y4629D01*
X1038Y4627D01*
Y4626D01*
Y4625D01*
Y4625D01*
Y4624D01*
Y4624D01*
Y4623D01*
Y4621D01*
X1038Y4620D01*
Y4619D01*
Y4619D01*
Y4619D01*
X1040Y4618D01*
X1043Y4617D01*
X1046Y4616D01*
X1050Y4615D01*
X1056Y4614D01*
X1063Y4613D01*
X1066Y4612D01*
X1069Y4612D01*
X1072Y4612D01*
X1074Y4611D01*
X1076Y4611D01*
X1077Y4611D01*
X1078Y4611D01*
X1079D01*
X1083Y4610D01*
X1087Y4609D01*
X1091Y4609D01*
X1094Y4608D01*
X1096Y4608D01*
X1098Y4608D01*
X1099Y4607D01*
X1099D01*
X1102Y4606D01*
X1105Y4605D01*
X1108Y4604D01*
X1111Y4602D01*
X1113Y4601D01*
X1114Y4600D01*
X1115Y4600D01*
X1116Y4600D01*
X1118Y4598D01*
X1120Y4596D01*
X1122Y4593D01*
X1124Y4591D01*
X1125Y4589D01*
X1126Y4588D01*
X1127Y4587D01*
X1127Y4586D01*
X1129Y4583D01*
X1130Y4580D01*
X1131Y4577D01*
X1131Y4574D01*
X1132Y4572D01*
X1132Y4570D01*
Y4569D01*
Y4569D01*
Y4568D01*
X1132Y4565D01*
X1131Y4562D01*
X1131Y4559D01*
X1130Y4557D01*
X1128Y4552D01*
X1126Y4548D01*
X1125Y4546D01*
X1124Y4545D01*
X1123Y4543D01*
X1122Y4542D01*
X1121Y4542D01*
X1120Y4541D01*
X1120Y4541D01*
X1120Y4540D01*
X1117Y4539D01*
X1115Y4537D01*
X1112Y4535D01*
X1109Y4534D01*
X1104Y4532D01*
X1098Y4531D01*
X1096Y4531D01*
X1093Y4530D01*
X1091Y4530D01*
X1089Y4530D01*
X1088Y4530D01*
X1086D01*
X1081Y4530D01*
X1076Y4530D01*
X1072Y4531D01*
X1068Y4532D01*
X1065Y4533D01*
X1063Y4533D01*
X1062Y4534D01*
X1062Y4534D01*
X1061Y4534D01*
X1061Y4534D01*
X1060D01*
X1056Y4536D01*
X1051Y4538D01*
X1047Y4541D01*
X1044Y4544D01*
X1040Y4546D01*
X1039Y4547D01*
X1038Y4548D01*
X1037Y4549D01*
X1036Y4549D01*
X1036Y4550D01*
X1036Y4550D01*
X1035Y4546D01*
X1035Y4543D01*
X1034Y4540D01*
X1033Y4538D01*
X1033Y4536D01*
X1032Y4534D01*
X1032Y4533D01*
X1031Y4533D01*
X1007D01*
X1009Y4536D01*
X1010Y4539D01*
X1011Y4541D01*
X1012Y4544D01*
X1013Y4546D01*
X1013Y4548D01*
X1013Y4549D01*
Y4549D01*
X1013Y4551D01*
X1014Y4553D01*
X1014Y4556D01*
X1014Y4559D01*
X1014Y4562D01*
Y4565D01*
X1014Y4572D01*
Y4576D01*
X1015Y4579D01*
Y4582D01*
Y4584D01*
Y4586D01*
Y4588D01*
Y4589D01*
Y4589D01*
Y4620D01*
Y4623D01*
Y4625D01*
X1015Y4627D01*
Y4630D01*
X1015Y4633D01*
X1015Y4636D01*
X1015Y4638D01*
X1016Y4640D01*
X1016Y4641D01*
Y4641D01*
X1017Y4644D01*
X1018Y4647D01*
X1019Y4650D01*
X1020Y4652D01*
X1021Y4654D01*
X1022Y4655D01*
X1023Y4656D01*
X1023Y4656D01*
X1025Y4659D01*
X1028Y4661D01*
X1030Y4662D01*
X1033Y4664D01*
X1035Y4665D01*
X1037Y4666D01*
X1038Y4666D01*
X1039Y4666D01*
X1039Y4667D01*
X1039D01*
X1043Y4668D01*
X1048Y4669D01*
X1053Y4670D01*
X1057Y4670D01*
X1061Y4671D01*
X1063D01*
X1064Y4671D01*
X1067D01*
X1073Y4671D01*
D02*
G37*
G36*
X1480Y4589D02*
X1410D01*
Y4612D01*
X1480D01*
Y4589D01*
D02*
G37*
G36*
X2246Y4533D02*
X2221D01*
X2181Y4675D01*
X2180Y4678D01*
X2179Y4682D01*
X2178Y4686D01*
X2178Y4689D01*
X2177Y4692D01*
X2177Y4693D01*
X2176Y4694D01*
X2176Y4695D01*
Y4696D01*
X2176Y4696D01*
Y4697D01*
X2176Y4696D01*
X2175Y4695D01*
X2175Y4693D01*
X2174Y4692D01*
X2173Y4688D01*
X2172Y4684D01*
X2171Y4681D01*
X2171Y4679D01*
X2171Y4678D01*
X2170Y4676D01*
X2170Y4676D01*
X2170Y4675D01*
Y4675D01*
X2131Y4533D01*
X2107D01*
X2056Y4719D01*
X2080D01*
X2110Y4599D01*
X2112Y4591D01*
X2114Y4583D01*
X2114Y4580D01*
X2115Y4576D01*
X2116Y4573D01*
X2116Y4571D01*
X2117Y4568D01*
X2118Y4566D01*
X2118Y4564D01*
X2118Y4562D01*
X2119Y4561D01*
X2119Y4560D01*
X2119Y4559D01*
Y4559D01*
X2121Y4571D01*
X2123Y4582D01*
X2125Y4588D01*
X2126Y4593D01*
X2127Y4598D01*
X2128Y4603D01*
X2129Y4608D01*
X2130Y4612D01*
X2131Y4616D01*
X2132Y4619D01*
X2133Y4621D01*
X2133Y4623D01*
X2134Y4624D01*
X2134Y4625D01*
X2160Y4719D01*
X2190D01*
X2226Y4593D01*
X2226Y4592D01*
X2226Y4590D01*
X2227Y4588D01*
X2227Y4586D01*
X2228Y4583D01*
X2229Y4580D01*
X2230Y4574D01*
X2231Y4571D01*
X2232Y4569D01*
X2232Y4566D01*
X2233Y4563D01*
X2233Y4562D01*
X2234Y4560D01*
X2234Y4559D01*
Y4559D01*
X2235Y4566D01*
X2237Y4573D01*
X2238Y4579D01*
X2238Y4582D01*
X2239Y4585D01*
X2240Y4588D01*
X2240Y4590D01*
X2241Y4592D01*
X2241Y4594D01*
X2241Y4595D01*
X2242Y4596D01*
X2242Y4597D01*
Y4597D01*
X2270Y4719D01*
X2295D01*
X2246Y4533D01*
D02*
G37*
G36*
X651Y4533D02*
X652Y4530D01*
X653Y4528D01*
X653Y4527D01*
X654Y4527D01*
X654Y4524D01*
X655Y4522D01*
X656Y4520D01*
X657Y4518D01*
X658Y4515D01*
X659Y4513D01*
X659Y4512D01*
X660Y4511D01*
X660Y4510D01*
X660Y4510D01*
X663Y4507D01*
X664Y4505D01*
X665Y4504D01*
X666Y4504D01*
X667Y4503D01*
X668Y4503D01*
X668Y4503D01*
X670Y4502D01*
X672Y4501D01*
X674Y4501D01*
X676Y4500D01*
X678Y4500D01*
X679Y4500D01*
X680D01*
X682Y4500D01*
X684Y4500D01*
X687Y4501D01*
X689Y4501D01*
X691Y4502D01*
X692Y4502D01*
X693Y4502D01*
X693D01*
X691Y4481D01*
X688Y4480D01*
X685Y4479D01*
X682Y4479D01*
X680Y4478D01*
X678Y4478D01*
X677Y4478D01*
X676D01*
X672Y4478D01*
X668Y4479D01*
X665Y4480D01*
X662Y4481D01*
X660Y4482D01*
X658Y4483D01*
X657Y4483D01*
X657Y4483D01*
X654Y4486D01*
X652Y4488D01*
X649Y4491D01*
X647Y4494D01*
X645Y4496D01*
X644Y4498D01*
X644Y4499D01*
X643Y4500D01*
X643Y4500D01*
Y4500D01*
X642Y4502D01*
X641Y4504D01*
X640Y4506D01*
X639Y4508D01*
X637Y4513D01*
X635Y4518D01*
X634Y4521D01*
X633Y4523D01*
X632Y4525D01*
X632Y4527D01*
X631Y4529D01*
X631Y4530D01*
X630Y4530D01*
Y4531D01*
X579Y4668D01*
X602D01*
X631Y4589D01*
X633Y4583D01*
X635Y4578D01*
X636Y4573D01*
X638Y4568D01*
X638Y4566D01*
X639Y4564D01*
X639Y4562D01*
X639Y4561D01*
X640Y4560D01*
X640Y4559D01*
X640Y4558D01*
Y4558D01*
X642Y4564D01*
X643Y4570D01*
X645Y4575D01*
X647Y4580D01*
X648Y4582D01*
X648Y4584D01*
X649Y4585D01*
X649Y4587D01*
X650Y4588D01*
X650Y4589D01*
X650Y4589D01*
Y4590D01*
X678Y4668D01*
X702D01*
X651Y4533D01*
D02*
G37*
G36*
X1887Y4701D02*
Y4668D01*
X1904D01*
Y4650D01*
X1887D01*
Y4572D01*
Y4569D01*
X1887Y4565D01*
Y4562D01*
X1887Y4559D01*
X1886Y4557D01*
X1886Y4555D01*
X1886Y4553D01*
X1886Y4551D01*
X1885Y4550D01*
X1885Y4548D01*
X1885Y4547D01*
X1885Y4546D01*
X1885Y4545D01*
X1884Y4545D01*
X1883Y4543D01*
X1882Y4541D01*
X1880Y4539D01*
X1878Y4538D01*
X1877Y4536D01*
X1876Y4536D01*
X1875Y4535D01*
X1875Y4535D01*
X1872Y4534D01*
X1869Y4533D01*
X1866Y4532D01*
X1862Y4531D01*
X1859Y4531D01*
X1857Y4531D01*
X1855D01*
X1849Y4531D01*
X1846Y4532D01*
X1844Y4532D01*
X1841Y4532D01*
X1840Y4533D01*
X1838Y4533D01*
X1838D01*
X1841Y4553D01*
X1843Y4553D01*
X1845Y4553D01*
X1847Y4553D01*
X1848D01*
X1850Y4552D01*
X1853D01*
X1855Y4553D01*
X1856Y4553D01*
X1857Y4553D01*
X1858Y4554D01*
X1858Y4554D01*
X1859Y4554D01*
X1859D01*
X1861Y4555D01*
X1862Y4557D01*
X1863Y4558D01*
X1863Y4558D01*
Y4558D01*
X1863Y4560D01*
X1864Y4562D01*
X1864Y4564D01*
Y4566D01*
X1864Y4568D01*
Y4569D01*
Y4571D01*
Y4571D01*
Y4571D01*
Y4650D01*
X1841D01*
Y4668D01*
X1864D01*
Y4715D01*
X1887Y4701D01*
D02*
G37*
G36*
X402Y4722D02*
X407Y4722D01*
X412Y4721D01*
X416Y4721D01*
X421Y4720D01*
X425Y4719D01*
X429Y4718D01*
X432Y4717D01*
X435Y4716D01*
X438Y4715D01*
X440Y4714D01*
X442Y4713D01*
X444Y4712D01*
X445Y4711D01*
X446Y4711D01*
X446Y4711D01*
X450Y4709D01*
X454Y4706D01*
X457Y4703D01*
X460Y4701D01*
X463Y4698D01*
X466Y4695D01*
X468Y4692D01*
X471Y4689D01*
X472Y4686D01*
X474Y4684D01*
X476Y4682D01*
X477Y4680D01*
X478Y4678D01*
X478Y4677D01*
X479Y4676D01*
X479Y4676D01*
X481Y4671D01*
X482Y4667D01*
X484Y4662D01*
X485Y4658D01*
X487Y4650D01*
X488Y4645D01*
X489Y4642D01*
X489Y4638D01*
X490Y4635D01*
X490Y4632D01*
X490Y4630D01*
X490Y4628D01*
Y4626D01*
Y4625D01*
Y4625D01*
X490Y4620D01*
X490Y4615D01*
X489Y4610D01*
X488Y4606D01*
X488Y4601D01*
X487Y4597D01*
X485Y4593D01*
X484Y4590D01*
X483Y4587D01*
X482Y4584D01*
X481Y4581D01*
X481Y4579D01*
X480Y4578D01*
X479Y4576D01*
X479Y4576D01*
X479Y4575D01*
X477Y4571D01*
X474Y4568D01*
X471Y4564D01*
X469Y4561D01*
X466Y4558D01*
X463Y4555D01*
X460Y4552D01*
X458Y4550D01*
X455Y4548D01*
X453Y4546D01*
X450Y4545D01*
X449Y4544D01*
X447Y4543D01*
X446Y4542D01*
X445Y4542D01*
X445Y4541D01*
X441Y4539D01*
X436Y4538D01*
X432Y4536D01*
X428Y4535D01*
X423Y4534D01*
X419Y4533D01*
X415Y4532D01*
X412Y4531D01*
X408Y4531D01*
X405Y4530D01*
X402Y4530D01*
X400Y4530D01*
X398Y4530D01*
X395D01*
X388Y4530D01*
X380Y4531D01*
X374Y4532D01*
X371Y4533D01*
X368Y4533D01*
X365Y4534D01*
X363Y4535D01*
X360Y4535D01*
X359Y4536D01*
X357Y4536D01*
X356Y4537D01*
X356Y4537D01*
X355D01*
X348Y4540D01*
X341Y4543D01*
X335Y4547D01*
X332Y4549D01*
X329Y4551D01*
X327Y4552D01*
X325Y4554D01*
X323Y4555D01*
X321Y4556D01*
X320Y4557D01*
X319Y4558D01*
X318Y4558D01*
X318Y4559D01*
Y4628D01*
X397D01*
Y4606D01*
X342D01*
Y4571D01*
X345Y4568D01*
X349Y4566D01*
X353Y4564D01*
X357Y4562D01*
X360Y4560D01*
X361Y4559D01*
X363Y4559D01*
X364Y4558D01*
X365Y4558D01*
X365Y4558D01*
X365D01*
X371Y4556D01*
X377Y4554D01*
X382Y4553D01*
X387Y4553D01*
X389Y4552D01*
X391Y4552D01*
X392Y4552D01*
X394D01*
X395Y4552D01*
X396D01*
X403Y4552D01*
X410Y4553D01*
X416Y4554D01*
X418Y4555D01*
X421Y4556D01*
X423Y4557D01*
X425Y4557D01*
X427Y4558D01*
X429Y4559D01*
X430Y4559D01*
X431Y4559D01*
X431Y4560D01*
X431D01*
X434Y4561D01*
X437Y4563D01*
X442Y4567D01*
X446Y4571D01*
X450Y4575D01*
X453Y4579D01*
X454Y4581D01*
X455Y4582D01*
X455Y4583D01*
X456Y4584D01*
X456Y4584D01*
X456Y4585D01*
X459Y4591D01*
X461Y4598D01*
X463Y4605D01*
X464Y4612D01*
X464Y4615D01*
X464Y4618D01*
X464Y4620D01*
Y4622D01*
X465Y4624D01*
Y4625D01*
Y4626D01*
Y4626D01*
X464Y4634D01*
X463Y4641D01*
X462Y4647D01*
X462Y4650D01*
X461Y4653D01*
X460Y4655D01*
X460Y4658D01*
X459Y4659D01*
X459Y4661D01*
X458Y4662D01*
X458Y4663D01*
X458Y4664D01*
Y4664D01*
X456Y4668D01*
X454Y4671D01*
X452Y4674D01*
X450Y4677D01*
X449Y4679D01*
X447Y4681D01*
X447Y4682D01*
X446Y4682D01*
X443Y4685D01*
X440Y4688D01*
X436Y4691D01*
X433Y4693D01*
X430Y4694D01*
X428Y4695D01*
X427Y4696D01*
X427Y4696D01*
X426Y4696D01*
X426D01*
X421Y4698D01*
X416Y4699D01*
X411Y4700D01*
X407Y4701D01*
X405Y4701D01*
X403Y4701D01*
X401D01*
X400Y4701D01*
X397D01*
X392Y4701D01*
X387Y4701D01*
X383Y4700D01*
X379Y4699D01*
X376Y4698D01*
X374Y4698D01*
X373Y4697D01*
X373Y4697D01*
X372Y4697D01*
X372Y4696D01*
X371D01*
X367Y4694D01*
X364Y4692D01*
X361Y4690D01*
X358Y4688D01*
X356Y4686D01*
X355Y4685D01*
X354Y4684D01*
X354Y4683D01*
X351Y4680D01*
X349Y4676D01*
X348Y4673D01*
X346Y4669D01*
X345Y4666D01*
X344Y4664D01*
X344Y4663D01*
X343Y4662D01*
X343Y4662D01*
X343Y4661D01*
Y4661D01*
X321Y4667D01*
X323Y4674D01*
X325Y4680D01*
X326Y4682D01*
X327Y4685D01*
X328Y4687D01*
X330Y4689D01*
X331Y4691D01*
X332Y4693D01*
X333Y4694D01*
X333Y4696D01*
X334Y4696D01*
X334Y4697D01*
X335Y4697D01*
X335Y4698D01*
X339Y4702D01*
X343Y4705D01*
X347Y4708D01*
X351Y4711D01*
X355Y4713D01*
X356Y4714D01*
X358Y4715D01*
X359Y4715D01*
X360Y4716D01*
X360Y4716D01*
X360D01*
X367Y4718D01*
X373Y4720D01*
X379Y4721D01*
X385Y4722D01*
X388Y4722D01*
X390Y4722D01*
X392Y4722D01*
X394Y4722D01*
X397D01*
X402Y4722D01*
D02*
G37*
G36*
X2521Y4671D02*
X2526Y4670D01*
X2530Y4669D01*
X2535Y4668D01*
X2539Y4666D01*
X2543Y4665D01*
X2546Y4663D01*
X2549Y4661D01*
X2552Y4660D01*
X2554Y4658D01*
X2557Y4656D01*
X2558Y4655D01*
X2560Y4654D01*
X2561Y4653D01*
X2561Y4652D01*
X2561Y4652D01*
X2564Y4648D01*
X2567Y4644D01*
X2570Y4640D01*
X2572Y4636D01*
X2573Y4631D01*
X2575Y4627D01*
X2576Y4623D01*
X2577Y4618D01*
X2577Y4615D01*
X2578Y4611D01*
X2578Y4608D01*
X2579Y4605D01*
Y4602D01*
X2579Y4600D01*
Y4599D01*
Y4599D01*
X2579Y4593D01*
X2578Y4587D01*
X2577Y4582D01*
X2576Y4577D01*
X2575Y4573D01*
X2573Y4568D01*
X2572Y4564D01*
X2570Y4561D01*
X2569Y4558D01*
X2567Y4555D01*
X2566Y4553D01*
X2564Y4551D01*
X2563Y4550D01*
X2562Y4549D01*
X2562Y4548D01*
X2562Y4548D01*
X2558Y4545D01*
X2555Y4542D01*
X2551Y4539D01*
X2547Y4537D01*
X2543Y4536D01*
X2539Y4534D01*
X2535Y4533D01*
X2532Y4532D01*
X2528Y4531D01*
X2525Y4531D01*
X2522Y4530D01*
X2519Y4530D01*
X2517D01*
X2516Y4530D01*
X2515D01*
X2510Y4530D01*
X2506Y4530D01*
X2502Y4531D01*
X2499Y4532D01*
X2495Y4532D01*
X2492Y4533D01*
X2489Y4534D01*
X2487Y4535D01*
X2484Y4536D01*
X2482Y4537D01*
X2480Y4538D01*
X2479Y4539D01*
X2478Y4540D01*
X2477Y4541D01*
X2476Y4541D01*
X2476Y4541D01*
X2473Y4543D01*
X2471Y4546D01*
X2469Y4548D01*
X2466Y4551D01*
X2463Y4556D01*
X2460Y4561D01*
X2459Y4564D01*
X2458Y4566D01*
X2457Y4568D01*
X2456Y4570D01*
X2456Y4571D01*
X2455Y4572D01*
X2455Y4573D01*
Y4573D01*
X2479Y4576D01*
X2481Y4571D01*
X2483Y4567D01*
X2486Y4563D01*
X2488Y4560D01*
X2490Y4558D01*
X2492Y4556D01*
X2493Y4555D01*
X2493Y4555D01*
X2493D01*
X2497Y4553D01*
X2500Y4551D01*
X2504Y4550D01*
X2507Y4549D01*
X2510Y4549D01*
X2513Y4549D01*
X2513Y4549D01*
X2515D01*
X2518Y4549D01*
X2521Y4549D01*
X2523Y4550D01*
X2526Y4550D01*
X2531Y4552D01*
X2535Y4554D01*
X2537Y4555D01*
X2538Y4557D01*
X2540Y4558D01*
X2541Y4558D01*
X2542Y4559D01*
X2542Y4560D01*
X2543Y4560D01*
X2543Y4560D01*
X2545Y4563D01*
X2547Y4565D01*
X2548Y4568D01*
X2550Y4571D01*
X2552Y4576D01*
X2553Y4582D01*
X2554Y4584D01*
X2554Y4587D01*
X2555Y4589D01*
X2555Y4591D01*
X2555Y4592D01*
X2555Y4594D01*
Y4594D01*
Y4595D01*
X2455D01*
X2454Y4597D01*
Y4599D01*
Y4600D01*
Y4601D01*
X2455Y4607D01*
X2455Y4612D01*
X2456Y4618D01*
X2457Y4623D01*
X2458Y4627D01*
X2460Y4632D01*
X2461Y4636D01*
X2463Y4639D01*
X2464Y4642D01*
X2466Y4645D01*
X2468Y4647D01*
X2469Y4649D01*
X2470Y4651D01*
X2471Y4652D01*
X2471Y4652D01*
X2472Y4652D01*
X2475Y4656D01*
X2478Y4658D01*
X2482Y4661D01*
X2486Y4663D01*
X2489Y4665D01*
X2493Y4666D01*
X2497Y4668D01*
X2500Y4669D01*
X2503Y4669D01*
X2506Y4670D01*
X2509Y4670D01*
X2511Y4671D01*
X2513D01*
X2515Y4671D01*
X2516D01*
X2521Y4671D01*
D02*
G37*
G36*
X1770Y4671D02*
X1776Y4670D01*
X1782Y4668D01*
X1784Y4667D01*
X1787Y4667D01*
X1789Y4666D01*
X1790Y4665D01*
X1792Y4665D01*
X1793Y4664D01*
X1795Y4663D01*
X1795Y4663D01*
X1796Y4663D01*
X1796D01*
X1801Y4659D01*
X1806Y4655D01*
X1810Y4651D01*
X1813Y4647D01*
X1815Y4644D01*
X1816Y4642D01*
X1817Y4641D01*
X1817Y4640D01*
X1818Y4639D01*
X1818Y4638D01*
Y4638D01*
X1821Y4632D01*
X1822Y4625D01*
X1823Y4619D01*
X1824Y4613D01*
X1825Y4610D01*
X1825Y4608D01*
X1825Y4605D01*
Y4603D01*
X1825Y4602D01*
Y4601D01*
Y4600D01*
Y4600D01*
X1825Y4594D01*
X1824Y4588D01*
X1824Y4582D01*
X1823Y4577D01*
X1821Y4573D01*
X1820Y4568D01*
X1818Y4564D01*
X1817Y4561D01*
X1815Y4558D01*
X1814Y4555D01*
X1812Y4553D01*
X1811Y4551D01*
X1810Y4550D01*
X1809Y4549D01*
X1809Y4548D01*
X1808Y4548D01*
X1805Y4544D01*
X1802Y4542D01*
X1798Y4539D01*
X1794Y4537D01*
X1791Y4536D01*
X1787Y4534D01*
X1783Y4533D01*
X1780Y4532D01*
X1777Y4531D01*
X1774Y4531D01*
X1771Y4530D01*
X1769Y4530D01*
X1767D01*
X1765Y4530D01*
X1764D01*
X1760Y4530D01*
X1756Y4530D01*
X1752Y4531D01*
X1749Y4532D01*
X1746Y4533D01*
X1743Y4534D01*
X1740Y4535D01*
X1737Y4536D01*
X1735Y4538D01*
X1733Y4539D01*
X1731Y4540D01*
X1729Y4541D01*
X1728Y4542D01*
X1727Y4542D01*
X1727Y4543D01*
X1727Y4543D01*
X1724Y4545D01*
X1722Y4548D01*
X1719Y4551D01*
X1717Y4554D01*
X1716Y4557D01*
X1714Y4560D01*
X1712Y4566D01*
X1711Y4569D01*
X1710Y4571D01*
X1709Y4573D01*
X1709Y4575D01*
X1708Y4577D01*
X1708Y4578D01*
X1708Y4579D01*
Y4579D01*
X1730Y4582D01*
X1731Y4579D01*
X1731Y4576D01*
X1732Y4573D01*
X1733Y4571D01*
X1734Y4569D01*
X1735Y4566D01*
X1736Y4565D01*
X1737Y4563D01*
X1738Y4561D01*
X1739Y4560D01*
X1740Y4558D01*
X1741Y4557D01*
X1742Y4557D01*
X1742Y4557D01*
X1745Y4554D01*
X1749Y4552D01*
X1753Y4551D01*
X1756Y4550D01*
X1760Y4549D01*
X1761Y4549D01*
X1762D01*
X1763Y4549D01*
X1764D01*
X1767Y4549D01*
X1770Y4549D01*
X1773Y4550D01*
X1775Y4551D01*
X1780Y4552D01*
X1784Y4555D01*
X1786Y4556D01*
X1787Y4557D01*
X1788Y4558D01*
X1790Y4559D01*
X1790Y4560D01*
X1791Y4560D01*
X1791Y4561D01*
X1791Y4561D01*
X1793Y4563D01*
X1795Y4566D01*
X1796Y4569D01*
X1797Y4572D01*
X1799Y4579D01*
X1801Y4585D01*
X1801Y4588D01*
X1801Y4591D01*
X1801Y4594D01*
X1802Y4596D01*
X1802Y4598D01*
Y4599D01*
Y4600D01*
Y4600D01*
X1802Y4605D01*
X1801Y4610D01*
X1801Y4614D01*
X1800Y4618D01*
X1799Y4621D01*
X1798Y4625D01*
X1797Y4627D01*
X1796Y4630D01*
X1795Y4632D01*
X1794Y4634D01*
X1793Y4636D01*
X1793Y4637D01*
X1792Y4638D01*
X1791Y4639D01*
X1791Y4639D01*
X1791Y4640D01*
X1789Y4642D01*
X1787Y4644D01*
X1784Y4645D01*
X1782Y4647D01*
X1780Y4648D01*
X1777Y4649D01*
X1773Y4651D01*
X1769Y4652D01*
X1767Y4652D01*
X1766Y4652D01*
X1765Y4652D01*
X1763D01*
X1759Y4652D01*
X1755Y4651D01*
X1752Y4650D01*
X1749Y4649D01*
X1747Y4647D01*
X1745Y4646D01*
X1744Y4645D01*
X1744Y4645D01*
X1741Y4642D01*
X1738Y4639D01*
X1736Y4636D01*
X1735Y4632D01*
X1734Y4629D01*
X1733Y4627D01*
X1733Y4626D01*
X1732Y4625D01*
X1732Y4625D01*
Y4625D01*
X1710Y4628D01*
X1711Y4632D01*
X1712Y4635D01*
X1713Y4639D01*
X1714Y4642D01*
X1716Y4644D01*
X1717Y4647D01*
X1719Y4649D01*
X1721Y4652D01*
X1722Y4653D01*
X1723Y4655D01*
X1725Y4656D01*
X1726Y4658D01*
X1727Y4658D01*
X1727Y4659D01*
X1728Y4659D01*
X1728Y4660D01*
X1731Y4662D01*
X1733Y4663D01*
X1736Y4665D01*
X1740Y4666D01*
X1746Y4668D01*
X1751Y4670D01*
X1754Y4670D01*
X1756Y4670D01*
X1759Y4671D01*
X1760Y4671D01*
X1762Y4671D01*
X1764D01*
X1770Y4671D01*
D02*
G37*
G36*
X2368Y4671D02*
X2373Y4670D01*
X2377Y4669D01*
X2381Y4667D01*
X2385Y4666D01*
X2389Y4664D01*
X2392Y4662D01*
X2395Y4660D01*
X2397Y4658D01*
X2400Y4656D01*
X2401Y4654D01*
X2403Y4652D01*
X2404Y4651D01*
X2405Y4650D01*
X2406Y4649D01*
X2406Y4649D01*
Y4668D01*
X2426D01*
Y4533D01*
X2403D01*
Y4606D01*
X2403Y4611D01*
X2403Y4616D01*
X2402Y4619D01*
X2402Y4623D01*
X2401Y4626D01*
X2400Y4629D01*
X2399Y4632D01*
X2398Y4634D01*
X2397Y4636D01*
X2396Y4638D01*
X2395Y4639D01*
X2395Y4640D01*
X2394Y4641D01*
X2393Y4641D01*
X2393Y4642D01*
X2393Y4642D01*
X2391Y4643D01*
X2389Y4645D01*
X2385Y4647D01*
X2380Y4649D01*
X2376Y4650D01*
X2373Y4651D01*
X2371Y4651D01*
X2370D01*
X2369Y4651D01*
X2368D01*
X2364Y4651D01*
X2361Y4651D01*
X2359Y4650D01*
X2356Y4649D01*
X2354Y4648D01*
X2353Y4647D01*
X2352Y4647D01*
X2352Y4647D01*
X2349Y4645D01*
X2347Y4643D01*
X2346Y4642D01*
X2345Y4640D01*
X2343Y4638D01*
X2343Y4637D01*
X2342Y4636D01*
X2342Y4636D01*
X2341Y4633D01*
X2341Y4630D01*
X2340Y4626D01*
X2340Y4623D01*
X2340Y4620D01*
X2339Y4618D01*
Y4617D01*
Y4616D01*
Y4616D01*
Y4615D01*
Y4615D01*
Y4533D01*
X2317D01*
Y4616D01*
Y4619D01*
Y4621D01*
X2317Y4624D01*
Y4626D01*
X2317Y4628D01*
Y4630D01*
X2317Y4633D01*
X2318Y4635D01*
X2318Y4637D01*
X2318Y4638D01*
Y4638D01*
X2319Y4642D01*
X2320Y4645D01*
X2321Y4648D01*
X2322Y4650D01*
X2324Y4652D01*
X2324Y4654D01*
X2325Y4655D01*
X2325Y4655D01*
X2327Y4658D01*
X2330Y4660D01*
X2332Y4662D01*
X2335Y4663D01*
X2337Y4665D01*
X2339Y4666D01*
X2340Y4666D01*
X2340Y4666D01*
X2340D01*
X2344Y4668D01*
X2348Y4669D01*
X2352Y4670D01*
X2355Y4670D01*
X2358Y4671D01*
X2360D01*
X2361Y4671D01*
X2363D01*
X2368Y4671D01*
D02*
G37*
G36*
X1309Y4533D02*
X1242D01*
X1236Y4533D01*
X1230Y4533D01*
X1225Y4534D01*
X1221Y4534D01*
X1219Y4535D01*
X1217Y4535D01*
X1216Y4535D01*
X1215Y4535D01*
X1214Y4536D01*
X1213D01*
X1213Y4536D01*
X1212D01*
X1208Y4537D01*
X1203Y4539D01*
X1199Y4540D01*
X1196Y4542D01*
X1194Y4543D01*
X1191Y4544D01*
X1190Y4545D01*
X1190Y4545D01*
X1190D01*
X1186Y4548D01*
X1183Y4550D01*
X1180Y4553D01*
X1178Y4556D01*
X1176Y4558D01*
X1174Y4560D01*
X1174Y4561D01*
X1173Y4562D01*
X1173Y4562D01*
Y4562D01*
X1170Y4566D01*
X1168Y4571D01*
X1165Y4575D01*
X1164Y4580D01*
X1162Y4583D01*
X1162Y4585D01*
X1161Y4586D01*
X1161Y4588D01*
X1160Y4588D01*
X1160Y4589D01*
Y4589D01*
X1159Y4596D01*
X1157Y4602D01*
X1156Y4608D01*
X1156Y4614D01*
X1156Y4617D01*
X1155Y4619D01*
Y4621D01*
X1155Y4623D01*
Y4625D01*
Y4626D01*
Y4627D01*
Y4627D01*
X1156Y4636D01*
X1156Y4640D01*
X1156Y4644D01*
X1157Y4648D01*
X1158Y4652D01*
X1158Y4655D01*
X1159Y4658D01*
X1160Y4661D01*
X1160Y4664D01*
X1161Y4666D01*
X1161Y4668D01*
X1162Y4669D01*
X1162Y4670D01*
X1163Y4671D01*
Y4671D01*
X1166Y4678D01*
X1169Y4684D01*
X1171Y4687D01*
X1173Y4690D01*
X1175Y4692D01*
X1176Y4694D01*
X1178Y4696D01*
X1180Y4698D01*
X1181Y4700D01*
X1182Y4701D01*
X1183Y4702D01*
X1184Y4702D01*
X1184Y4703D01*
X1185Y4703D01*
X1189Y4706D01*
X1194Y4709D01*
X1198Y4712D01*
X1202Y4713D01*
X1206Y4715D01*
X1208Y4715D01*
X1209Y4716D01*
X1210Y4716D01*
X1211Y4716D01*
X1212Y4716D01*
X1212D01*
X1214Y4717D01*
X1217Y4717D01*
X1222Y4718D01*
X1227Y4719D01*
X1233Y4719D01*
X1235Y4719D01*
X1238D01*
X1240Y4719D01*
X1309D01*
Y4533D01*
D02*
G37*
G36*
X921Y4671D02*
X926Y4670D01*
X930Y4669D01*
X934Y4667D01*
X938Y4666D01*
X942Y4664D01*
X945Y4662D01*
X948Y4660D01*
X950Y4658D01*
X953Y4656D01*
X954Y4654D01*
X956Y4652D01*
X957Y4651D01*
X958Y4650D01*
X958Y4649D01*
X959Y4649D01*
Y4668D01*
X979D01*
Y4533D01*
X956D01*
Y4606D01*
X956Y4611D01*
X956Y4616D01*
X955Y4619D01*
X955Y4623D01*
X954Y4626D01*
X953Y4629D01*
X952Y4632D01*
X951Y4634D01*
X950Y4636D01*
X949Y4638D01*
X948Y4639D01*
X947Y4640D01*
X947Y4641D01*
X946Y4641D01*
X946Y4642D01*
X946Y4642D01*
X944Y4643D01*
X942Y4645D01*
X937Y4647D01*
X933Y4649D01*
X929Y4650D01*
X926Y4651D01*
X924Y4651D01*
X923D01*
X922Y4651D01*
X921D01*
X917Y4651D01*
X914Y4651D01*
X912Y4650D01*
X909Y4649D01*
X907Y4648D01*
X906Y4647D01*
X905Y4647D01*
X905Y4647D01*
X902Y4645D01*
X900Y4643D01*
X899Y4642D01*
X897Y4640D01*
X896Y4638D01*
X896Y4637D01*
X895Y4636D01*
X895Y4636D01*
X894Y4633D01*
X894Y4630D01*
X893Y4626D01*
X893Y4623D01*
X893Y4620D01*
X892Y4618D01*
Y4617D01*
Y4616D01*
Y4616D01*
Y4615D01*
Y4615D01*
Y4533D01*
X869D01*
Y4616D01*
Y4619D01*
Y4621D01*
X870Y4624D01*
Y4626D01*
X870Y4628D01*
Y4630D01*
X870Y4633D01*
X871Y4635D01*
X871Y4637D01*
X871Y4638D01*
Y4638D01*
X872Y4642D01*
X873Y4645D01*
X874Y4648D01*
X875Y4650D01*
X876Y4652D01*
X877Y4654D01*
X878Y4655D01*
X878Y4655D01*
X880Y4658D01*
X882Y4660D01*
X885Y4662D01*
X887Y4663D01*
X890Y4665D01*
X892Y4666D01*
X893Y4666D01*
X893Y4666D01*
X893D01*
X897Y4668D01*
X901Y4669D01*
X905Y4670D01*
X908Y4670D01*
X911Y4671D01*
X913D01*
X914Y4671D01*
X916D01*
X921Y4671D01*
D02*
G37*
G36*
X776D02*
X781Y4670D01*
X785Y4669D01*
X790Y4667D01*
X793Y4666D01*
X797Y4664D01*
X800Y4662D01*
X803Y4660D01*
X805Y4658D01*
X808Y4656D01*
X810Y4654D01*
X811Y4652D01*
X812Y4651D01*
X813Y4650D01*
X814Y4649D01*
X814Y4649D01*
Y4668D01*
X834D01*
Y4533D01*
X812D01*
Y4606D01*
X811Y4611D01*
X811Y4616D01*
X811Y4619D01*
X810Y4623D01*
X809Y4626D01*
X808Y4629D01*
X807Y4632D01*
X806Y4634D01*
X805Y4636D01*
X804Y4638D01*
X803Y4639D01*
X803Y4640D01*
X802Y4641D01*
X801Y4641D01*
X801Y4642D01*
X801Y4642D01*
X799Y4643D01*
X797Y4645D01*
X793Y4647D01*
X788Y4649D01*
X784Y4650D01*
X781Y4651D01*
X779Y4651D01*
X778D01*
X777Y4651D01*
X776D01*
X772Y4651D01*
X769Y4651D01*
X767Y4650D01*
X764Y4649D01*
X762Y4648D01*
X761Y4647D01*
X760Y4647D01*
X760Y4647D01*
X757Y4645D01*
X755Y4643D01*
X754Y4642D01*
X753Y4640D01*
X752Y4638D01*
X751Y4637D01*
X751Y4636D01*
X750Y4636D01*
X749Y4633D01*
X749Y4630D01*
X748Y4626D01*
X748Y4623D01*
X748Y4620D01*
X747Y4618D01*
Y4617D01*
Y4616D01*
Y4616D01*
Y4615D01*
Y4615D01*
Y4533D01*
X725D01*
Y4616D01*
Y4619D01*
Y4621D01*
X725Y4624D01*
Y4626D01*
X725Y4628D01*
Y4630D01*
X725Y4633D01*
X726Y4635D01*
X726Y4637D01*
X726Y4638D01*
Y4638D01*
X727Y4642D01*
X728Y4645D01*
X729Y4648D01*
X730Y4650D01*
X732Y4652D01*
X732Y4654D01*
X733Y4655D01*
X733Y4655D01*
X735Y4658D01*
X738Y4660D01*
X740Y4662D01*
X743Y4663D01*
X745Y4665D01*
X747Y4666D01*
X748Y4666D01*
X748Y4666D01*
X749D01*
X752Y4668D01*
X756Y4669D01*
X760Y4670D01*
X763Y4670D01*
X766Y4671D01*
X768D01*
X769Y4671D01*
X771D01*
X776Y4671D01*
D02*
G37*
G36*
X238D02*
X240Y4670D01*
X243Y4670D01*
X245Y4669D01*
X247Y4668D01*
X248Y4667D01*
X249Y4666D01*
X249Y4666D01*
X251Y4665D01*
X252Y4664D01*
X254Y4661D01*
X257Y4658D01*
X259Y4655D01*
X261Y4652D01*
X262Y4650D01*
X263Y4649D01*
X264Y4648D01*
X264Y4647D01*
Y4668D01*
X285D01*
Y4533D01*
X262D01*
Y4603D01*
X261Y4609D01*
X261Y4614D01*
X260Y4618D01*
X260Y4622D01*
X259Y4625D01*
X259Y4627D01*
X259Y4628D01*
X258Y4629D01*
X258Y4630D01*
X258Y4630D01*
Y4630D01*
X257Y4633D01*
X256Y4636D01*
X254Y4638D01*
X253Y4639D01*
X252Y4641D01*
X251Y4642D01*
X250Y4642D01*
X250Y4643D01*
X247Y4644D01*
X245Y4645D01*
X243Y4646D01*
X240Y4647D01*
X239Y4647D01*
X237Y4647D01*
X236D01*
X233Y4647D01*
X230Y4646D01*
X227Y4646D01*
X225Y4645D01*
X222Y4644D01*
X221Y4643D01*
X220Y4642D01*
X219Y4642D01*
X211Y4663D01*
X216Y4666D01*
X220Y4668D01*
X224Y4669D01*
X228Y4670D01*
X231Y4671D01*
X232Y4671D01*
X233D01*
X234Y4671D01*
X235D01*
X238Y4671D01*
D02*
G37*
G36*
X2841Y4722D02*
X2848Y4721D01*
X2855Y4720D01*
X2861Y4718D01*
X2866Y4716D01*
X2872Y4714D01*
X2877Y4712D01*
X2881Y4709D01*
X2885Y4707D01*
X2888Y4704D01*
X2891Y4702D01*
X2894Y4700D01*
X2896Y4699D01*
X2897Y4697D01*
X2898Y4696D01*
X2898Y4696D01*
X2903Y4691D01*
X2907Y4685D01*
X2910Y4680D01*
X2913Y4674D01*
X2915Y4668D01*
X2917Y4662D01*
X2919Y4656D01*
X2920Y4650D01*
X2921Y4644D01*
X2922Y4640D01*
X2922Y4635D01*
X2923Y4631D01*
X2923Y4628D01*
Y4627D01*
X2923Y4625D01*
Y4625D01*
Y4624D01*
Y4624D01*
Y4623D01*
X2923Y4619D01*
X2923Y4614D01*
X2922Y4606D01*
X2921Y4602D01*
X2920Y4598D01*
X2919Y4594D01*
X2918Y4591D01*
X2917Y4588D01*
X2916Y4585D01*
X2915Y4583D01*
X2914Y4581D01*
X2914Y4579D01*
X2913Y4578D01*
X2913Y4577D01*
X2913Y4577D01*
X2911Y4573D01*
X2908Y4569D01*
X2906Y4566D01*
X2903Y4562D01*
X2901Y4559D01*
X2898Y4556D01*
X2896Y4554D01*
X2893Y4551D01*
X2891Y4549D01*
X2888Y4548D01*
X2886Y4546D01*
X2885Y4545D01*
X2883Y4544D01*
X2882Y4543D01*
X2881Y4542D01*
X2881Y4542D01*
X2877Y4540D01*
X2873Y4538D01*
X2869Y4536D01*
X2865Y4535D01*
X2861Y4534D01*
X2857Y4533D01*
X2853Y4532D01*
X2850Y4531D01*
X2846Y4531D01*
X2844Y4530D01*
X2841Y4530D01*
X2839Y4530D01*
X2837Y4530D01*
X2834D01*
X2830Y4530D01*
X2825Y4530D01*
X2817Y4532D01*
X2813Y4532D01*
X2809Y4533D01*
X2806Y4534D01*
X2802Y4535D01*
X2799Y4536D01*
X2797Y4537D01*
X2795Y4538D01*
X2793Y4539D01*
X2791Y4540D01*
X2790Y4541D01*
X2789Y4541D01*
X2789Y4541D01*
X2785Y4543D01*
X2781Y4546D01*
X2778Y4549D01*
X2775Y4551D01*
X2772Y4554D01*
X2769Y4557D01*
X2767Y4560D01*
X2765Y4562D01*
X2763Y4565D01*
X2761Y4567D01*
X2760Y4570D01*
X2758Y4571D01*
X2758Y4573D01*
X2757Y4574D01*
X2757Y4575D01*
X2756Y4575D01*
X2754Y4579D01*
X2753Y4584D01*
X2751Y4588D01*
X2750Y4592D01*
X2749Y4597D01*
X2748Y4601D01*
X2747Y4605D01*
X2746Y4609D01*
X2746Y4612D01*
X2745Y4616D01*
X2745Y4618D01*
X2745Y4621D01*
X2745Y4623D01*
Y4624D01*
Y4625D01*
Y4626D01*
X2745Y4631D01*
X2745Y4636D01*
X2746Y4641D01*
X2746Y4645D01*
X2747Y4650D01*
X2748Y4654D01*
X2749Y4658D01*
X2750Y4661D01*
X2751Y4664D01*
X2752Y4667D01*
X2753Y4670D01*
X2754Y4672D01*
X2755Y4673D01*
X2755Y4675D01*
X2756Y4675D01*
X2756Y4676D01*
X2758Y4680D01*
X2760Y4683D01*
X2763Y4687D01*
X2765Y4690D01*
X2768Y4693D01*
X2771Y4696D01*
X2773Y4699D01*
X2776Y4701D01*
X2778Y4703D01*
X2780Y4705D01*
X2782Y4707D01*
X2784Y4708D01*
X2785Y4709D01*
X2786Y4710D01*
X2787Y4710D01*
X2787Y4710D01*
X2792Y4712D01*
X2795Y4714D01*
X2799Y4716D01*
X2803Y4717D01*
X2807Y4718D01*
X2811Y4719D01*
X2815Y4720D01*
X2819Y4721D01*
X2822Y4721D01*
X2825Y4722D01*
X2827Y4722D01*
X2830Y4722D01*
X2832Y4722D01*
X2834D01*
X2841Y4722D01*
D02*
G37*
G36*
X148Y4671D02*
X152Y4670D01*
X156Y4670D01*
X160Y4669D01*
X164Y4667D01*
X167Y4666D01*
X171Y4665D01*
X173Y4663D01*
X176Y4662D01*
X178Y4661D01*
X180Y4659D01*
X182Y4658D01*
X184Y4657D01*
X185Y4656D01*
X185Y4656D01*
X185Y4656D01*
X189Y4652D01*
X192Y4648D01*
X195Y4644D01*
X197Y4640D01*
X199Y4635D01*
X201Y4630D01*
X203Y4626D01*
X204Y4621D01*
X204Y4617D01*
X205Y4613D01*
X206Y4610D01*
X206Y4606D01*
X206Y4604D01*
X206Y4602D01*
Y4601D01*
Y4600D01*
Y4600D01*
X206Y4594D01*
X205Y4588D01*
X205Y4583D01*
X204Y4578D01*
X202Y4573D01*
X201Y4569D01*
X199Y4565D01*
X197Y4561D01*
X196Y4558D01*
X194Y4555D01*
X193Y4553D01*
X191Y4551D01*
X190Y4550D01*
X190Y4549D01*
X189Y4548D01*
X189Y4548D01*
X185Y4545D01*
X182Y4542D01*
X178Y4539D01*
X174Y4537D01*
X170Y4536D01*
X167Y4534D01*
X163Y4533D01*
X159Y4532D01*
X156Y4531D01*
X153Y4531D01*
X150Y4530D01*
X148Y4530D01*
X146D01*
X144Y4530D01*
X143D01*
X136Y4530D01*
X130Y4531D01*
X125Y4532D01*
X122Y4533D01*
X120Y4534D01*
X118Y4535D01*
X116Y4535D01*
X114Y4536D01*
X113Y4537D01*
X112Y4537D01*
X111Y4537D01*
X111Y4538D01*
X110D01*
X105Y4541D01*
X100Y4545D01*
X97Y4549D01*
X93Y4553D01*
X91Y4556D01*
X90Y4557D01*
X89Y4559D01*
X88Y4560D01*
X88Y4560D01*
X88Y4561D01*
Y4561D01*
X86Y4564D01*
X85Y4567D01*
X83Y4574D01*
X82Y4581D01*
X81Y4587D01*
X80Y4590D01*
X80Y4593D01*
X80Y4596D01*
Y4598D01*
X80Y4600D01*
Y4601D01*
Y4602D01*
Y4602D01*
X80Y4608D01*
X80Y4614D01*
X81Y4619D01*
X83Y4624D01*
X84Y4628D01*
X85Y4632D01*
X87Y4636D01*
X89Y4639D01*
X90Y4642D01*
X92Y4645D01*
X93Y4647D01*
X95Y4649D01*
X96Y4651D01*
X97Y4652D01*
X97Y4652D01*
X97Y4653D01*
X101Y4656D01*
X105Y4659D01*
X108Y4661D01*
X112Y4663D01*
X116Y4665D01*
X119Y4666D01*
X123Y4668D01*
X127Y4669D01*
X130Y4669D01*
X133Y4670D01*
X136Y4670D01*
X138Y4671D01*
X140D01*
X142Y4671D01*
X143D01*
X148Y4671D01*
D02*
G37*
G36*
X2661D02*
X2665Y4670D01*
X2669Y4669D01*
X2672Y4668D01*
X2675Y4667D01*
X2677Y4666D01*
X2678Y4666D01*
X2678Y4666D01*
X2679D01*
X2682Y4663D01*
X2685Y4661D01*
X2688Y4658D01*
X2690Y4656D01*
X2692Y4654D01*
X2694Y4652D01*
X2695Y4651D01*
X2695Y4650D01*
Y4668D01*
X2716D01*
Y4481D01*
X2693D01*
Y4547D01*
X2691Y4544D01*
X2689Y4542D01*
X2686Y4539D01*
X2684Y4538D01*
X2682Y4536D01*
X2680Y4535D01*
X2679Y4535D01*
X2678Y4534D01*
X2675Y4533D01*
X2671Y4532D01*
X2668Y4531D01*
X2665Y4530D01*
X2662Y4530D01*
X2660Y4530D01*
X2658D01*
X2655Y4530D01*
X2652Y4530D01*
X2646Y4531D01*
X2641Y4533D01*
X2637Y4534D01*
X2635Y4535D01*
X2633Y4536D01*
X2632Y4536D01*
X2630Y4537D01*
X2629Y4538D01*
X2629Y4538D01*
X2628Y4538D01*
X2628D01*
X2623Y4542D01*
X2619Y4546D01*
X2615Y4550D01*
X2612Y4555D01*
X2609Y4558D01*
X2609Y4560D01*
X2608Y4561D01*
X2607Y4562D01*
X2607Y4563D01*
X2606Y4564D01*
Y4564D01*
X2604Y4570D01*
X2602Y4577D01*
X2601Y4583D01*
X2600Y4589D01*
X2599Y4591D01*
X2599Y4594D01*
X2599Y4596D01*
Y4598D01*
X2599Y4599D01*
Y4600D01*
Y4601D01*
Y4601D01*
X2599Y4608D01*
X2600Y4615D01*
X2601Y4621D01*
X2602Y4624D01*
X2602Y4626D01*
X2603Y4629D01*
X2603Y4631D01*
X2604Y4633D01*
X2605Y4634D01*
X2605Y4635D01*
X2605Y4636D01*
X2606Y4637D01*
Y4637D01*
X2609Y4642D01*
X2612Y4647D01*
X2615Y4652D01*
X2618Y4655D01*
X2621Y4658D01*
X2623Y4660D01*
X2624Y4661D01*
X2625Y4661D01*
X2625Y4662D01*
X2626D01*
X2628Y4663D01*
X2631Y4665D01*
X2636Y4667D01*
X2641Y4669D01*
X2646Y4670D01*
X2648Y4670D01*
X2650Y4671D01*
X2652Y4671D01*
X2653D01*
X2655Y4671D01*
X2656D01*
X2661Y4671D01*
D02*
G37*
G36*
X3297Y-4439D02*
X3276D01*
X3216Y-4252D01*
X3237D01*
X3278Y-4388D01*
X3280Y-4394D01*
X3282Y-4399D01*
X3283Y-4404D01*
X3284Y-4409D01*
X3285Y-4411D01*
X3285Y-4413D01*
X3286Y-4414D01*
X3286Y-4416D01*
X3286Y-4417D01*
X3286Y-4418D01*
X3287Y-4418D01*
Y-4418D01*
X3288Y-4413D01*
X3289Y-4407D01*
X3291Y-4402D01*
X3292Y-4398D01*
X3293Y-4396D01*
X3293Y-4394D01*
X3293Y-4392D01*
X3294Y-4391D01*
X3294Y-4390D01*
X3294Y-4389D01*
X3295Y-4388D01*
Y-4388D01*
X3334Y-4252D01*
X3356D01*
X3297Y-4439D01*
D02*
G37*
G36*
X3056Y-4360D02*
X3055Y-4368D01*
X3055Y-4376D01*
X3054Y-4383D01*
X3053Y-4390D01*
X3052Y-4395D01*
X3051Y-4400D01*
X3049Y-4405D01*
X3048Y-4409D01*
X3047Y-4413D01*
X3045Y-4416D01*
X3044Y-4418D01*
X3043Y-4421D01*
X3042Y-4422D01*
X3041Y-4423D01*
X3041Y-4424D01*
X3041Y-4424D01*
X3038Y-4427D01*
X3034Y-4430D01*
X3031Y-4432D01*
X3027Y-4434D01*
X3023Y-4436D01*
X3020Y-4438D01*
X3016Y-4439D01*
X3012Y-4440D01*
X3009Y-4441D01*
X3006Y-4441D01*
X3003Y-4441D01*
X3000Y-4442D01*
X2998D01*
X2997Y-4442D01*
X2995D01*
X2991Y-4442D01*
X2988Y-4442D01*
X2984Y-4441D01*
X2981Y-4440D01*
X2978Y-4440D01*
X2975Y-4439D01*
X2972Y-4438D01*
X2970Y-4437D01*
X2967Y-4436D01*
X2966Y-4435D01*
X2964Y-4434D01*
X2962Y-4434D01*
X2961Y-4433D01*
X2961Y-4432D01*
X2960Y-4432D01*
X2960Y-4432D01*
X2955Y-4428D01*
X2951Y-4424D01*
X2948Y-4419D01*
X2945Y-4415D01*
X2943Y-4411D01*
X2942Y-4409D01*
X2942Y-4408D01*
X2941Y-4406D01*
X2941Y-4406D01*
X2941Y-4405D01*
Y-4405D01*
X2940Y-4401D01*
X2939Y-4398D01*
X2938Y-4390D01*
X2937Y-4383D01*
X2936Y-4376D01*
X2936Y-4373D01*
X2936Y-4370D01*
Y-4367D01*
X2935Y-4365D01*
Y-4363D01*
Y-4361D01*
Y-4360D01*
Y-4360D01*
Y-4252D01*
X2956D01*
Y-4360D01*
X2956Y-4366D01*
X2956Y-4372D01*
X2957Y-4377D01*
X2957Y-4382D01*
X2958Y-4387D01*
X2959Y-4391D01*
X2960Y-4394D01*
X2961Y-4397D01*
X2961Y-4400D01*
X2962Y-4402D01*
X2963Y-4404D01*
X2964Y-4405D01*
X2965Y-4406D01*
X2965Y-4407D01*
X2965Y-4407D01*
X2966Y-4408D01*
X2967Y-4410D01*
X2970Y-4412D01*
X2972Y-4413D01*
X2975Y-4415D01*
X2977Y-4416D01*
X2980Y-4417D01*
X2985Y-4418D01*
X2987Y-4419D01*
X2989Y-4419D01*
X2991Y-4419D01*
X2993Y-4419D01*
X2995Y-4420D01*
X2997D01*
X3001Y-4419D01*
X3006Y-4419D01*
X3009Y-4418D01*
X3013Y-4417D01*
X3015Y-4416D01*
X3017Y-4415D01*
X3018Y-4414D01*
X3018Y-4414D01*
X3019D01*
X3022Y-4412D01*
X3024Y-4409D01*
X3026Y-4406D01*
X3028Y-4403D01*
X3030Y-4401D01*
X3031Y-4399D01*
X3031Y-4398D01*
X3031Y-4397D01*
X3031Y-4397D01*
Y-4397D01*
X3032Y-4394D01*
X3033Y-4392D01*
X3033Y-4389D01*
X3034Y-4386D01*
X3034Y-4380D01*
X3035Y-4374D01*
Y-4371D01*
X3035Y-4369D01*
Y-4366D01*
X3035Y-4364D01*
Y-4363D01*
Y-4361D01*
Y-4360D01*
Y-4360D01*
Y-4252D01*
X3056D01*
Y-4360D01*
D02*
G37*
G36*
X3199Y-4439D02*
X3137D01*
X3133Y-4439D01*
X3130Y-4438D01*
X3127Y-4438D01*
X3124Y-4438D01*
X3122Y-4437D01*
X3119Y-4437D01*
X3117Y-4436D01*
X3115Y-4435D01*
X3114Y-4435D01*
X3112Y-4434D01*
X3111Y-4434D01*
X3110Y-4434D01*
X3109Y-4433D01*
X3109Y-4433D01*
X3109D01*
X3105Y-4431D01*
X3101Y-4428D01*
X3098Y-4425D01*
X3095Y-4422D01*
X3093Y-4419D01*
X3091Y-4417D01*
X3091Y-4416D01*
X3091Y-4415D01*
X3090Y-4415D01*
Y-4415D01*
X3088Y-4410D01*
X3086Y-4405D01*
X3085Y-4400D01*
X3084Y-4395D01*
X3084Y-4393D01*
X3084Y-4391D01*
X3083Y-4389D01*
X3083Y-4388D01*
Y-4387D01*
Y-4386D01*
Y-4385D01*
Y-4385D01*
X3084Y-4379D01*
X3084Y-4373D01*
X3086Y-4368D01*
X3087Y-4364D01*
X3088Y-4363D01*
X3089Y-4361D01*
X3089Y-4360D01*
X3090Y-4358D01*
X3090Y-4358D01*
X3091Y-4357D01*
X3091Y-4357D01*
Y-4356D01*
X3094Y-4352D01*
X3098Y-4349D01*
X3101Y-4346D01*
X3104Y-4344D01*
X3107Y-4342D01*
X3110Y-4341D01*
X3111Y-4340D01*
X3111Y-4340D01*
X3112Y-4340D01*
X3112D01*
X3108Y-4337D01*
X3105Y-4335D01*
X3103Y-4332D01*
X3100Y-4329D01*
X3098Y-4327D01*
X3097Y-4325D01*
X3096Y-4324D01*
X3096Y-4324D01*
Y-4323D01*
X3094Y-4319D01*
X3093Y-4315D01*
X3092Y-4311D01*
X3091Y-4308D01*
X3091Y-4305D01*
Y-4303D01*
X3090Y-4302D01*
Y-4301D01*
Y-4301D01*
Y-4300D01*
Y-4300D01*
X3091Y-4295D01*
X3091Y-4290D01*
X3092Y-4286D01*
X3094Y-4282D01*
X3095Y-4279D01*
X3096Y-4278D01*
X3096Y-4277D01*
X3096Y-4276D01*
X3097Y-4275D01*
X3097Y-4275D01*
Y-4275D01*
X3100Y-4270D01*
X3102Y-4267D01*
X3105Y-4264D01*
X3108Y-4262D01*
X3110Y-4260D01*
X3112Y-4259D01*
X3113Y-4258D01*
X3114Y-4258D01*
X3114D01*
X3118Y-4256D01*
X3122Y-4254D01*
X3127Y-4254D01*
X3131Y-4253D01*
X3135Y-4252D01*
X3137D01*
X3139Y-4252D01*
X3199D01*
Y-4439D01*
D02*
G37*
G36*
X2852Y-4249D02*
X2857Y-4250D01*
X2861Y-4250D01*
X2864Y-4251D01*
X2868Y-4252D01*
X2871Y-4253D01*
X2874Y-4255D01*
X2877Y-4256D01*
X2879Y-4258D01*
X2882Y-4259D01*
X2883Y-4260D01*
X2885Y-4261D01*
X2886Y-4262D01*
X2887Y-4263D01*
X2887Y-4263D01*
X2887Y-4263D01*
X2890Y-4266D01*
X2892Y-4269D01*
X2894Y-4272D01*
X2896Y-4275D01*
X2897Y-4278D01*
X2899Y-4282D01*
X2899Y-4284D01*
X2900Y-4287D01*
X2901Y-4290D01*
X2901Y-4292D01*
X2902Y-4295D01*
X2902Y-4297D01*
X2902Y-4298D01*
Y-4299D01*
Y-4300D01*
Y-4300D01*
X2902Y-4305D01*
X2901Y-4309D01*
X2900Y-4313D01*
X2900Y-4317D01*
X2899Y-4319D01*
X2898Y-4321D01*
X2898Y-4322D01*
X2897Y-4323D01*
X2897Y-4323D01*
Y-4323D01*
X2895Y-4327D01*
X2893Y-4330D01*
X2890Y-4333D01*
X2888Y-4335D01*
X2886Y-4337D01*
X2884Y-4338D01*
X2883Y-4339D01*
X2883Y-4340D01*
X2881Y-4341D01*
X2879Y-4342D01*
X2874Y-4344D01*
X2869Y-4347D01*
X2864Y-4348D01*
X2861Y-4349D01*
X2859Y-4350D01*
X2857Y-4351D01*
X2855Y-4351D01*
X2854Y-4352D01*
X2853Y-4352D01*
X2852Y-4352D01*
X2852D01*
X2848Y-4354D01*
X2844Y-4355D01*
X2840Y-4356D01*
X2837Y-4357D01*
X2834Y-4358D01*
X2831Y-4359D01*
X2829Y-4360D01*
X2827Y-4361D01*
X2825Y-4361D01*
X2824Y-4362D01*
X2823Y-4363D01*
X2822Y-4363D01*
X2821Y-4363D01*
X2821Y-4364D01*
X2820Y-4364D01*
X2818Y-4365D01*
X2816Y-4367D01*
X2814Y-4369D01*
X2812Y-4370D01*
X2811Y-4372D01*
X2810Y-4373D01*
X2810Y-4374D01*
X2809Y-4374D01*
X2808Y-4376D01*
X2807Y-4379D01*
X2806Y-4381D01*
X2806Y-4383D01*
X2806Y-4385D01*
X2806Y-4387D01*
Y-4388D01*
Y-4388D01*
X2806Y-4391D01*
X2806Y-4393D01*
X2807Y-4398D01*
X2809Y-4402D01*
X2811Y-4405D01*
X2812Y-4408D01*
X2814Y-4409D01*
X2815Y-4411D01*
X2816Y-4411D01*
X2816Y-4411D01*
X2820Y-4414D01*
X2824Y-4416D01*
X2829Y-4418D01*
X2834Y-4419D01*
X2838Y-4419D01*
X2839Y-4419D01*
X2841D01*
X2842Y-4420D01*
X2844D01*
X2849Y-4419D01*
X2853Y-4419D01*
X2857Y-4418D01*
X2860Y-4417D01*
X2863Y-4416D01*
X2865Y-4415D01*
X2866Y-4415D01*
X2866Y-4415D01*
X2866Y-4415D01*
X2867D01*
X2870Y-4413D01*
X2873Y-4410D01*
X2876Y-4408D01*
X2878Y-4406D01*
X2880Y-4404D01*
X2881Y-4402D01*
X2882Y-4401D01*
X2882Y-4401D01*
X2884Y-4397D01*
X2885Y-4393D01*
X2887Y-4389D01*
X2887Y-4385D01*
X2888Y-4382D01*
X2888Y-4381D01*
Y-4379D01*
X2889Y-4378D01*
X2889Y-4377D01*
Y-4377D01*
Y-4377D01*
X2908Y-4378D01*
X2908Y-4384D01*
X2907Y-4389D01*
X2906Y-4394D01*
X2905Y-4398D01*
X2904Y-4402D01*
X2902Y-4406D01*
X2901Y-4410D01*
X2899Y-4413D01*
X2898Y-4416D01*
X2896Y-4418D01*
X2894Y-4420D01*
X2893Y-4422D01*
X2892Y-4423D01*
X2891Y-4424D01*
X2891Y-4425D01*
X2891Y-4425D01*
X2887Y-4428D01*
X2884Y-4431D01*
X2880Y-4433D01*
X2876Y-4435D01*
X2873Y-4437D01*
X2869Y-4438D01*
X2865Y-4439D01*
X2862Y-4440D01*
X2858Y-4441D01*
X2855Y-4441D01*
X2852Y-4441D01*
X2850Y-4442D01*
X2848D01*
X2846Y-4442D01*
X2845D01*
X2839Y-4442D01*
X2833Y-4441D01*
X2827Y-4440D01*
X2825Y-4439D01*
X2823Y-4439D01*
X2821Y-4438D01*
X2819Y-4437D01*
X2818Y-4437D01*
X2816Y-4436D01*
X2815Y-4436D01*
X2815Y-4435D01*
X2814Y-4435D01*
X2814D01*
X2810Y-4432D01*
X2805Y-4429D01*
X2802Y-4426D01*
X2799Y-4423D01*
X2797Y-4420D01*
X2795Y-4417D01*
X2794Y-4416D01*
X2794Y-4416D01*
X2794Y-4415D01*
Y-4415D01*
X2791Y-4410D01*
X2789Y-4405D01*
X2788Y-4400D01*
X2787Y-4396D01*
X2787Y-4394D01*
X2786Y-4392D01*
X2786Y-4390D01*
Y-4389D01*
X2786Y-4388D01*
Y-4387D01*
Y-4386D01*
Y-4386D01*
X2786Y-4380D01*
X2787Y-4375D01*
X2788Y-4370D01*
X2790Y-4366D01*
X2790Y-4364D01*
X2791Y-4363D01*
X2792Y-4361D01*
X2792Y-4360D01*
X2793Y-4360D01*
X2793Y-4359D01*
X2793Y-4359D01*
Y-4358D01*
X2796Y-4354D01*
X2800Y-4351D01*
X2803Y-4347D01*
X2807Y-4345D01*
X2810Y-4342D01*
X2811Y-4342D01*
X2812Y-4341D01*
X2813Y-4340D01*
X2814Y-4340D01*
X2814Y-4340D01*
X2814D01*
X2816Y-4339D01*
X2819Y-4338D01*
X2821Y-4337D01*
X2823Y-4336D01*
X2829Y-4334D01*
X2834Y-4332D01*
X2836Y-4332D01*
X2839Y-4331D01*
X2841Y-4330D01*
X2843Y-4330D01*
X2844Y-4329D01*
X2845Y-4329D01*
X2846Y-4328D01*
X2846D01*
X2850Y-4327D01*
X2854Y-4326D01*
X2858Y-4325D01*
X2861Y-4324D01*
X2863Y-4323D01*
X2866Y-4322D01*
X2868Y-4321D01*
X2870Y-4320D01*
X2871Y-4319D01*
X2873Y-4318D01*
X2874Y-4318D01*
X2875Y-4317D01*
X2875Y-4317D01*
X2876Y-4316D01*
X2876Y-4316D01*
X2878Y-4313D01*
X2880Y-4310D01*
X2881Y-4308D01*
X2882Y-4305D01*
X2882Y-4302D01*
X2882Y-4300D01*
X2883Y-4299D01*
Y-4299D01*
Y-4299D01*
Y-4298D01*
X2882Y-4296D01*
X2882Y-4294D01*
X2881Y-4290D01*
X2880Y-4287D01*
X2878Y-4284D01*
X2876Y-4282D01*
X2875Y-4280D01*
X2874Y-4279D01*
X2874Y-4278D01*
X2870Y-4276D01*
X2866Y-4274D01*
X2861Y-4273D01*
X2857Y-4272D01*
X2853Y-4271D01*
X2852Y-4271D01*
X2850D01*
X2849Y-4271D01*
X2844D01*
X2841Y-4271D01*
X2836Y-4272D01*
X2831Y-4274D01*
X2828Y-4275D01*
X2825Y-4277D01*
X2824Y-4277D01*
X2823Y-4278D01*
X2822Y-4279D01*
X2821Y-4279D01*
X2821Y-4279D01*
Y-4279D01*
X2819Y-4281D01*
X2818Y-4283D01*
X2815Y-4287D01*
X2813Y-4292D01*
X2812Y-4296D01*
X2811Y-4300D01*
X2811Y-4302D01*
X2810Y-4303D01*
X2810Y-4305D01*
X2810Y-4306D01*
Y-4306D01*
Y-4307D01*
X2790Y-4305D01*
X2791Y-4299D01*
X2792Y-4293D01*
X2793Y-4288D01*
X2795Y-4284D01*
X2795Y-4282D01*
X2796Y-4280D01*
X2797Y-4279D01*
X2797Y-4277D01*
X2798Y-4276D01*
X2798Y-4276D01*
X2798Y-4275D01*
Y-4275D01*
X2801Y-4271D01*
X2804Y-4267D01*
X2808Y-4263D01*
X2811Y-4261D01*
X2814Y-4259D01*
X2816Y-4257D01*
X2817Y-4256D01*
X2818Y-4256D01*
X2818Y-4256D01*
X2818D01*
X2823Y-4253D01*
X2828Y-4252D01*
X2833Y-4251D01*
X2838Y-4250D01*
X2840Y-4250D01*
X2842Y-4249D01*
X2844Y-4249D01*
X2845Y-4249D01*
X2848D01*
X2852Y-4249D01*
D02*
G37*
G36*
X529Y-4439D02*
X510D01*
Y-4292D01*
X430Y-4439D01*
X409D01*
Y-4252D01*
X428D01*
Y-4399D01*
X509Y-4252D01*
X529D01*
Y-4439D01*
D02*
G37*
G36*
X627Y-4249D02*
X632Y-4249D01*
X639Y-4251D01*
X643Y-4251D01*
X646Y-4252D01*
X649Y-4253D01*
X652Y-4254D01*
X654Y-4255D01*
X656Y-4256D01*
X658Y-4257D01*
X660Y-4258D01*
X661Y-4259D01*
X662Y-4259D01*
X663Y-4260D01*
X663Y-4260D01*
X666Y-4262D01*
X669Y-4264D01*
X674Y-4270D01*
X679Y-4275D01*
X683Y-4281D01*
X684Y-4283D01*
X686Y-4286D01*
X687Y-4288D01*
X688Y-4290D01*
X689Y-4291D01*
X689Y-4292D01*
X690Y-4293D01*
X690Y-4293D01*
X692Y-4298D01*
X693Y-4302D01*
X694Y-4307D01*
X696Y-4311D01*
X698Y-4320D01*
X698Y-4324D01*
X699Y-4328D01*
X699Y-4332D01*
X699Y-4336D01*
X700Y-4339D01*
X700Y-4341D01*
X700Y-4343D01*
Y-4345D01*
Y-4346D01*
Y-4347D01*
X700Y-4352D01*
X700Y-4357D01*
X699Y-4363D01*
X698Y-4367D01*
X698Y-4372D01*
X697Y-4376D01*
X696Y-4380D01*
X695Y-4384D01*
X694Y-4387D01*
X693Y-4390D01*
X692Y-4392D01*
X691Y-4394D01*
X691Y-4396D01*
X690Y-4397D01*
X690Y-4398D01*
X690Y-4398D01*
X688Y-4402D01*
X686Y-4406D01*
X683Y-4409D01*
X681Y-4412D01*
X679Y-4415D01*
X676Y-4418D01*
X674Y-4421D01*
X672Y-4423D01*
X670Y-4425D01*
X668Y-4426D01*
X666Y-4428D01*
X665Y-4429D01*
X664Y-4430D01*
X663Y-4430D01*
X662Y-4431D01*
X662Y-4431D01*
X659Y-4433D01*
X655Y-4435D01*
X652Y-4436D01*
X648Y-4437D01*
X642Y-4439D01*
X639Y-4440D01*
X635Y-4441D01*
X633Y-4441D01*
X630Y-4441D01*
X628Y-4442D01*
X626Y-4442D01*
X624Y-4442D01*
X622D01*
X616Y-4442D01*
X610Y-4441D01*
X604Y-4440D01*
X599Y-4438D01*
X597Y-4438D01*
X595Y-4437D01*
X594Y-4437D01*
X592Y-4436D01*
X591Y-4435D01*
X590Y-4435D01*
X589Y-4435D01*
X589D01*
X583Y-4432D01*
X578Y-4428D01*
X572Y-4425D01*
X568Y-4421D01*
X566Y-4419D01*
X564Y-4418D01*
X562Y-4417D01*
X561Y-4415D01*
X560Y-4414D01*
X559Y-4414D01*
X559Y-4413D01*
X558Y-4413D01*
Y-4343D01*
X623Y-4344D01*
Y-4366D01*
X578D01*
Y-4400D01*
X581Y-4403D01*
X585Y-4406D01*
X588Y-4408D01*
X591Y-4410D01*
X594Y-4412D01*
X596Y-4413D01*
X597Y-4414D01*
X598Y-4414D01*
X598Y-4414D01*
X598D01*
X603Y-4416D01*
X607Y-4417D01*
X611Y-4418D01*
X615Y-4419D01*
X618Y-4419D01*
X620D01*
X621Y-4420D01*
X623D01*
X627Y-4419D01*
X632Y-4419D01*
X636Y-4418D01*
X640Y-4417D01*
X643Y-4415D01*
X647Y-4414D01*
X650Y-4412D01*
X653Y-4410D01*
X655Y-4409D01*
X657Y-4407D01*
X659Y-4405D01*
X661Y-4404D01*
X662Y-4403D01*
X663Y-4402D01*
X663Y-4401D01*
X664Y-4401D01*
X666Y-4397D01*
X669Y-4393D01*
X671Y-4389D01*
X673Y-4384D01*
X674Y-4380D01*
X675Y-4375D01*
X676Y-4371D01*
X677Y-4366D01*
X678Y-4362D01*
X678Y-4358D01*
X679Y-4354D01*
X679Y-4351D01*
Y-4349D01*
X679Y-4347D01*
Y-4345D01*
Y-4345D01*
Y-4341D01*
X679Y-4336D01*
X678Y-4332D01*
X678Y-4328D01*
X677Y-4325D01*
X677Y-4321D01*
X676Y-4318D01*
X675Y-4315D01*
X675Y-4312D01*
X674Y-4310D01*
X674Y-4308D01*
X673Y-4307D01*
X673Y-4305D01*
X672Y-4304D01*
X672Y-4304D01*
Y-4303D01*
X670Y-4300D01*
X669Y-4298D01*
X667Y-4295D01*
X666Y-4292D01*
X664Y-4290D01*
X662Y-4288D01*
X661Y-4286D01*
X659Y-4284D01*
X657Y-4282D01*
X655Y-4280D01*
X654Y-4279D01*
X653Y-4279D01*
X653Y-4278D01*
X653D01*
X648Y-4276D01*
X643Y-4274D01*
X638Y-4272D01*
X634Y-4271D01*
X630Y-4270D01*
X628Y-4270D01*
X627D01*
X625Y-4270D01*
X624D01*
X620Y-4270D01*
X616Y-4271D01*
X612Y-4271D01*
X609Y-4272D01*
X607Y-4273D01*
X605Y-4274D01*
X604Y-4274D01*
X603Y-4275D01*
X600Y-4276D01*
X597Y-4278D01*
X594Y-4281D01*
X592Y-4282D01*
X591Y-4284D01*
X589Y-4286D01*
X589Y-4286D01*
X588Y-4287D01*
X586Y-4290D01*
X585Y-4294D01*
X583Y-4298D01*
X582Y-4302D01*
X580Y-4305D01*
X580Y-4307D01*
X580Y-4308D01*
X579Y-4309D01*
X579Y-4310D01*
X579Y-4310D01*
Y-4310D01*
X561Y-4304D01*
X562Y-4301D01*
X562Y-4297D01*
X563Y-4294D01*
X564Y-4291D01*
X566Y-4288D01*
X567Y-4286D01*
X568Y-4283D01*
X568Y-4281D01*
X569Y-4279D01*
X570Y-4278D01*
X571Y-4276D01*
X572Y-4275D01*
X572Y-4274D01*
X573Y-4274D01*
X573Y-4273D01*
Y-4273D01*
X576Y-4269D01*
X580Y-4265D01*
X583Y-4262D01*
X587Y-4260D01*
X589Y-4258D01*
X592Y-4257D01*
X593Y-4256D01*
X593Y-4256D01*
X594Y-4255D01*
X594D01*
X599Y-4253D01*
X604Y-4252D01*
X609Y-4251D01*
X613Y-4250D01*
X616Y-4250D01*
X617Y-4249D01*
X619Y-4249D01*
X620Y-4249D01*
X623D01*
X627Y-4249D01*
D02*
G37*
G36*
X375Y-4439D02*
X320D01*
X316Y-4439D01*
X312Y-4439D01*
X308Y-4438D01*
X304Y-4438D01*
X301Y-4437D01*
X298Y-4436D01*
X295Y-4435D01*
X292Y-4434D01*
X290Y-4433D01*
X288Y-4433D01*
X286Y-4432D01*
X284Y-4431D01*
X283Y-4431D01*
X282Y-4430D01*
X282Y-4430D01*
X282D01*
X279Y-4428D01*
X277Y-4426D01*
X272Y-4421D01*
X268Y-4416D01*
X264Y-4411D01*
X263Y-4408D01*
X262Y-4406D01*
X261Y-4404D01*
X260Y-4402D01*
X259Y-4401D01*
X258Y-4400D01*
X258Y-4399D01*
Y-4399D01*
X256Y-4394D01*
X255Y-4390D01*
X252Y-4381D01*
X251Y-4372D01*
X250Y-4367D01*
X250Y-4363D01*
X249Y-4359D01*
X249Y-4356D01*
X249Y-4353D01*
Y-4350D01*
X249Y-4348D01*
Y-4346D01*
Y-4345D01*
Y-4345D01*
X249Y-4336D01*
X249Y-4332D01*
X249Y-4327D01*
X250Y-4324D01*
X250Y-4320D01*
X251Y-4317D01*
X251Y-4314D01*
X252Y-4311D01*
X252Y-4309D01*
X253Y-4307D01*
X253Y-4305D01*
X254Y-4304D01*
X254Y-4303D01*
X254Y-4302D01*
Y-4302D01*
X256Y-4295D01*
X259Y-4290D01*
X262Y-4285D01*
X263Y-4282D01*
X264Y-4280D01*
X265Y-4278D01*
X266Y-4277D01*
X267Y-4275D01*
X268Y-4274D01*
X268Y-4273D01*
X269Y-4273D01*
X269Y-4272D01*
X269Y-4272D01*
X273Y-4268D01*
X277Y-4265D01*
X281Y-4262D01*
X285Y-4259D01*
X288Y-4258D01*
X289Y-4257D01*
X290Y-4257D01*
X291Y-4256D01*
X292Y-4256D01*
X292Y-4256D01*
X293D01*
X295Y-4255D01*
X297Y-4254D01*
X301Y-4254D01*
X306Y-4253D01*
X311Y-4253D01*
X316Y-4252D01*
X317Y-4252D01*
X375D01*
Y-4439D01*
D02*
G37*
G36*
X-3288Y2837D02*
X-3289Y2833D01*
X-3289Y2828D01*
X-3289Y2824D01*
X-3288Y2820D01*
X-3288Y2816D01*
X-3288Y2815D01*
X-3287Y2814D01*
X-3287Y2813D01*
X-3287Y2812D01*
X-3287Y2811D01*
X-3287Y2811D01*
X-3286Y2806D01*
X-3284Y2801D01*
X-3282Y2796D01*
X-3280Y2792D01*
X-3279Y2789D01*
X-3278Y2787D01*
X-3277Y2786D01*
X-3277Y2785D01*
X-3276Y2784D01*
X-3276Y2784D01*
X-3276Y2784D01*
X-3285Y2768D01*
X-3287Y2771D01*
X-3289Y2773D01*
X-3291Y2776D01*
X-3292Y2779D01*
X-3293Y2781D01*
X-3294Y2783D01*
X-3294Y2784D01*
X-3295Y2784D01*
X-3295Y2785D01*
X-3295Y2785D01*
X-3296Y2789D01*
X-3298Y2792D01*
X-3299Y2796D01*
X-3300Y2798D01*
X-3300Y2801D01*
X-3301Y2802D01*
X-3301Y2804D01*
X-3301Y2804D01*
X-3363Y2697D01*
X-3376Y2705D01*
X-3297Y2842D01*
X-3288Y2837D01*
D02*
G37*
G36*
X-3208Y2790D02*
X-3236Y2679D01*
X-3237Y2676D01*
X-3238Y2674D01*
X-3238Y2671D01*
X-3239Y2668D01*
X-3239Y2666D01*
X-3240Y2664D01*
X-3240Y2662D01*
X-3241Y2660D01*
X-3241Y2659D01*
X-3242Y2658D01*
X-3242Y2657D01*
X-3242Y2656D01*
X-3242Y2655D01*
X-3243Y2654D01*
X-3243Y2654D01*
X-3243Y2654D01*
X-3226Y2671D01*
X-3143Y2753D01*
X-3121Y2740D01*
X-3200Y2603D01*
X-3214Y2612D01*
X-3147Y2728D01*
X-3246Y2630D01*
X-3260Y2638D01*
X-3226Y2771D01*
X-3292Y2657D01*
X-3307Y2665D01*
X-3228Y2801D01*
X-3208Y2790D01*
D02*
G37*
G36*
X-4367Y-3097D02*
X-4397Y-3127D01*
X-4372Y-3152D01*
X-4385Y-3164D01*
X-4410Y-3140D01*
X-4441Y-3170D01*
X-4451Y-3160D01*
X-4421Y-3129D01*
X-4446Y-3104D01*
X-4433Y-3091D01*
X-4408Y-3116D01*
X-4378Y-3086D01*
X-4367Y-3097D01*
D02*
G37*
G36*
X-4248Y-3175D02*
X-4250Y-3179D01*
X-4251Y-3183D01*
X-4252Y-3187D01*
X-4253Y-3191D01*
X-4253Y-3195D01*
Y-3196D01*
X-4253Y-3197D01*
X-4254Y-3198D01*
Y-3199D01*
Y-3200D01*
Y-3200D01*
X-4254Y-3205D01*
X-4253Y-3211D01*
X-4253Y-3216D01*
X-4252Y-3220D01*
X-4252Y-3224D01*
X-4251Y-3225D01*
X-4251Y-3227D01*
X-4251Y-3228D01*
X-4251Y-3228D01*
X-4250Y-3229D01*
Y-3229D01*
X-4263Y-3242D01*
X-4265Y-3239D01*
X-4266Y-3236D01*
X-4266Y-3233D01*
X-4267Y-3230D01*
X-4268Y-3227D01*
X-4268Y-3225D01*
X-4268Y-3224D01*
X-4268Y-3224D01*
X-4268Y-3223D01*
X-4268Y-3223D01*
X-4269Y-3219D01*
X-4269Y-3215D01*
X-4269Y-3212D01*
X-4270Y-3209D01*
Y-3207D01*
Y-3205D01*
Y-3204D01*
X-4269Y-3203D01*
X-4356Y-3290D01*
X-4368Y-3279D01*
X-4256Y-3167D01*
X-4248Y-3175D01*
D02*
G37*
G36*
X-4134Y-3290D02*
X-4147Y-3303D01*
X-4177Y-3273D01*
X-4276Y-3371D01*
X-4288Y-3359D01*
X-4189Y-3261D01*
X-4220Y-3230D01*
X-4207Y-3217D01*
X-4134Y-3290D01*
D02*
G37*
G36*
X-4030Y-3405D02*
X-4028Y-3405D01*
X-4026Y-3406D01*
X-4025Y-3406D01*
X-4024D01*
X-4024Y-3406D01*
X-4021Y-3408D01*
X-4017Y-3410D01*
X-4014Y-3412D01*
X-4011Y-3414D01*
X-4008Y-3416D01*
X-4007Y-3417D01*
X-4006Y-3418D01*
X-3970Y-3454D01*
X-4082Y-3565D01*
X-4119Y-3528D01*
X-4121Y-3526D01*
X-4122Y-3524D01*
X-4124Y-3522D01*
X-4125Y-3520D01*
X-4127Y-3518D01*
X-4128Y-3516D01*
X-4129Y-3515D01*
X-4129Y-3513D01*
X-4130Y-3512D01*
X-4131Y-3511D01*
X-4131Y-3510D01*
X-4132Y-3509D01*
X-4132Y-3509D01*
X-4132Y-3508D01*
X-4132Y-3508D01*
X-4133Y-3504D01*
X-4133Y-3500D01*
X-4133Y-3496D01*
X-4133Y-3493D01*
X-4133Y-3490D01*
X-4132Y-3488D01*
X-4132Y-3487D01*
X-4132Y-3487D01*
Y-3486D01*
X-4132Y-3486D01*
X-4130Y-3482D01*
X-4128Y-3478D01*
X-4126Y-3474D01*
X-4124Y-3471D01*
X-4123Y-3469D01*
X-4122Y-3468D01*
X-4121Y-3467D01*
X-4120Y-3466D01*
X-4119Y-3465D01*
X-4119Y-3465D01*
X-4119Y-3464D01*
X-4118Y-3464D01*
X-4114Y-3461D01*
X-4111Y-3458D01*
X-4107Y-3456D01*
X-4104Y-3454D01*
X-4102Y-3453D01*
X-4101Y-3453D01*
X-4100Y-3452D01*
X-4099Y-3452D01*
X-4098Y-3452D01*
X-4097Y-3452D01*
X-4097D01*
X-4097Y-3452D01*
X-4092Y-3451D01*
X-4088D01*
X-4084Y-3451D01*
X-4081Y-3452D01*
X-4078Y-3453D01*
X-4076Y-3453D01*
X-4075Y-3454D01*
X-4075Y-3454D01*
X-4074Y-3454D01*
X-4074Y-3454D01*
X-4075Y-3451D01*
X-4075Y-3447D01*
X-4075Y-3444D01*
X-4075Y-3441D01*
X-4075Y-3438D01*
X-4074Y-3437D01*
X-4074Y-3435D01*
Y-3435D01*
X-4074Y-3435D01*
X-4073Y-3431D01*
X-4071Y-3428D01*
X-4069Y-3425D01*
X-4068Y-3423D01*
X-4066Y-3421D01*
X-4065Y-3420D01*
X-4065Y-3419D01*
X-4064Y-3418D01*
X-4064Y-3418D01*
X-4063Y-3418D01*
X-4063Y-3418D01*
X-4060Y-3415D01*
X-4057Y-3412D01*
X-4054Y-3410D01*
X-4051Y-3409D01*
X-4048Y-3408D01*
X-4047Y-3407D01*
X-4046Y-3407D01*
X-4045Y-3407D01*
X-4045Y-3407D01*
X-4044Y-3406D01*
X-4044Y-3406D01*
X-4040Y-3405D01*
X-4037Y-3405D01*
X-4033Y-3405D01*
X-4030Y-3405D01*
D02*
G37*
G36*
X-4081Y-3343D02*
X-4157Y-3490D01*
X-4170Y-3477D01*
X-4146Y-3433D01*
X-4184Y-3395D01*
X-4229Y-3418D01*
X-4243Y-3404D01*
X-4094Y-3330D01*
X-4081Y-3343D01*
D02*
G37*
%LPC*%
G36*
X1015Y4119D02*
X1014D01*
X1011Y4119D01*
X1008Y4119D01*
X1006Y4118D01*
X1003Y4117D01*
X999Y4115D01*
X995Y4113D01*
X992Y4111D01*
X991Y4110D01*
X990Y4109D01*
X989Y4108D01*
X989Y4107D01*
X988Y4107D01*
X988Y4107D01*
X986Y4104D01*
X985Y4101D01*
X983Y4098D01*
X982Y4095D01*
X980Y4089D01*
X979Y4082D01*
X979Y4080D01*
X978Y4077D01*
X978Y4074D01*
X978Y4072D01*
X978Y4070D01*
Y4069D01*
Y4068D01*
Y4068D01*
X978Y4063D01*
X978Y4059D01*
X979Y4055D01*
X980Y4051D01*
X980Y4047D01*
X981Y4044D01*
X982Y4041D01*
X983Y4039D01*
X984Y4036D01*
X985Y4034D01*
X986Y4033D01*
X987Y4031D01*
X988Y4030D01*
X988Y4029D01*
X989Y4029D01*
X989Y4029D01*
X991Y4026D01*
X993Y4024D01*
X995Y4023D01*
X998Y4021D01*
X1000Y4020D01*
X1002Y4019D01*
X1006Y4017D01*
X1009Y4016D01*
X1011Y4016D01*
X1012Y4016D01*
X1013Y4016D01*
X1015D01*
X1018Y4016D01*
X1021Y4017D01*
X1024Y4017D01*
X1027Y4019D01*
X1030Y4020D01*
X1032Y4021D01*
X1034Y4023D01*
X1036Y4025D01*
X1038Y4026D01*
X1040Y4028D01*
X1041Y4029D01*
X1042Y4031D01*
X1043Y4032D01*
X1043Y4033D01*
X1044Y4033D01*
X1044Y4033D01*
X1045Y4036D01*
X1046Y4038D01*
X1047Y4041D01*
X1048Y4043D01*
X1049Y4049D01*
X1050Y4055D01*
X1050Y4058D01*
X1050Y4060D01*
X1050Y4063D01*
Y4064D01*
X1050Y4066D01*
Y4067D01*
Y4068D01*
Y4068D01*
X1050Y4073D01*
X1050Y4077D01*
X1049Y4081D01*
X1049Y4085D01*
X1048Y4088D01*
X1047Y4091D01*
X1046Y4094D01*
X1045Y4097D01*
X1044Y4099D01*
X1043Y4101D01*
X1042Y4102D01*
X1041Y4104D01*
X1041Y4105D01*
X1040Y4106D01*
X1040Y4106D01*
X1040Y4106D01*
X1038Y4108D01*
X1035Y4110D01*
X1033Y4112D01*
X1031Y4114D01*
X1029Y4115D01*
X1027Y4116D01*
X1023Y4118D01*
X1019Y4119D01*
X1018Y4119D01*
X1016Y4119D01*
X1015Y4119D01*
D02*
G37*
G36*
X3692Y4068D02*
X3692D01*
X3692Y4059D01*
X3692Y4054D01*
X3692Y4049D01*
X3693Y4045D01*
X3694Y4042D01*
X3694Y4040D01*
X3695Y4038D01*
X3695Y4037D01*
X3695Y4037D01*
X3697Y4033D01*
X3700Y4030D01*
X3702Y4027D01*
X3705Y4025D01*
X3707Y4023D01*
X3709Y4022D01*
X3710Y4021D01*
X3710Y4021D01*
X3711D01*
X3715Y4019D01*
X3719Y4017D01*
X3723Y4016D01*
X3726Y4016D01*
X3729Y4015D01*
X3731Y4015D01*
X3732Y4015D01*
X3734D01*
X3739Y4015D01*
X3743Y4016D01*
X3747Y4017D01*
X3749Y4018D01*
X3752Y4019D01*
X3753Y4020D01*
X3754Y4021D01*
X3754Y4021D01*
X3757Y4023D01*
X3758Y4026D01*
X3760Y4028D01*
X3761Y4031D01*
X3761Y4033D01*
X3761Y4035D01*
X3761Y4036D01*
Y4036D01*
X3761Y4038D01*
X3761Y4040D01*
X3760Y4042D01*
X3760Y4044D01*
X3759Y4045D01*
X3759Y4046D01*
X3758Y4047D01*
X3758Y4047D01*
X3757Y4049D01*
X3755Y4050D01*
X3754Y4052D01*
X3752Y4053D01*
X3751Y4054D01*
X3750Y4054D01*
X3749Y4054D01*
X3749Y4055D01*
X3747Y4056D01*
X3744Y4056D01*
X3740Y4057D01*
X3737Y4058D01*
X3734Y4058D01*
X3731Y4059D01*
X3731Y4059D01*
X3730Y4059D01*
X3729D01*
X3725Y4060D01*
X3720Y4061D01*
X3716Y4061D01*
X3713Y4062D01*
X3709Y4063D01*
X3706Y4063D01*
X3704Y4064D01*
X3701Y4065D01*
X3699Y4065D01*
X3697Y4066D01*
X3695Y4066D01*
X3694Y4067D01*
X3693Y4067D01*
X3692Y4068D01*
X3692Y4068D01*
D02*
G37*
G36*
X2302D02*
X2302D01*
X2302Y4059D01*
X2302Y4054D01*
X2303Y4049D01*
X2303Y4045D01*
X2304Y4042D01*
X2305Y4040D01*
X2305Y4038D01*
X2306Y4037D01*
X2306Y4037D01*
X2308Y4033D01*
X2310Y4030D01*
X2313Y4027D01*
X2315Y4025D01*
X2317Y4023D01*
X2319Y4022D01*
X2320Y4021D01*
X2321Y4021D01*
X2321D01*
X2325Y4019D01*
X2329Y4017D01*
X2333Y4016D01*
X2337Y4016D01*
X2340Y4015D01*
X2341Y4015D01*
X2342Y4015D01*
X2344D01*
X2349Y4015D01*
X2353Y4016D01*
X2357Y4017D01*
X2360Y4018D01*
X2362Y4019D01*
X2363Y4020D01*
X2364Y4021D01*
X2365Y4021D01*
X2367Y4023D01*
X2369Y4026D01*
X2370Y4028D01*
X2371Y4031D01*
X2371Y4033D01*
X2371Y4035D01*
X2372Y4036D01*
Y4036D01*
X2371Y4038D01*
X2371Y4040D01*
X2371Y4042D01*
X2370Y4044D01*
X2370Y4045D01*
X2369Y4046D01*
X2369Y4047D01*
X2369Y4047D01*
X2367Y4049D01*
X2366Y4050D01*
X2364Y4052D01*
X2363Y4053D01*
X2361Y4054D01*
X2360Y4054D01*
X2360Y4054D01*
X2359Y4055D01*
X2357Y4056D01*
X2354Y4056D01*
X2351Y4057D01*
X2347Y4058D01*
X2344Y4058D01*
X2342Y4059D01*
X2341Y4059D01*
X2340Y4059D01*
X2339D01*
X2335Y4060D01*
X2331Y4061D01*
X2327Y4061D01*
X2323Y4062D01*
X2320Y4063D01*
X2317Y4063D01*
X2314Y4064D01*
X2311Y4065D01*
X2309Y4065D01*
X2307Y4066D01*
X2306Y4066D01*
X2304Y4067D01*
X2303Y4067D01*
X2302Y4068D01*
X2302Y4068D01*
D02*
G37*
G36*
X1550D02*
X1549D01*
X1550Y4059D01*
X1550Y4054D01*
X1550Y4049D01*
X1551Y4045D01*
X1551Y4042D01*
X1552Y4040D01*
X1553Y4038D01*
X1553Y4037D01*
X1553Y4037D01*
X1555Y4033D01*
X1558Y4030D01*
X1560Y4027D01*
X1563Y4025D01*
X1565Y4023D01*
X1567Y4022D01*
X1568Y4021D01*
X1568Y4021D01*
X1568D01*
X1572Y4019D01*
X1576Y4017D01*
X1580Y4016D01*
X1584Y4016D01*
X1587Y4015D01*
X1589Y4015D01*
X1590Y4015D01*
X1592D01*
X1597Y4015D01*
X1601Y4016D01*
X1604Y4017D01*
X1607Y4018D01*
X1609Y4019D01*
X1611Y4020D01*
X1612Y4021D01*
X1612Y4021D01*
X1614Y4023D01*
X1616Y4026D01*
X1618Y4028D01*
X1618Y4031D01*
X1619Y4033D01*
X1619Y4035D01*
X1619Y4036D01*
Y4036D01*
X1619Y4038D01*
X1619Y4040D01*
X1618Y4042D01*
X1618Y4044D01*
X1617Y4045D01*
X1617Y4046D01*
X1616Y4047D01*
X1616Y4047D01*
X1615Y4049D01*
X1613Y4050D01*
X1612Y4052D01*
X1610Y4053D01*
X1609Y4054D01*
X1608Y4054D01*
X1607Y4054D01*
X1607Y4055D01*
X1604Y4056D01*
X1601Y4056D01*
X1598Y4057D01*
X1595Y4058D01*
X1592Y4058D01*
X1589Y4059D01*
X1588Y4059D01*
X1588Y4059D01*
X1587D01*
X1582Y4060D01*
X1578Y4061D01*
X1574Y4061D01*
X1571Y4062D01*
X1567Y4063D01*
X1564Y4063D01*
X1561Y4064D01*
X1559Y4065D01*
X1557Y4065D01*
X1555Y4066D01*
X1553Y4066D01*
X1552Y4067D01*
X1551Y4067D01*
X1550Y4068D01*
X1550Y4068D01*
D02*
G37*
G36*
X464Y4068D02*
X464D01*
X464Y4059D01*
X464Y4054D01*
X464Y4049D01*
X465Y4045D01*
X466Y4042D01*
X466Y4040D01*
X467Y4038D01*
X467Y4037D01*
X468Y4037D01*
X470Y4033D01*
X472Y4030D01*
X474Y4027D01*
X477Y4025D01*
X479Y4023D01*
X481Y4022D01*
X482Y4021D01*
X482Y4021D01*
X483D01*
X487Y4019D01*
X491Y4017D01*
X495Y4016D01*
X498Y4016D01*
X501Y4015D01*
X503Y4015D01*
X504Y4015D01*
X506D01*
X511Y4015D01*
X515Y4016D01*
X519Y4017D01*
X521Y4018D01*
X524Y4019D01*
X525Y4020D01*
X526Y4021D01*
X527Y4021D01*
X529Y4023D01*
X531Y4026D01*
X532Y4028D01*
X533Y4031D01*
X533Y4033D01*
X533Y4035D01*
X533Y4036D01*
Y4036D01*
X533Y4038D01*
X533Y4040D01*
X532Y4042D01*
X532Y4044D01*
X531Y4045D01*
X531Y4046D01*
X531Y4047D01*
X530Y4047D01*
X529Y4049D01*
X528Y4050D01*
X526Y4052D01*
X524Y4053D01*
X523Y4054D01*
X522Y4054D01*
X521Y4054D01*
X521Y4055D01*
X519Y4056D01*
X516Y4056D01*
X512Y4057D01*
X509Y4058D01*
X506Y4058D01*
X503Y4059D01*
X503Y4059D01*
X502Y4059D01*
X501D01*
X497Y4060D01*
X492Y4061D01*
X489Y4061D01*
X485Y4062D01*
X481Y4063D01*
X478Y4063D01*
X476Y4064D01*
X473Y4065D01*
X471Y4065D01*
X469Y4066D01*
X467Y4066D01*
X466Y4067D01*
X465Y4067D01*
X464Y4068D01*
X464Y4068D01*
D02*
G37*
G36*
X-607D02*
X-607D01*
X-607Y4059D01*
X-607Y4054D01*
X-607Y4049D01*
X-606Y4045D01*
X-605Y4042D01*
X-605Y4040D01*
X-604Y4038D01*
X-604Y4037D01*
X-603Y4037D01*
X-601Y4033D01*
X-599Y4030D01*
X-597Y4027D01*
X-594Y4025D01*
X-592Y4023D01*
X-590Y4022D01*
X-589Y4021D01*
X-589Y4021D01*
X-588D01*
X-584Y4019D01*
X-580Y4017D01*
X-576Y4016D01*
X-573Y4016D01*
X-570Y4015D01*
X-568Y4015D01*
X-567Y4015D01*
X-565D01*
X-560Y4015D01*
X-556Y4016D01*
X-552Y4017D01*
X-550Y4018D01*
X-547Y4019D01*
X-546Y4020D01*
X-545Y4021D01*
X-545Y4021D01*
X-542Y4023D01*
X-540Y4026D01*
X-539Y4028D01*
X-538Y4031D01*
X-538Y4033D01*
X-538Y4035D01*
X-538Y4036D01*
Y4036D01*
X-538Y4038D01*
X-538Y4040D01*
X-539Y4042D01*
X-539Y4044D01*
X-540Y4045D01*
X-540Y4046D01*
X-540Y4047D01*
X-541Y4047D01*
X-542Y4049D01*
X-543Y4050D01*
X-545Y4052D01*
X-547Y4053D01*
X-548Y4054D01*
X-549Y4054D01*
X-550Y4054D01*
X-550Y4055D01*
X-552Y4056D01*
X-555Y4056D01*
X-559Y4057D01*
X-562Y4058D01*
X-565Y4058D01*
X-568Y4059D01*
X-568Y4059D01*
X-569Y4059D01*
X-570D01*
X-574Y4060D01*
X-579Y4061D01*
X-582Y4061D01*
X-586Y4062D01*
X-590Y4063D01*
X-593Y4063D01*
X-595Y4064D01*
X-598Y4065D01*
X-600Y4065D01*
X-602Y4066D01*
X-604Y4066D01*
X-605Y4067D01*
X-606Y4067D01*
X-607Y4068D01*
X-607Y4068D01*
D02*
G37*
G36*
X3449Y4119D02*
X3448D01*
X3444Y4119D01*
X3441Y4119D01*
X3439Y4118D01*
X3436Y4117D01*
X3431Y4115D01*
X3429Y4114D01*
X3427Y4113D01*
X3425Y4112D01*
X3424Y4110D01*
X3422Y4109D01*
X3421Y4108D01*
X3420Y4107D01*
X3420Y4107D01*
X3419Y4106D01*
X3419Y4106D01*
X3417Y4103D01*
X3415Y4099D01*
X3413Y4094D01*
X3412Y4090D01*
X3411Y4086D01*
X3411Y4085D01*
X3411Y4083D01*
X3411Y4082D01*
X3410Y4081D01*
Y4081D01*
Y4081D01*
X3486D01*
X3486Y4084D01*
X3485Y4087D01*
X3484Y4092D01*
X3482Y4097D01*
X3481Y4099D01*
X3480Y4101D01*
X3479Y4103D01*
X3478Y4104D01*
X3477Y4106D01*
X3476Y4107D01*
X3475Y4108D01*
X3475Y4108D01*
X3474Y4108D01*
X3474Y4109D01*
X3472Y4110D01*
X3470Y4112D01*
X3468Y4114D01*
X3466Y4115D01*
X3461Y4117D01*
X3457Y4118D01*
X3453Y4119D01*
X3452Y4119D01*
X3450Y4119D01*
X3449Y4119D01*
D02*
G37*
G36*
X3925Y4164D02*
X3885D01*
X3881Y4164D01*
X3878D01*
X3875Y4164D01*
X3873Y4164D01*
X3870Y4164D01*
X3868Y4163D01*
X3866Y4163D01*
X3865Y4163D01*
X3864Y4163D01*
X3862Y4162D01*
X3862Y4162D01*
X3861Y4162D01*
X3860D01*
X3860Y4162D01*
X3857Y4161D01*
X3854Y4159D01*
X3852Y4158D01*
X3850Y4156D01*
X3849Y4155D01*
X3848Y4153D01*
X3847Y4153D01*
X3847Y4152D01*
X3846Y4149D01*
X3845Y4147D01*
X3844Y4144D01*
X3843Y4141D01*
X3843Y4139D01*
X3843Y4137D01*
Y4136D01*
Y4136D01*
Y4136D01*
X3843Y4132D01*
X3843Y4129D01*
X3844Y4126D01*
X3845Y4124D01*
X3846Y4122D01*
X3847Y4121D01*
X3847Y4120D01*
X3847Y4119D01*
X3849Y4117D01*
X3852Y4115D01*
X3854Y4114D01*
X3856Y4112D01*
X3858Y4111D01*
X3860Y4111D01*
X3861Y4110D01*
X3861Y4110D01*
X3862D01*
X3863Y4110D01*
X3865Y4109D01*
X3868Y4109D01*
X3872Y4108D01*
X3876Y4108D01*
X3880D01*
X3881Y4108D01*
X3925D01*
Y4164D01*
D02*
G37*
G36*
Y4086D02*
X3882D01*
X3876Y4086D01*
X3871Y4086D01*
X3868Y4085D01*
X3866Y4085D01*
X3864Y4085D01*
X3862Y4084D01*
X3860Y4084D01*
X3859Y4084D01*
X3858Y4084D01*
X3857Y4083D01*
X3856Y4083D01*
X3855Y4083D01*
X3855Y4083D01*
X3855D01*
X3852Y4081D01*
X3849Y4080D01*
X3846Y4078D01*
X3844Y4076D01*
X3842Y4075D01*
X3841Y4073D01*
X3840Y4073D01*
X3840Y4072D01*
X3838Y4069D01*
X3837Y4066D01*
X3836Y4063D01*
X3835Y4060D01*
X3835Y4058D01*
X3835Y4056D01*
Y4055D01*
Y4054D01*
Y4054D01*
Y4054D01*
X3835Y4051D01*
X3835Y4048D01*
X3836Y4045D01*
X3836Y4043D01*
X3837Y4041D01*
X3838Y4039D01*
X3838Y4039D01*
X3839Y4038D01*
X3840Y4036D01*
X3842Y4034D01*
X3843Y4032D01*
X3845Y4031D01*
X3846Y4029D01*
X3847Y4028D01*
X3848Y4028D01*
X3848Y4028D01*
X3850Y4027D01*
X3853Y4026D01*
X3855Y4025D01*
X3857Y4024D01*
X3859Y4023D01*
X3861Y4023D01*
X3862Y4023D01*
X3862D01*
X3864Y4023D01*
X3867Y4022D01*
X3870Y4022D01*
X3872D01*
X3875Y4022D01*
X3925D01*
Y4086D01*
D02*
G37*
G36*
X3309Y4119D02*
X3307D01*
X3305Y4119D01*
X3302Y4119D01*
X3299Y4118D01*
X3297Y4117D01*
X3292Y4115D01*
X3288Y4113D01*
X3285Y4110D01*
X3284Y4109D01*
X3283Y4108D01*
X3282Y4107D01*
X3281Y4107D01*
X3281Y4106D01*
X3281Y4106D01*
X3279Y4103D01*
X3277Y4101D01*
X3276Y4098D01*
X3275Y4094D01*
X3273Y4087D01*
X3271Y4081D01*
X3271Y4078D01*
X3271Y4075D01*
X3270Y4072D01*
X3270Y4070D01*
X3270Y4068D01*
Y4067D01*
Y4066D01*
Y4065D01*
X3270Y4061D01*
X3270Y4057D01*
X3271Y4053D01*
X3272Y4049D01*
X3272Y4046D01*
X3273Y4042D01*
X3275Y4040D01*
X3275Y4037D01*
X3276Y4035D01*
X3277Y4033D01*
X3278Y4032D01*
X3279Y4030D01*
X3280Y4029D01*
X3280Y4028D01*
X3281Y4028D01*
X3281Y4028D01*
X3283Y4026D01*
X3285Y4024D01*
X3287Y4022D01*
X3289Y4021D01*
X3291Y4020D01*
X3293Y4019D01*
X3298Y4017D01*
X3301Y4016D01*
X3303Y4016D01*
X3304Y4016D01*
X3305Y4016D01*
X3306D01*
X3309Y4016D01*
X3312Y4016D01*
X3314Y4017D01*
X3317Y4018D01*
X3321Y4020D01*
X3325Y4022D01*
X3328Y4024D01*
X3329Y4025D01*
X3330Y4026D01*
X3331Y4027D01*
X3332Y4028D01*
X3332Y4028D01*
X3332Y4028D01*
X3334Y4031D01*
X3336Y4034D01*
X3337Y4037D01*
X3339Y4040D01*
X3341Y4046D01*
X3342Y4053D01*
X3342Y4056D01*
X3343Y4058D01*
X3343Y4061D01*
X3343Y4063D01*
X3343Y4065D01*
Y4066D01*
Y4067D01*
Y4067D01*
X3343Y4072D01*
X3343Y4077D01*
X3342Y4081D01*
X3342Y4085D01*
X3341Y4088D01*
X3340Y4092D01*
X3339Y4095D01*
X3338Y4097D01*
X3337Y4099D01*
X3336Y4101D01*
X3336Y4103D01*
X3335Y4104D01*
X3334Y4105D01*
X3334Y4106D01*
X3333Y4106D01*
X3333Y4107D01*
X3331Y4109D01*
X3329Y4111D01*
X3327Y4113D01*
X3325Y4114D01*
X3323Y4115D01*
X3320Y4116D01*
X3316Y4118D01*
X3313Y4119D01*
X3311Y4119D01*
X3310Y4119D01*
X3309Y4119D01*
D02*
G37*
G36*
X3088D02*
X3086D01*
X3083Y4119D01*
X3080Y4119D01*
X3077Y4118D01*
X3075Y4117D01*
X3070Y4115D01*
X3066Y4113D01*
X3064Y4112D01*
X3062Y4110D01*
X3061Y4109D01*
X3060Y4108D01*
X3059Y4107D01*
X3059Y4107D01*
X3058Y4106D01*
X3058Y4106D01*
X3056Y4104D01*
X3054Y4101D01*
X3053Y4098D01*
X3051Y4095D01*
X3050Y4092D01*
X3049Y4088D01*
X3048Y4082D01*
X3047Y4080D01*
X3047Y4077D01*
X3047Y4075D01*
X3047Y4072D01*
X3046Y4071D01*
Y4069D01*
Y4068D01*
Y4068D01*
X3047Y4063D01*
X3047Y4059D01*
X3047Y4055D01*
X3048Y4051D01*
X3049Y4047D01*
X3050Y4044D01*
X3051Y4041D01*
X3052Y4039D01*
X3053Y4036D01*
X3054Y4034D01*
X3055Y4033D01*
X3056Y4031D01*
X3057Y4030D01*
X3058Y4029D01*
X3058Y4029D01*
X3058Y4029D01*
X3060Y4026D01*
X3062Y4024D01*
X3065Y4023D01*
X3067Y4021D01*
X3069Y4020D01*
X3072Y4019D01*
X3076Y4017D01*
X3080Y4016D01*
X3082Y4016D01*
X3083Y4016D01*
X3085Y4016D01*
X3086D01*
X3089Y4016D01*
X3092Y4016D01*
X3095Y4017D01*
X3098Y4018D01*
X3103Y4020D01*
X3107Y4022D01*
X3109Y4023D01*
X3110Y4024D01*
X3112Y4025D01*
X3113Y4026D01*
X3114Y4027D01*
X3114Y4028D01*
X3115Y4028D01*
X3115Y4028D01*
X3117Y4031D01*
X3118Y4034D01*
X3120Y4037D01*
X3121Y4040D01*
X3123Y4046D01*
X3125Y4053D01*
X3125Y4056D01*
X3125Y4059D01*
X3126Y4061D01*
X3126Y4063D01*
X3126Y4065D01*
Y4066D01*
Y4067D01*
Y4067D01*
X3126Y4072D01*
X3126Y4077D01*
X3125Y4081D01*
X3124Y4084D01*
X3123Y4088D01*
X3122Y4091D01*
X3121Y4094D01*
X3120Y4097D01*
X3119Y4099D01*
X3118Y4101D01*
X3117Y4102D01*
X3117Y4104D01*
X3116Y4105D01*
X3115Y4106D01*
X3115Y4106D01*
X3115Y4106D01*
X3113Y4108D01*
X3110Y4110D01*
X3108Y4112D01*
X3105Y4114D01*
X3103Y4115D01*
X3101Y4116D01*
X3096Y4118D01*
X3092Y4119D01*
X3090Y4119D01*
X3089Y4119D01*
X3088Y4119D01*
D02*
G37*
G36*
X5Y4119D02*
X3D01*
X0Y4119D01*
X-3Y4119D01*
X-6Y4118D01*
X-8Y4117D01*
X-13Y4115D01*
X-17Y4113D01*
X-19Y4112D01*
X-21Y4110D01*
X-22Y4109D01*
X-23Y4108D01*
X-24Y4107D01*
X-24Y4107D01*
X-25Y4106D01*
X-25Y4106D01*
X-27Y4104D01*
X-29Y4101D01*
X-30Y4098D01*
X-32Y4095D01*
X-33Y4092D01*
X-34Y4088D01*
X-35Y4082D01*
X-35Y4080D01*
X-36Y4077D01*
X-36Y4075D01*
X-36Y4072D01*
X-36Y4071D01*
Y4069D01*
Y4068D01*
Y4068D01*
X-36Y4063D01*
X-36Y4059D01*
X-35Y4055D01*
X-35Y4051D01*
X-34Y4047D01*
X-33Y4044D01*
X-32Y4041D01*
X-31Y4039D01*
X-30Y4036D01*
X-29Y4034D01*
X-28Y4033D01*
X-27Y4031D01*
X-26Y4030D01*
X-25Y4029D01*
X-25Y4029D01*
X-25Y4029D01*
X-23Y4026D01*
X-21Y4024D01*
X-18Y4023D01*
X-16Y4021D01*
X-13Y4020D01*
X-11Y4019D01*
X-7Y4017D01*
X-3Y4016D01*
X-1Y4016D01*
X0Y4016D01*
X2Y4016D01*
X3D01*
X7Y4016D01*
X9Y4016D01*
X12Y4017D01*
X15Y4018D01*
X20Y4020D01*
X24Y4022D01*
X26Y4023D01*
X27Y4024D01*
X29Y4025D01*
X30Y4026D01*
X31Y4027D01*
X31Y4028D01*
X32Y4028D01*
X32Y4028D01*
X34Y4031D01*
X35Y4034D01*
X37Y4037D01*
X38Y4040D01*
X40Y4046D01*
X42Y4053D01*
X42Y4056D01*
X43Y4059D01*
X43Y4061D01*
X43Y4063D01*
X43Y4065D01*
Y4066D01*
Y4067D01*
Y4067D01*
X43Y4072D01*
X43Y4077D01*
X42Y4081D01*
X41Y4084D01*
X40Y4088D01*
X39Y4091D01*
X38Y4094D01*
X37Y4097D01*
X36Y4099D01*
X35Y4101D01*
X34Y4102D01*
X34Y4104D01*
X33Y4105D01*
X32Y4106D01*
X32Y4106D01*
X32Y4106D01*
X30Y4108D01*
X27Y4110D01*
X25Y4112D01*
X23Y4114D01*
X20Y4115D01*
X18Y4116D01*
X13Y4118D01*
X9Y4119D01*
X8Y4119D01*
X6Y4119D01*
X5Y4119D01*
D02*
G37*
G36*
X-3Y4652D02*
X-5D01*
X-8Y4652D01*
X-10Y4652D01*
X-13Y4651D01*
X-15Y4650D01*
X-19Y4648D01*
X-23Y4646D01*
X-26Y4643D01*
X-27Y4642D01*
X-28Y4641D01*
X-29Y4641D01*
X-30Y4640D01*
X-30Y4640D01*
X-30Y4639D01*
X-32Y4637D01*
X-34Y4634D01*
X-35Y4631D01*
X-36Y4628D01*
X-38Y4622D01*
X-39Y4615D01*
X-40Y4612D01*
X-40Y4610D01*
X-40Y4607D01*
X-41Y4605D01*
X-41Y4603D01*
Y4602D01*
Y4601D01*
Y4600D01*
X-41Y4596D01*
X-40Y4591D01*
X-40Y4587D01*
X-39Y4583D01*
X-38Y4580D01*
X-37Y4577D01*
X-36Y4574D01*
X-35Y4571D01*
X-34Y4569D01*
X-33Y4567D01*
X-32Y4565D01*
X-31Y4564D01*
X-31Y4563D01*
X-30Y4562D01*
X-30Y4562D01*
X-30Y4561D01*
X-28Y4559D01*
X-25Y4557D01*
X-23Y4555D01*
X-21Y4554D01*
X-19Y4553D01*
X-17Y4552D01*
X-13Y4550D01*
X-9Y4549D01*
X-8Y4549D01*
X-6Y4549D01*
X-5Y4549D01*
X-4D01*
X-0Y4549D01*
X3Y4549D01*
X6Y4550D01*
X9Y4551D01*
X11Y4553D01*
X14Y4554D01*
X16Y4556D01*
X18Y4557D01*
X19Y4559D01*
X21Y4561D01*
X23Y4562D01*
X24Y4563D01*
X24Y4564D01*
X25Y4565D01*
X25Y4566D01*
X26Y4566D01*
X27Y4568D01*
X28Y4571D01*
X29Y4573D01*
X29Y4576D01*
X30Y4582D01*
X31Y4588D01*
X31Y4591D01*
X32Y4593D01*
X32Y4595D01*
Y4597D01*
X32Y4599D01*
Y4600D01*
Y4601D01*
Y4601D01*
X32Y4606D01*
X32Y4610D01*
X31Y4614D01*
X30Y4618D01*
X29Y4621D01*
X29Y4624D01*
X28Y4627D01*
X27Y4629D01*
X26Y4632D01*
X25Y4634D01*
X24Y4635D01*
X23Y4637D01*
X22Y4638D01*
X22Y4638D01*
X21Y4639D01*
X21Y4639D01*
X19Y4641D01*
X17Y4643D01*
X15Y4645D01*
X12Y4647D01*
X10Y4648D01*
X8Y4649D01*
X4Y4651D01*
X0Y4652D01*
X-1Y4652D01*
X-2Y4652D01*
X-3Y4652D01*
D02*
G37*
G36*
X1949Y4601D02*
X1949D01*
X1949Y4592D01*
X1950Y4587D01*
X1950Y4582D01*
X1951Y4578D01*
X1951Y4575D01*
X1952Y4573D01*
X1952Y4571D01*
X1953Y4570D01*
X1953Y4569D01*
X1955Y4566D01*
X1957Y4563D01*
X1960Y4560D01*
X1962Y4558D01*
X1965Y4556D01*
X1967Y4554D01*
X1968Y4554D01*
X1968Y4553D01*
X1968D01*
X1972Y4552D01*
X1976Y4550D01*
X1980Y4549D01*
X1984Y4549D01*
X1987Y4548D01*
X1988Y4548D01*
X1990Y4548D01*
X1992D01*
X1996Y4548D01*
X2000Y4549D01*
X2004Y4550D01*
X2007Y4551D01*
X2009Y4552D01*
X2011Y4553D01*
X2012Y4554D01*
X2012Y4554D01*
X2014Y4556D01*
X2016Y4559D01*
X2017Y4561D01*
X2018Y4564D01*
X2018Y4566D01*
X2019Y4568D01*
X2019Y4569D01*
Y4569D01*
X2019Y4571D01*
X2018Y4573D01*
X2018Y4575D01*
X2017Y4577D01*
X2017Y4578D01*
X2016Y4579D01*
X2016Y4580D01*
X2016Y4580D01*
X2014Y4582D01*
X2013Y4583D01*
X2012Y4584D01*
X2010Y4585D01*
X2009Y4586D01*
X2008Y4587D01*
X2007Y4587D01*
X2007Y4587D01*
X2004Y4588D01*
X2001Y4589D01*
X1998Y4590D01*
X1995Y4591D01*
X1992Y4591D01*
X1989Y4592D01*
X1988Y4592D01*
X1987Y4592D01*
X1987D01*
X1982Y4593D01*
X1978Y4593D01*
X1974Y4594D01*
X1970Y4595D01*
X1967Y4596D01*
X1964Y4596D01*
X1961Y4597D01*
X1958Y4598D01*
X1956Y4598D01*
X1954Y4599D01*
X1953Y4599D01*
X1952Y4600D01*
X1951Y4600D01*
X1950Y4600D01*
X1949Y4601D01*
D02*
G37*
G36*
X1038D02*
X1038D01*
X1038Y4592D01*
X1038Y4587D01*
X1038Y4582D01*
X1039Y4578D01*
X1040Y4575D01*
X1040Y4573D01*
X1041Y4571D01*
X1041Y4570D01*
X1041Y4569D01*
X1043Y4566D01*
X1046Y4563D01*
X1048Y4560D01*
X1051Y4558D01*
X1053Y4556D01*
X1055Y4554D01*
X1056Y4554D01*
X1056Y4553D01*
X1057D01*
X1061Y4552D01*
X1065Y4550D01*
X1068Y4549D01*
X1072Y4549D01*
X1075Y4548D01*
X1077Y4548D01*
X1078Y4548D01*
X1080D01*
X1085Y4548D01*
X1089Y4549D01*
X1093Y4550D01*
X1095Y4551D01*
X1098Y4552D01*
X1099Y4553D01*
X1100Y4554D01*
X1100Y4554D01*
X1103Y4556D01*
X1104Y4559D01*
X1106Y4561D01*
X1106Y4564D01*
X1107Y4566D01*
X1107Y4568D01*
X1107Y4569D01*
Y4569D01*
X1107Y4571D01*
X1107Y4573D01*
X1106Y4575D01*
X1106Y4577D01*
X1105Y4578D01*
X1105Y4579D01*
X1104Y4580D01*
X1104Y4580D01*
X1103Y4582D01*
X1101Y4583D01*
X1100Y4584D01*
X1098Y4585D01*
X1097Y4586D01*
X1096Y4587D01*
X1095Y4587D01*
X1095Y4587D01*
X1093Y4588D01*
X1089Y4589D01*
X1086Y4590D01*
X1083Y4591D01*
X1080Y4591D01*
X1077Y4592D01*
X1077Y4592D01*
X1076Y4592D01*
X1075D01*
X1070Y4593D01*
X1066Y4593D01*
X1062Y4594D01*
X1059Y4595D01*
X1055Y4596D01*
X1052Y4596D01*
X1049Y4597D01*
X1047Y4598D01*
X1045Y4598D01*
X1043Y4599D01*
X1041Y4599D01*
X1040Y4600D01*
X1039Y4600D01*
X1038Y4600D01*
X1038Y4601D01*
D02*
G37*
G36*
X2517Y4652D02*
X2516D01*
X2513Y4652D01*
X2510Y4652D01*
X2507Y4651D01*
X2504Y4650D01*
X2499Y4648D01*
X2497Y4647D01*
X2495Y4645D01*
X2493Y4644D01*
X2492Y4643D01*
X2490Y4642D01*
X2489Y4641D01*
X2489Y4640D01*
X2488Y4639D01*
X2488Y4639D01*
X2487Y4639D01*
X2485Y4635D01*
X2483Y4631D01*
X2481Y4627D01*
X2480Y4623D01*
X2479Y4619D01*
X2479Y4618D01*
X2479Y4616D01*
X2479Y4615D01*
X2479Y4614D01*
Y4614D01*
Y4613D01*
X2554D01*
X2554Y4617D01*
X2553Y4620D01*
X2552Y4625D01*
X2550Y4630D01*
X2549Y4632D01*
X2548Y4634D01*
X2547Y4636D01*
X2546Y4637D01*
X2545Y4638D01*
X2544Y4640D01*
X2543Y4640D01*
X2543Y4641D01*
X2543Y4641D01*
X2542Y4641D01*
X2540Y4643D01*
X2538Y4645D01*
X2536Y4646D01*
X2534Y4648D01*
X2529Y4650D01*
X2525Y4651D01*
X2521Y4652D01*
X2520Y4652D01*
X2518Y4652D01*
X2517Y4652D01*
D02*
G37*
G36*
X1285Y4697D02*
X1242D01*
X1238Y4697D01*
X1235Y4697D01*
X1231Y4697D01*
X1228Y4696D01*
X1226Y4696D01*
X1223Y4696D01*
X1221Y4695D01*
X1220Y4695D01*
X1218Y4695D01*
X1217Y4694D01*
X1216Y4694D01*
X1215Y4694D01*
X1214Y4694D01*
X1214Y4693D01*
X1214D01*
X1211Y4692D01*
X1209Y4691D01*
X1204Y4688D01*
X1200Y4684D01*
X1197Y4681D01*
X1194Y4677D01*
X1193Y4676D01*
X1192Y4675D01*
X1191Y4674D01*
X1191Y4673D01*
X1190Y4672D01*
X1190Y4672D01*
X1189Y4669D01*
X1187Y4666D01*
X1185Y4659D01*
X1183Y4651D01*
X1182Y4644D01*
X1181Y4640D01*
X1181Y4637D01*
X1181Y4635D01*
Y4632D01*
X1181Y4630D01*
Y4629D01*
Y4628D01*
Y4627D01*
X1181Y4620D01*
X1181Y4613D01*
X1182Y4610D01*
X1182Y4607D01*
X1183Y4604D01*
X1183Y4601D01*
X1184Y4599D01*
X1184Y4597D01*
X1184Y4595D01*
X1185Y4594D01*
X1185Y4593D01*
X1185Y4592D01*
X1186Y4592D01*
Y4591D01*
X1188Y4586D01*
X1190Y4581D01*
X1192Y4577D01*
X1194Y4574D01*
X1196Y4571D01*
X1198Y4569D01*
X1199Y4568D01*
X1199Y4568D01*
X1199Y4568D01*
X1202Y4565D01*
X1204Y4563D01*
X1207Y4562D01*
X1210Y4560D01*
X1212Y4559D01*
X1214Y4559D01*
X1215Y4558D01*
X1216Y4558D01*
X1216Y4558D01*
X1216D01*
X1220Y4557D01*
X1225Y4556D01*
X1230Y4556D01*
X1234Y4555D01*
X1238Y4555D01*
X1240D01*
X1242Y4555D01*
X1285D01*
Y4697D01*
D02*
G37*
G36*
X2835Y4701D02*
X2831D01*
X2827Y4701D01*
X2821Y4700D01*
X2815Y4698D01*
X2813Y4697D01*
X2810Y4697D01*
X2808Y4696D01*
X2806Y4695D01*
X2805Y4694D01*
X2803Y4693D01*
X2802Y4693D01*
X2801Y4692D01*
X2801Y4692D01*
X2801Y4692D01*
X2795Y4688D01*
X2791Y4684D01*
X2787Y4679D01*
X2784Y4675D01*
X2781Y4671D01*
X2780Y4670D01*
X2780Y4668D01*
X2779Y4667D01*
X2779Y4666D01*
X2778Y4666D01*
Y4665D01*
X2776Y4659D01*
X2774Y4652D01*
X2772Y4645D01*
X2771Y4639D01*
X2771Y4636D01*
X2771Y4634D01*
X2771Y4632D01*
Y4630D01*
X2770Y4628D01*
Y4627D01*
Y4626D01*
Y4626D01*
X2771Y4619D01*
X2771Y4613D01*
X2772Y4607D01*
X2773Y4602D01*
X2775Y4597D01*
X2776Y4592D01*
X2778Y4588D01*
X2779Y4584D01*
X2781Y4581D01*
X2783Y4578D01*
X2784Y4576D01*
X2786Y4574D01*
X2787Y4572D01*
X2788Y4571D01*
X2788Y4570D01*
X2788Y4570D01*
X2792Y4567D01*
X2796Y4564D01*
X2799Y4561D01*
X2803Y4559D01*
X2807Y4557D01*
X2811Y4555D01*
X2815Y4554D01*
X2818Y4553D01*
X2821Y4552D01*
X2825Y4552D01*
X2827Y4551D01*
X2830Y4551D01*
X2832Y4551D01*
X2833Y4551D01*
X2834D01*
X2839Y4551D01*
X2844Y4552D01*
X2849Y4553D01*
X2853Y4554D01*
X2857Y4555D01*
X2861Y4557D01*
X2864Y4559D01*
X2867Y4560D01*
X2870Y4562D01*
X2873Y4564D01*
X2875Y4565D01*
X2877Y4567D01*
X2878Y4568D01*
X2879Y4569D01*
X2880Y4570D01*
X2880Y4570D01*
X2883Y4574D01*
X2886Y4578D01*
X2888Y4582D01*
X2890Y4586D01*
X2892Y4591D01*
X2893Y4595D01*
X2895Y4600D01*
X2896Y4604D01*
X2896Y4608D01*
X2897Y4611D01*
X2897Y4615D01*
X2898Y4617D01*
Y4620D01*
X2898Y4622D01*
Y4623D01*
Y4623D01*
X2898Y4631D01*
X2897Y4638D01*
X2896Y4644D01*
X2895Y4650D01*
X2893Y4656D01*
X2892Y4660D01*
X2890Y4665D01*
X2888Y4669D01*
X2887Y4672D01*
X2885Y4675D01*
X2883Y4678D01*
X2882Y4680D01*
X2881Y4681D01*
X2880Y4682D01*
X2879Y4683D01*
X2879Y4683D01*
X2875Y4686D01*
X2872Y4689D01*
X2868Y4692D01*
X2864Y4694D01*
X2860Y4695D01*
X2856Y4697D01*
X2853Y4698D01*
X2849Y4699D01*
X2846Y4700D01*
X2843Y4700D01*
X2841Y4701D01*
X2838Y4701D01*
X2836D01*
X2835Y4701D01*
D02*
G37*
G36*
X145Y4652D02*
X143D01*
X140Y4652D01*
X137Y4651D01*
X134Y4651D01*
X131Y4650D01*
X127Y4648D01*
X122Y4645D01*
X121Y4644D01*
X119Y4643D01*
X118Y4642D01*
X117Y4641D01*
X116Y4640D01*
X115Y4640D01*
X115Y4639D01*
X115Y4639D01*
X113Y4636D01*
X111Y4634D01*
X109Y4631D01*
X108Y4628D01*
X107Y4624D01*
X106Y4621D01*
X105Y4615D01*
X104Y4612D01*
X104Y4610D01*
X104Y4607D01*
X103Y4605D01*
X103Y4603D01*
Y4602D01*
Y4601D01*
Y4601D01*
X103Y4596D01*
X104Y4592D01*
X104Y4588D01*
X105Y4584D01*
X106Y4580D01*
X107Y4577D01*
X108Y4574D01*
X109Y4571D01*
X110Y4569D01*
X111Y4567D01*
X112Y4565D01*
X113Y4564D01*
X114Y4563D01*
X114Y4562D01*
X114Y4562D01*
X115Y4561D01*
X117Y4559D01*
X119Y4557D01*
X121Y4555D01*
X124Y4554D01*
X126Y4553D01*
X129Y4552D01*
X133Y4550D01*
X137Y4549D01*
X139Y4549D01*
X140Y4549D01*
X141Y4549D01*
X143D01*
X146Y4549D01*
X149Y4549D01*
X152Y4550D01*
X155Y4551D01*
X159Y4553D01*
X164Y4555D01*
X165Y4556D01*
X167Y4557D01*
X168Y4558D01*
X169Y4559D01*
X170Y4560D01*
X171Y4561D01*
X171Y4561D01*
X171Y4561D01*
X173Y4564D01*
X175Y4567D01*
X177Y4570D01*
X178Y4573D01*
X180Y4579D01*
X181Y4586D01*
X182Y4589D01*
X182Y4591D01*
X182Y4594D01*
X182Y4596D01*
X183Y4598D01*
Y4599D01*
Y4600D01*
Y4600D01*
X182Y4605D01*
X182Y4609D01*
X182Y4613D01*
X181Y4617D01*
X180Y4621D01*
X179Y4624D01*
X178Y4627D01*
X177Y4629D01*
X176Y4632D01*
X175Y4634D01*
X174Y4635D01*
X173Y4637D01*
X172Y4638D01*
X172Y4638D01*
X172Y4639D01*
X171Y4639D01*
X169Y4641D01*
X167Y4643D01*
X165Y4645D01*
X162Y4646D01*
X160Y4648D01*
X157Y4649D01*
X153Y4650D01*
X149Y4651D01*
X147Y4652D01*
X146Y4652D01*
X145Y4652D01*
D02*
G37*
G36*
X2660Y4653D02*
X2658D01*
X2656Y4653D01*
X2653Y4652D01*
X2651Y4652D01*
X2648Y4651D01*
X2644Y4649D01*
X2640Y4646D01*
X2637Y4644D01*
X2636Y4643D01*
X2635Y4642D01*
X2634Y4641D01*
X2633Y4641D01*
X2633Y4640D01*
X2633Y4640D01*
X2631Y4637D01*
X2629Y4635D01*
X2628Y4632D01*
X2627Y4629D01*
X2625Y4622D01*
X2624Y4616D01*
X2623Y4613D01*
X2623Y4610D01*
X2623Y4608D01*
X2622Y4605D01*
X2622Y4604D01*
Y4602D01*
Y4601D01*
Y4601D01*
X2622Y4596D01*
X2623Y4592D01*
X2623Y4588D01*
X2624Y4584D01*
X2625Y4580D01*
X2626Y4577D01*
X2627Y4574D01*
X2628Y4571D01*
X2629Y4569D01*
X2630Y4567D01*
X2631Y4565D01*
X2632Y4564D01*
X2632Y4563D01*
X2633Y4562D01*
X2633Y4561D01*
X2633Y4561D01*
X2635Y4559D01*
X2637Y4557D01*
X2640Y4555D01*
X2642Y4554D01*
X2644Y4553D01*
X2646Y4552D01*
X2650Y4550D01*
X2654Y4549D01*
X2656Y4549D01*
X2657Y4549D01*
X2658Y4549D01*
X2659D01*
X2662Y4549D01*
X2665Y4549D01*
X2667Y4550D01*
X2670Y4551D01*
X2674Y4552D01*
X2678Y4555D01*
X2681Y4557D01*
X2682Y4558D01*
X2683Y4559D01*
X2684Y4560D01*
X2684Y4560D01*
X2685Y4561D01*
X2685Y4561D01*
X2687Y4563D01*
X2688Y4566D01*
X2690Y4569D01*
X2691Y4572D01*
X2693Y4579D01*
X2694Y4585D01*
X2695Y4588D01*
X2695Y4591D01*
X2695Y4593D01*
X2695Y4595D01*
X2695Y4597D01*
Y4598D01*
Y4599D01*
Y4599D01*
X2695Y4604D01*
X2695Y4609D01*
X2694Y4613D01*
X2694Y4617D01*
X2693Y4620D01*
X2692Y4623D01*
X2691Y4626D01*
X2690Y4629D01*
X2689Y4632D01*
X2688Y4634D01*
X2687Y4635D01*
X2686Y4637D01*
X2685Y4638D01*
X2685Y4639D01*
X2684Y4639D01*
X2684Y4639D01*
X2682Y4642D01*
X2680Y4644D01*
X2678Y4646D01*
X2675Y4647D01*
X2673Y4649D01*
X2671Y4650D01*
X2667Y4651D01*
X2664Y4652D01*
X2662Y4653D01*
X2661Y4653D01*
X2660Y4653D01*
D02*
G37*
G36*
X3179Y-4274D02*
X3145D01*
X3142Y-4274D01*
X3140D01*
X3137Y-4275D01*
X3135Y-4275D01*
X3133Y-4275D01*
X3132Y-4275D01*
X3130Y-4275D01*
X3128Y-4276D01*
X3126Y-4276D01*
X3125Y-4277D01*
X3125Y-4277D01*
X3123Y-4278D01*
X3120Y-4279D01*
X3119Y-4281D01*
X3117Y-4282D01*
X3116Y-4284D01*
X3115Y-4285D01*
X3115Y-4286D01*
X3114Y-4286D01*
X3113Y-4289D01*
X3112Y-4292D01*
X3112Y-4294D01*
X3111Y-4297D01*
X3111Y-4299D01*
X3110Y-4301D01*
Y-4302D01*
Y-4303D01*
Y-4303D01*
X3111Y-4307D01*
X3111Y-4310D01*
X3112Y-4313D01*
X3113Y-4316D01*
X3113Y-4317D01*
X3114Y-4319D01*
X3115Y-4320D01*
X3115Y-4320D01*
X3117Y-4322D01*
X3119Y-4324D01*
X3121Y-4326D01*
X3123Y-4327D01*
X3124Y-4328D01*
X3126Y-4328D01*
X3127Y-4329D01*
X3127Y-4329D01*
X3129Y-4330D01*
X3132Y-4330D01*
X3135Y-4330D01*
X3138Y-4331D01*
X3141Y-4331D01*
X3179D01*
Y-4274D01*
D02*
G37*
G36*
Y-4353D02*
X3143D01*
X3138Y-4353D01*
X3133Y-4353D01*
X3129Y-4354D01*
X3126Y-4354D01*
X3123Y-4355D01*
X3122Y-4356D01*
X3121Y-4356D01*
X3120Y-4356D01*
X3118Y-4358D01*
X3115Y-4359D01*
X3113Y-4361D01*
X3112Y-4363D01*
X3110Y-4365D01*
X3109Y-4366D01*
X3109Y-4367D01*
X3109Y-4367D01*
X3107Y-4370D01*
X3106Y-4373D01*
X3105Y-4376D01*
X3105Y-4379D01*
X3104Y-4381D01*
X3104Y-4383D01*
Y-4384D01*
Y-4384D01*
Y-4385D01*
Y-4385D01*
X3104Y-4389D01*
X3105Y-4393D01*
X3106Y-4396D01*
X3106Y-4399D01*
X3107Y-4401D01*
X3108Y-4402D01*
X3109Y-4404D01*
X3109Y-4404D01*
X3111Y-4407D01*
X3113Y-4409D01*
X3115Y-4411D01*
X3117Y-4412D01*
X3119Y-4413D01*
X3121Y-4414D01*
X3122Y-4415D01*
X3122Y-4415D01*
X3124Y-4416D01*
X3127Y-4416D01*
X3131Y-4416D01*
X3133Y-4417D01*
X3136D01*
X3139Y-4417D01*
X3179D01*
Y-4353D01*
D02*
G37*
G36*
X355Y-4274D02*
X320D01*
X317Y-4274D01*
X314Y-4275D01*
X311Y-4275D01*
X309Y-4275D01*
X307Y-4275D01*
X305Y-4276D01*
X303Y-4276D01*
X302Y-4276D01*
X300Y-4277D01*
X299Y-4277D01*
X297Y-4278D01*
X297Y-4278D01*
X295Y-4279D01*
X293Y-4281D01*
X289Y-4284D01*
X285Y-4287D01*
X283Y-4291D01*
X280Y-4294D01*
X280Y-4296D01*
X279Y-4297D01*
X278Y-4298D01*
X278Y-4299D01*
X277Y-4300D01*
Y-4300D01*
X276Y-4303D01*
X275Y-4306D01*
X273Y-4314D01*
X271Y-4321D01*
X271Y-4328D01*
X270Y-4332D01*
X270Y-4335D01*
X270Y-4337D01*
Y-4340D01*
X269Y-4342D01*
Y-4343D01*
Y-4344D01*
Y-4344D01*
Y-4349D01*
X270Y-4354D01*
X270Y-4358D01*
X271Y-4363D01*
X271Y-4367D01*
X272Y-4371D01*
X273Y-4374D01*
X273Y-4377D01*
X274Y-4380D01*
X275Y-4383D01*
X275Y-4385D01*
X276Y-4387D01*
X276Y-4388D01*
X276Y-4389D01*
X277Y-4390D01*
Y-4390D01*
X279Y-4395D01*
X282Y-4399D01*
X284Y-4403D01*
X287Y-4406D01*
X289Y-4408D01*
X291Y-4409D01*
X292Y-4410D01*
X292Y-4411D01*
X292D01*
X295Y-4412D01*
X297Y-4413D01*
X301Y-4414D01*
X306Y-4415D01*
X311Y-4416D01*
X314Y-4416D01*
X316Y-4417D01*
X317Y-4417D01*
X319D01*
X321Y-4417D01*
X355D01*
Y-4274D01*
D02*
G37*
G36*
X-4037Y-3423D02*
X-4038Y-3423D01*
X-4040Y-3423D01*
X-4040Y-3424D01*
X-4041D01*
X-4043Y-3424D01*
X-4045Y-3426D01*
X-4047Y-3427D01*
X-4049Y-3428D01*
X-4051Y-3429D01*
X-4052Y-3430D01*
X-4053Y-3431D01*
X-4053Y-3431D01*
X-4053Y-3431D01*
X-4055Y-3434D01*
X-4057Y-3436D01*
X-4058Y-3438D01*
X-4059Y-3440D01*
X-4060Y-3442D01*
X-4060Y-3443D01*
X-4061Y-3444D01*
Y-3444D01*
X-4061Y-3447D01*
Y-3449D01*
X-4061Y-3451D01*
X-4060Y-3453D01*
X-4060Y-3455D01*
X-4059Y-3456D01*
X-4059Y-3456D01*
X-4059Y-3457D01*
X-4058Y-3459D01*
X-4056Y-3461D01*
X-4055Y-3462D01*
X-4053Y-3464D01*
X-4052Y-3466D01*
X-4029Y-3489D01*
X-3995Y-3455D01*
X-4015Y-3435D01*
X-4017Y-3433D01*
X-4019Y-3432D01*
X-4020Y-3430D01*
X-4022Y-3429D01*
X-4023Y-3428D01*
X-4024Y-3427D01*
X-4025Y-3427D01*
X-4027Y-3426D01*
X-4028Y-3425D01*
X-4029Y-3424D01*
X-4029D01*
X-4031Y-3424D01*
X-4033Y-3423D01*
X-4035Y-3423D01*
X-4037D01*
D02*
G37*
G36*
X-4086Y-3468D02*
X-4088Y-3468D01*
X-4090Y-3468D01*
X-4091Y-3468D01*
X-4092Y-3468D01*
X-4092Y-3468D01*
X-4095Y-3469D01*
X-4098Y-3470D01*
X-4100Y-3472D01*
X-4102Y-3473D01*
X-4103Y-3474D01*
X-4105Y-3475D01*
X-4105Y-3476D01*
X-4106Y-3476D01*
X-4106Y-3476D01*
X-4106Y-3476D01*
X-4108Y-3479D01*
X-4110Y-3482D01*
X-4112Y-3484D01*
X-4113Y-3486D01*
X-4113Y-3488D01*
X-4114Y-3489D01*
X-4114Y-3490D01*
X-4114Y-3491D01*
X-4115Y-3493D01*
X-4115Y-3496D01*
X-4115Y-3498D01*
X-4114Y-3500D01*
X-4114Y-3502D01*
X-4114Y-3504D01*
X-4113Y-3505D01*
X-4113Y-3505D01*
X-4112Y-3507D01*
X-4111Y-3509D01*
X-4109Y-3511D01*
X-4107Y-3513D01*
X-4106Y-3515D01*
X-4104Y-3516D01*
X-4081Y-3540D01*
X-4042Y-3502D01*
X-4063Y-3481D01*
X-4067Y-3477D01*
X-4070Y-3475D01*
X-4072Y-3473D01*
X-4075Y-3471D01*
X-4077Y-3470D01*
X-4078Y-3469D01*
X-4079Y-3469D01*
X-4079Y-3469D01*
X-4081Y-3468D01*
X-4084Y-3468D01*
X-4086Y-3468D01*
D02*
G37*
G36*
X-4099Y-3349D02*
X-4101Y-3350D01*
X-4103Y-3351D01*
X-4108Y-3354D01*
X-4113Y-3357D01*
X-4118Y-3360D01*
X-4120Y-3361D01*
X-4122Y-3362D01*
X-4124Y-3363D01*
X-4125Y-3364D01*
X-4127Y-3364D01*
X-4127Y-3365D01*
X-4128Y-3365D01*
X-4128Y-3365D01*
X-4169Y-3387D01*
X-4137Y-3418D01*
X-4115Y-3375D01*
X-4112Y-3370D01*
X-4109Y-3365D01*
X-4107Y-3361D01*
X-4105Y-3359D01*
X-4104Y-3357D01*
X-4103Y-3355D01*
X-4102Y-3353D01*
X-4101Y-3352D01*
X-4100Y-3351D01*
X-4100Y-3350D01*
X-4099Y-3349D01*
X-4099Y-3349D01*
X-4099Y-3349D01*
D02*
G37*
%LPD*%
D11*
X6265Y585D02*
G03*
X6265Y585I-4823J0D01*
G01*
D15*
X-4769Y1340D02*
G03*
X-4088Y947I-320J-1340D01*
G01*
X-3646Y2577D02*
X-3578Y2537D01*
X-4768Y1342D02*
X-4229Y2277D01*
X-4086Y949D02*
X-3547Y1883D01*
D86*
X-5090Y-3488D02*
X-5060D01*
X-5080Y-2678D02*
X-4990D01*
X-5090Y-2668D02*
X-5000D01*
X-5110Y-2658D02*
X-5010D01*
X-5120Y-2648D02*
X-5020D01*
X-5070Y-2638D02*
X-5030D01*
X-5080Y-2628D02*
X-5040D01*
X-5080Y-2618D02*
X-5050D01*
X-5090Y-2608D02*
X-5060D01*
X-5090Y-2598D02*
X-5060D01*
X-5090Y-2588D02*
X-5070D01*
X-5160Y-2388D02*
X-4920D01*
X-5130Y-2378D02*
X-4940D01*
X-5090Y-2368D02*
X-4980D01*
X-5080Y-3158D02*
X-5050D01*
X-5090Y-3478D02*
X-5060D01*
X-5080Y-3468D02*
X-5050D01*
X-5080Y-3458D02*
X-5050D01*
X-5080Y-3448D02*
X-5050D01*
X-5080Y-3438D02*
X-5050D01*
X-5080Y-3428D02*
X-5050D01*
X-5080Y-3418D02*
X-5050D01*
X-5080Y-3408D02*
X-5050D01*
X-5080Y-3398D02*
X-5050D01*
X-5080Y-3388D02*
X-5050D01*
X-5080Y-3378D02*
X-5050D01*
X-5080Y-3368D02*
X-5050D01*
X-5080Y-3358D02*
X-5050D01*
X-5080Y-3348D02*
X-5050D01*
X-5080Y-3338D02*
X-5050D01*
X-5080Y-3328D02*
X-5050D01*
X-5080Y-3318D02*
X-5050D01*
X-5080Y-3308D02*
X-5050D01*
X-5080Y-3298D02*
X-5050D01*
X-5080Y-3288D02*
X-5050D01*
X-5080Y-3278D02*
X-5050D01*
X-5080Y-3268D02*
X-5050D01*
X-5080Y-3258D02*
X-5050D01*
X-5080Y-3248D02*
X-5050D01*
X-5080Y-3238D02*
X-5050D01*
X-5080Y-3228D02*
X-5050D01*
X-5080Y-3218D02*
X-5050D01*
X-5080Y-3208D02*
X-5050D01*
X-5080Y-3198D02*
X-5050D01*
X-5080Y-3188D02*
X-5050D01*
X-5080Y-3178D02*
X-5050D01*
X-5080Y-3168D02*
X-5050D01*
X-5080Y-3148D02*
X-5050D01*
X-5130Y-3138D02*
X-5060D01*
X-5120Y-3128D02*
X-5050D01*
X-5100Y-3118D02*
X-5050D01*
X-5100Y-3108D02*
X-5030D01*
X-5090Y-3098D02*
X-5010D01*
X-5090Y-3088D02*
X-4980D01*
X-5090Y-3078D02*
X-5060D01*
X-5090Y-3068D02*
X-5060D01*
X-5090Y-3058D02*
X-5060D01*
X-5090Y-3048D02*
X-5060D01*
X-5090Y-3038D02*
X-5060D01*
X-5090Y-3028D02*
X-5060D01*
X-5090Y-3018D02*
X-5060D01*
X-5090Y-3008D02*
X-5060D01*
X-5090Y-2998D02*
X-5060D01*
X-5090Y-2988D02*
X-5060D01*
X-5090Y-2978D02*
X-5060D01*
X-5090Y-2968D02*
X-5060D01*
X-5090Y-2958D02*
X-5060D01*
X-5090Y-2948D02*
X-5060D01*
X-5090Y-2938D02*
X-5060D01*
X-5090Y-2928D02*
X-5060D01*
X-5090Y-2918D02*
X-5060D01*
X-5090Y-2908D02*
X-5060D01*
X-5090Y-2898D02*
X-5060D01*
X-5100Y-2888D02*
X-5050D01*
X-5120Y-2878D02*
X-5050D01*
X-5070Y-2868D02*
X-5010D01*
X-5070Y-2858D02*
X-5020D01*
X-5220Y-3578D02*
X-5050D01*
X-5210Y-3568D02*
X-5050D01*
X-5200Y-3558D02*
X-5060D01*
X-5180Y-3548D02*
X-5060D01*
X-5150Y-3538D02*
X-5070D01*
X-5110Y-3508D02*
X-5070D01*
X-5100Y-3498D02*
X-5070D01*
X-4690Y-2688D02*
X-4660D01*
X-4920D02*
X-4880D01*
X-5060D02*
X-4980D01*
X-5350D02*
X-5300D01*
X-5180D02*
X-5160D01*
X-5230D02*
X-5220D01*
X-5280D02*
X-5260D01*
X-5200Y-1888D02*
X-5170D01*
X-5300D02*
X-5280D01*
X-5420D02*
X-5380D01*
X-4700Y-2678D02*
X-4660D01*
X-4930D02*
X-4890D01*
X-4700Y-2668D02*
X-4670D01*
X-4950D02*
X-4900D01*
X-4700Y-2658D02*
X-4670D01*
X-4960D02*
X-4910D01*
X-4710Y-2648D02*
X-4680D01*
X-4960D02*
X-4930D01*
X-4710Y-2638D02*
X-4680D01*
X-4970D02*
X-4940D01*
X-4720Y-2628D02*
X-4690D01*
X-4980D02*
X-4940D01*
X-4730Y-2618D02*
X-4690D01*
X-4990D02*
X-4950D01*
X-4730Y-2608D02*
X-4700D01*
X-5000D02*
X-4960D01*
X-4740Y-2598D02*
X-4700D01*
X-5000D02*
X-4970D01*
X-4740Y-2588D02*
X-4710D01*
X-5010D02*
X-4980D01*
X-4750Y-2578D02*
X-4710D01*
X-5010D02*
X-4990D01*
X-4750Y-2568D02*
X-4720D01*
X-5020D02*
X-4990D01*
X-4760Y-2558D02*
X-4720D01*
X-5020D02*
X-5000D01*
X-4770Y-2548D02*
X-4730D01*
X-5030D02*
X-5010D01*
X-4770Y-2538D02*
X-4740D01*
X-4860D02*
X-4850D01*
X-4780Y-2528D02*
X-4740D01*
X-4860D02*
X-4840D01*
X-4790Y-2518D02*
X-4750D01*
X-4850D02*
X-4830D01*
X-4890D02*
X-4880D01*
X-4800Y-2508D02*
X-4760D01*
X-4850D02*
X-4810D01*
X-4890D02*
X-4870D01*
X-4840Y-2498D02*
X-4770D01*
X-4880D02*
X-4850D01*
X-4930D02*
X-4910D01*
X-4830Y-2488D02*
X-4770D01*
X-4880D02*
X-4840D01*
X-4920D02*
X-4900D01*
X-4870Y-2478D02*
X-4780D01*
X-4920D02*
X-4890D01*
X-4860Y-2468D02*
X-4790D01*
X-4910D02*
X-4880D01*
X-4960D02*
X-4940D01*
X-4850Y-2458D02*
X-4810D01*
X-4910D02*
X-4870D01*
X-4950D02*
X-4930D01*
X-4900Y-2448D02*
X-4820D01*
X-4940D02*
X-4920D01*
X-4990D02*
X-4980D01*
X-4890Y-2438D02*
X-4830D01*
X-4940D02*
X-4910D01*
X-4990D02*
X-4970D01*
X-4930Y-2428D02*
X-4850D01*
X-4980D02*
X-4960D01*
X-5030D02*
X-5010D01*
X-4930Y-2418D02*
X-4860D01*
X-4980D02*
X-4950D01*
X-5030D02*
X-5000D01*
X-4970Y-2408D02*
X-4880D01*
X-5020D02*
X-5000D01*
X-4970Y-2398D02*
X-4900D01*
X-5020D02*
X-4990D01*
X-5040Y-3078D02*
X-4960D01*
X-5010Y-3068D02*
X-4930D01*
X-4990Y-3058D02*
X-4890D01*
X-4960Y-3048D02*
X-4860D01*
X-4930Y-3038D02*
X-4860D01*
X-4890Y-3028D02*
X-4860D01*
X-4900Y-3018D02*
X-4870D01*
X-4910Y-3008D02*
X-4870D01*
X-4910Y-2998D02*
X-4880D01*
X-4920Y-2988D02*
X-4890D01*
X-4930Y-2978D02*
X-4890D01*
X-4930Y-2968D02*
X-4900D01*
X-4940Y-2958D02*
X-4910D01*
X-4950Y-2948D02*
X-4910D01*
X-4950Y-2938D02*
X-4920D01*
X-4960Y-2928D02*
X-4930D01*
X-4970Y-2918D02*
X-4930D01*
X-4980Y-2908D02*
X-4940D01*
X-5000Y-2898D02*
X-4950D01*
X-5020Y-2888D02*
X-4950D01*
X-4970Y-2878D02*
X-4950D01*
X-5040D02*
X-4990D01*
X-4970Y-2868D02*
X-4950D01*
X-4690Y-2858D02*
X-4650D01*
X-4970D02*
X-4950D01*
X-4720Y-2848D02*
X-4610D01*
X-4970D02*
X-4950D01*
X-5060D02*
X-5030D01*
X-4740Y-2838D02*
X-4600D01*
X-4970D02*
X-4950D01*
X-5060D02*
X-5030D01*
X-4640Y-2828D02*
X-4590D01*
X-4760D02*
X-4690D01*
X-4970D02*
X-4940D01*
X-5050D02*
X-5020D01*
X-4780Y-2818D02*
X-4720D01*
X-4970D02*
X-4950D01*
X-5050D02*
X-5020D01*
X-4600Y-2808D02*
X-4550D01*
X-4800D02*
X-4740D01*
X-4970D02*
X-4950D01*
X-5040D02*
X-5010D01*
X-4610Y-2798D02*
X-4560D01*
X-4810D02*
X-4750D01*
X-5040D02*
X-4860D01*
X-4620Y-2788D02*
X-4580D01*
X-5030D02*
X-4770D01*
X-4630Y-2778D02*
X-4590D01*
X-5020D02*
X-4790D01*
X-4640Y-2768D02*
X-4600D01*
X-4880D02*
X-4800D01*
X-4640Y-2758D02*
X-4610D01*
X-4910D02*
X-4810D01*
X-4650Y-2748D02*
X-4620D01*
X-4930D02*
X-4810D01*
X-4660Y-2738D02*
X-4620D01*
X-4860D02*
X-4820D01*
X-4960D02*
X-4880D01*
X-4670Y-2728D02*
X-4630D01*
X-4870D02*
X-4830D01*
X-4980D02*
X-4910D01*
X-4670Y-2718D02*
X-4640D01*
X-4880D02*
X-4840D01*
X-5000D02*
X-4930D01*
X-4680Y-2708D02*
X-4640D01*
X-4900D02*
X-4850D01*
X-5020D02*
X-4950D01*
X-4680Y-2698D02*
X-4650D01*
X-4910D02*
X-4860D01*
X-5040D02*
X-4970D01*
X-5400Y-1858D02*
X-5290D01*
X-5390Y-1848D02*
X-5310D01*
X-5380Y-1838D02*
X-5310D01*
X-5370Y-1828D02*
X-5240D01*
X-5350Y-1818D02*
X-5260D01*
X-5210Y-1878D02*
X-5180D01*
X-5310D02*
X-5280D01*
X-5220Y-1868D02*
X-5190D01*
X-5320D02*
X-5290D01*
X-5240Y-1858D02*
X-5200D01*
X-5250Y-1848D02*
X-5210D01*
X-5270Y-1838D02*
X-5220D01*
X-5410Y-1878D02*
X-5370D01*
X-5400Y-1868D02*
X-5360D01*
Y-2358D02*
X-5320D01*
X-5510D02*
X-5480D01*
X-5350Y-2678D02*
X-5300D01*
X-5360Y-2668D02*
X-5300D01*
X-5360Y-2658D02*
X-5330D01*
X-5360Y-2648D02*
X-5330D01*
Y-2488D02*
X-5300D01*
X-5360Y-2478D02*
X-5280D01*
X-5380Y-2468D02*
X-5260D01*
X-5380Y-2378D02*
X-5330D01*
X-5370Y-2368D02*
X-5330D01*
X-5360Y-2348D02*
X-5310D01*
X-5350Y-2338D02*
X-5300D01*
X-5340Y-2328D02*
X-5290D01*
X-5330Y-2318D02*
X-5280D01*
X-5370Y-2208D02*
X-5330D01*
X-5350Y-2198D02*
X-5320D01*
X-5340Y-2188D02*
X-5310D01*
X-5330Y-2178D02*
X-5300D01*
X-5370Y-2038D02*
X-5330D01*
X-5370Y-2028D02*
X-5300D01*
X-5370Y-2018D02*
X-5290D01*
X-5380Y-2008D02*
X-5280D01*
X-5340Y-1998D02*
X-5270D01*
X-5340Y-1988D02*
X-5320D01*
X-5330Y-1978D02*
X-5320D01*
X-5330Y-1968D02*
X-5320D01*
X-5330Y-1958D02*
X-5310D01*
X-5330Y-1948D02*
X-5300D01*
X-5380Y-1918D02*
X-5330D01*
X-5170Y-2678D02*
X-5150D01*
X-5270D02*
X-5260D01*
X-5160Y-2668D02*
X-5140D01*
X-5270D02*
X-5250D01*
X-5270Y-2658D02*
X-5250D01*
X-5320D02*
X-5300D01*
X-5260Y-2648D02*
X-5250D01*
X-5310D02*
X-5300D01*
X-5130Y-2638D02*
X-5080D01*
X-5310D02*
X-5290D01*
X-5140Y-2628D02*
X-5090D01*
X-5310D02*
X-5290D01*
X-5150Y-2618D02*
X-5110D01*
X-5310D02*
X-5290D01*
X-5160Y-2608D02*
X-5120D01*
X-5170Y-2598D02*
X-5130D01*
X-5180Y-2588D02*
X-5140D01*
X-5090Y-2578D02*
X-5080D01*
X-5180D02*
X-5150D01*
X-5190Y-2568D02*
X-5160D01*
X-5190Y-2558D02*
X-5160D01*
X-5200Y-2548D02*
X-5170D01*
X-5210Y-2538D02*
X-5180D01*
X-5210Y-2528D02*
X-5180D01*
X-5210Y-2518D02*
X-5190D01*
X-5220Y-2508D02*
X-5190D01*
X-5220Y-2498D02*
X-5200D01*
X-5210Y-2488D02*
X-5200D01*
X-5290Y-2458D02*
X-5240D01*
X-5270Y-2448D02*
X-5230D01*
X-5260Y-2438D02*
X-5210D01*
X-5240Y-2428D02*
X-5190D01*
X-5230Y-2418D02*
X-5170D01*
X-5210Y-2408D02*
X-5140D01*
X-5190Y-2398D02*
X-5100D01*
X-5370Y-2638D02*
X-5340D01*
X-5410Y-2628D02*
X-5340D01*
X-5440Y-2618D02*
X-5340D01*
X-5360Y-2608D02*
X-5340D01*
X-5450D02*
X-5380D01*
X-5350Y-2598D02*
X-5340D01*
X-5470D02*
X-5410D01*
X-5350Y-2588D02*
X-5340D01*
X-5480D02*
X-5430D01*
X-5500Y-2578D02*
X-5450D01*
X-5510Y-2568D02*
X-5450D01*
X-5470Y-2558D02*
X-5450D01*
X-5520D02*
X-5480D01*
X-5460Y-2548D02*
X-5440D01*
X-5530D02*
X-5480D01*
X-5460Y-2538D02*
X-5440D01*
X-5530D02*
X-5480D01*
X-5450Y-2528D02*
X-5430D01*
X-5490D02*
X-5480D01*
X-5540D02*
X-5500D01*
X-5450Y-2518D02*
X-5430D01*
X-5490D02*
X-5470D01*
X-5540D02*
X-5510D01*
X-5450Y-2508D02*
X-5430D01*
X-5490D02*
X-5470D01*
X-5540D02*
X-5510D01*
X-5480Y-2498D02*
X-5460D01*
X-5550D02*
X-5510D01*
X-5480Y-2488D02*
X-5460D01*
X-5550D02*
X-5500D01*
X-5550Y-2478D02*
X-5490D01*
X-5510Y-2468D02*
X-5490D01*
X-5550D02*
X-5520D01*
X-5380Y-2458D02*
X-5340D01*
X-5500D02*
X-5480D01*
X-5550D02*
X-5520D01*
X-5390Y-2448D02*
X-5350D01*
X-5490D02*
X-5480D01*
X-5550D02*
X-5520D01*
X-5390Y-2438D02*
X-5360D01*
X-5540D02*
X-5510D01*
X-5400Y-2428D02*
X-5360D01*
X-5540D02*
X-5510D01*
X-5400Y-2418D02*
X-5360D01*
X-5540D02*
X-5510D01*
X-5400Y-2408D02*
X-5360D01*
X-5530D02*
X-5500D01*
X-5390Y-2398D02*
X-5350D01*
X-5530D02*
X-5500D01*
X-5390Y-2388D02*
X-5340D01*
X-5530D02*
X-5490D01*
X-5520Y-2378D02*
X-5490D01*
X-5520Y-2368D02*
X-5480D01*
X-5320Y-2308D02*
X-5260D01*
X-5300Y-2298D02*
X-5250D01*
X-5290Y-2288D02*
X-5240D01*
X-5280Y-2278D02*
X-5230D01*
X-5270Y-2268D02*
X-5220D01*
X-5260Y-2258D02*
X-5210D01*
X-5250Y-2248D02*
X-5200D01*
X-5240Y-2238D02*
X-5190D01*
X-5230Y-2228D02*
X-5180D01*
X-5220Y-2218D02*
X-5180D01*
X-5210Y-2208D02*
X-5170D01*
X-5200Y-2198D02*
X-5160D01*
X-5200Y-2188D02*
X-5160D01*
X-5190Y-2178D02*
X-5150D01*
X-5190Y-2168D02*
X-5150D01*
X-5320D02*
X-5290D01*
X-5180Y-2158D02*
X-5150D01*
X-5320D02*
X-5280D01*
X-5180Y-2148D02*
X-5140D01*
X-5310D02*
X-5280D01*
X-5170Y-2138D02*
X-5140D01*
X-5300D02*
X-5270D01*
X-5170Y-2128D02*
X-5130D01*
X-5290D02*
X-5260D01*
X-5170Y-2118D02*
X-5130D01*
X-5290D02*
X-5260D01*
X-5160Y-2108D02*
X-5130D01*
X-5280D02*
X-5250D01*
X-5160Y-2098D02*
X-5130D01*
X-5280D02*
X-5250D01*
X-5160Y-2088D02*
X-5130D01*
X-5270D02*
X-5240D01*
X-5160Y-2078D02*
X-5120D01*
X-5270D02*
X-5240D01*
X-5160Y-2068D02*
X-5120D01*
X-5270D02*
X-5240D01*
X-5150Y-2058D02*
X-5120D01*
X-5260D02*
X-5240D01*
X-5150Y-2048D02*
X-5120D01*
X-5260D02*
X-5240D01*
X-5150Y-2038D02*
X-5120D01*
X-5260D02*
X-5240D01*
X-5150Y-2028D02*
X-5120D01*
X-5260D02*
X-5240D01*
X-5160Y-2018D02*
X-5120D01*
X-5260D02*
X-5240D01*
X-5160Y-2008D02*
X-5130D01*
X-5260D02*
X-5240D01*
X-5160Y-1998D02*
X-5130D01*
X-5260D02*
X-5240D01*
X-5160Y-1988D02*
X-5130D01*
X-5300D02*
X-5240D01*
X-5160Y-1978D02*
X-5130D01*
X-5290D02*
X-5240D01*
X-5170Y-1968D02*
X-5140D01*
X-5290D02*
X-5240D01*
X-5170Y-1958D02*
X-5140D01*
X-5280D02*
X-5260D01*
X-5170Y-1948D02*
X-5140D01*
X-5180Y-1938D02*
X-5150D01*
X-5320D02*
X-5300D01*
X-5180Y-1928D02*
X-5150D01*
X-5310D02*
X-5290D01*
X-5180Y-1918D02*
X-5150D01*
X-5310D02*
X-5280D01*
X-5190Y-1908D02*
X-5160D01*
X-5310D02*
X-5280D01*
X-5200Y-1898D02*
X-5170D01*
X-5300D02*
X-5280D01*
X-5500Y-2348D02*
X-5470D01*
X-5500Y-2338D02*
X-5460D01*
X-5490Y-2328D02*
X-5450D01*
X-5480Y-2318D02*
X-5450D01*
X-5480Y-2308D02*
X-5440D01*
X-5470Y-2298D02*
X-5430D01*
X-5460Y-2288D02*
X-5420D01*
X-5450Y-2278D02*
X-5410D01*
X-5440Y-2268D02*
X-5390D01*
X-5420Y-2258D02*
X-5380D01*
X-5410Y-2248D02*
X-5370D01*
X-5400Y-2238D02*
X-5360D01*
X-5390Y-2228D02*
X-5350D01*
X-5380Y-2218D02*
X-5340D01*
X-5420Y-2178D02*
X-5390D01*
X-5430Y-2168D02*
X-5380D01*
X-5440Y-2158D02*
X-5370D01*
X-5450Y-2148D02*
X-5370D01*
X-5400Y-2138D02*
X-5370D01*
X-5450D02*
X-5410D01*
X-5400Y-2128D02*
X-5370D01*
X-5460D02*
X-5420D01*
X-5400Y-2118D02*
X-5370D01*
X-5460D02*
X-5430D01*
X-5400Y-2108D02*
X-5360D01*
X-5470D02*
X-5430D01*
X-5400Y-2098D02*
X-5360D01*
X-5470D02*
X-5440D01*
X-5390Y-2088D02*
X-5360D01*
X-5470D02*
X-5440D01*
X-5390Y-2078D02*
X-5360D01*
X-5470D02*
X-5440D01*
X-5390Y-2068D02*
X-5350D01*
X-5470D02*
X-5440D01*
X-5380Y-2058D02*
X-5350D01*
X-5470D02*
X-5440D01*
X-5380Y-2048D02*
X-5340D01*
X-5470D02*
X-5440D01*
X-5470Y-2038D02*
X-5440D01*
X-5470Y-2028D02*
X-5440D01*
X-5470Y-2018D02*
X-5430D01*
X-5460Y-2008D02*
X-5430D01*
X-5380Y-1998D02*
X-5350D01*
X-5460D02*
X-5420D01*
X-5450Y-1988D02*
X-5360D01*
X-5440Y-1978D02*
X-5360D01*
X-5430Y-1968D02*
X-5390D01*
X-5430Y-1958D02*
X-5390D01*
X-5420Y-1948D02*
X-5390D01*
X-5430Y-1938D02*
X-5390D01*
X-5430Y-1928D02*
X-5390D01*
X-5420Y-1918D02*
X-5390D01*
X-5370Y-1908D02*
X-5340D01*
X-5420D02*
X-5390D01*
X-5420Y-1898D02*
X-5380D01*
X-5170Y-3158D02*
X-5110D01*
X-5330Y-2718D02*
X-5270D01*
X-5340Y-2708D02*
X-5300D01*
X-5340Y-2698D02*
X-5300D01*
Y-3388D02*
X-5270D01*
X-5300Y-3378D02*
X-5250D01*
X-5300Y-3368D02*
X-5240D01*
X-5300Y-3358D02*
X-5230D01*
X-5300Y-3348D02*
X-5220D01*
X-5300Y-3338D02*
X-5220D01*
X-5300Y-3328D02*
X-5220D01*
X-5290Y-3318D02*
X-5230D01*
X-5290Y-3308D02*
X-5230D01*
X-5280Y-3298D02*
X-5230D01*
X-5280Y-3288D02*
X-5230D01*
X-5270Y-3278D02*
X-5230D01*
X-5270Y-3268D02*
X-5230D01*
X-5260Y-3258D02*
X-5230D01*
X-5250Y-3248D02*
X-5220D01*
X-5250Y-3238D02*
X-5210D01*
X-5240Y-3228D02*
X-5200D01*
X-5230Y-3218D02*
X-5190D01*
X-5220Y-3208D02*
X-5180D01*
X-5210Y-3198D02*
X-5170D01*
X-5200Y-3188D02*
X-5160D01*
X-5190Y-3178D02*
X-5140D01*
X-5180Y-3168D02*
X-5130D01*
X-5150Y-3148D02*
X-5090D01*
X-5130Y-2868D02*
X-5090D01*
X-5140Y-2858D02*
X-5100D01*
X-5140Y-2848D02*
X-5110D01*
X-5150Y-2838D02*
X-5110D01*
X-5170Y-2828D02*
X-5120D01*
X-5190Y-2818D02*
X-5130D01*
X-5200Y-2808D02*
X-5140D01*
X-5220Y-2798D02*
X-5160D01*
X-5240Y-2788D02*
X-5170D01*
X-5250Y-2778D02*
X-5190D01*
X-5270Y-2768D02*
X-5190D01*
X-5210Y-2758D02*
X-5180D01*
X-5290D02*
X-5220D01*
X-5190Y-2748D02*
X-5160D01*
X-5300D02*
X-5240D01*
X-5180Y-2738D02*
X-5140D01*
X-5200D02*
X-5190D01*
X-5310D02*
X-5260D01*
X-5320Y-2728D02*
X-5150D01*
Y-2718D02*
X-5140D01*
X-5180D02*
X-5170D01*
X-5210D02*
X-5190D01*
X-5260D02*
X-5220D01*
X-5170Y-2708D02*
X-5160D01*
X-5200D02*
X-5180D01*
X-5250D02*
X-5210D01*
X-5290D02*
X-5270D01*
X-5200Y-2698D02*
X-5170D01*
X-5240D02*
X-5220D01*
X-5280D02*
X-5260D01*
X-5130Y-3528D02*
X-5080D01*
X-5120Y-3518D02*
X-5080D01*
M02*
