G04*
G04 #@! TF.GenerationSoftware,Altium Limited,Altium Designer,20.0.11 (256)*
G04*
G04 Layer_Physical_Order=4*
G04 Layer_Color=16711680*
%FSLAX24Y24*%
%MOIN*%
G70*
G01*
G75*
%ADD14C,0.0100*%
%ADD67C,0.0080*%
%ADD68C,0.0040*%
%ADD72C,0.0200*%
%ADD73C,0.0060*%
%ADD75C,0.0250*%
%ADD76C,0.0803*%
G04:AMPARAMS|DCode=77|XSize=137.8mil|YSize=90.6mil|CornerRadius=22.6mil|HoleSize=0mil|Usage=FLASHONLY|Rotation=90.000|XOffset=0mil|YOffset=0mil|HoleType=Round|Shape=RoundedRectangle|*
%AMROUNDEDRECTD77*
21,1,0.1378,0.0453,0,0,90.0*
21,1,0.0925,0.0906,0,0,90.0*
1,1,0.0453,0.0226,0.0463*
1,1,0.0453,0.0226,-0.0463*
1,1,0.0453,-0.0226,-0.0463*
1,1,0.0453,-0.0226,0.0463*
%
%ADD77ROUNDEDRECTD77*%
%ADD78C,0.0945*%
%ADD79C,0.0220*%
%ADD80C,0.0200*%
%ADD81C,0.0250*%
G04:AMPARAMS|DCode=82|XSize=157.5mil|YSize=157.5mil|CornerRadius=39.4mil|HoleSize=0mil|Usage=FLASHONLY|Rotation=45.000|XOffset=0mil|YOffset=0mil|HoleType=Round|Shape=RoundedRectangle|*
%AMROUNDEDRECTD82*
21,1,0.1575,0.0787,0,0,45.0*
21,1,0.0787,0.1575,0,0,45.0*
1,1,0.0787,0.0557,0.0000*
1,1,0.0787,0.0000,-0.0557*
1,1,0.0787,-0.0557,0.0000*
1,1,0.0787,0.0000,0.0557*
%
%ADD82ROUNDEDRECTD82*%
G04:AMPARAMS|DCode=83|XSize=31.5mil|YSize=63mil|CornerRadius=0mil|HoleSize=0mil|Usage=FLASHONLY|Rotation=150.000|XOffset=0mil|YOffset=0mil|HoleType=Round|Shape=Rectangle|*
%AMROTATEDRECTD83*
4,1,4,0.0294,0.0194,-0.0021,-0.0352,-0.0294,-0.0194,0.0021,0.0352,0.0294,0.0194,0.0*
%
%ADD83ROTATEDRECTD83*%

D14*
X2769Y-3736D02*
Y-3142D01*
X700Y-1074D02*
X2769Y-3142D01*
X700Y-1074D02*
Y-300D01*
D67*
X-400Y850D02*
X1773D01*
X3173Y-550D01*
X3600D01*
X2300Y1998D02*
Y2150D01*
X1428Y1126D02*
X2300Y1998D01*
X-2675Y1126D02*
X1428D01*
X-3330Y470D02*
X-2675Y1126D01*
X-3550Y250D02*
X-3330Y470D01*
Y470D01*
D68*
X-546Y1738D02*
X1338D01*
X1732Y2132D01*
Y3150D01*
D72*
X-1898Y-4426D02*
Y-2362D01*
Y-1898D01*
X-1650Y-1650D01*
X-2431Y-2362D02*
X-1898D01*
X-4000Y2420D02*
X-3915Y2505D01*
X-4000Y1750D02*
Y2420D01*
X-5000Y750D02*
X-4000Y1750D01*
X-3569Y2206D02*
X-3506Y2269D01*
D73*
X264Y386D02*
X1500Y-850D01*
X246Y386D02*
X264D01*
X199Y433D02*
X246Y386D01*
X161Y433D02*
X199D01*
X1500Y-850D02*
X4200D01*
D75*
X-531Y-1020D02*
X-362Y-852D01*
Y-512D02*
X-150Y-300D01*
X-531Y-2500D02*
X217Y-3248D01*
X-3569Y-2756D02*
Y-1569D01*
X-2512Y-512D01*
X-531Y-2500D02*
Y-1020D01*
X-1650Y-512D02*
X-362D01*
Y-852D02*
Y-512D01*
X-2512D02*
X-1650D01*
X217Y-3248D02*
X2165D01*
D76*
X3346Y5568D02*
D03*
D77*
X1230Y-5060D02*
D03*
X2230D02*
D03*
D78*
X-3740Y4331D02*
D03*
X-108Y-5089D02*
D03*
D79*
X1407Y2240D02*
D03*
X541D02*
D03*
Y1374D02*
D03*
X1407D02*
D03*
D80*
X-433Y-3898D02*
D03*
X-3004Y-4705D02*
D03*
X-2906Y-4055D02*
D03*
X-2246Y-3406D02*
D03*
X-1299Y42D02*
D03*
X-1650Y-512D02*
D03*
X2165Y-3248D02*
D03*
X-1650Y-1650D02*
D03*
X-2431Y-2362D02*
D03*
X-150Y-300D02*
D03*
X2923Y866D02*
D03*
X935Y-1762D02*
D03*
X768Y-2274D02*
D03*
X695Y-2598D02*
D03*
X1093Y-2274D02*
D03*
X1230Y-300D02*
D03*
X433Y-1762D02*
D03*
X-266Y-1250D02*
D03*
X1407Y-2274D02*
D03*
X1299Y-1250D02*
D03*
X3248Y575D02*
D03*
X2490Y433D02*
D03*
X4104Y80D02*
D03*
X66Y3150D02*
D03*
X-177D02*
D03*
X1300Y200D02*
D03*
X161Y433D02*
D03*
X200Y-300D02*
D03*
X1624Y542D02*
D03*
X-1612Y-157D02*
D03*
X1653Y-1083D02*
D03*
X2769Y-3736D02*
D03*
X2046Y3878D02*
D03*
X3839Y4364D02*
D03*
X3511Y4277D02*
D03*
X3171Y4279D02*
D03*
X2843Y4368D02*
D03*
X2074Y5291D02*
D03*
X2046Y5630D02*
D03*
X4134Y4533D02*
D03*
X974Y3190D02*
D03*
X1438Y3140D02*
D03*
X1622Y4727D02*
D03*
X2297Y4127D02*
D03*
X2509Y4339D02*
D03*
X1355Y4459D02*
D03*
X827Y3739D02*
D03*
X805Y3440D02*
D03*
X1598Y3428D02*
D03*
X1803Y3647D02*
D03*
X550Y3573D02*
D03*
X217Y3657D02*
D03*
X2800Y-2800D02*
D03*
X700Y-300D02*
D03*
X3950Y-1644D02*
D03*
X2850D02*
D03*
X1319Y500D02*
D03*
X758Y333D02*
D03*
X-3550Y250D02*
D03*
X-350Y1550D02*
D03*
X-450Y2093D02*
D03*
X-546Y1738D02*
D03*
X2300Y2150D02*
D03*
X-5000Y750D02*
D03*
X3600Y-550D02*
D03*
X-1506Y3350D02*
D03*
X-3150Y396D02*
D03*
X-4111Y799D02*
D03*
X4200Y-850D02*
D03*
X4439Y80D02*
D03*
X1732Y3150D02*
D03*
X1900Y469D02*
D03*
X-4950Y2650D02*
D03*
Y2150D02*
D03*
Y1650D02*
D03*
X-400Y3350D02*
D03*
X-2000Y1400D02*
D03*
Y1916D02*
D03*
Y2400D02*
D03*
X-550Y2900D02*
D03*
X-450Y2350D02*
D03*
X-546Y2603D02*
D03*
D81*
X-3350Y-5000D02*
D03*
X-1100D02*
D03*
Y-3500D02*
D03*
X-1633Y-2960D02*
D03*
X-1211Y-2538D02*
D03*
X5650Y2500D02*
D03*
Y1000D02*
D03*
X6025Y250D02*
D03*
X5650Y-500D02*
D03*
X6025Y-1250D02*
D03*
X5650Y-2000D02*
D03*
X5275Y3250D02*
D03*
X4900Y2500D02*
D03*
X5275Y1750D02*
D03*
Y250D02*
D03*
X4900Y-500D02*
D03*
X5275Y-1250D02*
D03*
X4150Y4000D02*
D03*
X4525Y3250D02*
D03*
X4150Y2500D02*
D03*
X4525Y-1250D02*
D03*
Y-4250D02*
D03*
X3775Y-1250D02*
D03*
Y-2750D02*
D03*
X775Y4750D02*
D03*
X400Y4000D02*
D03*
X25Y4750D02*
D03*
X-1100Y4000D02*
D03*
Y-2000D02*
D03*
X-2225Y-2750D02*
D03*
X-2975Y4750D02*
D03*
Y3250D02*
D03*
X-3725D02*
D03*
Y-4250D02*
D03*
X-4475Y3250D02*
D03*
X-4850Y-500D02*
D03*
Y-2000D02*
D03*
Y-3500D02*
D03*
X-4475Y-4250D02*
D03*
X-5225Y3250D02*
D03*
X-5600Y2500D02*
D03*
X-5225Y1750D02*
D03*
X-5600Y1000D02*
D03*
X-5225Y-1250D02*
D03*
X-5600Y-2000D02*
D03*
X-5225Y-2750D02*
D03*
D82*
X-3499Y-2686D02*
D03*
X-1829Y-4357D02*
D03*
D83*
X-3915Y2505D02*
D03*
X-3506Y2269D02*
D03*
M02*
